<svg id="Layer_1" data-name="Layer 1" xmlns="http://www.w3.org/2000/svg" viewBox="0 0 957.4 1181.1"><defs><style>.cls-1{fill:#d8cdc1;}.cls-2{fill:#c78741;}.cls-3{fill:#c86f31;}.cls-4{fill:#d75b92;}.cls-5{fill:#f5ab5c;}.cls-6{fill:#feeed6;}.cls-7{fill:#fffefd;}.cls-8{fill:#fdfbf7;}.cls-9{fill:#fee3bd;}.cls-10{fill:#ea8f25;}.cls-11{fill:#f9f4ec;}.cls-12{fill:#a2677a;}.cls-13{fill:#7c5032;}.cls-14{fill:#da8629;}.cls-15{fill:#ddc8ab;}.cls-16{fill:#ee6ea4;}.cls-17{fill:#e64e91;}.cls-18{fill:#f297be;}.cls-19{fill:#f49824;}.cls-20{fill:#c9bbb4;}.cls-21{fill:#f5b1cc;}.cls-22{fill:#eaa2c0;}.cls-23{fill:#bc7d96;}.cls-24{fill:#d391ad;}.cls-25{fill:#0b0e0f;}.cls-26{fill:#1ba6cc;}.cls-27{fill:#2c88a1;}.cls-28{fill:#54c1e7;}.cls-29{fill:#d8d9e0;}</style></defs><path class="cls-1" d="M551,101.7c0,27.4,2.9,54.6,7,81.6,3.5,23,7.3,46,11.1,69,.3,1.5,1.3,2.9,2,4.4l-1.1.3-1.7-.3-4.3-2c1-1.7,3-3.4,2.7-4.9-2.9-18.7-6.5-37.4-9.4-56.2-2.2-14.7-3.9-29.5-5.2-44.3s-2.1-31.7-3.1-47.6Z"/><path class="cls-1" d="M821.9,449.7c1.8.5,3.7,1.7,5.3,1.4,17.5-3.1,35-6.1,52.8-5.4v1L827.4,453c-2.7.3-5.5.4-8.3.6Z"/><path class="cls-1" d="M150,649.7l-3,2v-2Z"/><path class="cls-2" d="M680.8,990.7l-15.1,13.7-5.3,4.4H660l-1,1h0l-6.1,3.9c-4.9,1.8-5.4,3.9-4,9.2s1.2,9,1.5,13.5c.1,2.1-.1,4.3-.2,6.4-3.7,5-8.9,7.9-14.9,9.3-.5.1-.9.8-1.4,1.3h-5.7l-11,.7c1.5,8.4,3.1,16.6,4.6,24.9-2.7,8.7-8.7,11.9-17.5,10.9-2.6-.2-5.2.5-7.9.7-6.1.4-12.2.7-18.2,1.2-3,.3-5.9,1-8.9,1.5l-15.3,1-3.9-.7-15-12.8c-2.8-4-5.5-8-8.3-11.9-.9-3.8-1.7-7.6-2.8-12.1-3.9,0-8.2-.2-12.5.1-1.2.1-2.6,1.6-3.2,2.9-1.5,3.3-2.5,6.9-3.8,10.4-1.1,1.8-2.2,3.7-3.4,5.5l-15,15-11,1.9-15.1-3.4h-1.5c-6.5.3-12.9.9-19.4.8a101.5,101.5,0,0,1-13.4-1.4c-6.1-.8-12.8-.4-15.6-7.9l4-2.8c1.2,5.4,5.6,7.3,12.9,5.5-.6-3.2-1.3-6.4-2-9.5h3.6c.9,6,3.3,10.6,9.9,11.8H457c-1.9-11.6-1.8-12.7,1.5-25.4l2.7-8.3h.1l4.7-6.6-1.1-1.5-5.7,4.1c-.1-1.1-.1-2.1-.2-3.2h0l1-1c-.7-2.2-1.5-4.3-2.3-6.5l4.9-3.9c.4,1.8.7,2.8,1,4.5a154.6,154.6,0,0,0,27.8-46.6c-4.5,2.8-8.4,6.1-12.6,9.1-1.4,1-3.4,1.3-5.2,1.9.3-1.7.5-3.4.8-5a5.9,5.9,0,0,1,.6-1.4c17.3-34.6,24.3-71.4,21.7-109.9-.7-11.1-2.9-22.2-4.4-33.2h-1.4c-.7,2.4-1.3,4.7-2,7h0l-.9,3h0l-.9,2c-7.2,15.3-13.7,31-21.9,45.7a152.1,152.1,0,0,1-40,46.4l-4.6-.5c3.3-2.4,3.6-5.5,2.2-9.1s-1.7-4.7-2.5-7c-6.9-24.4-16.7-47.6-27.4-70.4-5.1-10.7-10.1-21.3-11.6-33.3-.8-6-2.8-11.8-4.2-17.8l2.5,1.3a25.3,25.3,0,0,1,1.3-2.2c1.4,5.2,2.8,10.5,4.3,15.8,2.6,9,4.3,18.5,8.1,27,11,24.6,22.2,49.1,29.9,74.9,1.4,4.6,2.9,9,4.5,14.2,11.3-10.2,21.2-20.6,28.5-32.8s14.3-26.9,21.4-40.4c.5-1.2,1.3-2.3,1.7-3.5,3.7-10.7,7.3-21.4,10.9-32,3.9-.9,3.8,2.4,4.3,4.5,1.8,7.6,3.2,15.3,4.9,22.9,2.6,11.7,5.9,23.2,7.9,35a257.2,257.2,0,0,1,4.2,35c1.1,23.4,1.9,46.8,1.7,70.3-.1,14-2.1,28.1-3.3,42.6h14.3c-1.1-8.5-2.3-16.7-3.1-25-3.4-32.9-3.4-65.9,1.1-98.7,2.6-19.4,6.9-38.6,10.6-57.9.2-1.4,2.1-2.6,3.2-3.9a1.2,1.2,0,0,0,.8.4,47.1,47.1,0,0,1-.5,5.4c-9.6,40.2-14.8,80.9-13.1,122.1.9,19.8,3.9,39.4,5.9,59-1.7,16.2,9.1,25.2,20.2,35.7-.5-3.2-.8-5-1-6.8-.9-9-.4-17.7,6.9-24.4.8-.7,2.3-.8,3.5-1.1.1,1.2.1,2.4.2,3.6s-3.2,2.9-4.2,4.7c-3.9,6.5-2.9,13.6-1.7,20.7s1.4,6.3,7.7,5l6.6-2.2c1.9-1.9,4.8-3.6,5.6-5.9,2.3-6.9.2-13.7-2.1-20.3a6.1,6.1,0,0,1-.7-1h0c-.4-.9-.7-1.9-1.1-2.9l-.6-1.2-1.4-1.8h0c-5.8-8.5-13-9.4-20.2-2.1-3.1,3.2-5.4,7-8.1,10.6l-4,5-1.4-.9c-.8-5.3,4-8.4,5.9-12.6,4.3-4.8,8.6-10.4,15.5-10.7s11.9-4.2,17.4-7.2l16.8-3.9c1-7.7,2-15.8,3.2-23.8a473.4,473.4,0,0,1,41.4-135.6c6.3-13.3,12.1-26.7,13.9-41.5.5-4.2,2.4-8.2,3.7-12.3-.2,1.5-.3,2.9-.5,4.5,1.6-2,3-3.8,4.3-5.6l-3,12c-.7,3.9-1.4,7.8-2.2,11.7-3.4,16.8-12.4,31.4-19,47-9.6,22.7-18.2,45.8-24,69.9-3.1,13.3-6.2,26.6-9.4,40,17.2,2.5,33.9,1.9,46.9,15.1l31.3-22.7,1.5-1.1h-.2Zm-105.7,70,.7,2.5c.7,7.7,1.3,15.4,2,24.4h10l5.2-.5c6.1-.3,8.4-4.6,9-9.5a85.8,85.8,0,0,0,.1-16.8c-.2-2.8-1.8-5.5-2.7-8.2l-7.3-2.5-3.2-2.4c1.6-.6,3.2-1.8,4.8-1.7a12.4,12.4,0,0,1,11.2,7.1c2.3,10.8,3,21.6-1,32.3,9.3,1.9,14.5-1.8,13.1-10.6s-4.7-15.4-7.2-23c-10.6-15.9-27.3-18.7-44.1-5.8,2.7,3.8,5.4,7.5,8.2,11.2-.1.2-.1.4.1.5l1.1,3Zm-101.9,27c2.9,1,6,1.8,7.5-1.8a25,25,0,0,0-6.6-28.7,10,10,0,0,1-1.6-2.4c1.9.1,4.2-.4,5.6.6,5.4,3.7,7.8,9.4,8,15.8.1,4.6-.4,9.2-.6,14.4l5-4.5c10.8-9.4,14.1-21.8,15.7-35.5,3.6-30.9,5-61.7,2.6-92.7-1.3-15.8-3.8-31.4-5.8-47.1-.1-1-.8-2-1.8-4.2.2,32.3-7,61.6-19.7,90.6,7-3.1,10.6-9.3,17.6-10.8,0,1.6.3,2.7,0,3.5a200.7,200.7,0,0,1-24.4,45.7l-8.8,11.1,9.1,1c12.3-.4,18.7,7.8,24.3,16.9.7,1.2.3,3.1.4,4.6a18.3,18.3,0,0,1-3.6-2.6c-3.5-3.9-6.5-8.5-10.5-11.7-6.5-5.4-16-3.6-19.5,2.9s-5,14.8-6.5,22.4c-1.1,5.5,1.7,9.3,6.2,10.6Zm148.9-38.9c8.6,2.3,15.5-2.3,15.1-10.8-.3-5.4-2.2-10.7-3.3-16l-1.2-6.4,2.5-.7c1.7,4.5,3.7,8.9,5,13.4s2,9.4,3,14.2c8.3-10.3,1.7-26.4-11.2-31.8-10.9-5.6-22.8-5.6-35-6.8-1.3,9.8-2.6,19-3.7,28.2a2.9,2.9,0,0,0,1,2.5l20.7,13.5c.5-1.7,2.1-4.1,1.9-6.4-.9-6.7-2.6-13.2-3.8-19.9-.3-1.3.3-2.7.5-4l3.3,2.2c1.1,3.8,2.3,7.6,3.4,11.4s-.1,10.5,0,15.7C620.3,1047.7,621.5,1048.2,622.1,1048.8Z"/><path class="cls-2" d="M821.9,449.7l-2.8,3.9c-9.2,14-18.3,28-27.5,41.9-.8,1.1-1.7,2.1-2.6,3.2l-24.2,28.9-3,2.9c-5.5,5.7-11.1,11.4-16.7,17l-1.5,2-12.8,10.7-2,.8-13.7,11.3-2.1,1.1a10.9,10.9,0,0,0-2.7,1.1c-10.3,9-22.5,14.9-34.4,21.2-2.1,1.1-4,2.7-6,4l-8.9,4c-4.6-2.4-7.6-.7-9.4,3.8l-9.6,3.4-1.3.6-3.7,1.2L627,616l-8,2.6-3.9,1.3c-6.8,1.4-13.8,2.1-20.3,4.3-8.3,2.7-16.7,5.8-24.1,10.3-12.6,7.6-25.4,12.2-40.2,8.9-11.1-2.6-22-2-33.1-.1-13.9,2.4-27.9,5.5-41.9,6-20.9.7-41.9-.2-62.8-1.1-8.7-.4-17.2-2.9-25.8-4.4-.1-1.4-.1-2.8-.2-4.1h2.5c35.9,7.6,72,8,108.2,2.7,11.7-1.7,23.3-4,35.4-6.1-2.6-1.6-5-2.8-7.1-4.4s-1.5-2.8-2.2-4.2a20.5,20.5,0,0,1,4.3.9c6.7,3,13.3,6.1,19.8,9.2l3.5.9,1.4.2.9.5c16.5,3,40.2-5.4,45.4-25.9.3-1.1,1.7-2,2.6-2.9.4,1.3,1.5,2.8,1.2,4-.8,3.2-2.2,6.1-3.5,9.6L618,613.6l18.2-5.8c4.7-1.7,9.5-3.1,14.2-5.1,22.2-9.1,43.4-20.2,62.3-35,14.9-11.5,28.7-24.6,42.9-37a6.4,6.4,0,0,0,1-1.3l24.7-27.6,2.3-3.5a22,22,0,0,0,3-3.1L811,458.6c1.3-1.7,2.6-3.3,3.8-5l5.3-9.7,11.7-21.3-1.8-1.3-9,8.1-2,1.3-4.3,2.9-2.7,1.2h-1a.7.7,0,0,0-.6-.3l-.2-4.7h0l.7-1.2h.1l5.1-13-13.1-.9-3-.9.9-.3a2.4,2.4,0,0,0-.6-.8l-3.3-2.8,22.3,2c-.3,4-.6,7.8-1,13,4-3.1,7.3-5.6,10.4-8.3s3.8-4.1,5.9-6a8.7,8.7,0,0,1,2.9-1.4c.4,1.1,1.4,2.5,1.1,3.4a139.7,139.7,0,0,1-6,16.8C829.4,436.3,825.5,442.9,821.9,449.7Z"/><path class="cls-3" d="M654.9,818.7c-1.3,1.8-2.7,3.6-4.3,5.6.2-1.6.3-3,.5-4.5l-.9-4,5.2-8.6c15.1-25.8,22.9-53.5,22.7-83.4,0-3.3-.9-7.4,6.1-5.5-3-8.6-5.5-16-8-23.4l1.6-1.1,8.9,4.1c-2.9-5.5-5-10.1-7.5-14.4s-6.2-8.4-8-13.1c-4.5-11.8-8.2-23.8-12.2-35.7-.4-2.3-.4-4.7-1.3-6.8s-2.3-3.4-3.5-5.1l-.4-.3,1.2-3.9,2,1.7,7,16.7,6.9,18.7,3.7,10.7c.5,1.7.6,3.6,1.5,5.1,2.4,4,5.5,7.5,7.5,11.6,3.1,6.6,5.4,13.6,8.1,20.4l-2.1,4-4.9-5-1.4,1a16.3,16.3,0,0,1,1.3,3.7c1,6,2,12,2.7,18.1.4,3.6-1.5,4.5-4.7,2.4-4.2,25.3-1.4,49.5,9,72.7,2.7,6.1,5.4,12.2,8.5,18.1,8.3,15.1,11.6,31.8,14.7,48.5a36.4,36.4,0,0,0,1.9,7.2c5.8,14.2,8.5,29,10,44.1.2,1.4-.5,2.9-.8,4.3l-4.1-1.1c-.6,7.8-1,16-1.8,24.2-.4,4-1.6,7.8-2.6,11.7-.3,1.1-1.4,2-2.1,3-.9-.9-2-1.6-2.5-2.7-1.2-2.7-2.1-5.5-3.4-9-2.8,5.7-4.8,11.1-7.9,15.6-5.5,8.1-11.6,15.7-17.5,23.4l-.9.5-2.3,2.5-4-.2,6.8-8.7a17.9,17.9,0,0,0,2.8-2c8.8-9.5,14.5-20.8,18.8-32.9.9-2.5,2.1-4.9,3.1-7.3l1.7.2,4.8,10.7c3.8-14.4,2.1-28.4,1.3-42.6l5.8.5c-1.7-7.3-3-14.1-4.8-20.7-2.7-10.5-6.3-20.8-8.5-31.4s-4.8-20.6-9.3-30.3-8.3-16.6-11.6-25.2c-4.2-11.4-7.6-23.1-11-34-.6,1.6-1.5,4.4-2.5,7.1s-2.1,7.4-3.6,10.9C665.5,796.1,660.2,807.4,654.9,818.7Z"/><path class="cls-4" d="M689.6,707.5l2.1-4c3.4,5.7,6.4,11.7,12.9,14.9.9-8,1.8-15.4,2.4-22.8.5-5.6,1.2-11.3.7-16.9-.6-7.3-2.4-14.6-3.6-21.9,5.1-1.4,10.3-3.3,13.8,2.8.2.4.9.6,1.3.7h20.7c-.1-.9-.3-2-.4-2.6a75.4,75.4,0,0,0,7.9-1.1,69,69,0,0,0,7.5-3l.4.4c-12.1,10.2-25.7,11.4-40.2,6.6-1.9-.6-3.7-1.4-6.5-2.4.9,5.6,2.3,10.3,2.2,15-.1,11.9-.9,23.8-1.2,35.8,0,4.5.7,9,.9,13.5.1,1.1.1,2.9-.4,3a4.3,4.3,0,0,1-3.5-.2C699.6,720.7,693.1,715.5,689.6,707.5Z"/><path class="cls-4" d="M747.2,549.6c10.3,9.8,13.6,23.4,8.2,36.4-1.7,4.2-.9,5.9,3.1,7.9,11.3,5.7,15.1,18.4,9.1,29.7-2.8,5.2-4.8,10.3-4.9,16.4a16.8,16.8,0,0,1-7.4,14l-.4-.4c1.2-3,2-6.2,3.5-8.9,2.6-4.5-.8-8.6-.3-13,1-.6,2.4-.9,2.9-1.8s1.4-5,2.9-6.8c4-5.1,1.9-10.8,1.8-16.2,0-2.4-3.1-4.7-4.8-7.1a32.6,32.6,0,0,0-19.8-5.2c-15.9.7-30.6,5.9-45.1,11.6-3.5,1.3-7.2,2.5-10.8,3.7a26,26,0,0,1,3.5-3.2c7.8-4.7,16.8-6.4,25.3-9.1,3-1,5.9-2.4,8.9-2.8,7.5-.9,15.1-1.4,22.6-2.1,1.4-.1,3.9-.4,4-.9,1.1-6.3,7.6-10.3,6.7-17.6-.7-5.4-1-10.5-4.5-15.1-2.1-2.7-3.2-6.1-4.8-9.2Z"/><path class="cls-1" d="M761.8,530.5l3-2.9c1.5.4,3.1,1.1,4.7,1a350.1,350.1,0,0,1,77.1,6.2,8.7,8.7,0,0,1,4.1,2C821.2,532.1,791.7,528.6,761.8,530.5Z"/><path class="cls-1" d="M789,498.7c.9-1.1,1.8-2.1,2.6-3.2,3.3.1,6.5.2,9.7.1,16.7-.6,33.5-1.7,50.2-1.6,7,0,14.1,2.5,21.1,3.8l-.3,1.8c-1.6-.3-3.2-.5-4.8-.9-13.8-3.2-27.7-4.9-41.9-3.2C813.5,496.9,801.2,497.6,789,498.7Z"/><path class="cls-4" d="M743.6,549.5l1.5-2,2.1,2.1-.3.3Z"/><path class="cls-2" d="M683.1,988.2l.9-.5Z"/><path class="cls-3" d="M229.1,517.8l32.1-24.9a31.4,31.4,0,0,0-3.5-3.9C221.3,458.1,201,418,191,372c-4.8-22.2-6.8-44.7-7.3-67.4-.1-4.7,1.2-6.6,6-7.7a295.5,295.5,0,0,1,94.2-7.1c11.4,1,22.8,3.1,34.2,4.7l3,1.5a27.6,27.6,0,0,0,.8,2.7c-7.7-1-15.5-1.8-23.1-3.1-22.2-4-44.6-3.3-66.9-1.8-7.1.5-14.1,1.9-21.2,2.9l.2,2.1h12l1.1.8h3l3.1,1H232c8.4,2.5,16.9,4.5,25,7.7a164.8,164.8,0,0,1,56.8,36.7c6.4,6.3,12.2,13.1,18.2,19.6l-4.3,8c1.9-3.7.7-6.5-2.1-9.3s-7-7.9-10.8-11.7c-33.6-34.3-74.7-50.5-122.4-50.9-3.7-.1-4.8,1.4-4.7,5,.4,20.9,2.2,41.6,6.4,62,8,39.1,23.3,74.6,51.1,103.9,5.2,5.4,11.2,10.1,16.8,15.1l5.1,2.9-3.2,5.2c-1,1.6-1.9,3.2-2.9,4.7a49.7,49.7,0,0,0-5.6,3c-7.9,6-15.6,12.1-23.4,18.1Z"/><path class="cls-2" d="M229.1,517.8l2.9,2.9-.3,1.2-22.1,11.6v2.2l16,3.9a19.6,19.6,0,0,1,3.3,1.5c-1,.9-1.9,2.4-2.9,2.5-8.4.8-16.9,1.4-25.3,1.8a35,35,0,0,1-6.4-.8,15.6,15.6,0,0,0,4.7,5.6L222,568.9l2.6,2.1,44,29.7a6.1,6.1,0,0,0,2.4.4l.8.7c7.6,4.2,15.2,8.6,23,12.6,3.9,1.9,8.2,3.1,12.3,4.7l1.9,1.6c4.1,1.7,8.2,3.7,12.4,5.1,13.7,4.4,27.4,8.6,41.2,12.9,0,3.2.1,6.3.2,9.5l-7.9,19.5c-.8,0-2.1-.3-2.2-.1-1,2.6-1.5,5.4-2.8,7.8s-4.8,7.3-7.2,11c6-14.5,11.9-29,18.1-43.9-8.1-2.3-15.7-4.1-23-6.7-11.6-4-23-8.6-34.5-13-1.4-.5-2.8-.8-4.2-1.2l-2-.9-31.8-17.4-3.4-1.4-42.6-29.5-3.7-2.4-2.4-1.4c-10.1-9.1-20.3-18-30.4-27.2-1.2-1-1.8-2.8-2.6-4.2,1.6,0,3.5-.5,5,.1a46.8,46.8,0,0,0,26,3.2c-1.9-1.1-3.9-2-5.7-3.2s-2.2-2.1-3.4-3.1c1.1-1,1.9-2.3,3.2-3Z"/><path class="cls-3" d="M564,254.7l4.3,2,.6,3.9c-3.6-1.2-7-2.7-10.7-3.6s-6-1.2-7.2,2.8l-1.9,2.9c-.7-.8-1.7-1.6-1.9-2.6-.9-3.9-2.9-6.4-7.1-7l-9-1.4c-1.4-.7-2.8-1.8-4.2-1.9-11.7-.5-23.5-1.2-35.2-1a108.1,108.1,0,0,0-22.6,2.6,264.3,264.3,0,0,0-31.8,9.4c-9.7,3.7-19,8.6-28.4,13.1-.7.3-.7,1.8-1.1,2.7-8.1,1.6-13.9,6.9-19.8,12.1l-14,11.1-2.9-2h.1l2.8-4.1c13.6-9.2,26.6-19.5,40.9-27.3,35.3-19.1,73.1-25.9,113-20.5,5.1.7,10.1,2,15.1,3l11,2.8Z"/><path class="cls-1" d="M344.1,297.7c-.7-3.4-1-6.9-2.1-10.2-11.6-33.7-22.2-67.7-30.2-102.5-2.9-12.4-4.6-25-6.7-37.6a40.1,40.1,0,0,1,0-6h1.3l1.5,12.9c3.2,24.4,9.3,48.1,16.4,71.6s14.7,46.1,22,69.2a36.5,36.5,0,0,1,.6,4.9l-4.8-.8,1.9-1.4.5.4Z"/><path class="cls-1" d="M374,293.7l-2.8,4.1h-2.1L363.7,262c-2.3-15.2-4.6-30.4-6.6-45.6-1.3-9.5-2-19.1-2.9-28.6a50.5,50.5,0,0,1-.1-5.5h1.4c.5,4.1.9,8.3,1.5,12.4,3.7,27.7,7.3,55.4,11.2,83a98.6,98.6,0,0,0,2.8,13.1C371.3,292,373,292.8,374,293.7Z"/><path class="cls-1" d="M261.9,601.9l3.4,1.4c-14.9,4.7-30,9.2-44.8,14.3-9.6,3.2-18.8,7.3-28.2,11a31.2,31.2,0,0,1-5.3,1.1c3.2-1.6,6.2-3.7,9.5-4.9,20.1-7.1,40.3-13.9,60.4-20.9Z"/><path class="cls-1" d="M554,251.7l-11-2.8c0-1.9.4-4-.3-5.6-5.4-14.1-11-28.1-16.5-42.2a5.9,5.9,0,0,1-.3-4,23.3,23.3,0,0,1,2,3.4c5.4,13.6,10.9,27.1,16.1,40.7,1.6,4.4,2.6,9,8.7,9.1C553.2,250.3,553.6,251.2,554,251.7Z"/><path class="cls-1" d="M213.2,568.6l2.4,1.4-9.8,2.3-43.7,9.2a7.3,7.3,0,0,1-2.3-.4,14,14,0,0,1,2.8-1.4l48-10A11.9,11.9,0,0,0,213.2,568.6Z"/><path class="cls-3" d="M369.1,297.8h2v4.8c-5.8,7.6-13,5.6-20.3,3.1h-.5l-1.2-3.9c2.4.4,5,.3,7.2,1.3,4.8,2.1,8.2,1,10.9-3.2a9.4,9.4,0,0,1,1-1h0l1-1Z"/><path class="cls-3" d="M342.1,299.2l4.8.8a2.9,2.9,0,0,0,.2.9c.3,1.2.6,2.5.8,3.8l-21.7-4.1-1-.9-2.1-4.3Z"/><path class="cls-1" d="M512.1,172.6l13.8,21.8-2.1,1.2c-4-7.5-7.9-15.1-11.9-22.7Z"/><path class="cls-1" d="M301.2,256.6l9.4,15-2.1,1.2-7.7-15.9Z"/><path class="cls-1" d="M187.1,629.7l-16.1,8Z"/><path class="cls-1" d="M317.9,287.9c-2.7-4.4-5.5-8.7-8.2-13l1.9-1.1,6.6,13.8Z"/><path class="cls-1" d="M277.2,218.6l9.5,11.7-2,1.4-7.8-12.9Z"/><path class="cls-1" d="M289.4,235.7l7.8,13-1.4.9-7.9-13Z"/><path class="cls-1" d="M265.8,202.9l-7.9-9.1.3-.2,8,9Z"/><path class="cls-1" d="M254,189.8l-7.9-5.9,1.5-1.6,6.5,7.4Z"/><path class="cls-1" d="M171.1,637.7l-9.1,5Z"/><path class="cls-1" d="M321.1,296l-3-1.5c-.1-2.2-.1-4.4-.2-6.6l.3-.3c1.2,2.2,2.5,4.3,3.7,6.4A16.7,16.7,0,0,0,321.1,296Z"/><path class="cls-5" d="M321.1,296a16.7,16.7,0,0,1,.8-2l1.2,1.4,2.1,4.3c-.1.4-.1.7-.2,1l-3.1-2A27.6,27.6,0,0,1,321.1,296Z"/><path class="cls-5" d="M347.9,304.7c-.2-1.3-.5-2.6-.8-3.8l1.9.8,1.2,3.9a14.8,14.8,0,0,0-.1,2.1Z"/><path class="cls-1" d="M275,215.8c-1.1-1.6-2.1-3.3-3.1-4.9l.3-.3,2.9,5.1Z"/><path class="cls-1" d="M155.1,646.7l-5.1,3Z"/><path class="cls-1" d="M160,643.7l-5,3Z"/><path class="cls-1" d="M269.9,208.8l-3-4,.4-.3,2.9,4.1Z"/><path class="cls-1" d="M257.9,193.8l-2.9-3h.1l3.1,2.9Z"/><path class="cls-1" d="M299,253.8c-.7-.7-1.3-1.5-1.9-2.2l1.1-.7.9,2.8Z"/><path class="cls-1" d="M287.7,234l-.7.4-.5-1.1c.3,0,.7-.2.9-.1S287.6,233.7,287.7,234Z"/><path class="cls-1" d="M270.2,208.6l2,2-.3.3-2-2.1Z"/><path class="cls-1" d="M162.1,642.7l-2.1,1Z"/><path class="cls-1" d="M511.9,172.9l-1.2-.8,1.4.5Z"/><path class="cls-1" d="M266.2,202.6a17.4,17.4,0,0,1,1,1.9l-.3.3-1.1-1.9Z"/><path class="cls-1" d="M276.1,216.7a11.8,11.8,0,0,1,1.1,1.9l-.3.2-.9-2Z"/><path class="cls-1" d="M300.1,254.7l1.1,1.9-.4.3a18,18,0,0,0-.8-2.1Z"/><path class="cls-1" d="M368.1,298.8l-1,1Z"/><path class="cls-1" d="M275.1,215.7l1,1H276l-1-1Z"/><path class="cls-1" d="M369.1,297.8l-1,1Z"/><path class="cls-1" d="M254.1,189.7l1,1H255l-1-1Z"/><path class="cls-1" d="M299.1,253.7l1,1H300l-1-1Z"/><path class="cls-3" d="M342.7,686.4c2.4-3.7,5.1-7.2,7.2-11s1.8-5.2,2.8-7.8c.1-.2,1.4.1,2.2.1a11.8,11.8,0,0,1-.7,2c-.2,1.2-.5,2.5-.7,3.7l-.3,2v1.4l-.3,2.8c-1.9,2.2-4.3,4.1-5.6,6.6-3.2,5.9-5.9,12.2-9.3,19.2l8.3-2.9c-2.9,8.5-8.7,14.8-9.1,24.2a35.9,35.9,0,0,1,3.5-3c1.5-1,3.2-1.8,4.9-2.7a49.4,49.4,0,0,1,1.5,5.5c1,7.2,1.2,14.5,2.8,21.6a153.3,153.3,0,0,0,18.7,46.4c3.2,5.3,7,10.2,10.5,15.3h.3l.4,2c.3,1.3.5,2.7.8,4l.4,2-1.3,2.2-2.5-1.3a50.9,50.9,0,0,0-2.2-5.4c-6-10.9-12.2-21.7-18.2-32.6-1.8-3.4-3.1-7.1-4.6-10.6l-1.3.3v11.2c-.9,2-1.9,3.9-2.7,5.9-3.1,8.1-5.4,16.4-9.2,24.1-6.8,13.9-12.6,28-15,43.4a21,21,0,0,1-2.9,6.7c-6.6,11.5-11.3,23.6-12,37l-.7,1.1c0,.1.2.2.4.3l.4-1.3,6.7-5.4,1.1.8-.9,10.5c-.6,4.6-1.2,9.1-1.6,13.6-1.1,10.7.6,21.1,2.9,32.6,2-4.5,3.6-7.8,5.6-12.1,1.5,2.2,2.7,3.4,3.1,4.8,3.4,11.4,9.4,21.4,16.2,31,5.1,7,11.1,9.1,19.8,6.3,3,.1,6.3,1.1,9,.2,7.9-2.4,15.6-5.5,23.3-8.3h1.8v3a12.4,12.4,0,0,1-2.2,1.8c-16.9,7.9-34.3,11.7-52.7,6a33.1,33.1,0,0,0-2.7-2.6c-5.6-5.1-11.2-10.1-16.7-15.3-1.4-1.3-2.3-3.1-3.5-4.7s-3.5-3.8-4.2-5.9c-4.3-14.2-4.3-28.8-4-43.3a3.8,3.8,0,0,0,.1-1l.9-4.2-1.2-.3-.9,3.3-4.8,3.6-2-6.7c-4.7,3.5-9.2,6.6-13.3,10a57.6,57.6,0,0,0-5.9,6.2l-10,10c-11.9,14.2-16.5,30.7-15.9,49,1.3,7,2.6,14,4,21a10.1,10.1,0,0,0,.2,2.5c3.4,14.7,11.4,27,20.5,38.6,3.8,4.8,8.8,8.7,13.2,13h0l1,1.9,18,13c4.5,2.4,8.8,5.3,13.4,7.2,13.7,5.3,28,6.1,42.4,5.7,3.5-.1,6.9-1.8,10.3-2.8,9.8,0,19.1-1.7,27.9-6,3.6-1.3,7.4-2.1,10.7-3.9,13.7-7,26.7-15.2,37.6-26.3.6-.6,1.8-.6,2.7-.9s.1,2.1.2,3.2a17.4,17.4,0,0,0-1.1,1.8l-18.2,15.2-2,1.2-.9.7h.1c-3.5,1.5-7.9,2-8.5,7H425l-10.9,4-4,2.8-34.2,7.4-6,.5h-2c-15.3,0-30.4-1.6-44.9-6.7a112.1,112.1,0,0,1-39.7-29.9c-15.7-18.5-27.1-38.9-29.6-63.6-2.9-28.4,6.2-51.9,27.5-70.6,6.1-5.3,13.1-9.6,19.5-14.6,1.6-1.3,3.3-3.3,3.6-5.3,2.7-14.2,6.7-27.8,14.4-40.2A9.6,9.6,0,0,0,320,854c2.7-16.1,8.6-31,16.1-45.5a98,98,0,0,0,11-52.1c-.3-4.6-1.3-9.1-2-13.7a35.9,35.9,0,0,0,.5-4.6,70.2,70.2,0,0,0-1.3-8,16.9,16.9,0,0,0-1.5-3.7l-3.3,3.6h-.1l-1.4,1.5c0,.3-.1.4-.4.4l-1.1,1.1h-.1c-2-.4-3.9-.7-2.9-3.8s2.5-8.8,3.5-13.3c.3-1.5.5-3.6-.3-4.6-2.6-3-1.3-5.8-.2-8.8l5.1-14.3h0c.3-.7.7-1.3,1-1.9Zm-19,263.1h-1.2c-.6,2.5-2.4,5.7-1.5,7.2,3.9,6.2,8.6,11.7,13,17.5l1.4-.9Z"/><path class="cls-2" d="M341.6,688.4l-5.1,14.3c-1.1,3-2.4,5.8.2,8.8.8,1,.6,3.1.3,4.6-1,4.5-2.1,9-3.5,13.3s.9,3.4,2.9,3.8l-3,2.1c-.5-1.1-1.6-2.3-1.4-3.3.6-4.4,1.7-8.7,2.5-13.1.4-2.3,2.5-4.6-.9-6.5-.6-.4-.6-2.6-.1-3.7C336.1,701.9,338.8,695.2,341.6,688.4Z"/><path class="cls-1" d="M239.8,649.5c2.5-1.8,4.8-3.9,7.4-5.4,6.3-3.6,12.8-6.9,19.2-10.2a5.1,5.1,0,0,1,4.4-.2l-30.6,16.2Z"/><path class="cls-1" d="M297.1,620.7l2,.9c-.5.7-.8,1.7-1.5,1.9L273,633l-.6-1.5c6.2-2.6,12.5-5.1,18.7-7.8Z"/><path class="cls-2" d="M339.5,730l3.3-3.6a16.9,16.9,0,0,1,1.5,3.7,70.2,70.2,0,0,1,1.3,8,35.9,35.9,0,0,1-.5,4.6c-.9-4.5-1.7-9-2.5-13.8Z"/><path class="cls-1" d="M226.2,658.9l-5.8,6.9-1.6-1.6,7.2-5.5Z"/><path class="cls-1" d="M227.9,657.6l4-4.1,1.2,1.6-4.9,2.8Z"/><path class="cls-1" d="M237.1,651.8l-2.2,2-.7-1.2,2.7-1Z"/><path class="cls-1" d="M240.2,649.9l-3.1,1.9-.2-.2,2.9-2.1Z"/><path class="cls-1" d="M228.2,657.9l-2,1-.2-.2,1.9-1.1Z"/><path class="cls-2" d="M342.6,686.5c-.3.6-.7,1.2-1,1.9S342.3,687.1,342.6,686.5Z"/><path class="cls-2" d="M338,731.6l1.4-1.5Z"/><path class="cls-2" d="M336.5,733.1l1.1-1.1Z"/><path class="cls-3" d="M797,409.9l3.3,2.8a2.4,2.4,0,0,1,.6.8l-.9.3-3,.7a18.7,18.7,0,0,0-3.5-1.7c-9.5-2.2-19-4.1-28.4-6.7-7.5-2-14.7-4.9-22.1-7.4l-2-5h1.3c3.1,1.7,3.6-.9,4.6-2.7A187.1,187.1,0,0,0,768,306.4c.5-38.6-8.6-75.2-22.4-110.9-1.2-2.9-2.6-3.2-5.3-2.1q-78.4,32.7-101.8,114.3c-3.3-.1-3.9-1.8-2.7-4.6,5-12,9.6-24.3,15.2-36,10.1-20.9,25.4-37.7,43.7-51.8l15.4-11.6,10-5.9,2.2-.3a6.4,6.4,0,0,1-.2-.7l-2.1.9c-5.5,1.1-11.1,1.8-16.5,3.4-24.3,7.5-47.7,17.4-69.5,30.7-10.5,6.5-20.6,13.8-30.9,20.8,0-1-.1-2-.2-3.1l-.5-.9a2.9,2.9,0,0,0,.2-.9l2.6-2.8c11-6.7,21.9-13.7,33-20.1a293.4,293.4,0,0,1,103.6-36c3-.4,5.2-.3,6.6,3.2,13.2,34.1,22.6,68.9,23.4,105.7.7,34.1-6.2,66.4-22.3,96.6-.2.5-.3,1-.6,1.9C764.3,403.1,780.6,406.6,797,409.9Z"/><path class="cls-1" d="M605.2,244.9l-2.6,2.8c.1-3.6-.1-7.2.5-10.7,4.8-27.2,11.4-53.9,21-79.8.2-.4.6-.7,1.8-.9a19.5,19.5,0,0,1-.8,4.2c-10.3,26.2-16.2,53.6-20.8,81.3C604.1,242.7,604.9,243.8,605.2,244.9Z"/><path class="cls-3" d="M570,257l1.1-.3c12.8,5,12.7,4.9,23.6-3.3,2.3-1.7,4.9-3.1,7.4-4.7-.1.4-.3.8-.4,1.3s-1.1,3.1-1.6,4.7c-4.2,2.9-8.1,6.1-12.4,8.7a10.2,10.2,0,0,1-6.2,1.2c-3.5-.5-6.9-1.9-10.4-2.9Z"/><path class="cls-1" d="M601.7,250c.1-.5.3-.9.4-1.3h.3a4.1,4.1,0,0,0,.5.9Z"/><path class="cls-5" d="M570,257c.3,1.6.7,3.1,1.1,4.7,1.7,8.7,3.2,17.4,5,26.1,2.2,10.7,4.6,21.3,6.9,31.9,1.7,7.7,3.3,15.5,5,23.2.9,3.9,1.9,7.9,2.9,11.8V361h-1.1c-.6-2.1-1.3-4.2-1.9-6.3-1-4.3-1.9-8.6-2.9-12.9-1.7-7.4-3.3-14.7-4.9-22.1-.7-3.7-1.2-7.5-1.9-11.2l-9.3-47.9-.6-3.9Z"/><path class="cls-6" d="M650.2,815.8l.9,4c-1.3,4.1-3.2,8.1-3.7,12.3-1.8,14.8-7.6,28.2-13.9,41.5a473.4,473.4,0,0,0-41.4,135.6c-1.2,8-2.2,16.1-3.2,23.8l-16.8,3.9c.7-2.8,1.7-5.6,1.9-8.4.8-13.2.9-26.5,2.1-39.7,1.7-18.1,3.7-36.1,6.6-54,2.1-13.1,5.8-26,8.8-39,1.6-6.7,2.9-13.4,4.8-20s4.5-13.3,6.7-20.1,3.5-11.7,5.5-17.5c2.6-7.7,6-15.2,8.1-23.1,2.7-9.5,5.1-19.2,6.1-29s.1-19.7-4.6-29.5-11.4-11.9-19-14.6-15.9,2-22.9,6.3c-4.5,2.7-8.4,6.4-12.6,9.6-13,10-21.3,23.2-26,38.7-.8,3-1,6.1-1.5,9.1a5,5,0,0,1-1-2.1c.3-9.4-1.3-18.3-3.9-27.3S524,760.7,517,755.7c-2.3-1.7-7-2.2-9.7-1.1a22.8,22.8,0,0,0-12,12.2c-4.3,10.1-7.7,20.6-7.2,31.7.5,14.2,1.4,28.3,2.1,42.5-3.6,10.6-7.2,21.3-10.9,32-.4,1.2-1.2,2.3-1.7,3.5.1-3.3.7-6.6.4-9.8-1.3-12.2-2.9-24.3-4.2-36.4s-1.9-25.1-3.9-37.5-4.2-24.1-8.2-35.6a99.6,99.6,0,0,0-21-35.9c-5.8-6.3-11.7-12.6-18.5-17.8a265.3,265.3,0,0,0-28.1-18.9c-7.2-4.2-14.4-9.1-23.3-9.1l-.9-14.7a10,10,0,0,1,2.4.4c30.5,9.3,61.4,16.2,93.3,18.7,43.3,3.4,85.3-1.8,125.6-18.9,22.9-9.6,43.1-23.4,62.6-38.5l.4.3c-.2,12.5-.4,25-.5,37.6,0,1.1,1.3,2.2,2,3.3.7-1.1,2-2.3,2-3.4.2-5,0-9.9-.1-14.9.9,1.5,2.2,2.8,2.7,4.4A283.2,283.2,0,0,1,673,705.9c.8,6.7,1.2,13.6,1.8,20.7l-3.8-.8v0c-.1,10.3,1.6,20.8-1.2,32.3l-3.8-5c-1.6,6.4-3,12.2-4.5,18C657.7,786,654,800.9,650.2,815.8Z"/><path class="cls-7" d="M370.8,675.5c8.9,0,16.1,4.9,23.3,9.1a265.3,265.3,0,0,1,28.1,18.9c6.8,5.2,12.7,11.5,18.5,17.8a99.6,99.6,0,0,1,21,35.9c4,11.5,6.3,23.6,8.2,35.6s2.5,25,3.9,37.5,2.9,24.2,4.2,36.4c.3,3.2-.3,6.5-.4,9.8-7.1,13.5-13.6,27.3-21.4,40.4s-17.2,22.6-28.5,32.8c-1.6-5.2-3.1-9.6-4.5-14.2-7.7-25.8-18.9-50.3-29.9-74.9-3.8-8.5-5.5-18-8.1-27-1.5-5.3-2.9-10.6-4.3-15.8a14.2,14.2,0,0,1-.4-2c-.3-1.3-.5-2.7-.8-4a14.2,14.2,0,0,0-.4-2c-.1-1.2-.2-2.4-.4-3.6-2-16.9-8.8-32.1-15.6-47.5l-2.6,4.7h-1.2c-1.5-11.4-2.9-22.7-4.4-34.2l-4,5.3c-.5-3.2-1-4.9-1-6.6-.1-7.4-.5-14.7,0-22s1.8-17.5,2.7-26.2l.3-2.8c0-.5.1-.9.1-1.4l.3-2c.2-1.2.5-2.5.7-3.7a11.8,11.8,0,0,0,.7-2l7.9-19.5,3.2,10.7c.6,5.2,1,10.4,1.8,15.5C367.8,674.9,369.7,675.2,370.8,675.5Z"/><path class="cls-7" d="M536.1,805.7c.5-3,.7-6.1,1.5-9.1,4.7-15.5,13-28.7,26-38.7,4.2-3.2,8.1-6.9,12.6-9.6,7-4.3,14.4-9.3,22.9-6.3s14.8,5.7,19,14.6,5.7,19.5,4.6,29.5-3.4,19.5-6.1,29c-2.1,7.9-5.5,15.4-8.1,23.1-2,5.8-3.6,11.7-5.5,17.5s-4.8,13.3-6.7,20.1-3.2,13.3-4.8,20c-3,13-6.7,25.9-8.8,39-2.9,17.9-4.9,35.9-6.6,54-1.2,13.2-1.3,26.5-2.1,39.7-.2,2.8-1.2,5.6-1.9,8.4-5.5,3-10.4,6.9-17.4,7.2s-11.2,5.9-15.5,10.7c-3.5-.3-7.8,3.5-10.1-2.1-2-19.6-5-39.2-5.9-59-1.7-41.2,3.5-81.9,13.1-122.1a47.1,47.1,0,0,0,.5-5.4c-.3-1.1-.5-2.3-.8-3.5v-10c0-4.6,0-9.3.1-14Z"/><path class="cls-6" d="M654.9,818.7c5.3-11.3,10.6-22.6,15.7-33.9,1.5-3.5,2.4-7.3,3.6-10.9a14.8,14.8,0,0,1,1,2.7c1.9,8,3.1,16.3,5.8,24.1,4.2,12.3,9.9,23.9,14,36.2,5.1,15.3,9.2,30.9,13.6,46.3.2.7-1,1.7-1.6,2.6s-.2-.8,0-.1-.2-.3.1,0c.2,2.1.5,4.2.8,6.3l3.3,22.4-.7,4.1-3.7-1.6h0l-1.7-2.8-1,1.8c-2.8,12.5-5,25.3-8.7,37.6-3,9.7-7.8,18.8-11.8,28.3l-6.8,8.7h.2l-1.5,1.1-31.3,22.7c-13-13.2-29.7-12.6-46.9-15.1,3.2-13.4,6.3-26.7,9.4-40a33,33,0,0,0,1.8,3.2,4.5,4.5,0,0,0,2-1c6.7-7.9,13.4-15.8,20-23.8a76,76,0,0,0,7.6-10.3c5.1-9.3,10.4-18.7,14.6-28.5,5.6-13.4,7.3-27.9,7.1-42.3-.1-8.3-2.5-16.5-3.7-24.8-.6-3.7-2.2-2.9-4.2-1.1Z"/><path class="cls-8" d="M350.8,781.6V770.4l1.3-.3c1.5,3.5,2.8,7.2,4.6,10.6,6,10.9,12.2,21.7,18.2,32.6a50.9,50.9,0,0,1,2.2,5.4c1.4,6,3.4,11.8,4.2,17.8,1.5,12,6.5,22.6,11.6,33.3,10.7,22.8,20.5,46,27.4,70.4-.2,3.3,0,7.3-3.9,8.3-6.8,1.8-13.9,4.3-20.8,3.9-9.8-.7-20.1-2.4-29.2-6-12.3-5-24.1-11.6-32.5-22.6h0a.4.4,0,0,0,.1-.3c0-.2-.2-.4-.3-.6l-.8-5.1h.4c.6-7.6,1.3-15.1,1.7-22.6.2-4,0-8,0-12h-1.4c-.2.9-.3,1.8-.5,2.6l-4.6,9.7a4.1,4.1,0,0,1-1.1-3c-.2-23.3,5.6-45.2,15.2-66.4C348.9,812.2,352.7,797.3,350.8,781.6Z"/><path class="cls-9" d="M536.1,805.7v33c-.1,4.7-.1,9.4-.1,14v13.1c-1.1,1.3-3,2.5-3.2,3.9-3.7,19.3-8,38.5-10.6,57.9-4.5,32.8-4.5,65.8-1.1,98.7.8,8.3,2,16.5,3.1,25H509.9c1.2-14.5,3.2-28.6,3.3-42.6.2-23.5-.6-46.9-1.7-70.3a257.2,257.2,0,0,0-4.2-35c-2-11.8-5.3-23.3-7.9-35-1.7-7.6-3.1-15.3-4.9-22.9-.5-2.1-.4-5.4-4.3-4.5-.7-14.2-1.6-28.3-2.1-42.5-.5-11.1,2.9-21.6,7.2-31.7a22.8,22.8,0,0,1,12-12.2c2.7-1.1,7.4-.6,9.7,1.1,7,5,11.6,12.1,14.2,20.6s4.2,17.9,3.9,27.3A5,5,0,0,0,536.1,805.7Z"/><path class="cls-8" d="M425.2,956.8a152.1,152.1,0,0,0,40-46.4c8.2-14.7,14.7-30.4,21.9-45.7l.9-2h0l.9-3h0c1.1,1.2,2.9,2.2,3,3.4.3,4.4.2,8.8.1,13.2-.3,14.8-.3,29.6-1.1,44.3a99.1,99.1,0,0,1-3.4,20.9c-2.7,9.9-5.6,19.7-9.7,29s-9.7,18.3-15.3,28.5l-2.1-4.5L441.3,1017c-.2-2.5-.3-3.5-.3-4.4s2.1-4.5,3.1-6.8l5.8-11.1v-.2l.6-.8c.2-.1.3-.2.3-.4,2.9-6.2,5.9-12.4,8.9-18.5l-1.4-.9-5.7,7.6c-8.7,8.6-16.4,18.4-27.8,24.7l6.7-22.8-1.4-.9L415,991.7l-1.2.8h0l-3.7.4c.4-1.3.6-2.2.8-3.1l1-1.7,1.2-2.2h0l6.3-11.8h-.1l3.9-8.1h0c.6-2,1.1-4,1.6-6s-.1-1.4-.2-2.1Z"/><path class="cls-6" d="M474.7,1030.6a200.7,200.7,0,0,0,24.4-45.7c.3-.8,0-1.9,0-3.5-7,1.5-10.6,7.7-17.6,10.8,12.7-29,19.9-58.3,19.7-90.6,1,2.2,1.7,3.2,1.8,4.2,2,15.7,4.5,31.3,5.8,47.1,2.4,31,1,61.8-2.6,92.7-1.6,13.7-4.9,26.1-15.7,35.5l-5,4.5c.2-5.2.7-9.8.6-14.4-.2-6.4-2.6-12.1-8-15.8-1.4-1-3.7-.5-5.6-.6l-6.4-2c3.5-6.5,13-8.3,19.5-2.9,4,3.2,7,7.8,10.5,11.7a18.3,18.3,0,0,0,3.6,2.6c-.1-1.5.3-3.4-.4-4.6-5.6-9.1-12-17.3-24.3-16.9.4-6.1,3.9-1.1,5.8-1.4C481.8,1036.9,479.2,1032.5,474.7,1030.6Z"/><path class="cls-6" d="M441,1012.6c0,.9.1,1.9.3,4.4l19.1-22.6,2.1,4.5c5.6-10.2,11.2-19,15.3-28.5s7-19.1,9.7-29a99.1,99.1,0,0,0,3.4-20.9c.8-14.7.8-29.5,1.1-44.3.1-4.4.2-8.8-.1-13.2-.1-1.2-1.9-2.2-3-3.4.7-2.3,1.3-4.6,2-7h1.4c1.5,11,3.7,22.1,4.4,33.2,2.6,38.5-4.4,75.3-21.7,109.9a5.9,5.9,0,0,0-.6,1.4c-.3,1.6-.5,3.3-.8,5,1.8-.6,3.8-.9,5.2-1.9,4.2-3,8.1-6.3,12.6-9.1a154.6,154.6,0,0,1-27.8,46.6c-.3-1.7-.6-2.7-1-4.5l-4.9,3.9h0l-3.6,2.4-1.1,1-7,5h0l-5.5,1.8,1.3-8.7.3-1.1,3.9-7-1.2-.9-5.1,4.5h0l-1.7,1.4h0l-4,3h0l-5.6,3.3c-2.9.1-3.7-1.5-3.4-4.1,1.8-2.9,3.6-5.8,5.3-8.7h-.1a21.2,21.2,0,0,0,1.1-2.1h0l2.1-3h-.2l1.3-1.2Z"/><path class="cls-8" d="M651.9,830.7c2-1.8,3.6-2.6,4.2,1.1,1.2,8.3,3.6,16.5,3.7,24.8.2,14.4-1.5,28.9-7.1,42.3-4.2,9.8-9.5,19.2-14.6,28.5a76,76,0,0,1-7.6,10.3c-6.6,8-13.3,15.9-20,23.8a4.5,4.5,0,0,1-2,1,33,33,0,0,1-1.8-3.2c5.8-24.1,14.4-47.2,24-69.9,6.6-15.6,15.6-30.2,19-47C650.5,838.5,651.2,834.6,651.9,830.7Z"/><path class="cls-6" d="M333.9,923.8c8.4,11,20.2,17.6,32.5,22.6,9.1,3.6,19.4,5.3,29.2,6,6.9.4,14-2.1,20.8-3.9,3.9-1,3.7-5,3.9-8.3.8,2.3,1.6,4.7,2.5,7s1.1,6.7-2.2,9.1h-.1l-10.6,7.4h.1l-2.3,1.6h-.1l-13.3,7.5c-7.7,2.8-15.4,5.9-23.3,8.3-2.7.9-6-.1-9-.2-4.6-6.3-9.4-12.4-13.7-18.9C340.7,950.4,335,938,333.9,923.8Z"/><path class="cls-10" d="M430.3,1029.1c-1.7,2.9-3.5,5.8-5.3,8.7l-10.8,11.9,1,1,11.8-7,7-5.1h0l4-3h0l1.7-1.4h0l2.4,3.4-.3,1.1c-.9,1.5-2.3,3-2.6,4.7s.5,3.4.9,5.1l5.9-2.9h0c2.5-1.4,6.8-.4,7-5l1.1-1,3.6-2.4h0c.8,2.2,1.6,4.3,2.3,6.5l-1,1h0c-.9.3-2.1.3-2.7.9-10.9,11.1-23.9,19.3-37.6,26.3-3.3,1.8-7.1,2.6-10.7,3.9l-2.2-2.6-17.7-23.5c4.6-1.3,9.6-2.1,13.9-4.1,6.3-2.9,12.2-6.5,18.1-9.9C423.6,1033.6,426.9,1031.3,430.3,1029.1Z"/><path class="cls-11" d="M588.9,1047.7l3.2,2.4,7.3,2.5c.9,2.7,2.5,5.4,2.7,8.2a85.8,85.8,0,0,1-.1,16.8c-.6,4.9-2.9,9.2-9,9.5a41,41,0,0,0-.2-23.3l-5,23.8h-10c-.7-9-1.3-16.7-2-24.4-.2-.8-.5-1.6-.7-2.5h0l-1.1-3c-.2-.1-.2-.3-.1-.5C575.4,1048.5,580.4,1045.4,588.9,1047.7Z"/><path class="cls-6" d="M616.9,1020l-3.3-2.2c-.2,1.3-.8,2.7-.5,4,1.2,6.7,2.9,13.2,3.8,19.9.2,2.3-1.4,4.7-1.9,6.4l-20.7-13.5a2.9,2.9,0,0,1-1-2.5c1.1-9.2,2.4-18.4,3.7-28.2,12.2,1.2,24.1,1.2,35,6.8-1.9.1-3.9-.1-5.8.1C619.2,1011.5,617.3,1013.4,616.9,1020Z"/><path class="cls-11" d="M616.9,1020c.4-6.6,2.3-8.5,9.3-9.2,1.9-.2,3.9,0,5.8-.1,12.9,5.4,19.5,21.5,11.2,31.8-1-4.8-1.7-9.6-3-14.2s-3.3-8.9-5-13.4l-2.5.7,1.2,6.4c1.1,5.3,3,10.6,3.3,16,.4,8.5-6.5,13.1-15.1,10.8a21.7,21.7,0,0,0-1.8-17.4C619.2,1027.6,618,1023.8,616.9,1020Z"/><path class="cls-6" d="M529.1,1052.7c2.3,5.6,6.6,1.8,10.1,2.1-1.9,4.2-6.7,7.3-5.9,12.6l1.4.9,4-5c2.7-3.6,5-7.4,8.1-10.6,7.2-7.3,14.4-6.4,20.2,2.1-4.7-1.6-5.5,3.1-8.1,4.9-.1-1.2-.1-2.4-.2-3.6-1.2.3-2.7.4-3.5,1.1-7.3,6.7-7.8,15.4-6.9,24.4.2,1.8.5,3.6,1,6.8C538.2,1077.9,527.4,1068.9,529.1,1052.7Z"/><path class="cls-11" d="M466.1,1052.8l6.4,2a10,10,0,0,0,1.6,2.4,25,25,0,0,1,6.6,28.7c-1.5,3.6-4.6,2.8-7.5,1.8-1.3-6.1-2.6-12.1-4.1-18.7-3.6,5.5-5.3,10.8-3.3,16.8-4.5-1.3-7.3-5.1-6.2-10.6C461.1,1067.6,463.9,1060.2,466.1,1052.8Z"/><path class="cls-11" d="M558.9,1059.7c2.6-1.8,3.4-6.5,8.1-4.9h0l1.4,1.8.6,1.2c.4,1,.7,2,1.1,2.9h0a6.1,6.1,0,0,0,.7,1c2.3,6.6,4.4,13.4,2.1,20.3-.8,2.3-3.7,4-5.6,5.9,1.9-5.9.6-11.3-2.9-17-1.3,6.9-2.5,13-3.7,19.2-6.3,1.3-6.8.9-7.7-5s-2.2-14.2,1.7-20.7C555.7,1062.6,557.5,1061.2,558.9,1059.7Z"/><path class="cls-11" d="M439.9,1064.9l18.2-15.2,3.2,2.2h-.1c-3.5,1.9-3.6,4.9-2.7,8.3-3.3,12.7-3.4,13.8-1.5,25.4H444.7Z"/><path class="cls-6" d="M588.9,1047.7c-8.5-2.3-13.5.8-15,9.5-2.8-3.7-5.5-7.4-8.2-11.2,16.8-12.9,33.5-10.1,44.1,5.8l-4.6-1.2-.3,2.5a12.4,12.4,0,0,0-11.2-7.1C592.1,1045.9,590.5,1047.1,588.9,1047.7Z"/><path class="cls-11" d="M604.9,1053.1l.3-2.5,4.6,1.2c2.5,7.6,5.9,15.2,7.2,23s-3.8,12.5-13.1,10.6C607.9,1074.7,607.2,1063.9,604.9,1053.1Z"/><path class="cls-12" d="M526.8,1068.9l-22.3,1.3c1.3-3.5,2.3-7.1,3.8-10.4.6-1.3,2-2.8,3.2-2.9,4.3-.3,8.6-.1,12.5-.1C525.1,1061.3,525.9,1065.1,526.8,1068.9Z"/><path class="cls-13" d="M621.8,1079l1.7,1c4.6,2.9,4.7,5.4-.3,7.6a48,48,0,0,1-14.3,4.2c-12.4,1.2-24.8,1.6-37.3,2.2-.7.1-1.5-.5-2.3-.7,3-.5,5.9-1.2,8.9-1.5,6-.5,12.1-.8,18.2-1.2,2.7-.2,5.3-.9,7.9-.7C613.1,1090.9,619.1,1087.7,621.8,1079Z"/><path class="cls-13" d="M499.6,1088.4l-13.5,2.3,15-15c1.6.5,3.3.7,4.7,1.6s4,3,6,4.5a44.8,44.8,0,0,1-5.7,4.3A35.8,35.8,0,0,1,499.6,1088.4Z"/><path class="cls-11" d="M428.6,1073.7c.6-5,5-5.5,8.5-7,.5,6.3.9,12.5,1.4,18.8C431.9,1084.3,429.5,1079.7,428.6,1073.7Z"/><path class="cls-11" d="M474.7,1030.6c4.5,1.9,7.1,6.3,6.1,10.7-1.9.3-5.4-4.7-5.8,1.4l-9.1-1Z"/><path class="cls-13" d="M587.8,1087.6l5-23.8a41,41,0,0,1,.2,23.3Z"/><path class="cls-13" d="M465.8,1085.8c-2-6-.3-11.3,3.3-16.8,1.5,6.6,2.8,12.6,4.1,18.7Z"/><path class="cls-13" d="M438.5,1085.5c-.5-6.3-.9-12.5-1.4-18.8H437l.9-.7,2-1.2,4.8,20.7Z"/><path class="cls-9" d="M414.1,1077.8l10.9-4c.7,3.1,1.4,6.3,2,9.5C419.7,1085.1,415.3,1083.2,414.1,1077.8Z"/><path class="cls-13" d="M560.7,1090.1c1.2-6.2,2.4-12.3,3.7-19.2,3.5,5.7,4.8,11.1,2.9,17Z"/><path class="cls-12" d="M650.2,1042.7c4.2,3,4.3,6.3-.3,7.8s-10.6,1.9-16,2.8c.5-.5.9-1.2,1.4-1.3C641.3,1050.6,646.5,1047.7,650.2,1042.7Z"/><path class="cls-14" d="M425.2,956.8l-.6.9-3.2,2.2-19.3,11.9,5.5-6.5h.1l2.3-1.6h-.1c4.8-.7,8.8-2.6,10.6-7.4h.1Z"/><path class="cls-13" d="M620.3,1031.4a21.7,21.7,0,0,1,1.8,17.4c-.6-.6-1.8-1.1-1.8-1.7C620.2,1041.9,620.3,1036.7,620.3,1031.4Z"/><path class="cls-9" d="M461.3,1051.9l-3.2-2.2a17.4,17.4,0,0,1,1.1-1.8l5.7-4.1,1.1,1.5Z"/><path class="cls-6" d="M599.4,1052.6l-7.3-2.5Z"/><path class="cls-9" d="M458.5,1060.2c-.9-3.4-.8-6.4,2.7-8.3Z"/><path class="cls-6" d="M536,865.8v-3.1c.3,1.2.5,2.4.8,3.5A1.2,1.2,0,0,1,536,865.8Z"/><path class="cls-6" d="M488.9,859.7l-.9,3Z"/><path class="cls-6" d="M570.1,1060.7c-.4-.9-.7-1.9-1.1-2.9C569.4,1058.8,569.7,1059.8,570.1,1060.7Z"/><path class="cls-6" d="M574,1057.7l1.1,3Z"/><path class="cls-6" d="M488,862.7l-.9,2Z"/><path class="cls-12" d="M629.9,1053.3h0Z"/><path class="cls-6" d="M568.4,1056.6l-1.4-1.8Z"/><path class="cls-6" d="M575.1,1060.7c.2.9.5,1.7.7,2.5C575.6,1062.4,575.3,1061.6,575.1,1060.7Z"/><path class="cls-15" d="M660,1008.7l-1,1Z"/><path class="cls-6" d="M570.8,1061.7a6.1,6.1,0,0,1-.7-1A6.1,6.1,0,0,0,570.8,1061.7Z"/><path class="cls-3" d="M459,1044.7l1-1Z"/><path class="cls-3" d="M675.5,991.7l1.5-1.1Z"/><path class="cls-8" d="M307.1,619.1c-4.1-1.6-8.4-2.8-12.3-4.7-7.8-4-15.4-8.4-23-12.6C345.2,584.1,420,577,495.4,575.6a10.5,10.5,0,0,0-5.2-.8c-26.8,1.3-53.7,2.3-80.5,3.9-15.2,1-30.4,2.1-45.5,4.4-24.7,3.7-49.3,8.2-73.8,12.7-6.6,1.2-13,3.5-19.4,5.3a6.1,6.1,0,0,1-2.4-.4l-44-29.7c1.5-.7,3-1.9,4.6-2.1,4.1-.7,8.3-.9,12.4-1.3,20-1.6,39.9-3.5,59.9-4.8,14.1-.8,28.3-.7,42.4-1.1,1.1-.1,2.2-.6,3.3-.8,3.3-.1,6.6-.2,9.9-.1l45.9.7,95,3.9a25.4,25.4,0,0,0-8.1-1.6c-7.6-.5-15.2-.8-22.8-1.2L403,559.8H339.1c-8.8.3-17.6.3-26.4.9q-36.1,2.3-72.4,5.1c-6.1.5-12.2,2.1-18.3,3.1l-22.9-18.7a15.6,15.6,0,0,1-4.7-5.6,35,35,0,0,0,6.4.8c8.4-.4,16.9-1,25.3-1.8,1-.1,1.9-1.6,2.9-2.5a19.6,19.6,0,0,0-3.3-1.5l-16-3.9v-2.2l22.1-11.6h.1a7.1,7.1,0,0,0,1,1.4c5.9,5,11.3,10.9,17.9,14.7,18.7,10.8,39.7,14.1,60.8,16a18,18,0,0,0,3.7-.4,23,23,0,0,0-.9-2.5,70.1,70.1,0,0,1-10.1-41.6c.7-9,3.1-17.9,4.8-26.8l6.2-11.9h-.1l1.2-2h-.2l1.1-1.1h-.1l1-1.1h0c.5-.7.9-1.4,1.4-2a38.3,38.3,0,0,0,2.9-2.8c16.1-18.9,36.7-27.8,61.5-27.2,36.2.8,68.2,28.5,73.2,64.2,1.3,8.9.6,18.1.8,27.2l-.9,2.5c-8.1,6.3-16.8,11.5-27.1,13.3,21.9-35.4,1.1-79.4-39.4-83.2-22.6-2.2-43.9,9.4-53.6,29.1a55.2,55.2,0,0,0,9.3,61.7c-3.3,1.2-6.6,2.3-9.8,3.8-1,.4-1.6,1.6-2.3,2.5a21.9,21.9,0,0,0,3.3,1.2,7.1,7.1,0,0,0,2.4-.6c26.7-6.7,53.8-8.8,81.2-7.5a7.6,7.6,0,0,0,3,0c13.3-4.5,26.9-8.6,37.4-18.9h0l5.7-4.3,2.1-1.9,1.1-1,11.9-9.1a1,1,0,0,0,.8-.5l1.4-1.2h0l3.8-2.4h-.1l2-1.1h0l1.2-.8h0l25.3-8.6,2.4-.6,3.7-.3,21.3-.5h2.1l1.2.4h0c6.2,3.7,12.6,7.3,18.7,11.3a18.2,18.2,0,0,1,7,9.1c-5.4-.4-10-1-14.7-1-1.6,0-3.1,1.8-4.7,2.7-3.9-1.7-7.6-4.3-11.7-4.9a69.6,69.6,0,0,0-18.8.1c-11.6,1.8-22.5,6-31.4,14.2s-7.3,14.7,1.1,20.9,21.1,9.2,33.1,7.1c1.2,5.9,2.4,11.7,3.4,17.6a10.6,10.6,0,0,1-.2,5.3,26.2,26.2,0,0,1-29.9,16.2c-6.1-1.3-12.1-3.6-18.2-5.2-1.1-.3-2.6.4-3.9.6.8,1,1.4,2.7,2.4,3.1,5.8,1.9,11.6,4.2,17.6,5.2,16.7,2.8,26.4-2.1,34.9-16.6a14.5,14.5,0,0,1,1.7-1.9c9.4,3.8,18.4,9.4,29.1,6.3l2.3-.5,1.9-.3h7c.2,5.5,1.6,11.3.4,16.5-2,8.5-7.4,15.4-14.3,20.8-4,3.2-9,5.4-12.3,9.2s-6,4.1-9.8,4.4c-1.8.2-3.6.2-5.5.3l-1.4-.2-3.5-.9c-6.5-3.1-13.1-6.2-19.8-9.2a20.5,20.5,0,0,0-4.3-.9c.7,1.4,1.1,3.2,2.2,4.2s4.5,2.8,7.1,4.4c-12.1,2.1-23.7,4.4-35.4,6.1-36.2,5.3-72.3,4.9-108.2-2.7h-2.5l-4.1-1c-13.8-4.3-27.5-8.5-41.2-12.9-4.2-1.4-8.3-3.4-12.4-5.1a18,18,0,0,1,3.7-2.2c8.7-2.7,17.4-5.8,26.3-7.6,28.9-6.1,57.7-12.3,86.7-17.1,23.2-3.8,46.7-5.5,70.1-8.1l8.7-1.5v-1.3c-5.4.4-10.7.4-16,1-16,1.8-31.9,3.5-47.8,5.9-20.2,2.9-40.4,5.7-60.3,9.9-22,4.6-43.8,10.6-65.6,16.1C312.1,616.5,309.7,618,307.1,619.1Z"/><path class="cls-6" d="M553.6,520.6c1.6-.9,3.1-2.7,4.7-2.7,4.7,0,9.3.6,14.7,1a18.2,18.2,0,0,0-7-9.1c-6.1-4-12.5-7.6-18.7-11.3a47.1,47.1,0,0,1,5.4.5l38.3,9.8,3.9.5,2.1.2c13,1.7,25.3.6,37.5-5,9.8-4.4,20.3-7.2,30.5-10.8,5.7-.7,11.4-1.2,17.1-2.1.8-.2,1.3-1.8,2-2.7l2.5-.4,6.3,2.4-7.5,5.5,4.6.3.5.3-.5-.3c1.2-1,2.2-2.3,3.5-2.9,5.2-2.4,10.4-4.6,15.6-6.9l32-11.1,7.3-1.9-.6-1.7-6.8,3.4-5.2-1.1c11.2-8.4,23-16.1,33.5-25.2A130.1,130.1,0,0,0,797,414.5l3-.7,3,.9c3.4,1.3,8.1.9,8.6,6,.2,2.6-.4,5.3-.6,7.9h-.1l-.7,1.2h0c-.7.8-2,1.6-2,2.4s1.4,1.5,2.2,2.3a.7.7,0,0,1,.6.3h1l2.7-1.2,4,.9.3-3.8,2-1.3c.1,1.7,1.1,4.4.3,5.1-3.6,2.9-1.9,6.1-1.2,9.4l-5.3,9.7c-8.3,2.1-16.8,4.1-25.1,6.4-5.6,1.6-11.1,3.8-16.7,5.7l-6.2.8.4,1.6,5.9-2.3c10.5-2.7,21-5.5,31.6-8,2-.4,4.2.5,6.3.8l-24.4,36.6a22,22,0,0,1-3,3.1c-.7-.1-1.3-.5-1.9-.4-15,2.8-30,5.1-44.8,8.5-23.9,5.5-47.6,11.4-71.4,17.5-6.9,1.8-13.6,4.5-20.5,6.8h.1l-32.1,9h.1l-16,4c-1.1-2.3-2.1-4.7-3.1-7l4.5-3.1-.6-.9-4.8,2c-4-5.6-8.5-10.5-16.3-12l6.3,16a14.1,14.1,0,0,0-.1,2h0l-13,6-10.9,4.4.9,1.8,10.1-6.1,12.9-5c.1,2,.1,4,.1,6l-5.5,2.2L554,558.7l-6,2-1.3.4.2.4,1.2-.7,6-2,7.6-1.9,21.3-6.2c-1,4.7-1.9,9.4-2.9,14.1l-16.9,7.5a3.6,3.6,0,0,1,.4.9l12.4-3.6a64.5,64.5,0,0,1-4.9,7.5c-1.8,2.3-4.1,4.2-6.1,6.3-7.1,2.5-14,1-20.9-1.1s-11.8-6.2-12.4-14.1c-.2-3.6-1.4-7.1-2.2-10.7,1.2-.8,2.3-1.7,3.6-2.5,3.7-2.3,7.9-4,11.2-6.9C554,539.7,557.1,529.8,553.6,520.6Zm65.4,3.1-18.8,7.4,1,2.2,17.9-9.5,3.3-1.1-.6-1.3Zm5.4-3.4c.2.6.5,1.1.7,1.7l57.3-24.2-.7-1.7Zm139.9-51.4-.5-1.6-13.1,4.4.5,1.5Z"/><path class="cls-6" d="M532.5,639c1.9-.1,3.7-.1,5.5-.3,3.8-.3,6.9-1,9.8-4.4s8.3-6,12.3-9.2c6.9-5.4,12.3-12.3,14.3-20.8,1.2-5.2-.2-11-.4-16.5a23.2,23.2,0,0,1,3.8-2c10.2-3.2,18.2-13.1,19.3-24l2.3-1c31.2-9.8,62.6-18.7,95.1-23.1,20.3-2.7,40.8-4.7,61.1-7-14.2,12.4-28,25.5-42.9,37-18.9,14.8-40.1,25.9-62.3,35-4.7,2-9.5,3.4-14.2,5.1a57.3,57.3,0,0,0-5.6-1.4,8.6,8.6,0,0,0-3.9.6,21.8,21.8,0,0,0-3.6,2.6l-5.1,4-38.9,10.7c1.3-3.5,2.7-6.4,3.5-9.6.3-1.2-.8-2.7-1.2-4-.9.9-2.3,1.8-2.6,2.9-5.2,20.5-28.9,28.9-45.4,25.9Z"/><path class="cls-16" d="M366.9,643.8c8.6,1.5,17.1,4,25.8,4.4,20.9.9,41.9,1.8,62.8,1.1,14-.5,28-3.6,41.9-6,11.1-1.9,22-2.5,33.1.1,14.8,3.3,27.6-1.3,40.2-8.9,7.4-4.5,15.8-7.6,24.1-10.3,6.5-2.2,13.5-2.9,20.3-4.3l3.9-1.3,8-2.6c2.5,2.1,6.6.7,10-3.3l3.7-1.2,1.3-.6,9.6-3.4c3.9,2.8,3.5,9.2-.7,11.7l-2.9-3.5c-1,3.2-1,6.7-2.6,7.9-11.8,8.3-23.5,16.8-35.9,23.9a191.3,191.3,0,0,1-33,14.8c-12.1,4.1-24.9,6.4-37.3,9.5-.7-1.1-1.1-2.6-2.1-3.3-7.2-4.9-15.6-6.3-24-6.4-6.6-.1-13.2,1.6-19.8,1.5-17.7-.3-35.5-.6-53.2-2-12.5-.9-24.9-3.2-37.3-5.5-10.2-1.9-20.2-4.9-30.4-7.2-1.3-.3-2.9.5-4.3.8C368.2,647.7,363.5,646.5,366.9,643.8Z"/><path class="cls-17" d="M743.6,549.5l3.3.4c1.6,3.1,2.7,6.5,4.8,9.2,3.5,4.6,3.8,9.7,4.5,15.1.9,7.3-5.6,11.3-6.7,17.6-.1.5-2.6.8-4,.9-7.5.7-15.1,1.2-22.6,2.1-3,.4-5.9,1.8-8.9,2.8-8.5,2.7-17.5,4.4-25.3,9.1a26,26,0,0,0-3.5,3.2h-.1c-1.6,1.8-3.2,3.5-5.1,5.4l4,4.5h.1c.9,5,4.6,7.8,10,7.9h.1c.2.6.2,1.4.6,1.7,7.8,6,17.1,6.5,26.4,7.4h.8c1.1.7,2.1,1.9,3.2,1.9a206.2,206.2,0,0,0,20.8,0c7.1-.5,10-4,10.1-10.9.6,1.3,1.3,2.7,2,4-.5,4.4,2.9,8.5.3,13-1.5,2.7-2.3,5.9-3.5,8.9a69,69,0,0,1-7.5,3,75.4,75.4,0,0,1-7.9,1.1c.1.6.3,1.7.4,2.6H719.2c-.4-.1-1.1-.3-1.3-.7-3.5-6.1-8.7-4.2-13.8-2.8-.7-.9-1.2-2.1-2.1-2.5a100.2,100.2,0,0,1-25-16.2c-.9-.8-2-1.4-3.8-2.8.7,4.5,1.3,8,1.8,11.5-1-1.3-2.5-2.5-2.8-4-1-4.6-1.5-9.4-2.2-14.1,2.8-4.7,7.5-8.4,7.1-14.8s-1.3-11.2-7.2-14.2c2-1.3,3.9-2.9,6-4,11.9-6.3,24.1-12.2,34.4-21.2a10.9,10.9,0,0,1,2.7-1.1c-.1,1.8.2,3.8-.2,5.5a63,63,0,0,1-2.8,7.2c4.4-1.1,10.8,1.7,9.6-5.7h.1c7.6-4.5,10.8-11.6,11.1-20.2Z"/><path class="cls-6" d="M781.3,501.8l-24.7,27.6a6.9,6.9,0,0,0-2.4-.5l-38,3.7c-25.8,2.5-51,8.2-76,14.6-13.8,3.6-27.4,7.7-41.1,11.6-.4-4.4-.7-8.8-1.1-13.1l15.1-6H613l32.1-9H645a19.8,19.8,0,0,0,3.5-.3c19.4-5.1,38.6-10.6,58.1-15.3s41.1-9,61.7-13.1C772.4,501.2,776.9,501.9,781.3,501.8Z"/><path class="cls-4" d="M670,628.7c.7,4.7,1.2,9.5,2.2,14.1.3,1.5,1.8,2.7,2.8,4-.1,6.5-.2,13.1-.4,19.6-1.2-3.6-2.5-7.1-3.7-10.7-.4-6.6-.8-13.2-1.3-20.8L664,637l-7-16.7-2-1.7-1.2,3.9c-19.5,15.1-39.7,28.9-62.6,38.5-40.3,17.1-82.3,22.3-125.6,18.9-31.9-2.5-62.8-9.4-93.3-18.7a10,10,0,0,0-2.4-.4l-3.9-1.9-3.2-10.7c-.1-3.2-.2-6.3-.2-9.5l4.1,1c.1,1.3.1,2.7.2,4.1-3.4,2.7,1.3,3.9,1.2,5.9-.4,4.2,1.6,6.5,5.6,7.4,20,4.8,39.8,10.4,59.9,14.3,15.2,2.9,30.8,4.2,46.3,5.1,11.9.7,24-.1,35.9-.9,7.8-.6,15.6-2.5,23.4-3.8,12.4-3.1,25.2-5.4,37.3-9.5a191.3,191.3,0,0,0,33-14.8c12.4-7.1,24.1-15.6,35.9-23.9,1.6-1.2,1.6-4.7,2.6-7.9l2.9,3.5c4.2-2.5,4.6-8.9.7-11.7,1.8-4.5,4.8-6.2,9.4-3.8,3.5,7.4,3.9,15.1,2.3,23.1-.3,1.4.9,3,1.4,4.5l3.6-1.8Z"/><path class="cls-16" d="M670,628.7l-1.7.8-3.6,1.8c-.5-1.5-1.7-3.1-1.4-4.5,1.6-8,1.2-15.7-2.3-23.1l8.9-4c5.9,3,6.9,8.3,7.2,14.2S672.8,624,670,628.7Z"/><path class="cls-15" d="M599.1,558.8c13.7-3.9,27.3-8,41.1-11.6,25-6.4,50.2-12.1,76-14.6l38-3.7a6.9,6.9,0,0,1,2.4.5,6.4,6.4,0,0,1-1,1.3c-20.3,2.3-40.8,4.3-61.1,7-32.5,4.4-63.9,13.3-95.1,23.1l-2.3,1-3.3-.3Z"/><path class="cls-15" d="M781.3,501.8c-4.4.1-8.9-.6-13,.2-20.6,4.1-41.2,8.3-61.7,13.1s-38.7,10.2-58.1,15.3a19.8,19.8,0,0,1-3.5.3c6.9-2.3,13.6-5,20.5-6.8,23.8-6.1,47.5-12,71.4-17.5,14.8-3.4,29.8-5.7,44.8-8.5.6-.1,1.2.3,1.9.4Z"/><path class="cls-11" d="M715.1,572.3,728.8,561c-2.3,5.1-4.5,10.3-6.9,15.4a31.1,31.1,0,0,1-2.2,4h-.1l-5.2,3.3C714.6,579.9,714.9,576.1,715.1,572.3Z"/><path class="cls-9" d="M820.1,443.9c-.7-3.3-2.4-6.5,1.2-9.4.8-.7-.2-3.4-.3-5.1l9-8.1,1.8,1.3Z"/><path class="cls-15" d="M811,458.6c-2.1-.3-4.3-1.2-6.3-.8-10.6,2.5-21.1,5.3-31.6,8H773c5.6-1.9,11.1-4.1,16.7-5.7,8.3-2.3,16.8-4.3,25.1-6.4C813.6,455.3,812.3,456.9,811,458.6Z"/><path class="cls-4" d="M715.1,572.3c-.2,3.8-.5,7.6-.7,11.4l5.2-3.3c1.2,7.4-5.2,4.6-9.6,5.7a63,63,0,0,0,2.8-7.2c.4-1.7.1-3.7.2-5.5Z"/><path class="cls-9" d="M618,613.6l5.1-4a21.8,21.8,0,0,1,3.6-2.6,8.6,8.6,0,0,1,3.9-.6,57.3,57.3,0,0,1,5.6,1.4Z"/><path class="cls-4" d="M719.7,580.4a31.1,31.1,0,0,0,2.2-4c2.4-5.1,4.6-10.3,6.9-15.4l2-.8C730.5,568.8,727.3,575.9,719.7,580.4Z"/><path class="cls-9" d="M811,428.6c.2-2.6.8-5.3.6-7.9-.5-5.1-5.2-4.7-8.6-6l13.1.9Z"/><path class="cls-4" d="M637,612.7c-3.4,4-7.5,5.4-10,3.3Z"/><path class="cls-9" d="M819,430.7l-.3,3.8-4-.9Z"/><path class="cls-9" d="M810.4,434.6c-.8-.8-2.1-1.5-2.2-2.3s1.3-1.6,2-2.4C810.3,431.5,810.3,433,810.4,434.6Z"/><path class="cls-4" d="M619,618.6l-3.9,1.3Z"/><path class="cls-6" d="M527.6,637.9l3.5.9Z"/><path class="cls-9" d="M812,434.8h0Z"/><path class="cls-9" d="M810.2,429.9l.7-1.2Z"/><path class="cls-4" d="M642,610.9l-1.3.6Z"/><path class="cls-10" d="M683.6,981.8c4-9.5,8.8-18.6,11.8-28.3,3.7-12.3,5.9-25.1,8.7-37.6l2.7,1h0c1.5,3.9,3,7.8,4.4,11.6l1.2-.2-1.2-13.9L707.9,892c-.3-2.1-.6-4.2-.8-6.3H707c.6-.9,1.8-1.9,1.6-2.6-4.4-15.4-8.5-31-13.6-46.3-4.1-12.3-9.8-23.9-14-36.2-2.7-7.8-3.9-16.1-5.8-24.1a14.8,14.8,0,0,0-1-2.7c1-2.7,1.9-5.5,2.5-7.1,3.4,10.9,6.8,22.6,11,34,3.3,8.6,7.6,16.8,11.6,25.2s7.1,19.8,9.3,30.3,5.8,20.9,8.5,31.4c1.8,6.6,3.1,13.4,4.8,20.7l-5.8-.5c.8,14.2,2.5,28.2-1.3,42.6L710,939.8l-1.7-.2c-1,2.4-2.2,4.8-3.1,7.3-4.3,12.1-10,23.4-18.8,32.9A17.9,17.9,0,0,1,683.6,981.8Z"/><path class="cls-16" d="M674.6,666.4c.2-6.5.3-13.1.4-19.6-.5-3.5-1.1-7-1.8-11.5,1.8,1.4,2.9,2,3.8,2.8a100.2,100.2,0,0,0,25,16.2c.9.4,1.4,1.6,2.1,2.5,1.2,7.3,3,14.6,3.6,21.9.5,5.6-.2,11.3-.7,16.9-.6,7.4-1.5,14.8-2.4,22.8-6.5-3.2-9.5-9.2-12.9-14.9s-5-13.8-8.1-20.4c-2-4.1-5.1-7.6-7.5-11.6C675.2,670,675.1,668.1,674.6,666.4Z"/><path class="cls-10" d="M650.2,815.8c3.8-14.9,7.5-29.8,11.3-44.7,1.5-5.8,2.9-11.6,4.5-18l3.8,5c2.8-11.5,1.1-22,1.2-32.3h0l3.8.8c-.6-7.1-1-14-1.8-20.7a283.2,283.2,0,0,0-12.7-56.1c-.5-1.6-1.8-2.9-2.7-4.4a87,87,0,0,1-.4-8.9c0-.6,1.1-1.2,1.8-1.8,4,11.9,7.7,23.9,12.2,35.7,1.8,4.7,5.5,8.6,8,13.1s4.6,8.9,7.5,14.4l-8.9-4.1-1.6,1.1c2.5,7.4,5,14.8,8,23.4-7-1.9-6.1,2.2-6.1,5.5.2,29.9-7.6,57.6-22.7,83.4Z"/><path class="cls-2" d="M659,634.7c-.7.6-1.8,1.2-1.8,1.8a87,87,0,0,0,.4,8.9c.1,5,.3,9.9.1,14.9,0,1.1-1.3,2.3-2,3.4-.7-1.1-2-2.2-2-3.3.1-12.6.3-25.1.5-37.6,1.2,1.7,2.8,3.2,3.5,5.1S658.6,632.4,659,634.7Z"/><path class="cls-11" d="M664,637l5.6-2.1c.5,7.6.9,14.2,1.3,20.8Z"/><path class="cls-18" d="M685.2,609.9c3.6-1.2,7.3-2.4,10.8-3.7,14.5-5.7,29.2-10.9,45.1-11.6a32.6,32.6,0,0,1,19.8,5.2c-1.2,1-2.5,2.8-3.7,2.8a48.5,48.5,0,0,1-9.2-1.9c-2.7-.8-5.3-2.1-8-2.8s-6.1.9-6.8,4.2,2.4,3.5,4.9,3.7a13.8,13.8,0,0,1,11.5,7.8c.9,1.7,3.8,4.5.6,7-5.1-4.7-11.5-5.5-18-5.8-16.3-.9-32.2,1.7-48.1,4.9H684c.4-3.3.8-6.6,1.1-9.9Z"/><path class="cls-16" d="M750.2,620.6c3.2-2.5.3-5.3-.6-7a13.8,13.8,0,0,0-11.5-7.8c-2.5-.2-5.7.1-4.9-3.7s3.3-5,6.8-4.2,5.3,2,8,2.8a48.5,48.5,0,0,0,9.2,1.9c1.2,0,2.5-1.8,3.7-2.8,1.7,2.4,4.8,4.7,4.8,7.1.1,5.4,2.2,11.1-1.8,16.2-1.5,1.8-1.7,4.6-2.9,6.8s-1.9,1.2-2.9,1.8c-.7-1.3-1.4-2.7-2-4S752.1,623,750.2,620.6Z"/><path class="cls-19" d="M457.9,526.2c-.2-9.1.5-18.3-.8-27.2-5-35.7-37-63.4-73.2-64.2-24.8-.6-45.4,8.3-61.5,27.2a38.3,38.3,0,0,1-2.9,2.8c-.5.6-.9,1.3-1.4,2h0l-1,1.1h.1l-1.1,1.1h.1a19.8,19.8,0,0,1-1.1,2h.1c-3.6,1.6-7.2,3-10.6,4.9-10.2,5.9-20.6,10.8-32.7,11,6-7.9,12.3-15.6,17.9-23.7a228.5,228.5,0,0,0,25.8-49.8c4-10.7,7-21.7,10.4-32.6v-4.8l1.7-3.1,4.3-8c3.2-4.9,3.1-15.4-.8-20.2s-10.5-12.1-17.9-16.7a186.8,186.8,0,0,0-44.5-20.5c-11-3.3-22.4-5.1-33.6-7.5-1-.2-2.1.6-3.2.9h-1.9l-3.1-1h-3l-1.1-.8h-12l-.2-2.1c7.1-1,14.1-2.4,21.2-2.9,22.3-1.5,44.7-2.2,66.9,1.8,7.6,1.3,15.4,2.1,23.1,3.1l3.1,2h0c.4,1.8.5,3.7,1.2,5.2,2.7,5.7,5.5,11.2,8.2,16.8q11.6,23.4,23,46.8c.9,1.9,1.1,4.1,1.7,6.1s-1.4,2.3-2,3.5c-4.5,8.8-9,17.6-13.3,26.4-.5,1-.1,2.5-.1,3.7s2.8-.1,4-.7,2-2.2,3.2-3.1l16.2-12.7,10.5,19,1-.5L371,390.8l6.1-5.1H377l1.2,3c1.5,2.6,3.1,5.1,4.7,7.7l.7-.3-2.7-12.2,8.1-2.2c1.4,5,2.7,10,4.1,15-.4.9-.5,1.9-1,2.8-4.1,7.8-2.6,14.1,4.9,18.5s16.8,5.8,25.7,6.7c4.4.5,9.4,0,13.1,1.9a96.4,96.4,0,0,1,20,12.6c12.2,10.5,20.8,23.9,28.3,38,1.5,2.8,3.5,5.2,5.2,7.8l1.2-.6-6.9-15.7c-9.8-22-21.7-42.8-38.6-60.2-9.3-9.4-20.5-16.5-34.7-15.7-5.1.3-10.1,1.3-15.2,1.9-1.4-4.9-2.7-9.9-4.1-14.9,5.6-2.4,9.5-6.6,9.7-12.6s-2.7-8.6-7.3-10.4c-2.5-1-5.4-.8-8.2-1.1-2.8-12.5-5.8-25-8.5-37.5-1.2-6.1-1.8-12.3-2.7-18.4l14-11.1c3.3,2.7,6.7,5.4,9.8,8.4a174.5,174.5,0,0,1,30,40c8.5,15.3,16.2,31,23.7,46.8,4.5,9.4,7.9,19.3,11.8,29a12.3,12.3,0,0,0,1.7,2.5,244.9,244.9,0,0,0-8-33.3c-5.4-16.1-10.9-32.3-17.4-47.9a268.1,268.1,0,0,0-25.5-47.5c-2.3-3.3-4.2-6.7-6.3-10.1.4-.9.4-2.4,1.1-2.7,9.4-4.5,18.7-9.4,28.4-13.1a264.3,264.3,0,0,1,31.8-9.4,108.1,108.1,0,0,1,22.6-2.6c11.7-.2,23.5.5,35.2,1,1.4.1,2.8,1.2,4.2,1.9-1.7,13.1-4.1,26.1-4.8,39.2a273.6,273.6,0,0,0,.9,38.4c1.3,16.1,3.5,32.1,5.7,48.1,1.3,8.9,3.4,17.6,5.2,26.3.6,1.7,1.9,3.4,1.8,5-.4,7.4-1.6,14.7-1.6,22.1.1,9,1.1,18,1.7,26.9s0,15.4.1,23v13c-16-.4-31.7,1.2-46,9-5.6,3.1-10.7,7.3-16.1,11l-8,6.9-7.9,6.1h0Z"/><path class="cls-19" d="M309,482.7c-1.7,8.9-4.1,17.8-4.8,26.8a70.1,70.1,0,0,0,10.1,41.6,23,23,0,0,1,.9,2.5,18,18,0,0,1-3.7.4c-21.1-1.9-42.1-5.2-60.8-16-6.6-3.8-12-9.7-17.9-14.7a7.1,7.1,0,0,1-1-1.4h-.1l.3-1.2c7.8-6,15.5-12.1,23.4-18.1a49.7,49.7,0,0,1,5.6-3c17.8-.7,32.8-8.4,46.5-19.2Z"/><path class="cls-9" d="M327.7,372.7l-1.7,3.1a54.8,54.8,0,0,1-4-4.4,168.4,168.4,0,0,0-42.8-40.1c-24.6-15.9-52-23.2-80.9-25.4-3.4-.2-4.3,1.4-4.6,4.4-1.4,16.5-.1,32.9,2.8,49.1,6,32.3,19.4,61.4,38.2,88.1,8.3,11.6,17.6,22.5,26.3,33.8,1,1.4.7,3.7,1,5.5-5.6-5-11.6-9.7-16.8-15.1-27.8-29.3-43.1-64.8-51.1-103.9-4.2-20.4-6-41.1-6.4-62-.1-3.6,1-5.1,4.7-5,47.7.4,88.8,16.6,122.4,50.9,3.8,3.8,7.1,8,10.8,11.7S329.6,369,327.7,372.7Z"/><path class="cls-2" d="M262,486.8c-.3-1.8,0-4.1-1-5.5-8.7-11.3-18-22.2-26.3-33.8-18.8-26.7-32.2-55.8-38.2-88.1-2.9-16.2-4.2-32.6-2.8-49.1.3-3,1.2-4.6,4.6-4.4,28.9,2.2,56.3,9.5,80.9,25.4A168.4,168.4,0,0,1,322,371.4a54.8,54.8,0,0,0,4,4.4v4.8l-3.7-1.9-7.2-8.1c-1.3-1.9-2.3-4-3.8-5.5-3.5-3.4-7.2-6.6-10.9-9.9l-5.3-5.5-14.8-12.1a33.1,33.1,0,0,0-5-4.1,162.7,162.7,0,0,0-60-21.6c-5.7-.9-11.4-1.2-17.3-1.9a29.1,29.1,0,0,0-.4,3.1c-1.9,28.7,3.3,56.3,13.8,83,12.4,31.3,31.3,58.4,53.9,83.2,1.2,1.3,3.2,1.9,4.8,2.8l-.2,1.7c-.7.8-1.7,1.4-2.1,2.4a12.8,12.8,0,0,0-.7,3.5Z"/><path class="cls-10" d="M232,300.7c1.1-.3,2.2-1.1,3.2-.9,11.2,2.4,22.6,4.2,33.6,7.5a186.8,186.8,0,0,1,44.5,20.5c7.4,4.6,12.7,10.4,17.9,16.7s4,15.3.8,20.2c-6-6.5-11.8-13.3-18.2-19.6A164.8,164.8,0,0,0,257,308.4C248.9,305.2,240.4,303.2,232,300.7Z"/><path class="cls-14" d="M267.1,489.7a12.8,12.8,0,0,1,.7-3.5c.4-1,1.4-1.6,2.1-2.4,0,1.4-.8,3.4,2,2.9,12.1-.2,22.5-5.1,32.7-11,3.4-1.9,7-3.3,10.6-4.9L309,482.7l-1.5-2.3c-13.7,10.8-28.7,18.5-46.5,19.2,1-1.5,1.9-3.1,2.9-4.7Z"/><path class="cls-10" d="M227,299.7l3.1,1Z"/><path class="cls-10" d="M222.9,298.8l1.1.8Z"/><path class="cls-1" d="M271,601.1c6.4-1.8,12.8-4.1,19.4-5.3,24.5-4.5,49.1-9,73.8-12.7,15.1-2.3,30.3-3.4,45.5-4.4,26.8-1.6,53.7-2.6,80.5-3.9a10.5,10.5,0,0,1,5.2.8c-75.4,1.4-150.2,8.5-223.6,26.2Z"/><path class="cls-1" d="M307.1,619.1c2.6-1.1,5-2.6,7.6-3.3,21.8-5.5,43.6-11.5,65.6-16.1,19.9-4.2,40.1-7,60.3-9.9,15.9-2.4,31.8-4.1,47.8-5.9,5.3-.6,10.6-.6,16-1v1.3l-8.7,1.5c-23.4,2.6-46.9,4.3-70.1,8.1-29,4.8-57.8,11-86.7,17.1-8.9,1.8-17.6,4.9-26.3,7.6a18,18,0,0,0-3.7,2.2Z"/><path class="cls-1" d="M347.2,560.9c-1.1.2-2.2.7-3.3.8-14.1.4-28.3.3-42.4,1.1-20,1.3-39.9,3.2-59.9,4.8-4.1.4-8.3.6-12.4,1.3-1.6.2-3.1,1.4-4.6,2.1l-2.6-2.1c6.1-1,12.2-2.6,18.3-3.1q36.3-2.8,72.4-5.1c8.8-.6,17.6-.6,26.4-.9Z"/><path class="cls-14" d="M407.8,276.6c2.1,3.4,4,6.8,6.3,10.1a268.1,268.1,0,0,1,25.5,47.5c6.5,15.6,12,31.8,17.4,47.9a244.9,244.9,0,0,1,8,33.3,12.3,12.3,0,0,1-1.7-2.5c-3.9-9.7-7.3-19.6-11.8-29-7.5-15.8-15.2-31.5-23.7-46.8a174.5,174.5,0,0,0-30-40c-3.1-3-6.5-5.7-9.8-8.4C393.9,283.5,399.7,278.2,407.8,276.6Z"/><path class="cls-14" d="M538.1,403.7c-1.8-8.7-3.9-17.4-5.2-26.3-2.2-16-4.4-32-5.7-48.1a273.6,273.6,0,0,1-.9-38.4c.7-13.1,3.1-26.1,4.8-39.2l9,1.4c4.2.6,6.2,3.1,7.1,7,.2,1,1.2,1.8,1.9,2.6.6,2.4,1.3,4.7,2,7-1.7-1.8-3.5-3.1-4.6.3a91.2,91.2,0,0,0-3.4,12.4c-2,11.5-4.1,23.1-5.2,34.7a356,356,0,0,0-1.7,38.6c.4,16.1,1.8,32,2.8,48Z"/><path class="cls-10" d="M568.9,260.6l9.3,47.9c.7,3.7,1.2,7.5,1.9,11.2a41.4,41.4,0,0,1-5.5,3.8c-1.3.8-3,.9-4.5,1.2-.4-1.3-.7-2.6-1.1-4,3.2-5.8.5-11.2-.8-16.8-2.2-8.8-5-17.2-11-24.2-.1-.3-.1-.7-.2-1.1a14.2,14.2,0,0,0-.8-1.8c-1.7-5.7-3.4-11.4-5.2-17,1.2-4,4.4-3.5,7.2-2.8S565.3,259.4,568.9,260.6Z"/><path class="cls-5" d="M551,259.8c1.8,5.6,3.5,11.3,5.2,17a14.2,14.2,0,0,1,.8,1.8c.1.4.1.8.2,1.1,1.3,4.8,2.5,9.5,3.9,14.2,2.6,9,5.3,17.9,7.9,26.8.4,1.4.7,2.7,1.1,4,1,4.4,2.1,8.7,3.1,13,1.7,6.7,3.3,13.4,5,20,1,4.7,2.1,9.4,3.1,14.1l-1.3.3c-1.6-5.2-3.3-10.3-4.9-15.5l-6-23a43.4,43.4,0,0,0-.8-6.3c-2.4-8.6-4.8-17.1-7.3-25.6-3.2-10.7-6.6-21.3-9.9-32-.7-2.3-1.4-4.6-2-7Z"/><path class="cls-5" d="M374,299.8c.9,6.1,1.5,12.3,2.7,18.4,2.7,12.5,5.7,25,8.5,37.5,2,8,3.9,16.1,5.8,24.1,1.4,5,2.7,10,4.1,14.9-.7.7-1.4,1.3-2,2-1.4-5-2.7-10-4.1-15-2-8.3-4.1-16.7-6.1-25l-4.5-20.3c-2.4-11.3-4.9-22.5-7.4-33.8v-4.8Z"/><path class="cls-7" d="M344.1,297.7l.4.5-.5-.4Z"/><path class="cls-19" d="M371,302.6c2.5,11.3,5,22.5,7.4,33.8l4.5,20.3-11.8,4a13.1,13.1,0,0,1-1.7-2.4c-3.6-9.9-7.2-19.8-10.9-29.6-2.7-7-5.6-14-8.5-21h.1a14.8,14.8,0,0,1,.1-2.1h.5C358,308.2,365.2,310.2,371,302.6Z"/><path class="cls-19" d="M347.9,304.7l2.2,3H350c2.8,9.3,5.4,18.6,8.5,27.7s7,18.9,10.5,28.3l-7.9,8c-3.9-8.5-7.7-17.1-11.9-25.4-7.6-15.3-15.4-30.4-23.2-45.5l.2-.2Z"/><path class="cls-19" d="M325,300.7c.1-.3.1-.6.2-1l1,.9-.2.2Z"/><path class="cls-19" d="M402.1,971.8l19.3-11.9,3.2-2.2c.1.7.1,1.4.2,2.1s-1,4-1.6,6h0l-3.9,8.1h.1l-6.3,11.8h0l-1.2,2.2-1,1.7-2.1,4.2,1.5,1,3.5-2.5h0l1.2-.8,15.2-9.2,1.4.9-6.7,22.8c11.4-6.3,19.1-16.1,27.8-24.7a12.1,12.1,0,0,1,.3,4.2c-.5,2.6-1.4,5-2.1,7.6,0,.2-.1.3-.3.4l-.6.8v.2l-5.8,11.1c-1,2.3-2.1,4.5-3.1,6.8l-6.5,10.2-1.3,1.2h.2l-2.4-.3-.4-.2.4.2.3,3.3h0a21.2,21.2,0,0,1-1.1,2.1h.1c-3.4,2.2-6.7,4.5-10.2,6.6-5.9,3.4-11.8,7-18.1,9.9-4.3,2-9.3,2.8-13.9,4.1-9.5-17-12.1-35.8-13.3-56a101.6,101.6,0,0,0-5.8,36.7c.3,7.5.7,14.9,1,22.3l-28.4-1.6-.2.9,8.5,5.4-.6,1.3c-6.7-2.1-13.4-4-20.1-6.2-4.1-1.4-8.1-3.2-12.2-4.8,1.5-16.3,8.3-30.8,16.3-44.7.9-1.5,1.9-2.9,2.8-4.3l-1.1-.9c-7.8,4.9-13.7,12-19.8,18.7a72.7,72.7,0,0,0-7,9.5c-2.6,3.8-4.8,7.8-7.1,11.8a189.9,189.9,0,0,1-35.1-37.1,9,9,0,0,1,1.6-2.9c13.3-11.8,29-17.9,46.4-20.1l4.8,1,22.4,4.9c18.4,5.7,35.8,1.9,52.7-6a12.4,12.4,0,0,0,2.2-1.8l4-3Z"/><path class="cls-10" d="M317,1047.7c4.1,1.6,8.1,3.4,12.2,4.8,6.7,2.2,13.4,4.1,20.1,6.2l.6-1.3-8.5-5.4.2-.9,28.4,1.6,10.1,29.1c-3.4,1-6.8,2.7-10.3,2.8-14.4.4-28.7-.4-42.4-5.7-4.6-1.9-8.9-4.8-13.4-7.2.1-2.2,0-4.5.3-6.7C315.1,1059.2,316.1,1053.5,317,1047.7Z"/><path class="cls-19" d="M257.1,981.7c-.6-18.3,4-34.8,15.9-49,9.1-.3,17.4,2.4,25,7-2.6,6.9.1,13.3,2.2,19.6s8,12.6,13.8,17.5c-11.5-2.1-23.1-4.8-34.8-2C271.7,976.6,264.5,979.4,257.1,981.7Z"/><path class="cls-19" d="M350.8,781.6c1.9,15.7-1.9,30.6-8.2,44.5-9.6,21.2-15.4,43.1-15.2,66.4a4.1,4.1,0,0,0,1.1,3l4.6-9.7a37.5,37.5,0,0,1,.5,4.7l-.3,27.3h-.4c-.4,1.6-.9,3.3-1.4,5.5-4-5.1-7.8-10.1-11.8-15a31.5,31.5,0,0,0-3.7-3.6l.9-10.5-1.1-.8-6.7,5.4H309c.7-13.4,5.4-25.5,12-37a21,21,0,0,0,2.9-6.7c2.4-15.4,8.2-29.5,15-43.4,3.8-7.7,6.1-16,9.2-24.1C348.9,785.5,349.9,783.6,350.8,781.6Z"/><path class="cls-14" d="M380.1,1081.8,370,1052.7c-.3-7.4-.7-14.8-1-22.3a101.6,101.6,0,0,1,5.8-36.7c1.2,20.2,3.8,39,13.3,56l17.7,23.5,2.2,2.6C399.2,1080.1,389.9,1081.8,380.1,1081.8Z"/><path class="cls-10" d="M316,904.7a31.5,31.5,0,0,1,3.7,3.6c4,4.9,7.8,9.9,11.8,15,.5-2.2,1-3.9,1.4-5.5.3,1.7.6,3.4.8,5.1,0,.1-.2.2-.2.3l.4.6h0c1.1,14.2,6.8,26.6,14.4,38.2,4.3,6.5,9.1,12.6,13.7,18.9-8.7,2.8-14.7.7-19.8-6.3-6.8-9.6-12.8-19.6-16.2-31-.4-1.4-1.6-2.6-3.1-4.8-2,4.3-3.6,7.6-5.6,12.1-2.3-11.5-4-21.9-2.9-32.6C314.8,913.8,315.4,909.3,316,904.7Z"/><path class="cls-19" d="M352.8,679.6c-.9,8.7-2.2,17.4-2.7,26.2s-.1,14.6,0,22c0,1.7.5,3.4,1,6.6l4-5.3c1.5,11.5,2.9,22.8,4.4,34.2h1.2l2.6-4.7c6.8,15.4,13.6,30.6,15.6,47.5,0,1.2.1,2.4.1,3.6-3.5-5.1-7.3-10-10.5-15.3a153.3,153.3,0,0,1-18.7-46.4c-1.6-7.1-1.8-14.4-2.8-21.6a49.4,49.4,0,0,0-1.5-5.5c-1.7.9-3.4,1.7-4.9,2.7a35.9,35.9,0,0,0-3.5,3c.4-9.4,6.2-15.7,9.1-24.2l-8.3,2.9c3.4-7,6.1-13.3,9.3-19.2C348.5,683.7,350.9,681.8,352.8,679.6Z"/><path class="cls-14" d="M317,1047.7c-.9,5.8-1.9,11.5-2.7,17.3-.3,2.2-.2,4.5-.3,6.7l-18-13a11.4,11.4,0,0,0-1-1.9h0c2-6.4,4-12.7,6.1-19,2.3-4,4.5-8,7.1-11.8a72.7,72.7,0,0,1,7-9.5c6.1-6.7,12-13.8,19.8-18.7l1.1.9c-.9,1.4-1.9,2.8-2.8,4.3C325.3,1016.9,318.5,1031.4,317,1047.7Z"/><path class="cls-10" d="M314,976.8c-5.8-4.9-11.3-10.2-13.8-17.5s-4.8-12.7-2.2-19.6l5.6,1.8.7-1.1-6.3-8.6,12.1-20c-.3,14.5-.3,29.1,4,43.3.7,2.1,2.8,3.9,4.2,5.9s2.1,3.4,3.5,4.7c5.5,5.2,11.1,10.2,16.7,15.3a33.1,33.1,0,0,1,2.7,2.6l-22.4-4.9-4.8-1Z"/><path class="cls-10" d="M301.1,1037.8c-2.1,6.3-4.1,12.6-6.1,19-4.4-4.3-9.4-8.2-13.2-13-9.1-11.6-17.1-23.9-20.5-38.6a10.1,10.1,0,0,1-.2-2.5l4.9-2A189.9,189.9,0,0,0,301.1,1037.8Z"/><path class="cls-14" d="M266,1000.7l-4.9,2c-1.4-7-2.7-14-4-21,7.4-2.3,14.6-5.1,22.1-6.9,11.7-2.8,23.3-.1,34.8,2v.9c-17.4,2.2-33.1,8.3-46.4,20.1A9,9,0,0,0,266,1000.7Z"/><path class="cls-19" d="M310.1,911.8l-12.1,20c-1.4-1-2.8-2-4.3-2.9L283,922.7a57.6,57.6,0,0,1,5.9-6.2c4.1-3.4,8.6-6.5,13.3-10l2,6.7,4.8-3.6,1.2,1.2A3.8,3.8,0,0,1,310.1,911.8Z"/><path class="cls-14" d="M283,922.7l10.7,6.2c1.5.9,2.9,1.9,4.3,2.9l6.3,8.6-.7,1.1-5.6-1.8c-7.6-4.6-15.9-7.3-25-7Z"/><path class="cls-13" d="M323.7,949.5l11.7,23.7-1.4.9c-4.4-5.8-9.1-11.3-13-17.5-.9-1.5.9-4.7,1.5-7.2Z"/><path class="cls-2" d="M402.1,971.8l-2,1h-5.8l13.3-7.5Z"/><path class="cls-14" d="M396.1,972.8h4l-4,3Z"/><path class="cls-10" d="M310.2,910.8l-1.2-1.2.9-3.3,1.2.3Z"/><path class="cls-2" d="M379.7,811.8c.3,1.3.5,2.7.8,4C380.2,814.5,380,813.1,379.7,811.8Z"/><path class="cls-2" d="M354.2,669.7c-.2,1.2-.5,2.5-.7,3.7C353.7,672.2,354,670.9,354.2,669.7Z"/><path class="cls-2" d="M379,809.8c0-1.2-.1-2.4-.1-3.6.2,1.2.3,2.4.4,3.6Z"/><path class="cls-19" d="M309.1,898.8l-.4,1.3c-.2-.1-.4-.2-.4-.3l.7-1.1Z"/><path class="cls-10" d="M295,1056.8a11.4,11.4,0,0,1,1,1.9A11.4,11.4,0,0,0,295,1056.8Z"/><path class="cls-20" d="M369.9,1088.5h0Z"/><path class="cls-2" d="M353.2,675.4c0,.5-.1.9-.1,1.4S353.2,675.9,353.2,675.4Z"/><path class="cls-11" d="M437.9,1066.1l-.9.7Z"/><path class="cls-10" d="M540,493.7c0-4.3,0-8.7.1-13,.6-1.6,1.7-3.3,1.9-5,1.8-18.5,5.6-36.6,13-53.8,5.2-11.8,12-21.9,23.6-28.7,7.5-4.4,13.9-10.6,20.8-16s5.6-13.8,0-21.4l-.3-14c14,1.2,26.6,6.8,39.6,12.7,0-1.9,0-3.8-1-4.8-6.5-6.3-12.8-13-20-18.4s-12.9-7.1-19.4-10.6c0-2.1-.3-4.3-.2-6.4l3-45.6c1.5.3,3.1,1.1,4.3.7,6.5-2.2,13.6-3.5,19.3-7.2a243.5,243.5,0,0,0,26.9-20.7c15.6-13.3,32.1-25.2,50.3-34.8,2.5-1.4,5.4-2,8.2-3l-15.4,11.6c-18.3,14.1-33.6,30.9-43.7,51.8-5.6,11.7-10.2,24-15.2,36-1.2,2.8-.6,4.5,2.7,4.6a4.7,4.7,0,0,1,.5,1l1.1,1,2.1,1.9,3.9,6a29.6,29.6,0,0,0,2.6,4.2c11.2,12,22.3,24.2,33.8,35.9a166.9,166.9,0,0,0,33.7,25.9c4.5,2.7,8.6,6.1,12.9,9.1-9,1-17.9,2.2-26.9,2.9-3.8.3-7.6-.4-11.3-.7h.1a5.2,5.2,0,0,1-1.1-1h.1l-2.4-1.1c-9-3.2-17.8-7.7-27.1-9.3-27.2-4.6-51.2,3.2-69.6,23.7-23.2,25.9-26.6,55.5-12.4,87.2a43.2,43.2,0,0,1,1.6,5.1c-.8,3.6-3,1.7-5,1.3Z"/><path class="cls-10" d="M797,414.5a130.1,130.1,0,0,1-27.7,34.8c-10.5,9.1-22.3,16.8-33.5,25.2-3.1,1.4-6.2,3-9.4,4.1-.9.4-2.3-.5-3.5-.8,4.2-18.6,2.7-36.5-6.3-53.4-3.5-6.5-8.4-12.2-12.7-18.3l-.3-3.4c9,0,17.9.4,26.7-.2,4.3-.3,8.5-2.4,12.7-3.8,7.4,2.5,14.6,5.4,22.1,7.4,9.4,2.6,18.9,4.5,28.4,6.7A18.7,18.7,0,0,1,797,414.5Z"/><path class="cls-9" d="M642.2,311.6l-2.1-1.9-1.1-1a4.7,4.7,0,0,0-.5-1q23.4-81.6,101.8-114.3c2.7-1.1,4.1-.8,5.3,2.1,13.8,35.7,22.9,72.3,22.4,110.9a187.1,187.1,0,0,1-21.1,84.5c-1,1.8-1.5,4.4-4.6,2.7a25.6,25.6,0,0,1,1-4.8c14-38.4,21.9-77.8,17.9-118.9a198.1,198.1,0,0,0-19-66.9c-1.5-3-2.8-3.9-6.1-2.3-42.3,20.9-72.3,52.6-86.6,98.1-1.6,4.9-3,9.7-4.6,14.9Z"/><path class="cls-19" d="M710.1,203.7c-2.8,1-5.7,1.6-8.2,3-18.2,9.6-34.7,21.5-50.3,34.8a243.5,243.5,0,0,1-26.9,20.7c-5.7,3.7-12.8,5-19.3,7.2-1.2.4-2.8-.4-4.3-.7.7-5.4,1.4-10.7,2-16.1,10.3-7,20.4-14.3,30.9-20.8,21.8-13.3,45.2-23.2,69.5-30.7,5.4-1.6,11-2.3,16.5-3.4h.1Z"/><path class="cls-2" d="M642.2,311.6l2.7,2.1c1.6-5.2,3-10,4.6-14.9,14.3-45.5,44.3-77.2,86.6-98.1,3.3-1.6,4.6-.7,6.1,2.3a198.1,198.1,0,0,1,19,66.9c4,41.1-3.9,80.5-17.9,118.9a25.6,25.6,0,0,0-1,4.8H741c.1-2.3-.5-3.5-2.9-1.9l-2.1-1.5c1.1-1,2.7-1.8,3.2-3,1.9-4.6,3.5-9.3,5.1-14.1,11.6-35.8,17-72.4,11.9-110.1a192.2,192.2,0,0,0-15.6-54c-1.3-2.9-2.7-4.8-6.4-2.9-26.1,13.9-48.6,31.5-63.7,57.6l-5.7,10.8-1.2,1.6-.8,1.4-.9,3.2-6,12a2.5,2.5,0,0,0-.2.7c-.3,1.4-.6,2.8-.8,4.2l-5.7,18.9-3.1,1Z"/><path class="cls-14" d="M738.1,391.8c2.4-1.6,3-.4,2.9,1.9l2,5c-4.2,1.4-8.4,3.5-12.7,3.8-8.8.6-17.7.2-26.7.2.1.9.2,2.2.3,3.4l-13-11.2c3.7.3,7.5,1,11.3.7,9-.7,17.9-1.9,26.9-2.9,1.6.3,3.2.9,4.7.8A17.5,17.5,0,0,0,738.1,391.8Z"/><path class="cls-5" d="M603.1,252.6c-.6,5.4-1.3,10.7-2,16.1l-3,45.6c-.1,2.1.2,4.3.2,6.4.3,7,.5,14.1.8,21.1l.3,14,.6,12h-1l-2.1-12.2c0-4.7,0-9.3-.1-14,0-7.3-.1-14.6-.1-22l.3-12.9c.1-7.8-.2-15.7.3-23.5.6-9.5,1.8-19.1,2.8-28.6.5-1.6,1-3.2,1.6-4.7l1.2-.5C603,250.6,603.1,251.6,603.1,252.6Z"/><path class="cls-19" d="M720,197.7l2.1-.9a6.4,6.4,0,0,0,.2.7l-2.2.3Z"/><path class="cls-10" d="M600.1,254.7c-1,9.5-2.2,19.1-2.8,28.6-.5,7.8-.2,15.7-.3,23.5l-.3,12.9H583c-2.3-10.6-4.7-21.2-6.9-31.9-1.8-8.7-3.3-17.4-5-26.1,3.5,1,6.9,2.4,10.4,2.9a10.2,10.2,0,0,0,6.2-1.2C592,260.8,595.9,257.6,600.1,254.7Z"/><path class="cls-14" d="M596.9,355.7l2.1,12.2h1l-.6-12c5.6,7.6,6.8,15.9,0,21.4s-13.3,11.6-20.8,16C567,400,560.2,410.1,555,421.9c-7.4,17.2-11.2,35.3-13,53.8-.2,1.7-1.3,3.4-1.9,5-.1-7.6-.1-15.3-.1-23,.7-5.8,1.4-11.7,2-17.5s.9-14.3,2.6-21.1c2.6-10.7,6.1-21.2,9.5-31.8A51.4,51.4,0,0,1,571.3,362c1.6-1.3,2.5-3.5,3.8-5.4,1.6,5.2,3.3,10.3,4.9,15.5l1.3-.3c-1-4.7-2.1-9.4-3.1-14.1l9.7-3c.6,2.1,1.3,4.2,1.9,6.3h1.1v-6.3Z"/><path class="cls-14" d="M583,319.7h13.7c0,7.4.1,14.7.1,22l-8.8,1.2C586.3,335.2,584.7,327.4,583,319.7Z"/><path class="cls-14" d="M573.2,337.7c-1-4.3-2.1-8.6-3.1-13,1.5-.3,3.2-.4,4.5-1.2a41.4,41.4,0,0,0,5.5-3.8c1.6,7.4,3.2,14.7,4.9,22.1Z"/><path class="cls-10" d="M573.2,337.7l11.8,4.1c1,4.3,1.9,8.6,2.9,12.9l-9.7,3C576.5,351.1,574.9,344.4,573.2,337.7Z"/><path class="cls-10" d="M588,342.9l8.8-1.2c.1,4.7.1,9.3.1,14l-6-1C589.9,350.8,588.9,346.8,588,342.9Z"/><path class="cls-2" d="M366,658.9l3.9,1.9.9,14.7c-1.1-.3-3-.6-3-1.1C367,669.3,366.6,664.1,366,658.9Z"/><polygon class="cls-10" points="671 725.8 670.9 725.6 671 725.8 671 725.8"/><path class="cls-6" d="M536,852.7c0-4.6,0-9.3.1-14C536,843.4,536,848.1,536,852.7Z"/><path class="cls-9" d="M711.2,914.4l1.2,13.9-1.2.2c-1.4-3.8-2.9-7.7-4.4-11.6l3.7,1.6Z"/><path class="cls-9" d="M706.8,916.9l-2.7-1a16.2,16.2,0,0,0,1-1.8Z"/><path class="cls-10" d="M707.1,885.7c-.3-.3-.5-.5-.1,0s-.1-.3,0,.1Z"/><path class="cls-6" d="M333.3,917.8l.3-27.3a37.5,37.5,0,0,0-.5-4.7c.2-.8.3-1.7.5-2.6H335c0,4,.2,8,0,12C334.6,902.7,333.9,910.2,333.3,917.8Z"/><path class="cls-6" d="M333.9,923.8l-.4-.6c0-.1.2-.2.2-.3s.3.4.3.6A.4.4,0,0,1,333.9,923.8Z"/><path class="cls-5" d="M450.9,993.3c.7-2.6,1.6-5,2.1-7.6a12.1,12.1,0,0,0-.3-4.2l5.7-7.6,1.4.9C456.8,980.9,453.8,987.1,450.9,993.3Z"/><path class="cls-2" d="M413.1,985.7l6.3-11.8Z"/><path class="cls-5" d="M444.1,1005.8l5.8-11.1Z"/><path class="cls-2" d="M413.8,992.4l-3.5,2.5-1.5-1,2.1-4.2c-.2.9-.4,1.8-.8,3.1Z"/><path class="cls-2" d="M419.3,974l3.9-8.1Z"/><path class="cls-2" d="M423.2,965.8c.6-2,1.1-4,1.6-6C424.3,961.8,423.8,963.8,423.2,965.8Z"/><path class="cls-2" d="M411.9,988l1.2-2.2Z"/><path class="cls-5" d="M450,994.5l.6-.8Z"/><path class="cls-2" d="M415,991.7l-1.2.8Z"/><path class="cls-9" d="M427,1043.7l-11.8,7-1-1,10.8-11.9c-.3,2.6.5,4.2,3.4,4.1Z"/><path class="cls-2" d="M446,1045.7l-5.9,2.9c-.4-1.7-1.2-3.5-.9-5.1s1.7-3.2,2.6-4.7l-1.3,8.7Z"/><path class="cls-2" d="M442.1,1037.7l-2.4-3.4,5.1-4.5,1.2.9Z"/><path class="cls-2" d="M427,1043.7l1.4-1.8,5.6-3.3Z"/><path class="cls-2" d="M453,1040.7c-.2,4.6-4.5,3.6-7,5Z"/><path class="cls-2" d="M438,1035.7l-4,3Z"/><path class="cls-2" d="M457.7,1037.3l-3.6,2.4Z"/><path class="cls-10" d="M431.3,1027l-.3-3.3h0l2.4.3Z"/><path class="cls-10" d="M430.2,1029a21.2,21.2,0,0,0,1.1-2.1A21.2,21.2,0,0,1,430.2,1029Z"/><path class="cls-2" d="M439.7,1034.3l-1.7,1.4Z"/><path class="cls-10" d="M433.2,1024l1.3-1.2Z"/><path class="cls-2" d="M420.5,956.3c-1.8,4.8-5.8,6.7-10.6,7.4Z"/><path class="cls-2" d="M410,963.6l-2.3,1.6Z"/><path class="cls-13" d="M346.2,549.6a55.2,55.2,0,0,1-9.3-61.7c9.7-19.7,31-31.3,53.6-29.1,40.5,3.8,61.3,47.8,39.4,83.2l-6.9,2.7c3.1-6,6.1-12,9.1-18h0l1-2.2a38.2,38.2,0,0,0,.8-22.7h-.1l-.8-3c-2.1-4.4-4.1-8.8-6.2-13.1-4.2-4.7-7.9-10.1-12.9-13.8-10.9-8.3-23.1-12.4-36.8-6.5l-5-.6-11.3,3.9-.8,1h.1l-2.1,1.1h0a41,41,0,0,0-18.9,22.3c-7.7,21.3-4,40.4,12.3,56.7Z"/><path class="cls-4" d="M553.6,520.6c3.5,9.2.4,19.1-9.3,27.5-3.3,2.9-7.5,4.6-11.2,6.9-1.3.8-2.4,1.7-3.6,2.5l-3.6.5c-12,2.1-23.2.2-33.1-7.1s-8.7-13.9-1.1-20.9,19.8-12.4,31.4-14.2a69.6,69.6,0,0,1,18.8-.1C546,516.3,549.7,518.9,553.6,520.6Zm-2.5,6.3c-1-4.5-2.9-6.1-9-7.2-14.3-2.6-27.4.9-39.7,7.7-4.2,2.3-7.6,6.3-11,9.8-1.6,1.7-1.9,4,1.4,4.8-3.5,3.2.3,4.3,1.9,5.4,12.5,9.3,26.1,10.1,39.5,2.9C543.2,545.5,550.5,538.3,551.1,526.9Z"/><path class="cls-2" d="M525.9,558l3.6-.5c.8,3.6,2,7.1,2.2,10.7.6,7.9,5.3,11.9,12.4,14.1s13.8,3.6,20.9,1.1c10-2.2,15.4-9.6,20.2-17.7l4.9-2c-.5,1.7-.7,3.6-1.5,5.1a44,44,0,0,1-21.6,19l-1.9.3-2.3.5c-10.7,3.1-19.7-2.5-29.1-6.3a14.5,14.5,0,0,0-1.7,1.9c-8.5,14.5-18.2,19.4-34.9,16.6-6-1-11.8-3.3-17.6-5.2-1-.4-1.6-2.1-2.4-3.1,1.3-.2,2.8-.9,3.9-.6,6.1,1.6,12.1,3.9,18.2,5.2a26.2,26.2,0,0,0,29.9-16.2,10.6,10.6,0,0,0,.2-5.3C528.3,569.7,527.1,563.9,525.9,558Z"/><path class="cls-2" d="M346.2,549.6h5.2l27.4-4,31.5-1.1,12.7.2,6.9-2.7c10.3-1.8,19-7,27.1-13.3l4.4,1.4c-10.5,10.3-24.1,14.4-37.4,18.9a7.6,7.6,0,0,1-3,0c-27.4-1.3-54.5.8-81.2,7.5a7.1,7.1,0,0,1-2.4.6,21.9,21.9,0,0,1-3.3-1.2c.7-.9,1.3-2.1,2.3-2.5C339.6,551.9,342.9,550.8,346.2,549.6Z"/><path class="cls-9" d="M567,587.8a44,44,0,0,0,21.6-19c.8-1.5,1-3.4,1.5-5.1l2.3-1.2-.4-1-11.9,3.3c1-4.7,1.9-9.4,2.9-14.1l15-5c.4,4.3.7,8.7,1.1,13.1l-5.3,2.7,3.3.3c-1.1,10.9-9.1,20.8-19.3,24a23.2,23.2,0,0,0-3.8,2Z"/><path class="cls-14" d="M540,493.7l35.1,7.1c2,.4,4.2,2.3,5-1.3l5.9,5.2,10,1.1,8,.4c-.9.9-1.7,2-2.8,2.4s-2.8.6-4.2.9l-2.1-.2-3.9-.5L552.7,499a47.1,47.1,0,0,0-5.4-.5h0a1.9,1.9,0,0,0-.2-.7c-.6-.3-1.1-1-1.7-1-15-.1-30.2-1.5-44.3,5.4-3.4,1.7-6.5,3.9-9.8,5.9h0l-1.2.8h0l-2,1.1h.1l-3.8,2.4h0l-1.4,1.2a1,1,0,0,1-.8.5h-4.3c5.4-3.7,10.5-7.9,16.1-11C508.3,494.9,524,493.3,540,493.7Z"/><path class="cls-1" d="M403,559.8l64.1,2.8c7.6.4,15.2.7,22.8,1.2a25.4,25.4,0,0,1,8.1,1.6l-95-3.9Z"/><path class="cls-2" d="M491.3,508.1c3.3-2,6.4-4.2,9.8-5.9,14.1-6.9,29.3-5.5,44.3-5.4.6,0,1.1.7,1.7,1l-1,.3H544l-21.3.5-3.7.3-2.4.6Z"/><path class="cls-15" d="M403,559.8v1.7l-45.9-.7c-3.3-.1-6.6,0-9.9.1l-8.1-1.1Z"/><path class="cls-2" d="M477.9,513.7h4.3l-11.9,9.1-.4-.3v-2Z"/><path class="cls-6" d="M522.7,498.6l21.3-.5Z"/><path class="cls-14" d="M461.4,530.1l-4.4-1.4.9-2.5,4.1.5-.6,3.4Z"/><path class="cls-2" d="M461.4,530.1l.6-3.4h0l4.8-1.2.3.3Z"/><path class="cls-2" d="M484.4,512.2l3.8-2.4Z"/><path class="cls-2" d="M469.2,523.9l-2.1,1.9-.3-.3,2.1-1.9Z"/><path class="cls-2" d="M488.1,509.9l2-1.1Z"/><path class="cls-2" d="M483,513.3l1.4-1.2Z"/><path class="cls-9" d="M562.8,588.6l2.3-.5Z"/><path class="cls-6" d="M516.6,499.5l2.4-.6Z"/><path class="cls-14" d="M315.1,470.8a19.8,19.8,0,0,0,1.1-2A19.8,19.8,0,0,1,315.1,470.8Z"/><path class="cls-14" d="M318.1,466.8c.5-.7.9-1.4,1.4-2S318.6,466.1,318.1,466.8Z"/><path class="cls-2" d="M490.1,508.8l1.2-.8Z"/><path class="cls-6" d="M546.1,498.1l1-.3a1.9,1.9,0,0,1,.2.7Z"/><path class="cls-2" d="M470.3,522.9l-1.1,1-.3-.3,1-1Z"/><path class="cls-14" d="M316.1,468.9l1.1-1.1Z"/><path class="cls-14" d="M317.1,467.8l1-1.1Z"/><path class="cls-2" d="M231.8,521.9a7.1,7.1,0,0,0,1,1.4A7.1,7.1,0,0,1,231.8,521.9Z"/><path class="cls-2" d="M597,509.5c1.4-.3,3-.3,4.2-.9s1.9-1.5,2.8-2.4l7.1-1.4h7.8l25-9,26.2-8.2,16.4-3.8,5.2-2.2h9.4c2.2,0,4.6-.6,4.7,2.7l-19.2,4.1-2.5.4L665,493.7c-10.2,3.6-20.7,6.4-30.5,10.8C622.3,510.1,610,511.2,597,509.5Z"/><path class="cls-9" d="M583.1,538.7l-6.3-16c7.8,1.5,12.3,6.4,16.3,12l-2,2H591Z"/><path class="cls-15" d="M624.4,520.3l57.3-24.2.7,1.7L625.1,522C624.9,521.4,624.6,520.9,624.4,520.3Z"/><path class="cls-9" d="M686.6,488.5l19.2-4.1,3.2,1.4a4.1,4.1,0,0,0,.1,1.1c-5.2,2.3-10.4,4.5-15.6,6.9-1.3.6-2.3,1.9-3.5,2.9h0l-4.6-.3,7.5-5.5Z"/><path class="cls-9" d="M583.1,547.8c0-2,0-4-.1-6v-1.1h0c2.7-1.3,5.4-2.6,8-4h3c1,2.3,2,4.7,3.1,7Z"/><path class="cls-15" d="M583.1,547.8l14-4.1,16-4-15.1,6-15,5-21.3,6.2-7.6,1.9H554l23.6-8.7Z"/><path class="cls-9" d="M585.2,565.7c-4.8,8.1-10.2,15.5-20.2,17.7,2-2.1,4.3-4,6.1-6.3a64.5,64.5,0,0,0,4.9-7.5Z"/><path class="cls-15" d="M709.1,486.9a4.1,4.1,0,0,1-.1-1.1,52.7,52.7,0,0,0,5.6-1.9c3.2-1.4,7.4-1.5,8.3-6.1,1.2.3,2.6,1.2,3.5.8,3.2-1.1,6.3-2.7,9.4-4.1l5.2,1.1v.2Z"/><path class="cls-15" d="M585.2,565.7l-9.2,3.9-12.4,3.6a3.6,3.6,0,0,0-.4-.9l16.9-7.5,11.9-3.3.4,1-2.3,1.2Z"/><path class="cls-15" d="M645.1,530.7l-32.1,9Z"/><path class="cls-15" d="M619.1,523.8l-17.9,9.5-1-2.2,18.8-7.4Z"/><path class="cls-9" d="M665,493.7l19.1-4.8c-.7.9-1.2,2.5-2,2.7C676.4,492.5,670.7,493,665,493.7Z"/><path class="cls-15" d="M764.3,468.9l-13.1,4.3-.5-1.5,13.1-4.4Z"/><path class="cls-15" d="M583,540.7v1.1l-12.9,5H570Z"/><path class="cls-15" d="M570.1,546.8,560,552.9l-.9-1.8,10.9-4.4Z"/><path class="cls-15" d="M591,536.7c-2.6,1.4-5.3,2.7-8,4a14.1,14.1,0,0,1,.1-2Z"/><path class="cls-15" d="M594,536.7h-2.9l2-2,4.8-2,.6.9Z"/><path class="cls-15" d="M741,475.6l6.8-3.4.6,1.7-7.3,1.9Z"/><path class="cls-15" d="M773.1,465.8l-5.9,2.3-.4-1.6,6.2-.8Z"/><path class="cls-15" d="M554.1,558.8l-6,2H548l6-2Z"/><path class="cls-15" d="M619,523.7l2.8-2.3.6,1.3-3.3,1.1Z"/><path class="cls-2" d="M591,508.8l3.9.5Z"/><path class="cls-15" d="M548.1,560.8l-1.2.7-.2-.4,1.3-.4Z"/><path class="cls-9" d="M690,496.7l.5.3-.5-.3Z"/><path class="cls-18" d="M539.2,671.8c-7.8,1.3-15.6,3.2-23.4,3.8-11.9.8-24,1.6-35.9.9-15.5-.9-31.1-2.2-46.3-5.1-20.1-3.9-39.9-9.5-59.9-14.3-4-.9-6-3.2-5.6-7.4,1.4-.3,3-1.1,4.3-.8,10.2,2.3,20.2,5.3,30.4,7.2,12.4,2.3,24.8,4.6,37.3,5.5,17.7,1.4,35.5,1.7,53.2,2,6.6.1,13.2-1.6,19.8-1.5,8.4.1,16.8,1.5,24,6.4C538.1,669.2,538.5,670.7,539.2,671.8Z"/><path class="cls-8" d="M722,636.7h-.8l-27-9.1h-.1l-5.6-4.6c17.7-2.8,34.4-6.8,51.5-2.9,4.1,1,8.2,3.7,11.4,6.6s2.9,7.4-2.3,8.7a59.4,59.4,0,0,1-11.9,1.3C732.2,636.9,727.1,636.7,722,636.7Z"/><path class="cls-4" d="M722,636.7c5.1,0,10.2.2,15.2,0a59.4,59.4,0,0,0,11.9-1.3c5.2-1.3,6.4-5.2,2.3-8.7s-7.3-5.6-11.4-6.6c-17.1-3.9-33.8.1-51.5,2.9l5.6,4.6c-5.4-.1-9.1-2.9-10-7.9,15.9-3.2,31.8-5.8,48.1-4.9,6.5.3,12.9,1.1,18,5.8,1.9,2.4,3.9,4.7,5.9,7.1-.1,6.9-3,10.4-10.1,10.9a206.2,206.2,0,0,1-20.8,0C724.1,638.6,723.1,637.4,722,636.7Z"/><path class="cls-4" d="M694.2,627.6l27,9.1c-9.3-.9-18.6-1.4-26.4-7.4C694.4,629,694.4,628.2,694.2,627.6Z"/><path class="cls-4" d="M685.1,609.8c-.3,3.3-.7,6.6-1.1,9.9l-4-4.5C681.9,613.3,683.5,611.6,685.1,609.8Z"/><path class="cls-14" d="M393.1,396.7c.6-.7,1.3-1.3,2-2,5.1-.6,10.1-1.6,15.2-1.9,14.2-.8,25.4,6.3,34.7,15.7,16.9,17.4,28.8,38.2,38.6,60.2l6.9,15.7-1.2.6c-1.7-2.6-3.7-5-5.2-7.8-7.5-14.1-16.1-27.5-28.3-38a96.4,96.4,0,0,0-20-12.6c-3.7-1.9-8.7-1.4-13.1-1.9-8.9-.9-17.8-2.1-25.7-6.7s-9-10.7-4.9-18.5C392.6,398.6,392.7,397.6,393.1,396.7Z"/><path class="cls-10" d="M575.1,356.6c-1.3,1.9-2.2,4.1-3.8,5.4a51.4,51.4,0,0,0-17.2,25.3c-3.4,10.6-6.9,21.1-9.5,31.8-1.7,6.8-1.8,14.1-2.6,21.1s-1.3,11.7-2,17.5c-.6-8.9-1.6-17.9-1.7-26.9,0-7.4,1.2-14.7,1.6-22.1.1-1.6-1.2-3.3-1.8-5h.9c.7-1.1,1.7-2.1,2-3.3,3.2-12.4,6.6-24.7,14.8-35.1a66.1,66.1,0,0,0,8-14.5c2.3-5.5,3.6-11.4,5.3-17.2Z"/><path class="cls-3" d="M271.9,486.7c-2.8.5-2-1.5-2-2.9s.1-1.2.2-1.7l19.2-26.3,3.9-7.8,2.6-3.3.3-1c1.1-1.9,2.1-3.8,3.1-5.7l.9-2.2.3-1.6c2.6-4.8,5.1-9.7,7.6-14.5l2.4-5.9.6-2c3.8-11.1,7.5-22.1,11.3-33.1l3.7,1.9c-3.4,10.9-6.4,21.9-10.4,32.6A228.5,228.5,0,0,1,289.8,463C284.2,471.1,277.9,478.8,271.9,486.7Z"/><path class="cls-14" d="M367.1,392.7l-16.2,12.7c-1.2.9-2,2.4-3.2,3.1s-2.7.5-4,.7-.4-2.7.1-3.7c4.3-8.8,8.8-17.6,13.3-26.4.6-1.2,1.3-2.3,2-3.5,1.1,1.3,2.3,2.5,3.3,3.9s2.4,4.2,3.6,6.2h0C366.4,388.1,366.8,390.4,367.1,392.7Z"/><path class="cls-14" d="M371.1,360.7l11.8-4c2,8.3,4.1,16.7,6.1,25l-8.1,2.2c-.8-.5-2.1-.9-2.3-1.6C376,375.2,373.6,368,371.1,360.7Z"/><path class="cls-14" d="M391,379.8c-1.9-8-3.8-16.1-5.8-24.1,2.8.3,5.7.1,8.2,1.1,4.6,1.8,7.5,5.8,7.3,10.4S396.6,377.4,391,379.8Z"/><path class="cls-14" d="M361.1,371.7l7.9-8,8.1,22-6.1,5.1-5-5.1h0C364.4,381.1,362.8,376.4,361.1,371.7Z"/><path class="cls-5" d="M361.1,371.7c1.7,4.7,3.3,9.4,4.9,14-1.2-2-2.3-4.2-3.6-6.2s-2.2-2.6-3.3-3.9-.8-4.2-1.7-6.1q-11.4-23.4-23-46.8c-2.7-5.6-5.5-11.1-8.2-16.8-.7-1.5-.8-3.4-1.2-5.2h1c7.8,15.1,15.6,30.2,23.2,45.5C353.4,354.6,357.2,363.2,361.1,371.7Z"/><path class="cls-5" d="M377.1,385.7l-8.1-22c-3.5-9.4-7.3-18.8-10.5-28.3s-5.7-18.4-8.5-27.7c2.9,7,5.8,14,8.5,21,3.7,9.8,7.3,19.7,10.9,29.6a13.1,13.1,0,0,0,1.7,2.4c2.5,7.3,4.9,14.5,7.5,21.6.2.7,1.5,1.1,2.3,1.6l2.7,12.2-.7.3c-1.6-2.6-3.2-5.1-4.7-7.7l-1.2-3Z"/><path class="cls-5" d="M366,385.7l5,5.1c2.5,6.8,5,13.6,7.6,20.4l-1,.5-10.5-19C366.8,390.4,366.4,388.1,366,385.7Z"/><path class="cls-14" d="M469.9,522.6l-1,1-2.1,1.9-4.8,1.2,7.9-6.1Z"/><path class="cls-14" d="M377,385.7l1.2,3Z"/><path class="cls-21" d="M289.3,455.8l-19.2,26.3c-1.6-.9-3.6-1.5-4.8-2.8-22.6-24.8-41.5-51.9-53.9-83.2-10.5-26.7-15.7-54.3-13.8-83a29.1,29.1,0,0,1,.4-3.1c5.9.7,11.6,1,17.3,1.9a162.7,162.7,0,0,1,60,21.6,33.1,33.1,0,0,1,5,4.1c-3.4,4.9-7.1,9.7-10.3,14.8s-5.4,8.2-6.7,12.7a93.8,93.8,0,0,0-4.2,21.6,129.2,129.2,0,0,0,.7,27.1c1.8,12.6,9.2,23,16.2,33.1C279.1,451.3,282.6,456.3,289.3,455.8Z"/><path class="cls-22" d="M289.3,455.8c-6.7.5-10.2-4.5-13.3-8.9-7-10.1-14.4-20.5-16.2-33.1a129.2,129.2,0,0,1-.7-27.1,93.8,93.8,0,0,1,4.2-21.6c1.3-4.5,4.1-8.7,6.7-12.7s6.9-9.9,10.3-14.8l14.8,12.1c-1,0-2.3-.3-2.9.3-4.1,3.9-9.3,7.3-11.8,12.1a97.7,97.7,0,0,0-7.9,23.2c-3.7,16.3-.5,31.6,8.7,45.6,1.5,2.3,4.4,3.9,5.3,6.3,1.9,4.6,5.3,6,9.6,6.5l-.3,1-2.6,3.3Z"/><path class="cls-23" d="M308,419.7c-2.5,4.8-5,9.7-7.6,14.5.2-2.3.3-4.6.5-7.9l-5.5,4.5c-1.8-3.4-3.6-5.9-4.6-8.7-3.6-9.7-6.6-19.4-5.9-30a56.5,56.5,0,0,1,9.9-27.6c2-3,3.7-6.2,5.6-9.3,3.7,3.3,7.4,6.5,10.9,9.9,1.5,1.5,2.5,3.6,3.8,5.5-1.2,4.2-2.2,8.4-3.5,12.6-.3,1-1.4,1.7-2,2.7s-2.2,3.1-2.5,4.7c-1.4,7.5.8,14.5,3.9,21.2l-.6,2Z"/><path class="cls-24" d="M300.4,355.2c-1.9,3.1-3.6,6.3-5.6,9.3a56.5,56.5,0,0,0-9.9,27.6c-.7,10.6,2.3,20.3,5.9,30,1,2.8,2.8,5.3,4.6,8.7l5.5-4.5c-.2,3.3-.3,5.6-.5,7.9l-.3,1.6-.9,2.2c-1,1.9-2,3.8-3.1,5.7-4.3-.5-7.7-1.9-9.6-6.5-.9-2.4-3.8-4-5.3-6.3-9.2-14-12.4-29.3-8.7-45.6a97.7,97.7,0,0,1,7.9-23.2c2.5-4.8,7.7-8.2,11.8-12.1.6-.6,1.9-.3,2.9-.3Z"/><path class="cls-12" d="M311,411.8c-3.1-6.7-5.3-13.7-3.9-21.2.3-1.6,1.6-3.2,2.5-4.7s1.7-1.7,2-2.7c1.3-4.2,2.3-8.4,3.5-12.6l7.2,8.1C318.5,389.7,314.8,400.7,311,411.8Z"/><path class="cls-19" d="M569.1,333.6c-1.7,5.8-3,11.7-5.3,17.2a66.1,66.1,0,0,1-8,14.5c-8.2,10.4-11.6,22.7-14.8,35.1-.3,1.2-1.3,2.2-2,3.3-1-16-2.4-31.9-2.8-48a356,356,0,0,1,1.7-38.6c1.1-11.6,3.2-23.2,5.2-34.7a91.2,91.2,0,0,1,3.4-12.4c1.1-3.4,2.9-2.1,4.6-.3,3.3,10.7,6.7,21.3,9.9,32,2.5,8.5,4.9,17,7.3,25.6A43.4,43.4,0,0,1,569.1,333.6Z"/><path class="cls-19" d="M569,320.7c-2.6-8.9-5.3-17.8-7.9-26.8-1.4-4.7-2.6-9.4-3.9-14.2,6,7,8.8,15.4,11,24.2C569.5,309.5,572.2,314.9,569,320.7Z"/><path class="cls-19" d="M557,278.6a14.2,14.2,0,0,0-.8-1.8A14.2,14.2,0,0,1,557,278.6Z"/><path class="cls-10" d="M431,1023.7l-.4-.2.4.2Z"/><path class="cls-6" d="M722.9,477.8c-.9,4.6-5.1,4.7-8.3,6.1a52.7,52.7,0,0,1-5.6,1.9l-3.2-1.4c-.1-3.3-2.5-2.7-4.7-2.7h-9.4c7.8-21.3,3.7-40.6-11.5-56.8s-33.4-20.4-54-14.1-34.9,21.9-37.8,44.4c-2.7,20.7,4.3,38.1,22.7,49.7l-7.1,1.4-8-.4-10-1.1-5.9-5.2a43.2,43.2,0,0,0-1.6-5.1c-14.2-31.7-10.8-61.3,12.4-87.2,18.4-20.5,42.4-28.3,69.6-23.7,9.3,1.6,18.1,6.1,27.1,9.3l2.4,1.1h-.1a5.2,5.2,0,0,0,1.1,1h-.1l13,11.2c4.3,6.1,9.2,11.8,12.7,18.3C725.6,441.3,727.1,459.2,722.9,477.8Z"/><path class="cls-14" d="M599.1,341.8c-.3-7-.5-14.1-.8-21.1,6.5,3.5,13.6,6.2,19.4,10.6s13.5,12.1,20,18.4c1,1,1,2.9,1,4.8C625.7,348.6,613.1,343,599.1,341.8Z"/><path class="cls-3" d="M738.1,391.8a17.5,17.5,0,0,1-4.3,1.7c-1.5.1-3.1-.5-4.7-.8-4.3-3-8.4-6.4-12.9-9.1a166.9,166.9,0,0,1-33.7-25.9c-11.5-11.7-22.6-23.9-33.8-35.9a29.6,29.6,0,0,1-2.6-4.2l3.1-1c4.4,5.3,8.7,10.8,13.5,15.8s12,11.8,18.1,17.6l1.3,1.8.8.8,10.9,9.3,10.2,8.6a.9.9,0,0,0,.8.5l1.1.6.3.2.8.8,4.8,3.2c8.1,4.8,16.2,9.6,24.2,14.5Z"/><path class="cls-14" d="M690,393.9l-2.4-1.1Z"/><path class="cls-14" d="M691,394.8a5.2,5.2,0,0,1-1.1-1A5.2,5.2,0,0,0,691,394.8Z"/><path class="cls-3" d="M639,308.7l1.1,1Z"/><path class="cls-21" d="M736,390.3c-8-4.9-16.1-9.7-24.2-14.5,1.5-4.8,2.4-9.8,4.5-14.2,7.2-15.3,5.9-31.3,2.9-46.8-3.4-17.6-14-31.7-28.4-42.3-5.8-4.2-11.7-10.1-20.3-8.7,15.1-26.1,37.6-43.7,63.7-57.6,3.7-1.9,5.1,0,6.4,2.9a192.2,192.2,0,0,1,15.6,54c5.1,37.7-.3,74.3-11.9,110.1-1.6,4.8-3.2,9.5-5.1,14.1C738.7,388.5,737.1,389.3,736,390.3Z"/><path class="cls-24" d="M704,370.5l-10.2-8.6c-1.8-3.5-2.6-6.5-.1-10.6s2.7-8.1,3.2-12.3c1.3-10-1.8-19.3-5.5-28.4a23.8,23.8,0,0,0-4.3-7.2c-6-6.4-12.3-12.6-18.5-18.9l-5.6,3.6c-.5-3.1-.8-5.2-1.1-7.3l.9-3.2c.3-.4.5-.9.8-1.4l1.2-1.6,6.1-2.6,3.2,5.3c4.8-2.9,8.9-.2,11.9,2.7,8.5,8.2,15.9,17.1,21.2,28.2s4.9,23.4,4.5,35.3c-.3,5.6-.3,12.3-6.5,14.6.5,2.4,1.3,4.3,1.1,6.1S704.8,368.4,704,370.5Z"/><path class="cls-22" d="M704,370.5c.8-2.1,2-4.2,2.3-6.3s-.6-3.7-1.1-6.1c6.2-2.3,6.2-9,6.5-14.6.4-11.9,1-23.7-4.5-35.3s-12.7-20-21.2-28.2c-3-2.9-7.1-5.6-11.9-2.7l-3.2-5.3-6.1,2.6,5.7-10.8c8.6-1.4,14.5,4.5,20.3,8.7,14.4,10.6,25,24.7,28.4,42.3,3,15.5,4.3,31.5-2.9,46.8-2.1,4.4-3,9.4-4.5,14.2l-4.8-3.2-.8-.8-.3-.2-1.1-.6A.9.9,0,0,1,704,370.5Z"/><path class="cls-23" d="M661.9,280.8c.3,2.1.6,4.2,1.1,7.3l5.6-3.6c6.2,6.3,12.5,12.5,18.5,18.9a23.8,23.8,0,0,1,4.3,7.2c3.7,9.1,6.8,18.4,5.5,28.4-.5,4.2-1.1,8.9-3.2,12.3s-1.7,7.1.1,10.6l-10.9-9.3-.8-.8-1.3-1.8c.8-4.2,3-8.3.3-12.6-.3-.5,0-1.3.2-2,1.6-7.8-1.7-14.4-5.1-20.9-4.6-8.7-13.4-12.3-21.3-16.8.2-1.4.5-2.8.8-4.2l.7-.2-.5-.5Z"/><path class="cls-12" d="M654.9,297.7c7.9,4.5,16.7,8.1,21.3,16.8,3.4,6.5,6.7,13.1,5.1,20.9-.2.7-.5,1.5-.2,2,2.7,4.3.5,8.4-.3,12.6-6.1-5.8-12.3-11.5-18.1-17.6s-9.1-10.5-13.5-15.8Z"/><path class="cls-12" d="M655.9,292.8l.5.5-.7.2A2.5,2.5,0,0,1,655.9,292.8Z"/><path class="cls-23" d="M663.6,276.2c-.3.5-.5,1-.8,1.4S663.3,276.7,663.6,276.2Z"/><path class="cls-25" d="M377.1,465.4c13.7-5.9,25.9-1.8,36.8,6.5,5,3.7,8.7,9.1,12.9,13.8-.2,1.4-1,3-.6,4.2,3.5,13.2-4.5,30-18.7,36.1-2.2-3.1-4.5-3.7-6.8-.1l-.4.2v1.7L388.1,529c-12.8-3.1-22.2-10.1-26-23.2,6.4-1.1,9.7-4.2,10-9.5s-3.2-9.2-10.1-10.6c.8-2,1.1-4.4,2.3-5.9C368.4,474.8,372.8,470.2,377.1,465.4Z"/><path class="cls-11" d="M378.8,545.6l-27.4,4c-16.3-16.3-20-35.4-12.3-56.7A41,41,0,0,1,358,470.6a17.6,17.6,0,0,1-1.7,3.7c-13.2,18.3-11.8,43.6,4.4,59.3C365.8,538.6,372.7,541.7,378.8,545.6Z"/><path class="cls-26" d="M407.5,526c14.2-6.1,22.2-22.9,18.7-36.1-.4-1.2.4-2.8.6-4.2,2.1,4.3,4.1,8.7,6.2,13.1.3,1,.6,2,.8,3h.1c.8,9.6-1,18.6-7.9,25.6-4.3,4.5-8.9,9.1-14.3,11.8-8.6,4.3-18.1,6-27.7,2.6l14.4-11.4L388.1,529l12.2-1.2c1.5.9,3.3,2.7,4.5,2.4S406.6,527.5,407.5,526Z"/><path class="cls-27" d="M384,541.9c9.6,3.4,19.1,1.7,27.7-2.6,5.4-2.7,10-7.3,14.3-11.8,6.9-7,8.7-16,7.9-25.6a38.2,38.2,0,0,1-.8,22.7l-1,2.2h0c-6.2,7.3-13,13.8-21.8,17.8l-31.5,1.1c-6.1-3.9-13-7-18.1-12-16.2-15.7-17.6-41-4.4-59.3a17.6,17.6,0,0,0,1.7-3.7h0l2.1-1.1H360l.8-1,11.3-3.9c-2.5,2.1-5.4,3.9-7.6,6.3-5.4,5.6-10.5,11.5-11.3,19.8-.3,2.2-.7,4.4-1,6.7-1.9,10,.5,19.2,6.1,27.3S372.5,540.7,384,541.9Z"/><path class="cls-28" d="M353.2,490.9c.8-8.3,5.9-14.2,11.3-19.8,2.2-2.4,5.1-4.2,7.6-6.3l5,.6c-4.3,4.8-8.7,9.4-12.8,14.4-1.2,1.5-1.5,3.9-2.3,5.9Z"/><path class="cls-29" d="M410.3,544.5c8.8-4,15.6-10.5,21.8-17.8-3,6-6,12-9.1,18Z"/><path class="cls-27" d="M433.8,501.8c-.2-1-.5-2-.8-3C433.3,499.8,433.6,500.8,433.8,501.8Z"/><path class="cls-29" d="M432.1,526.8l1-2.2Z"/><path class="cls-11" d="M360.1,469.6l-2.1,1.1Z"/><path class="cls-11" d="M360.8,468.7l-.8,1Z"/><path class="cls-21" d="M492.8,542c-3.3-.8-3-3.1-1.4-4.8,3.4-3.5,6.8-7.5,11-9.8,12.3-6.8,25.4-10.3,39.7-7.7,6.1,1.1,8,2.7,9,7.2C533.7,539.7,514.4,545.3,492.8,542Zm29.8-11.4c-4.6-4.6-21.1-2.4-23.9,3.4-.5,1,.3,3.8,1.3,4.3C506,541.4,519,536.7,522.6,530.6Z"/><path class="cls-16" d="M492.8,542c21.6,3.3,40.9-2.3,58.3-15.1-.6,11.4-7.9,18.6-16.9,23.4-13.4,7.2-27,6.4-39.5-2.9C493.1,546.3,489.3,545.2,492.8,542Z"/><path class="cls-2" d="M586,504.7l10,1.1Z"/><path class="cls-13" d="M611.1,504.8c-18.4-11.6-25.4-29-22.7-49.7,2.9-22.5,16-37.7,37.8-44.4s39.3-1.5,54,14.1,19.3,35.5,11.5,56.8l-5.2,2.2a49,49,0,0,0,4.3-29.9c-1.9-5.3-3.9-10.6-5.9-16L675,426.7h.1l-1.2-1c-4.9-3.5-9.4-8.1-14.9-10.2-10.1-3.9-20.7-6.3-31.1,0l-14.9,6-3,3.1h0l-8.7,7.8c-4.9,7.3-8.5,15.1-9.2,23.9-1.7,22,6.8,38.4,26.8,48.4Z"/><path class="cls-11" d="M618.9,504.8c-20-10-28.5-26.4-26.8-48.4.7-8.8,4.3-16.6,9.2-23.9-.3,1.8-.5,3.6-.9,5.4-3.4,15.5-.8,29.6,9.9,41.8,8.9,10.2,20.5,14.8,33.6,16.1Z"/><path class="cls-27" d="M643.9,495.8c-13.1-1.3-24.7-5.9-33.6-16.1-10.7-12.2-13.3-26.3-9.9-41.8.4-1.8.6-3.6.9-5.4l8.7-7.8c-4,8.2-7,16.5-7.1,25.9-.3,23.4,23.2,43.9,45,40.8a13,13,0,0,0,3.4.2c16-3,29.6-15.4,33.8-30.7a40.9,40.9,0,0,0-.2-23c2,5.4,4,10.7,5.9,16-2.9,7-5.1,14.4-8.9,20.9-2.9,4.9-7.8,8.6-11.8,12.8Z"/><path class="cls-29" d="M670.1,487.6c4-4.2,8.9-7.9,11.8-12.8,3.8-6.5,6-13.9,8.9-20.9a49,49,0,0,1-4.3,29.9Z"/><path class="cls-12" d="M308,419.7l2.4-5.9Z"/><path class="cls-24" d="M293.2,448l2.6-3.3Z"/><path class="cls-23" d="M299.2,438l.9-2.2Z"/><path class="cls-24" d="M706.2,371.8l.8.8Z"/><path class="cls-24" d="M704.8,371l1.1.6Z"/><path class="cls-12" d="M682.1,351.8l.8.8Z"/><path class="cls-28" d="M384,541.9c-11.5-1.2-19.5-8-25.7-17s-8-17.3-6.1-27.3c2,4.2,4.4,8.1,9.9,8.2,3.8,13.1,13.2,20.1,26,23.2l10.3,1.5Z"/><path class="cls-8" d="M362.1,505.8c-5.5-.1-7.9-4-9.9-8.2.3-2.3.7-4.5,1-6.7l8.8-5.2c6.9,1.4,10.3,5,10.1,10.6S368.5,504.7,362.1,505.8Z"/><path class="cls-29" d="M407.5,526c-.9,1.5-1.5,3.9-2.7,4.2s-3-1.5-4.5-2.4c0-.4.1-.9.1-1.3l.3-.2v-.4C403,522.3,405.3,522.9,407.5,526Z"/><polygon class="cls-26" points="400.7 525.9 400.7 526.3 400.4 526.5 400.3 526.1 400.7 525.9"/><path class="cls-8" d="M522.6,530.6c-3.6,6.1-16.6,10.8-22.6,7.7-1-.5-1.8-3.3-1.3-4.3C501.5,528.2,518,526,522.6,530.6Z"/><path class="cls-25" d="M627.9,415.6c10.4-6.3,21-3.9,31.1,0,5.5,2.1,10,6.7,14.9,10.2l1.2,1H675c.8,2.5,1.7,5,2.4,7.6,4.7,15.5-2.4,32.4-16.3,38.7-4.3-2.9-4.7,1.3-6.2,3.4-19.9,2.4-32-3.3-39.6-18.6,6.4-2.8,8.7-6.2,7.7-11.5s-4.4-7.1-10.2-7.6C614.2,428.6,619.5,421.1,627.9,415.6Z"/><path class="cls-28" d="M615.3,457.8c7.6,15.3,19.7,21,39.6,18.6l2.2,1.3-9.2,13.7c-21.8,3.1-45.3-17.4-45-40.8.1-9.4,3.1-17.7,7.1-25.9h0l3-3.1,14.9-6c-8.4,5.5-13.7,13-15.1,23.1-6.2,2.3-9.1,6-8.3,10.6S608.3,457.3,615.3,457.8Z"/><path class="cls-26" d="M647.9,491.4l9.2-13.7c3.3.1,5.4-.7,4-4.7,13.9-6.3,21-23.2,16.3-38.7-.7-2.6-1.6-5.1-2.4-7.6l9.9,11.2a40.9,40.9,0,0,1,.2,23c-4.2,15.3-17.8,27.7-33.8,30.7A13,13,0,0,1,647.9,491.4Z"/><path class="cls-27" d="M613,421.6l-3,3.1Z"/><path class="cls-26" d="M675.1,426.8l-1.2-1Z"/><path class="cls-8" d="M615.3,457.8c-7-.5-9.9-2.9-10.8-8.5s2.1-8.3,8.3-10.6c5.8.5,9.5,3.2,10.2,7.6S621.7,455,615.3,457.8Z"/><path class="cls-29" d="M661.1,473c1.4,4-.7,4.8-4,4.7l-2.2-1.3C656.4,474.3,656.8,470.1,661.1,473Z"/></svg>