<svg id="Layer_1" data-name="Layer 1" xmlns="http://www.w3.org/2000/svg" viewBox="0 0 916.1 922.7"><defs><style>.cls-1{fill:#ca7a31;}.cls-2{fill:#ead5ca;}.cls-3{fill:#ab642c;}.cls-4{fill:#ba612a;}.cls-5{fill:#fefdfb;}.cls-6{fill:#d6873f;}.cls-7{fill:#ce7d33;}.cls-8{fill:#f7e1cf;}.cls-9{fill:#ce8a4e;}.cls-10{fill:#fbe3d5;}.cls-11{fill:#fef7eb;}.cls-12{fill:#e9d0bf;}.cls-13{fill:#d0baad;}.cls-14{fill:#fceadb;}.cls-15{fill:#fcefd7;}.cls-16{fill:#fbe5c2;}.cls-17{fill:#fbdfad;}.cls-18{fill:#ce782b;}.cls-19{fill:#c79461;}.cls-20{fill:#fdefdf;}.cls-21{fill:#e92925;}.cls-22{fill:#241812;}.cls-23{fill:#dc8e4e;}.cls-24{fill:#e69959;}.cls-25{fill:#2e2d2b;}.cls-26{fill:#7e2020;}.cls-27{fill:#8f8782;}.cls-28{fill:#703c1c;}.cls-29{fill:#636263;}</style></defs><path class="cls-1" d="M751.2,349.8l-3.1,4.7h0l-3,3.1h0c-4.9,2.1-9.7,4.9-14.9,6.1-8.4,2.2-16.2-1-24-4.1l-1.9-.9-14.9-17.2-.2.2.3-.2-21.9-16-3.6-2.5c4.9,1.4,10.1,2,14.6,4.2,13.1,6.4,25.9,13.5,39,20.1,1.9.9,4.5.5,6.8.7l.4-1.2-6.4-6,3.9-2.1-4.1-2.4.5-1.5,12.6.8c-2.2-2.8-7.7-5.4-.7-7.5.8-3-9.4-4.3-.8-8.3l-2.9-3.5,8.2-2.3-3.1-4.7,3.1.3c6.2,0,8.2-3.6,5.5-9.1a159.1,159.1,0,0,0-35-45.6c-4.7-4.3-10.3-7.5-15.5-11.2.2-4.3.1-8.2-2.7-12.2-1.4-2.1-.5-6.4.3-9.5,5.3-19.2,12.4-37.7,23.3-54.6,6.1-9.6,13.1-18.4,22.6-24.9l-2.5-1.8a2.8,2.8,0,0,0,.1-.9h17c15.3,6,23.2,18,27.3,33.3a44.3,44.3,0,0,0,1.7,4.7v31c-1,1.7-2.4,3.3-2.8,5.1-2.3,9.7-3.9,19.5-6.5,29.1s-6.4,19.8-9.7,29.6c-.4,1.4-.7,2.9-1.2,4.3l-7.6,21.5,4.1-.5c-.9,7.7-1.7,15.3-2.8,22.8s1.6,11.1,4.6,16A35.9,35.9,0,0,0,757,340a4.9,4.9,0,0,1-.1,1.2ZM721.9,161.6l-.7,1-.8,1a.8.8,0,0,0-.4.7l-3.9,6.3h0l-.8,1.1-.4.9c-5.9,13.5-11.8,26.9-17.6,40.4a56.4,56.4,0,0,0-2.3,8.3,18.3,18.3,0,0,0-.8,2.5,1,1,0,0,0-.2.9c-1.6,3.6,0,6.1,2.9,8s7.4,5.9,7.8,11.4c0,1.4,1.9,2.9,3.3,3.9s5.9,3.3,8.7,5.3c1.3,1,2,2.9,3.3,4.8s-.2,2.3.4,2.7c5.8,3.5,11.8,6.8,17.7,10.1v1.8l-4.8,2.5c3.1,1.3,5.1,5.1,9,3.2l1.9-.7,4.9,1.7a68.4,68.4,0,0,0,10-31.6l.3-2,3.6-37v-7l-.6-13.1-.3-3a72.5,72.5,0,0,0-6.9-30.7c-.8-1.8-2.4-3.1-3.7-4.6h0a13,13,0,0,0-15.8-2.3c-3.7,2.1-6.7,5.6-10,8.5l-2.8,3.8h0Zm2.7,178.5c-.2,0-.3-.2-.4-.2s-.3.2-.4.3l.4.2Z"/><path class="cls-2" d="M521.1,658.6c2.4,4.2,4.1,8.9,7.2,12.4,5.9,6.5,6.9,14.3,6.7,22.1-.4,11.9,5.9,18.4,15.7,22.8,3.6,1.6,7.4,2.6,11.1,4,.6.2.9,1.1,1.4,1.8h17c2.1-1.3,4.1-3,6.4-3.8,4.8-1.7,9.9-2.7,14.7-4.4,15.3-5.7,16-22.9,8.3-32.9-1.5-1.9-4.5-2.9-7.1-3.9s-4.2-.7-6.3-1a30.1,30.1,0,0,1,3.4,2l5.6,4c6.3,7.4,2.7,25.5-5.2,27.9-.9-6.3-1.8-12.6-2.8-19-.9-1.9-1.4-4.9-2.9-5.6-4.1-2-8.6-3.5-13.7-.7,8.6.8,11.7,6.5,13.6,13.4,3.5,4.3,2.9,9-1.8,11.3a52.3,52.3,0,0,1-38.6,3.6c-7.6-2.2-14.2-10.2-14.6-17.2-.3-5.2-.6-10.5-1-15.8C537.5,670.6,529.9,661.1,521.1,658.6Z"/><path class="cls-3" d="M177.2,590.7a14.8,14.8,0,0,1,1.7,3.3c3.8,17.6,14,30.9,27.8,41.9,6.9,5.4,13.7,11,20.1,17.1,4.3,4.1,8.7,8.8,4.2,15.6l13.1-7.9c-3.6-3.3-6.6-6.3-9.8-8.9-10.3-8.8-20.8-17.4-31.2-26.1a8.5,8.5,0,0,1-2.2-.9c-12.2-10.9-18.2-24.8-19.6-40.7-1.2-13.3,2.8-25.9,8-38,6.2-14.6,14.1-28.2,26.9-38.2a8.1,8.1,0,0,0,1.7-2.4,6,6,0,0,0-.8-.8c-3.7,2.9-7.3,5.9-10.9,8.9h-3.3c-10.3,16.2-20.8,32.3-24,51.9a13,13,0,0,1-1.7,3.3Z"/><path class="cls-4" d="M777.2,208.7c-1,1.7-2.4,3.3-2.8,5.1-2.3,9.7-3.9,19.5-6.5,29.1s-6.4,19.8-9.7,29.6c-.4,1.4-.7,2.9-1.2,4.3l-7.6,21.5,4.1-.5c-.9,7.7-1.7,15.3-2.8,22.8s1.6,11.1,4.6,16v-2l-.6-2.3-.8-2.6c-.4-4.2-1.2-8.4-1.3-12.6s.8-6.2,1-9.4c.4-6.2,1.6-12,5.4-17.3a21.3,21.3,0,0,0,3.4-8.2c4.6-19.7,8.9-39.4,13.4-59.1a8,8,0,0,1,1.3-2.4Z"/><path class="cls-5" d="M576.2,721.7h0Z"/><path class="cls-5" d="M569.2,721.7h0Z"/><path class="cls-4" d="M777.2,205.7v0Z"/><path class="cls-6" d="M664.1,322.8l-2-1.1h.1l-2-1.1h0l-1.1-1h.1l-1.5-1c-8.2-4.9-13.7-12.2-18.6-20.1-3.2-5-6-10.3-9-15.4s-5.9-6.6-9.9-.6c-2.6,3.4-.9,6.7.1,10.1h-.1c2.3,13.2-.2,26.1-1.9,39.1l-3.1,6-5,3c-.1-2.5-.3-5-.4-7.4-.1-5.9-.3-11.7-5.6-15.6h0c-6.6-16.1-26.8-13.9-35.4-4.2-11.6,13.1-7.6,32.9,8.8,38.9,8.8,3.2,18.3,2.8,25.9-4.6a27.8,27.8,0,0,1,2.7-2.1c-1.7,3.6-3.2,7.4-5.1,11-5,10-10.2,19.9-15.4,29.8a3.1,3.1,0,0,1-2.1,1.6l1.4-5.4-4.2,1.8v-5.7l-12.1,9c1.5-3.5,2.4-5.8,3.4-8.3-5.2-.1-5.2-.1-4.5-6.6l-4,.3c-.3-1.7-.5-3.3-.8-5.3l-3.6,1.6a27,27,0,0,1-3.6.9c.2-1.6.3-2.8.4-4.5a12.4,12.4,0,0,0-2,.6c-7.8,4-10.6,2.2-10.8-6.4a178,178,0,0,1,5.6-48.8c1.9-7.8,3.6-15.6,5.6-23.4.5-2.2,1.8-4.2,2.7-6.3l11-12.3,2.1-2.5c1.5-.9,3.2-1.8,4.6-2.8,26.7-18.9,56.7-26.3,88.9-26.4l26.4,6c5.2,3.7,10.8,6.9,15.5,11.2a159.1,159.1,0,0,1,35,45.6c2.7,5.5.7,9.1-5.5,9.1l-3.1-.3,3.1,4.7-8.2,2.3,2.9,3.5c-8.6,4,1.6,5.3.8,8.3-7,2.1-1.5,4.7.7,7.5l-12.6-.8-.5,1.5,4.1,2.4-3.9,2.1,6.4,6-.4,1.2c-2.3-.2-4.9.2-6.8-.7-13.1-6.6-25.9-13.7-39-20.1-4.5-2.2-9.7-2.8-14.6-4.2Zm19.2.9c17.6-.6,24.9-13.5,25.7-29.3.4-7.6-15.9-20.8-25.4-19.5-14,1.8-21.8,7.7-22.4,25.1C660.9,310.4,669.5,324.2,683.3,323.7Z"/><path class="cls-7" d="M202.9,513.5h3.3c.7-5.6,1.1-11.2,2.2-16.6.4-2,2.8-3.6,3.5-5.6,2.6-7.4,9.2-9.3,15.5-11.7s11.6-3.9,17.3-6.1,11.1-4.9,16.8-6.9c8.9-3.1,17.9-5.8,26.7-8.8l31.7-11c3.7-1.2,7.6-2.2,11.3-3.3,7.6-2.1,15.2-4.5,22.9-6.3,10.2-2.5,20.6-4.3,30.8-6.7s19.9-4.6,29.6-7.6,18.5-8,28.2-10,19.5-1.1,29.3-1.3c6.5-.1,12.6-1.3,18.2-5.2,2.6-1.9,6-2.6,9-3.8l3.8-4.1,1.2,1.8-5,2.3,7.1,3.4-5.1,4.7c-.4,1.7-.4,3.9-1.4,5.5-2.7,4.4-5.9,8.3-8.7,12.6-1.5,2.3-2.1,5.4-3.8,7.4a22.7,22.7,0,0,0-6.3,13.2c-.2,1.5-2.2,4-3.2,3.9-4-.4-7.9-1.4-9-6.4a17.7,17.7,0,0,0-2.7-6.8c-1.8-2.4-4-4.9-6.6-6s-8.7-2.1-13.3-3.1c-.8.7-1.7,2.2-2.9,2.4-4.8,1-6,4.5-7.2,8.7-2.7,9.5-3,20.5-14.3,25.1-.5.2-.7,1.1-.8,1.8a33.8,33.8,0,0,0-1.8,6.2c-.6,5.7-5.2,6.7-9.4,6.7-2,.1-4.8-2.5-5.9-4.6s-2.1-8-3.8-11.7-5.3-10.1-8.1-15.1a2.9,2.9,0,0,0-2.6-.8c-3.4,1.4-7.5,2.3-9.9,4.7s-5.6,4.2-8-1.2c-1.2,1.2-2.6,1.9-3,3a7.4,7.4,0,0,1-6.2,4.9c-7.6,1.2-14.8,3.6-22,6.2-1.8.5-3.4,1.2-5.2,1.8a41,41,0,0,1-5,1.4c-5,1-10.6.7-14.9,2.9s-10.1,1.3-15.2,1.3-10.7-.7-15.9,0-6.5,4.5-10,8.9c3.3,0,5.1-.2,6.9,0,7.2.6,14.5,1.2,21.7,2,2.5.3,5,1.3,7.5,1.9,5-4.3,8.4-3.6,13,4.1h0c3.9.1,6.3-1.8,6.7-6.1l6.1,3c-.1-1.8-.2-3-.3-4.4l4.2,1.4v-4.8l3.8,2.4c.4-2.1.8-3.8,1.3-6.1l4.7,3.3c.4-2.3.7-4.3,1-6.9l5,5.3c1.2-4,2.1-7.4,3.3-11.2,1.5,2.4,2.6,4.2,4.2,6.6,1.1-2.7,1.9-4.5,3-7,1.6,2,2.9,3.6,4.3,5.5l6.2-6.5c.9,3.8,1.6,6.6,2.4,9.4h1.3c1.8-5.1,1.2-11.5,7.2-15.3l7.1,28.5,2.1-2.4-1.4,1.4c1.9,1.2,4.1,3.7,5.6,3.3,3.5-.8,3.8,1.2,4.8,3.4s2,4.4,5.2,1,6.6-4,10.1-6l.6,1.3L425,485l3.8,2.9c2-9.1,3.8-17.5,5.7-26l4.9,1.5v-9.3c10,3,3.3-6.2,7.7-8.3l10.3,11.8c.6-2.5.9-3.8,1.2-4.9l7.2,13.6c6.2-1.5,3.9,5.2,7.4,6.8l2.6-1,4,7.3h1.3c1.7-5.4,3.3-10.8,5.1-16.1s3.5-9.9,5.3-15l4.4,2.5c-.6-3.3-1.1-5.9-1.6-8.9l5.3,1.9c-.4-2.9-.8-5.2-1.2-8l4.7,3.1.9-.8-2.8-10.1c8.8,8.2,6.2,1.4,5.2-3.2l5.1,3.4-1.9-8.3,6.2,2-3.5-7.3a20.4,20.4,0,0,1,4.1,1c5.5,3.2,8,2.8,12.2-1.9a26.1,26.1,0,0,1,2.7-1.9,13.4,13.4,0,0,1-.1-2l-3.8-5.3,1.5-1.6-8.4-3.9,3.6-1.2-8.9-6.1h-7a1,1,0,0,1-.7.2l-1.3.8a.7.7,0,0,1-.6.3l-1.3.9h0l-4,2.9h0l-3,2h0l-5,3.1h0l-1.1.7a.8.8,0,0,1-.7.4l-9.1,4.1-2.2.5-10.1,1.6-14.9.4h-2l-10,.2-13,2.9-1.4.5-1.6.7c-15.3,8.6-31.7,12.8-49.2,15.2s-32.4,7.5-48.2,12.6c-26.4,8.4-52.6,17.7-78.9,26.8-9.9,3.5-19.6,7.3-29.4,11.2-12.3,4.9-17.7,14.3-17.3,27.4C203.2,509.1,203,511.3,202.9,513.5Z"/><path class="cls-4" d="M557.1,281.6l11-12.3,2.1-2.5-.4-.2c-19.4-5.4-35.2-17.7-52.4-27.4-11.9-6.7-24.4-12.3-38.2-13.8-5.9-.6-12.1.7-18.2,1l-.8.3-1.8.6-.3,1.5c12.1-.1,23.5,3.5,34.5,8.2,18.4,7.9,34.8,19,50.1,31.9,2.5,2.2,3.9,5.9,5.4,9a66.9,66.9,0,0,1,3.1,8.4Z"/><path class="cls-4" d="M663.7,237.6l26.4,6c.2-4.3.1-8.2-2.7-12.2-1.4-2.1-.5-6.4.3-9.5,5.3-19.2,12.4-37.7,23.3-54.6,6.1-9.6,13.1-18.4,22.6-24.9l-2.5-1.8c-21.7,8.9-32,27.9-41.6,47.4-3.2,6.5-5.4,13.6-8.6,20.1s-7.2,13-10.9,19.4C668,231,665.8,234.2,663.7,237.6Z"/><path class="cls-8" d="M508.2,391.6h6.9l1.1-1,10.8,5c8.9-.2,10-1,10.1-8.1,2.9.7,6.5.6,8.3,2.3s2.6,5.7,3.8,8.7l7,8,4.3-1.1-6.3-5.8h0l-1.2-2h.1l-1-2.1h0l-8.2-13h.2l-1.1-1.2v.2l-1.1-1.2v.2l-1.1-1.2v.2l-1.1-1.2v.2l-2.9-3.2h.1l-1.3-2,.2.2-1.1-1.2v.2l-3.5-2.7c.3,5.7-4.4,7.3-7.9,9.7s-9.9,6.5-14.7,9.9C508.4,390.1,508.4,390.9,508.2,391.6Z"/><path class="cls-4" d="M530.1,368l.9.7h1.1l3.6-3c-.1-.3-.2-.7-.5-.8-14-4.7-22.8-17.1-35.2-24.3-8.1-4.6-14.6-11.8-21.8-17.9.2,1.9.4,3.7.5,5.5l.3-.3-.2.3c1,.3,2.3.2,3.1.9q5.1,4.2,9.9,9c.7.6.7,2,1,3h0c4.9,1.4,9.2,3.6,11.4,8.6v.2h.3l16.5,14.1H521l4.2,1.8Z"/><path class="cls-9" d="M458.1,228.8l.3-1.5c-12.2,3.5-20.8,15.4-20.6,29.7.3,18,7,33.5,19.3,46.7l1.1-.3a27.6,27.6,0,0,0-1.8-3.9c-1.8-2.7-4-5.2-5.8-8-4.8-7.5-7.5-15.8-9.4-24.5s-2.2-17.7,3-25.2C447.8,236.7,453.4,233.1,458.1,228.8Z"/><path class="cls-3" d="M458.2,303.4l-1.1.3,21.6,24.4c-.1-1.8-.3-3.6-.5-5.5Z"/><path class="cls-3" d="M521.1,363.9l-16.5-14.1Z"/><path class="cls-3" d="M492.8,341c-.3-1-.3-2.4-1-3q-4.8-4.8-9.9-9c-.8-.7-2.1-.6-3.1-.9Z"/><path class="cls-3" d="M504.2,349.6c-2.2-5-6.5-7.2-11.4-8.6Z"/><path class="cls-8" d="M429.2,412.6l13-2.9Z"/><path class="cls-8" d="M481.4,407l9.1-4.1Z"/><path class="cls-8" d="M469.1,409.1l10.1-1.6Z"/><path class="cls-3" d="M532.1,368.6H531c.2.5.3,1,.5,1.5l3.5,2.7Z"/><path class="cls-8" d="M492.3,401.8l5-3.1Z"/><path class="cls-3" d="M530.1,368l-4.9-2.4-.2.2,2.5,1.7Z"/><path class="cls-8" d="M500.3,396.7l4-2.9Z"/><path class="cls-3" d="M525.2,365.6l-4.2-1.8a1.5,1.5,0,0,0,.2.9l1.5.7a.5.5,0,0,1,.5.3H525Z"/><path class="cls-8" d="M525,365.8h-1.8l4.3,1.8Z"/><path class="cls-8" d="M497.3,398.7l3-2Z"/><path class="cls-8" d="M452.2,409.5h0Z"/><path class="cls-8" d="M426.2,413.8l1.6-.7Z"/><path class="cls-8" d="M504.3,393.8l1.3-.9Z"/><path class="cls-8" d="M506.2,392.6l1.3-.8Z"/><path class="cls-8" d="M522.7,365.4l-1.5-.7Z"/><path class="cls-9" d="M460.2,226.7l.8-.3A.7.7,0,0,0,460.2,226.7Z"/><path class="cls-8" d="M491.2,402.5l1.1-.7Z"/><path class="cls-10" d="M756.9,341.2l-5.7,8.6v4.9c0,4.8-.2,9.6.1,14.4.6,10.9-1.4,21.3-8,29.9s-13,14-20,20.5c-4.3,3.9-9.5,6.8-14.2,10.2l-4.1,4c3.2,6.5,6.6,12.9,9.6,19.5s4.7,14.5,2.5,22.2c-4.9,17.2-23.5,29.4-41.1,27.2-3.3-.4-6.5-1.3-9.7-2l-1.2.2,2.1,1.9,20.2,2.7,2.3,3.7c-2.1,2.9-3.5,6.4-6.1,8-5.3,3.3-.5,6.7-1,10.1-3,1.2-8.5-1.6-7.9,5.1h-6.5c2,5.3,1.5,6.9-1.1,6-4.4-1.6-5.1.9-5.5,3.9l-5.2,1,.5,4.9-4.7,1.3.8,5.8h-5c.6,2.6,1.1,4.8,1.7,7.2l-6.4-.6c.4,4.1,2.4,9.2-4.8,7a1.8,1.8,0,0,0-.8.5c-1.7,1.4-3.3,2.7-5.3,4.5.1.8.3,2.6.5,4.5l-7.5.8a8.8,8.8,0,0,0,.2,2c.2,1.2.6,2.3.9,3.5a27.7,27.7,0,0,1-4.1-.1,43.9,43.9,0,0,1-5.2-.9l.7,6-2.1-2.1-4.8,4.2,2.4,2.4-5-.2c.2,4.4-1.2,6.3-5.6,4.9-1.3-.4-3.3,1-4.8,1.8s-4.7,2.1-6.3,3.9c-3.8,4-8.3,5.1-13.5,4.2.3,7.7.6,15.4,1,23.1a23.6,23.6,0,0,0,1,3.8c7.1-1.6,14.3-3.2,21.4-5.1,2-.5,3.7-1.8,5.5-2.8h.1l2-1h0a1.4,1.4,0,0,1,.9,0c.5-.7.8-1.5,1.5-1.9L638,612.3l3.2-1.8c.2-.2.4-.3.6-.2h.1l2.2-1.8h0l2-1.2H646l1.9-1.1h0l1.1-.9h-.1l4-3.1h0l1.1-1h-.1l2.2-1.9h0l1.8-1.2h0l1.1-1.2c2.5-2.2,5.1-4.3,7.4-6.7,8.3-8.5,17.8-16.3,24.7-25.9,15.5-21.7,24.7-46.8,33.8-71.6,5.1-13.6,6.8-28.4,10.4-42.6,1.4-5.5,3.7-10.8,5.6-16.3-.8-5-2.1-10-2.3-15.1-.1-3.4.4-7.3,2.1-10.2,8.5-15,15.7-30.2,15.6-48C756.2,354.3,756.7,347.8,756.9,341.2Z"/><path class="cls-11" d="M580.2,635.6a23.6,23.6,0,0,1-1-3.8c-.4-7.7-.7-15.4-1-23.1-1.7-3.7-3.3-7.4-5-11l-5.6,1-1.4.8-6.5,3.2-2.1.7-1.3-.9-.9-.9-1.1-1.2a17.4,17.4,0,0,0-1.1-1.8l-1-.7-3.9,1c.6,1.9,1.1,3.8,1.6,5.7l8.2,3.6-.7,1.4a30.1,30.1,0,0,1-5.5-2.2c-4.1-2.5-7-2.1-9.1,2.4.9,2.5-.2,3.2-2.5,2.7l-7.4,1.2-1.8,1.2-2.6,1.8-.5,1.9c-.2,5.2,4.9,9.2,3.3,14.9-.8,2.9-.6,6-1.1,9-1.2,7.3,2.2,12.6,7.4,17a18.6,18.6,0,0,1,6.8,13.6,70.1,70.1,0,0,0,3.3,17c.9,3.1,3,7.2,5.6,8.3a82.4,82.4,0,0,0,19.5,5.1c7.7,1,14.9-1.6,21.4-5.8-1.9-6.9-5-12.6-13.6-13.4,5.1-2.8,9.6-1.3,13.7.7,1.5.7,2,3.7,2.9,5.6,1.6-.9,3.6-1.4,4.6-2.7s2.3-4.1,3.4-6.2l-5.6-4a30.1,30.1,0,0,0-3.4-2c-.8-.8-1.6-1.9-2.6-2.2-8.4-2.8-10-10.3-12.4-17.3-1.1-3.2-2.6-6.3-2.7-9.5S579.6,639.3,580.2,635.6Z"/><path class="cls-10" d="M699.2,668.7c-4.8-2.7-9.4-6.2-14.5-8.1s-7.3-6-8.4-10.7a132.9,132.9,0,0,1-3.2-34.5c.1-5.7-.7-11.4-1.1-17.1l-4.4,2.6-3.2,2h.1l-3.4,2.5H661l-3.8,2.1-.2.2h-.3a28.6,28.6,0,0,1-4,2.8l-22.5,10.1-1.3.7a1,1,0,0,0-.7.2l-4.3,1.8h-.8c-1.6,3.7-.3,6.3,2.5,9.1s8,7.8,10.3,12.5,2.3,10.2,3.3,15.3c1.8,8.7,5,16.9,13.6,20.7,12.8,5.7,25.8,11.3,40.4,6.5-2.2-7.7-6.1-13.9-15-16.6,9.8-1,15.5,2.7,19,11.6l7-9Z"/><path class="cls-9" d="M656.7,607.9h.3l.2-.2,3.8-2.1h.1l3.4-2.5h-.1l3.2-2,4.4-2.6c28-23.3,44.9-53.9,56.8-87.6.9-2.4,1.7-4.7,2.5-7.1l.6-1.4c.1-.5.3-1,.4-1.6l.6-1.4c.2-.9.3-1.7.5-2.6s.3-.9.5-1.4c.8-3.5,1.7-7,2.5-10.6l.5-1.4a18.4,18.4,0,0,1,.5-2.5c.5-2.8,1-5.6,1.6-8.4l.3-2.6a3.8,3.8,0,0,0,.1-1c.1-.7.1-1.3.2-2s.3-1.4.4-2.1l.3-3c.3-2.3.5-4.6.7-7s.3-5.3.4-8v-6.9c-.2-1.9-.4-3.7-.5-5.6-1.9,5.5-4.2,10.8-5.6,16.3-3.6,14.2-5.3,29-10.4,42.6-9.1,24.8-18.3,49.9-33.8,71.6-6.9,9.6-16.4,17.4-24.7,25.9-2.3,2.4-4.9,4.5-7.4,6.7l-1.1,1.2h0l-1.8,1.2h0l-2.2,1.9h.1a5.2,5.2,0,0,1-1.1,1h0l-4,3.1h.1l-1.1.9h0l-1.9,1.1h.1l-2,1.2h0l-2.2,1.7h-.1a2.5,2.5,0,0,1-.1.8l-.5-.6-3.2,1.8c.1.8.1,1.5.2,2.3h0c2.7-.9,5.4-1.6,8-2.6Z"/><path class="cls-12" d="M693.2,687.7c-14.6,4.8-27.6-.8-40.4-6.5-8.6-3.8-11.8-12-13.6-20.7-1-5.1-1.1-10.7-3.3-15.3s-6.5-8.7-10.3-12.5-4.1-5.4-2.5-9.1l-13,3.1a1.4,1.4,0,0,0-.9,0c0,.6-.1,1.3-.1,2l1.9,2,1.2,2h-.1c1.5.6,3.4.7,4.5,1.7,8.5,8,15.9,16.4,15.8,29.5-.1,9.2.4,18.6,8.1,25.7a37.4,37.4,0,0,0,25.3,10,200.9,200.9,0,0,0,23.3-1.1c2.2-.2,5.2-2.1,5.9-4S693.9,690,693.2,687.7Z"/><path class="cls-13" d="M693.2,687.7c.7,2.3,2.5,5,1.8,6.8s-3.7,3.8-5.9,4a200.9,200.9,0,0,1-23.3,1.1,37.4,37.4,0,0,1-25.3-10c-7.7-7.1-8.2-16.5-8.1-25.7.1-13.1-7.3-21.5-15.8-29.5-1.1-1-3-1.1-4.5-1.7,3.3,5.3,6.1,11.1,10,15.9a25.2,25.2,0,0,1,5.8,17.5c-1.3,24.2,16,34.1,33.2,38.4,13.9,3.4,28,1.6,42-.2,9.6-1.3,13.2-8.4,11.1-19.6-1.8-9.5-7.7-15.8-15-16l5,5c5.2,5.8,4.6,12.8,3.4,19.6-.6,3.5-3.7,6.2-7.8,7.5-.9-6.5-1.8-12.3-2.6-18.1-3.5-8.9-9.2-12.6-19-11.6C687.1,673.8,691,680,693.2,687.7Z"/><path class="cls-10" d="M739,472.3c-.6,2.8-1.1,5.6-1.6,8.4C737.9,477.9,738.4,475.1,739,472.3Z"/><path class="cls-10" d="M741,454.6c-.2,2.4-.4,4.7-.7,7C740.6,459.3,740.8,457,741,454.6Z"/><path class="cls-10" d="M741.4,439.7v0Z"/><path class="cls-10" d="M755.4,334.6a14.1,14.1,0,0,0-.1,2A35.9,35.9,0,0,0,757,340C756.4,338.2,755.9,336.4,755.4,334.6Z"/><path class="cls-10" d="M740,464.6c-.1.7-.3,1.4-.4,2.1S739.9,465.3,740,464.6Z"/><path class="cls-10" d="M609.1,628.7c0-.7.1-1.4.1-2h0l-2,1h-.1Z"/><path class="cls-13" d="M612.2,632.7l-1.2-2Z"/><path class="cls-10" d="M754,329.7l.8,2.6Z"/><path class="cls-10" d="M731.9,502.2l-.6,1.4Z"/><path class="cls-10" d="M732.9,499.2l-.6,1.4Z"/><path class="cls-10" d="M733.9,495.2c-.2.5-.3,1-.5,1.4S733.7,495.7,733.9,495.2Z"/><path class="cls-10" d="M736.9,483.2l-.5,1.4Z"/><path class="cls-10" d="M739.4,468.7a3.8,3.8,0,0,1-.1,1l.4-.7C739.8,468.9,739.5,468.8,739.4,468.7Z"/><path class="cls-6" d="M203.1,625.7c10.4,8.7,20.9,17.3,31.2,26.1,3.2,2.6,6.2,5.6,9.8,8.9L231,668.6h.2l-.9,1-7.4,10.9a46.3,46.3,0,0,0-.7,7.4c.1,3.4,2,5.4,5.6,5.8l57.5,6c6,.6,6,.5,6-5.8a33.2,33.2,0,0,0-4.4-.6H276.8v-1.1l4-1.2.2-1-22.8-7,3.2-4.5-9.9-3.2.3-1.2,5.9-1.2-6.1-4.3,8.3-3.3-6-4.9c6.8-1.7,1.7-3.9.5-6l7.1-3.2-2.8-4c5.1-7.7.9-13.2-3.7-18.7l3.8-2.7-5-11.7H259l-3.1-8.2,6.6.5-5.2-8.1,4.9-1.3-3.1-9.7,6,2.2c-.1-2.5-.2-4.5-.3-6.6l4,.2c.3-2.2.6-4.1.9-6.4l6.5,4,2.2-4.8,10.8,5.4c.6-2.3,1-4.3,1.7-6.9,1.4,3,2.5,5.1,3.5,7.2l1.1-.4,2.1-7.2h1.1l3.8,8.2,2.7-7.5h1.2c1.6,3.6,3.1,7.3,4.8,11.1l5.4-6.9c1.6,4.2,2.9,7.4,4.3,10.9l4.4-3.5c.5,3.6,1,6.3,1.5,9.3l5.9-3.4v16l8.1-4.4c.3,2.9.6,5.2.8,7.7l5.1-1.7c-1.1,8.5-.7,10,3.5,13,3.3-2.7,6.2-5.5,4.1-10.4-.2-.7.6-1.8.9-2.6s.5-4.2.8-6.6l-3.3,1.1V584.9l-4.5,1.8-.2.4-.2-.2.4-.2c.6-2.5,1.1-4.9,1.8-7.9-4.2,2.1-4.9,1.6-5.8-2.8s-2.3-9.3-3.4-13.9h-1.1c-.4,1.7-.7,3.3-1.4,6.4l-3.4-10.3-4,4.6c-.8-4.8-1.4-8.8-2.2-13.8l-4.8,7.7c-.8-4.5-1.4-8.3-2.1-12.4-5.5,3.6-5.5,3.6-7.7-.2-4,3.5-4.2,3.4-6.2-1.9a25.1,25.1,0,0,0-2.5-4.1l-5.3,8.3c-1.5-2.5-2.6-4.6-3.9-6.8l-3,3.8c-1.8-2.1-3.4-3.8-5.6-6.2-.3,3.3-.6,5.7-.9,9.1l-6.5-6c-1.2,3.3-2.3,6.1-3.6,9.5l-4.8-6.9c-1,3.1-1.6,5.2-2.5,7.9l-5.7-8.8c-.9,2.2-1.5,3.7-2.2,5.2s-1.4,2.6-2.1,4c-.7-1.3-1.4-2.6-2.2-3.9a33.5,33.5,0,0,0-1.9-3l-3,6.4-3.9-7.7-8,14.6-.9-.6c.2,1.5.5,3.1,1,5.5-2.3-1.9-3.7-3.3-5.7-5.1.2,4.4.3,8,.5,11.6l-2,1.1-3.9-6.5-1.1,1c.5,3.5,1.1,6.9,1.6,10.4l-2.1,1.7c-1.2-2.6-2.3-5.3-3.5-7.9l-2.2,1.5c.4,3.3.9,6.5,1.5,10.5l-8-6.7c.6,4.5,1,7.7,1.3,10.9l-1,.4-5.3-6.2c.3,5.4.5,9.7.7,13.9l-2.3,1.3-4.2-7.1-1.8,1.1,4.3,15.9-5.3-4.4-.8.5c1.2,4.1,2.4,8.1,3.3,10.9-1,2.9-2,4.7-2.1,6.5A51.6,51.6,0,0,0,203.1,625.7Z"/><path class="cls-10" d="M436,661.7c21.2-4.4,42.3-9,63.5-13.2,6.5-1.3,13.1-1.9,19.6-2.8.5-5.7.1-11-6-14a1.1,1.1,0,0,0-.8-.3c-.7,0-1.6.3-2.2-.1s-3.6-3.5-5.2-3.3c-7.3.9-15.1.3-21,6.3-2.1,2.1-5,3.4-7.7,5-.5.3-1.3.1-1.9.2l-5.7,1c-1.4.6-3.5-.9-4.4-.4-3.2,1.9-9.2-1.4-9.9,5.2-.1.6-2.3,1-3.6,1.3s-3.2.4-4.9.7c-10.7,1.8-21.4,4-32.2,5.3s-24.4,2.4-36.6,3c-18.5,1-37.1,1.5-55.7,1.9-1.3,0-2.8-1.9-4.2-3l-1.9.3h.2l-.2,1-2.5,5.8,7.2,3h4.3c.8-.4,1.6-1.3,2.4-1.2,10.4.7,20.7,2,31.1,2.1,14.6.2,29.2-.5,43.8-.8a16.6,16.6,0,0,1,3.7.9l4-.9h6l16-1.9Z"/><path class="cls-14" d="M594.2,697.7c-6.5,4.2-13.7,6.8-21.4,5.8a82.4,82.4,0,0,1-19.5-5.1c-2.6-1.1-4.7-5.2-5.6-8.3a70.1,70.1,0,0,1-3.3-17,18.6,18.6,0,0,0-6.8-13.6c-5.2-4.4-8.6-9.7-7.4-17,.5-3,.3-6.1,1.1-9,1.6-5.7-3.5-9.7-3.3-14.9-4.9-2.6-2.7,3.1-4.8,3.9l-1.7,1.2-.3,1c.1,3.7-.4,7.5.2,11,1.2,6.3,1.5,12.3-2.2,17.9.7,1.7,1.3,3.3,1.9,5,8.8,2.5,16.4,12,17.1,21,.4,5.3.7,10.6,1,15.8.4,7,7,15,14.6,17.2a52.3,52.3,0,0,0,38.6-3.6C597.1,706.7,597.7,702,594.2,697.7Z"/><path class="cls-2" d="M405.2,665.6a16.6,16.6,0,0,0-3.7-.9c-14.6.3-29.2,1-43.8.8-10.4-.1-20.7-1.4-31.1-2.1-.8-.1-1.6.8-2.4,1.2,10.4,2.1,20.7,4.6,31.1,6.1s20.7,2,32.3,3l-3.7,1.3,9.3,7.7c.5.1,1.2.2,1.4.5,5,9.5-2.4,26.7-13.8,27.7.5-6,.9-12.1,1.4-18.2-4.2-7.8-10.5-9.5-18-5l10,3.9c5.1,3.7,5.1,9.4,3.4,13.9s-5.6,5.8-9,6.6c-7.9,1.8-15.4-.1-21.9-5.3-1.7-1.4-3.9-3-6-3.1-14-.8-28-1.4-42.1-1.9-1.8,0-3.6,1.2-5.5,1.9,6.7.6,13.5,2,20.1,1.8,13.2-.4,25.4,2.6,37.9,6.6,8.9,2.8,18.8,3.3,28.3,3.2s18.4-10.8,19.8-19.8c.3-1.9.6-3.9,1-5.8s-.1-2.1-.1-3.1c-1.4-8.9-7.2-14.1-16-17.5,6.6-.5,12.3-.9,18-1.5C403.2,667.4,404.2,666.3,405.2,665.6Z"/><path class="cls-14" d="M293.1,703.7c1.9-.7,3.7-1.9,5.5-1.9,14.1.5,28.1,1.1,42.1,1.9,2.1.1,4.3,1.7,6,3.1,6.5,5.2,14,7.1,21.9,5.3,3.4-.8,7.9-3.6,9-6.6s1.7-10.2-3.4-13.9c-1.1,1-2.1,2.8-3.3,2.9a112.5,112.5,0,0,1-15.3,1.1q-18.6-.6-37.2-2.1c-7.3-.5-14.4-2-21.6-3h-1.6l-.2.3-3.9,11.8c0,.4.1.8.1,1.2Z"/><path class="cls-3" d="M291.1,702.5l3.9-11.8c-1.2,1.1-2.4,2.2-3.7,3.2,0,6.3,0,6.4-6,5.8l-57.5-6c-3.6-.4-5.5-2.4-5.6-5.8a46.3,46.3,0,0,1,.7-7.4,77.5,77.5,0,0,0-5.1,7.6c-1.9,3.5-.2,6.6,3.2,7.5a129.3,129.3,0,0,0,20.4,4.1c14.6,1.3,29.2,2,43.8,3Z"/><path class="cls-13" d="M400.1,686.6c0,1,.1,2.1.1,3.1,17.4,2.7,29.8-4.3,34.3-19.7a75.8,75.8,0,0,0,1.5-8.3l-4.8,1c.1,10.6-8.7,23.2-16.9,22.5l.9-20.6h-6c.4,1.2.7,2.5,1,3.7C412.6,677.7,411.4,683.7,400.1,686.6Z"/><path class="cls-12" d="M519.2,653.6c3.7-5.6,3.4-11.6,2.2-17.9-.6-3.5-.1-7.3-.2-11l-2.6-2c-.2,2.3-.4,4.4-.7,7.9-1.9-2.8-3-4.3-4.3-6.1-.2,2.7-.3,4.9-.5,7.2,6.1,3,6.5,8.3,6,14C519.2,648.3,519.2,651,519.2,653.6Z"/><path class="cls-2" d="M291.1,702.5l-5.9.2,6,1C291.2,703.3,291.1,702.9,291.1,702.5Z"/><path class="cls-3" d="M230.3,669.6l.9-1Z"/><path class="cls-11" d="M709.1,429.7c4.7-3.4,9.9-6.3,14.2-10.2,7-6.5,14.2-13,20-20.5s8.6-19,8-29.9c-.3-4.8-.1-9.6-.1-14.4l-3.1-.2h0l-3,3.1h0c-.5,4.7-4.7,6.5-7.8,6.9a114.8,114.8,0,0,1-22.7.3c-2.9-.2-5.6-3.3-8.4-5.2l-1.9-.9c-1.3-.5-3.1-.5-4-1.5-3.7-4.1-7.2-8.5-10.6-12.8-.5-.7-.2-1.9-.3-2.9l-.2.2.3-.2a19.4,19.4,0,0,1-4.9-2c-6.7-4.4-13-9.7-20.1-13.4-12.7-6.7-22-16.5-29-28.8-3.2-5.5-6.2-11-9.5-16.9-4.3,4.6-4.3,6.6-3,12.5s4.3,14.8-.8,21.9a12.7,12.7,0,0,0-.1,2c.6.7,1.9,1.6,1.8,2.1-1.6,6.9-3.3,13.8-5.2,20.5-.3,1-1.9,1.5-2.8,2.2l-.8,2c-.3,2.1-.4,4.3-.9,6.3-2.6,11.5-5.6,23-8,34.6-1.1,5.1-1.2,10.5-1.7,15.3-2.2,1.2-4.6,2-6.2,3.5-5.9,5.8-12.6,9.3-21.1,8.5-3.3-.3-6.7,0-10,0,7.2,10.9,14.6,21.6,25.2,29.7,12.8,9.9,27.2,14.7,43.1,15.3,2.6,0,4.8-.3,4.7-3.6-11.3-3.5-21.1-9.5-28.4-18.6-5.3-6.6-9.2-14.4-13.4-21.9-.7-1.3.5-3.7.8-5.6l5.1,1.8h.9l8-3.1c5.4-2.7,7.4.8,9,5h3c1.4-4.8.3-11.3,8.3-11.1l-3.9-8-1.5-3.9c-3.8-9.6-2-17.6,5.6-24.7l1.4-.5c4.8-4.7,11.2-6,17.3-7.9.5-.3.8-.9,1.3-1,12.9-3.5,24.3,3.5,27.7,17l1.1,4.9-.3,14.2c3.3.2,6.6.9,9.9.7s6.9-.7,9-2.6,4.4-6.6,6.6-10c.7-1.2,1.4-3.6,2.5-.1l1.2-1.5,4.8-6.3c1.7,2.3,4.6,4.4,4.8,6.8a131.1,131.1,0,0,1-.4,21.7C719.4,409.7,714.4,419.8,709.1,429.7Z"/><path class="cls-15" d="M721.9,161.6l-.7,1-.8,1a.8.8,0,0,0-.4.7c0,2.9-.1,5.8-3.9,6.3h0a10.5,10.5,0,0,1-.8,1.1l-.4.9c3,6.2,5.9,12.4,9,18.5,1.6,2.9,4.1,5.4,5.2,8.4,2.9,7.7,5.1,15.7,7.8,23.5,4.4,13.2,5.1,26.8,5.4,40.6.1,4.7,1.2,9.4,1.9,14.1l4.9,1.7a68.4,68.4,0,0,0,10-31.6c-.5.3-1.4.5-1.6.9-1.4,5.6-2.5,11.2-4,16.7a17.2,17.2,0,0,1-3.1,5.4,3.2,3.2,0,0,1-3,.5c-.7-.3-.9-1.9-.9-2.9s.6-4.5.7-6.8c.4-8.4-.4-17,1.3-25.1,3-14.9,1-29.7.6-44.6a21,21,0,0,0-2-8.1c-4.3-9.1-8.8-18.1-13.5-26.9-1.4-2.6-1.6-3.6,1.2-5.4,5.6-3.5,11-2.6,16.7-1.1a13,13,0,0,0-15.8-2.3c-3.7,2.1-6.7,5.6-10,8.5,1.5,2.5.9,3.4-2.8,3.8h.1Z"/><path class="cls-11" d="M751.5,150.3c-5.7-1.5-11.1-2.4-16.7,1.1-2.8,1.8-2.6,2.8-1.2,5.4,4.7,8.8,9.2,17.8,13.5,26.9a21,21,0,0,1,2,8.1c.4,14.9,2.4,29.7-.6,44.6-1.7,8.1-.9,16.7-1.3,25.1-.1,2.3-.6,4.5-.7,6.8s.2,2.6.9,2.9a3.2,3.2,0,0,0,3-.5,17.2,17.2,0,0,0,3.1-5.4c1.5-5.5,2.6-11.1,4-16.7.2-.4,1.1-.6,1.6-.9l.3-2c-.4-1.2-1.2-2.4-1.1-3.5.5-6.8,1.1-13.7,2-20.5.5-4.4,1.8-8.7,2.7-13v-7c-3-3.5-3.3-8.6-.6-13.1l-.3-3c-1.7-5.1-4.5-10.1-5-15.3s0-12.4-7.5-14.8l1.9-5.2Z"/><path class="cls-16" d="M744.2,277.6c-.7-4.7-1.8-9.4-1.9-14.1-.3-13.8-1-27.4-5.4-40.6-2.7-7.8-4.9-15.8-7.8-23.5-1.1-3-3.6-5.5-5.2-8.4-3.1-6.1-6-12.3-9-18.5-5.9,13.5-11.8,26.9-17.6,40.4a56.4,56.4,0,0,0-2.3,8.3,18.3,18.3,0,0,0-.8,2.5,1,1,0,0,0-.2.9c2.4,1.4,3.5,1,4.8-1.8,5.3-11.3,14.9-12.6,23.1-4.1,11.8,12.4,15,27.4,15.3,43.7.1,2.8.6,5.6.9,8.4v1.8l4.2,5.7Z"/><path class="cls-17" d="M738.1,270.8c-.3-2.8-.8-5.6-.9-8.4-.3-16.3-3.5-31.3-15.3-43.7-8.2-8.5-17.8-7.2-23.1,4.1-1.3,2.8-2.4,3.2-4.8,1.8-1.6,3.6,0,6.1,2.9,8s7.4,5.9,7.8,11.4c0,1.4,1.9,2.9,3.3,3.9s5.9,3.3,8.7,5.3c1.3,1,2,2.9,3.3,4.8s-.2,2.3.4,2.7C726.2,264.2,732.2,267.5,738.1,270.8Z"/><path class="cls-15" d="M622.2,314.7c5.1-7.1,2.3-14.6.8-21.9s-1.3-7.9,3-12.5c3.3,5.9,6.3,11.4,9.5,16.9,7,12.3,16.3,22.1,29,28.8,7.1,3.7,13.4,9,20.1,13.4a19.4,19.4,0,0,0,4.9,2l-21.9-16-3.6-2.5h.1l-2-1.1h.1l-2-1.1h0l-1.1-1h.1l-1.5-1c-8.2-4.9-13.7-12.2-18.6-20.1-3.2-5-6-10.3-9-15.4s-5.9-6.6-9.9-.6c0,3.4.1,6.7.1,10.1h-.1c.3.7.9,1.4.9,2.1C621.5,301.3,621.8,308,622.2,314.7Z"/><path class="cls-15" d="M751.5,150.3l-1.9,5.2c7.5,2.4,6.9,8.5,7.5,14.8s3.3,10.2,5,15.3a72.5,72.5,0,0,0-6.9-30.7C754.4,153.1,752.8,151.8,751.5,150.3Z"/><path class="cls-15" d="M706.2,359.5c2.8,1.9,5.5,5,8.4,5.2a114.8,114.8,0,0,0,22.7-.3c3.1-.4,7.3-2.2,7.8-6.9-4.9,2.1-9.7,4.9-14.9,6.1C721.8,365.8,714,362.6,706.2,359.5Z"/><path class="cls-15" d="M763,208.7c-.9,4.3-2.2,8.6-2.7,13-.9,6.8-1.5,13.7-2,20.5-.1,1.1.7,2.3,1.1,3.5Z"/><path class="cls-15" d="M689.4,341.4c.1,1-.2,2.2.3,2.9,3.4,4.3,6.9,8.7,10.6,12.8.9,1,2.7,1,4,1.5Z"/><path class="cls-17" d="M742.3,278.3l-4.2-5.7-4.8,2.5C736.4,276.4,738.4,280.2,742.3,278.3Z"/><path class="cls-15" d="M762.4,188.6c-2.7,4.5-2.4,9.6.6,13.1Z"/><path class="cls-16" d="M716.1,170.6c3.8-.5,3.9-3.4,3.9-6.3Z"/><path class="cls-15" d="M748.1,354.5l3.1.2v-4.9Z"/><path class="cls-16" d="M722.9,160.3c3.7-.4,4.3-1.3,2.8-3.8Z"/><path class="cls-15" d="M745.1,357.6l3-3.1Z"/><path class="cls-17" d="M694.2,223.7a18.3,18.3,0,0,1,.8-2.5A18.3,18.3,0,0,0,694.2,223.7Z"/><path class="cls-6" d="M724.2,340.4l.4-.3c-.2,0-.3-.2-.4-.2s-.3.2-.4.3Z"/><path class="cls-16" d="M715.3,171.6a10.5,10.5,0,0,0,.8-1.1A10.5,10.5,0,0,1,715.3,171.6Z"/><path class="cls-16" d="M720.4,163.6l.8-1Z"/><path class="cls-16" d="M721.9,161.6l1.1-1.2Z"/><path class="cls-14" d="M605.2,681.7c-1.1,2.1-1.9,4.4-3.4,6.2s-3,1.8-4.6,2.7c1,6.4,1.9,12.7,2.8,19C607.9,707.2,611.5,689.1,605.2,681.7Z"/><path class="cls-18" d="M203.1,625.7a51.6,51.6,0,0,1-.8-7.8c.1-1.8,1.1-3.6,2.1-6.5-.9-2.8-2.1-6.8-3.3-10.9l.8-.5,5.3,4.4-4.3-15.9,1.8-1.1,4.2,7.1,2.3-1.3c-.2-4.2-.4-8.5-.7-13.9l5.3,6.2,1-.4c-.3-3.2-.7-6.4-1.3-10.9l8,6.7c-.6-4-1.1-7.2-1.5-10.5l2.2-1.5c1.2,2.6,2.3,5.3,3.5,7.9l2.1-1.7c-.5-3.5-1.1-6.9-1.6-10.4l1.1-1,3.9,6.5,2-1.1c-.2-3.6-.3-7.2-.5-11.6,2,1.8,3.4,3.2,5.7,5.1-.5-2.4-.8-4-1-5.5l.9.6,8-14.6,3.9,7.7,3-6.4a33.5,33.5,0,0,1,1.9,3c.8,1.3,1.5,2.6,2.2,3.9.7-1.4,1.5-2.7,2.1-4s1.3-3,2.2-5.2l5.7,8.8c.9-2.7,1.5-4.8,2.5-7.9l4.8,6.9c1.3-3.4,2.4-6.2,3.6-9.5l6.5,6c.3-3.4.6-5.8.9-9.1,2.2,2.4,3.8,4.1,5.6,6.2l3-3.8c1.3,2.2,2.4,4.3,3.9,6.8l5.3-8.3a25.1,25.1,0,0,1,2.5,4.1c2,5.3,2.2,5.4,6.2,1.9,2.2,3.8,2.2,3.8,7.7.2.7,4.1,1.3,7.9,2.1,12.4l4.8-7.7c.8,5,1.4,9,2.2,13.8l4-4.6,3.4,10.3c.7-3.1,1-4.7,1.4-6.4h1.1c1.1,4.6,2.4,9.2,3.4,13.9s1.6,4.9,5.8,2.8c-.7,3-1.2,5.4-1.8,7.9l4.5-1.8v19.3l3.3-1.1c-.3,2.4-.6,4.5-.8,6.6h4a35.3,35.3,0,0,0,7-22.8c-.1-3.8-1.1-8.2.4-11.4s.9-7.6-.1-11.3q-.7-3.2-1.2-6.3a3.6,3.6,0,0,1,.2-1.4l2.8,2a21.6,21.6,0,0,0-2.5-8.6c-2.1-3.9-5.4-7.3-4.7-12.5.2-1.4-1.1-3.6-2.4-4.5-5.7-4.2-8.7-10.1-11.5-16.2l-.2-.5.2.5,2-.5-26-24.5h0l-13-4.1c-2.5-.6-5-1.6-7.5-1.9-7.2-.8-14.5-1.4-21.7-2-1.8-.2-3.6,0-6.9,0,3.5-4.4,5.8-8.3,10-8.9s10.6,0,15.9,0,9.9,1.5,15.2-1.3,9.9-1.9,14.9-2.9a41,41,0,0,0,5-1.4c1.8-.6,3.4-1.3,5.2-1.8,7.2-2.6,14.4-5,22-6.2a7.4,7.4,0,0,0,6.2-4.9c.4-1.1,1.8-1.8,3-3,2.4,5.4,4.5,4.7,8,1.2s6.5-3.3,9.9-4.7a2.9,2.9,0,0,1,2.6.8c2.8,5,5.8,9.9,8.1,15.1s2,8.1,3.8,11.7,3.9,4.7,5.9,4.6c4.2,0,8.8-1,9.4-6.7a33.8,33.8,0,0,1,1.8-6.2c.1-.7.3-1.6.8-1.8,11.3-4.6,11.6-15.6,14.3-25.1,1.2-4.2,2.4-7.7,7.2-8.7,1.2-.2,2.1-1.7,2.9-2.4,4.6,1,9.2,1.5,13.3,3.1s4.8,3.6,6.6,6a17.7,17.7,0,0,1,2.7,6.8c1.1,5,5,6,9,6.4,1,.1,3-2.4,3.2-3.9a22.7,22.7,0,0,1,6.3-13.2c1.7-2,2.3-5.1,3.8-7.4,2.8-4.3,6-8.2,8.7-12.6,1-1.6,1-3.8,1.4-5.5l5.1-4.7-7.1-3.4h0c-3,1.2-6.4,1.9-9,3.8-5.6,3.9-11.7,5.1-18.2,5.2-9.8.2-19.8-.6-29.3,1.3s-18.7,7-28.2,10-19.7,5.3-29.6,7.6-20.6,4.2-30.8,6.7c-7.7,1.8-15.3,4.2-22.9,6.3-3.7,1.1-7.6,2.1-11.3,3.3l-31.7,11c-8.8,3-17.8,5.7-26.7,8.8-5.7,2-11.2,4.8-16.8,6.9s-11.6,4-17.3,6.1-12.9,4.3-15.5,11.7c-.7,2-3.1,3.6-3.5,5.6-1.1,5.4-1.5,11-2.2,16.6,3.6-3,7.2-6,10.9-8.9a6,6,0,0,1,.8.8,8.1,8.1,0,0,1-1.7,2.4c-12.8,10-20.7,23.6-26.9,38.2-5.2,12.1-9.2,24.7-8,38,1.4,15.9,7.4,29.8,19.6,40.7A8.5,8.5,0,0,0,203.1,625.7Z"/><path class="cls-18" d="M535.7,365.6c-.1-.3-.2-.7-.5-.8-14-4.7-22.8-17.1-35.2-24.3-8.1-4.6-14.6-11.8-21.8-17.9l-20-19.2a27.6,27.6,0,0,0-1.8-3.9c-1.8-2.7-4-5.2-5.8-8-4.8-7.5-7.5-15.8-9.4-24.5s-2.2-17.7,3-25.2c3.6-5.1,9.2-8.7,13.9-13,12.1-.1,23.5,3.5,34.5,8.2,18.4,7.9,34.8,19,50.1,31.9,2.5,2.2,3.9,5.9,5.4,9a66.9,66.9,0,0,1,3.1,8.4l5.9-4.7c-.9,2.1-2.2,4.1-2.7,6.3-2,7.8-3.7,15.6-5.6,23.4a178,178,0,0,0-5.6,48.8c.2,8.6,3,10.4,10.8,6.4a12.4,12.4,0,0,1,2-.6c-.1,1.7-.2,2.9-.4,4.5a27,27,0,0,0,3.6-.9l3.6-1.6c.3,2,.5,3.6.8,5.3l4-.3c-.7,6.5-.7,6.5,4.5,6.6-1,2.5-1.9,4.8-3.4,8.3l12.1-9v5.7l4.2-1.8-1.4,5.4a3.1,3.1,0,0,0,2.1-1.6c5.2-9.9,10.4-19.8,15.4-29.8,1.9-3.6,3.4-7.4,5.1-11l3.1-3,.9-2,5-3c-.6,2.7-1.2,5.4-1.9,8.1h.1l-1.1,2.1h.1c-1.1,2.7-2.1,5.4-3.1,8.1h.1l-1.2,3.5v.3c-.7,1.9-1.3,3.8-2,5.8h.2c-3.8,5.2-4.5,11-3.6,17.2l-.2,2.1-1.5,11.9h0l-1.9,1.4h.2l-6.3,5.8h0l-2,1.1h.1l-2,1.2h.1a6.7,6.7,0,0,0-2,0c-6.9,3.7-14,3.1-21.2.9a12.7,12.7,0,0,0-2-.1h0l-2-1h0l-8-5.9h0l-1.2-2h.1l-1-2.1h0c-1.6-5-1.4-11.2-8.2-13h.2l-1.1-1.2v.2l-1.1-1.1h.1l-1.1-1.2v.2l-1.1-1.2v.2c-.9-1.1-1.9-2.2-2.9-3.2h.1l-1.3-2,.2.2-1.1-1.2v.2l-2.9-4.3ZM525,262.9c-1.1-1.4-2-3.3-3.4-4.2-4.3-2.6-8.9-4.8-13.3-7.1l-3.9-2.2c-1.5-1.3-2.8-2.9-4.4-3.8-3.8-2.3-7.6-4.8-11.8-6.2-7.7-2.6-15.6-5.5-23.6-6.5-14.4-1.7-20.7,10.5-17.9,22.7,2.3,10,6.7,19.1,12,27.9,4.5,7.2,8.6,14.7,13.5,21.7,3.5,4.9,8,9.2,12.2,13.6,6,6.3,12.2,12.5,18.2,18.8a65.3,65.3,0,0,0,20.1,14.1c5,2.2,7.4,1.2,9.7-3.9a9,9,0,0,1,1.5-1.9c3.3-4.9,3-7.6-.4-10.5,1.6-6.2,3.2-12,4.7-17.7h0c0-3.2,0-6.5.1-9.8v-1.2c3.5-2.1,3.9-5.4,3.3-9l-.6-1.9a53.3,53.3,0,0,1,.2-5.6c.4-2.9,1.3-5.7,1.4-8.6s-.9-3.2-1.4-4.8-.2-.5-.3-.7.1-2.8-.5-3.2c-4.1-2.8-8.3-5.3-12.5-7.9Z"/><path class="cls-1" d="M683.6,274.9c9.5-1.3,25.8,11.9,25.4,19.5-.8,15.8-8.1,28.7-25.7,29.3-13.8.5-22.4-13.3-22.1-23.7C661.8,282.6,669.6,276.7,683.6,274.9Zm-17.5,33.7,5.4,6.2c6,5.3,16.3,4.9,23.8-.9s9.4-15.6,5.3-21.5-10.5-8.4-17.4-9.6a17.9,17.9,0,0,0-4-.1c-8.5-.9-14.5,4.1-14.9,12.7-.2,3.7.5,7.5.8,11.3a1.9,1.9,0,0,0-.2.7c0,.1.2.2.4.2h-.1Z"/><path class="cls-1" d="M609.3,342.7l.9-2c-.1-2.5-.3-5-.4-7.4-.1-5.9-.3-11.7-5.6-15.6l-.3,1.2h-.1l.3,1.9c.8,5.3,5.2,10.3,1.1,16l-.8,1.2a2.1,2.1,0,0,1-.3.7l-.8,1.2-.3.8-.9.9H602c-4.8,7.2-15.3,9.7-23.5,5.7s-11.3-11.7-8.8-17.8c5.5-19,20-24.1,32.9-11.6h1.6c-6.6-16.1-26.8-13.9-35.4-4.2-11.6,13.1-7.6,32.9,8.8,38.9,8.8,3.2,18.3,2.8,25.9-4.6a27.8,27.8,0,0,1,2.7-2.1Z"/><path class="cls-3" d="M622.2,314.7c-.4-6.7-.7-13.4-1.1-20,0-.7-.6-1.4-.9-2.1,2.3,13.2-.2,26.1-1.9,39.1h.1c1.2-5.1,2.4-10.1,3.7-15.1A12.7,12.7,0,0,1,622.2,314.7Z"/><path class="cls-3" d="M615.2,337.7c-.6,2.7-1.2,5.4-1.9,8.1l1.8-2.3.8-2c.8-3.2,1.6-6.5,2.5-9.7h-.1Z"/><path class="cls-3" d="M620.3,292.7c0-3.4-.1-6.7-.1-10.1C617.6,286,619.3,289.3,620.3,292.7Z"/><path class="cls-1" d="M662.1,321.7l2,1.1Z"/><path class="cls-1" d="M660.2,320.7l2,1.1Z"/><path class="cls-1" d="M659.1,319.7l1.1,1Z"/><path class="cls-1" d="M657.7,318.7l1.5,1Z"/><path class="cls-6" d="M347.2,516.7c2.8,6.1,5.8,12,11.5,16.2,1.3.9,2.6,3.1,2.4,4.5-.7,5.2,2.6,8.6,4.7,12.5a21.6,21.6,0,0,1,2.5,8.6l-2.8-2a3.6,3.6,0,0,0-.2,1.4q.4,3.1,1.2,6.3c1,3.7,2.1,7.1.1,11.3s-.5,7.6-.4,11.4a35.3,35.3,0,0,1-7,22.8l6.6,6.3,1-1v-3.4l10.2,5-3-8.1,11,4.7c-.2-2.4-.2-3.8-.3-5.7l8.6,4.4c.2-2.6.4-4.7.5-6.7l11.4,5.8,1.5-5.9,4,2.5,3,1.2c-.1-1.9-.2-3.2-.3-5.4,5.6,2.1,8.8.9,8.3-5.7,1.2,1.5,2.5,3,4.1,5.1.3-3.3.5-5.9.7-9.1l4.6,3.3c-.3-4.3-.5-7.7-.7-11l2.1-1.3c.8,1.8,1.5,3.5,2.2,5.3l1.3-1-1.6-8.9,1-.7,8.4,6.6c-.4-3.8-.8-6.8-1.2-10.4l7,4c-.1-2.9-.2-5.2-.4-8.4l8.6,4.8c-1.3-4.5-2.2-7.7-3.1-11.1l8.3,3.2V560l4.5,1.3,3-6.4c.8-1.9,1.9-3.7,2.7-5.7,2-5.6,3.6-11.3,5.9-16.8,3.2-7.9,6.9-15.5,10.1-23.4,2.2-5.2,7.7-8.3,11.9-5.8-.3-2.2-.5-4-.8-6.9l3.8,2.2c.1-1.6-.4-3.4.3-4.5s2.8-3.6,4.4-3.7c3.8-.4,6.7,4.2,6.1,8-.9,5.3-1.7,10.7-2.3,16.1-.3,3.4.1,6.9-.3,10.3a99.9,99.9,0,0,1-2.2,10.3l1.4.6,6.5-7.9.8.7-9.6,27.5,1,.6,10.2-8.5.9.9-10.2,21,1,.6,13.2-7.8,1.1,1.2c-1.6,1.7-3.2,3.4-4.6,5.2s-2.9,3.8-4.9,6.3l15.3-7.1.7,1.2-6.5,9.4,6.2-1.9.8.8-6.3,9.5c5,.3,10.2-1,13.1,1.1s3.4,7.4,5,11.3l2.9-2.1c0-.3.1-.6.1-.9,1.3-2,2.6-3.3,4-.1h0l1,2a17.4,17.4,0,0,1,1.1,1.8h.9l4.2-6.5h-.1c.4-.6.6-1.4,1.2-1.7s3.7-1.7,5.5-2.4l6.2-.6a30.1,30.1,0,0,1,.1-5.2,34.6,34.6,0,0,1,1.4-5.3v-1.9l-1.1-2,.6-15,1-1c1.1-5.4,1.6-10.9,3.3-15.9s5.4-7.7.1-11.7c-.4-.3-.1-1.4-.4-1.9-1-2.1-1.8-4.4-3.2-6.2-4.1-5.2-8.8-10-8.8-17.2,0-3.2.5-6.4-3.2-8.2-.4-.2,0-1.9,0-2.9a11.9,11.9,0,0,0-.8-2l2-5.1c-.4-1-.7-2-1-2.9v-6.1a99.5,99.5,0,0,1-7.7-8.2c-1.8-2.4-4.9-5.9-4.3-8,2.7-9.1-.8-17.2-2.5-25.7a77.1,77.1,0,0,1-1-8.4h-.3l-1-1c-.1-.3-.2-.5-.5-.6-6.6-3.1-9.7-9.5-13.6-15a26.1,26.1,0,0,0-2.7,1.9c-4.2,4.7-6.7,5.1-12.2,1.9a20.4,20.4,0,0,0-4.1-1l3.5,7.3-6.2-2,1.9,8.3-5.1-3.4c1,4.6,3.6,11.4-5.2,3.2L504,438l-.9.8-4.7-3.1c.4,2.8.8,5.1,1.2,8l-5.3-1.9c.5,3,1,5.6,1.6,8.9l-4.4-2.5c-1.8,5.1-3.6,10-5.3,15s-3.4,10.7-5.1,16.1h-1.3l-4-7.3-2.6,1c-3.5-1.6-1.2-8.3-7.4-6.8l-7.2-13.6c-.3,1.1-.6,2.4-1.2,4.9l-10.3-11.8c-4.4,2.1,2.3,11.3-7.7,8.3v9.3l-4.9-1.5c-1.9,8.5-3.7,16.9-5.7,26L425,485l-3.3,5.9-.6-1.3c-3.5,2-7.6,3.3-10.1,6s-4.1,1.6-5.2-1-1.3-4.2-4.8-3.4c-1.5.4-3.7-2.1-5.6-3.3l1.4-1.4-2.1,2.4-7.1-28.5c-6,3.8-5.4,10.2-7.2,15.3h-1.3c-.8-2.8-1.5-5.6-2.4-9.4l-6.2,6.5c-1.4-1.9-2.7-3.5-4.3-5.5-1.1,2.5-1.9,4.3-3,7-1.6-2.4-2.7-4.2-4.2-6.6-1.2,3.8-2.1,7.2-3.3,11.2l-5-5.3c-.3,2.6-.6,4.6-1,6.9l-4.7-3.3c-.5,2.3-.9,4-1.3,6.1l-3.8-2.4v4.8l-4.2-1.4c.1,1.4.2,2.6.3,4.4l-6.1-3c-.4,4.3-2.8,6.2-6.7,6.1l26,24.5-2,.5Z"/><path class="cls-17" d="M527,395.7l-10.8-5-1.1,1h.1l8.9,6.1-3.6,1.2,8.4,3.9-1.5,1.6,3.8,5.3h2l1.8-1a2.8,2.8,0,0,1,.1-.9c-2.5-3.1-5-6.1-7.4-9.2A8.2,8.2,0,0,1,527,395.7Z"/><path class="cls-19" d="M533.2,409.6h-2a13.4,13.4,0,0,0,.1,2c3.9,5.5,7,11.9,13.6,15l1.2-2-.9-1-6.7-3.6,3-.4-1.4-2.8-5.8-2.2v-1.1l4.5-1.1-3-2.5h-.6Z"/><path class="cls-6" d="M310.2,487.6l13,4.1C318.6,484,315.2,483.3,310.2,487.6Z"/><path class="cls-18" d="M499.2,402.7l5-2.3-1.2-1.8-3.8,4.1Z"/><path class="cls-11" d="M545.2,423.7l.9,1,4.1,5.7,2.2,2.3c1.4,4.9,2.7,9.8,4,14.7,0,.1-.2.2-.4.3a17.7,17.7,0,0,1,.4,2c.5,1.4,1.3,2.7,1.4,4.1.5,6,.9,12,1.3,18h0c4.4,1.5,6.9,4.4,6.9,9.2l2.7,3.9.2.3-.6.5-1.8.2c.3,1.6.6,3.1.8,4.7h.1l1.8,2c2,3.3-1.2,1.6-2.1,2.1a30.1,30.1,0,0,1-1.1,3.2l6.3,6.9-4.3,2.7,9.7,7.7-6.2-.5-.7,1,11.3,8.4c-5.2,8.7,3.1,10.7,4.2,15.9-.9.6-1.8,1.4-2.7,2.1l4.7,5.9-8.4-.7,2.1,2.7,1.2,1.7,1.1,1.8c.2.9.3,1.8.5,2.7l-3-1.3-3.7-2.1c-.3,1.9-.5,3.9-.8,5.9s.5,2,.7,3,2.8,3.4-.8,4.2l-3,2.9c0,.6.1,1.3.1,2s.6,2.1.8,3.1v2.7l-.4,3.3.5,7.8a10.3,10.3,0,0,0,8.9,2.1l14.3-3.4a4.1,4.1,0,0,0,2.2-1.9c2-2.8,3.5-6,5.7-8.5s2.8-6,7.2-4.7c.9.3,2.8-1.2,3.5-2.4,1.6-2.8,6.7-3.8,4.7-8.7-.1-.2,1.4-1.1,2.2-1.8s2.2-1.8,3.2-2.8l10.2-10c.7-.7,1.2-1.5,1.8-2.2,2.5-3.3,4.6-7.1,7.6-9.8,5-4.2,10.5-7.7,11.9-14.8a23.1,23.1,0,0,1,2.8-7.3c1.7-3,3.8-5.8,5.8-8.7l-2.1-1.9c-4,0-7.3-1.2-8.8-5.2h0q-6.1.1-6-6h-.1c-1.1-.8-2.7-1.4-3.4-2.5a39.7,39.7,0,0,1-5.9-24.3,91.1,91.1,0,0,1-34.8-9.1c-12.5-6.1-25.3-11.9-33.5-24-5.4-7.8-10.9-15.4-16.4-23.1l-7-8-4,6.6c-5.4-2.5-5.9-2.4-10.1,2.5a2.8,2.8,0,0,0-.1.9l.2.3.7,1.1,3,2.5,1.2,4.4c.5.9.9,1.9,1.4,2.8Z"/><path class="cls-10" d="M556.2,406.6c5.5,7.7,11,15.3,16.4,23.1,8.2,12.1,21,17.9,33.5,24a91.1,91.1,0,0,0,34.8,9.1l.3-8.8v-1h-1.1c.2,3.3-2,3.6-4.6,3.6-15.9-.6-30.3-5.4-43.1-15.3-10.6-8.1-18-18.8-25.2-29.7l-.9-3.3-2.1-1.8h0l-2-1h-1.7Z"/><path class="cls-20" d="M535.1,407.7c4.2-4.9,4.7-5,10.1-2.5l4-6.6c-1.2-3-1.7-6.6-3.8-8.7s-5.4-1.6-8.3-2.3c-.1,7.1-1.2,7.9-10.1,8.1a8.2,8.2,0,0,0,.7,2.8C530.1,401.6,532.6,404.6,535.1,407.7Z"/><path class="cls-3" d="M552.1,395.8c-1.6-5-1.4-11.2-8.2-13Z"/><path class="cls-3" d="M560.5,405.5h1.7l-8-5.9Z"/><path class="cls-3" d="M540,378.9c-.9-1.1-1.9-2.2-2.9-3.2C538.1,376.7,539.1,377.8,540,378.9Z"/><path class="cls-3" d="M554.2,399.7l-1.2-2Z"/><path class="cls-3" d="M553.1,397.8l-1-2.1Z"/><path class="cls-3" d="M537.2,375.7l-1.3-2Z"/><path class="cls-3" d="M536.1,373.9l-1.1-1.2Z"/><path class="cls-3" d="M541.1,379.9l-1.1-1.2Z"/><path class="cls-3" d="M542.1,380.9l-1.1-1.2Z"/><path class="cls-3" d="M543.1,381.9l-1.1-1.1Z"/><path class="cls-3" d="M544.1,382.9l-1.1-1.2Z"/><path class="cls-7" d="M515.1,391.7l1.1-1Z"/><path class="cls-21" d="M641.2,453v1c.8,12.4,1.8,24.8,9,35.6h.1l6,6h0l10,5c3.2.7,6.4,1.6,9.7,2,17.6,2.2,36.2-10,41.1-27.2,2.2-7.7.8-15.1-2.5-22.2s-6.4-13-9.6-19.5l-2.1-3.8-.6-1.3-.3-.8c-1.4-5.1-2.8-10.3-4.1-15.4l-10.3,4.1c-1.9.7-3.8,1.8-5.7,2-7.6,1.1-15.2,1.9-22,6-2.9,1.7-6.8,1.8-10.3,2.6L637,429l3.2,11.7C640.5,444.8,640.8,448.9,641.2,453Z"/><path class="cls-20" d="M667.2,502.7c-2,2.9-4.1,5.7-5.8,8.7a23.1,23.1,0,0,0-2.8,7.3c-1.4,7.1-6.9,10.6-11.9,14.8-3,2.7-5.1,6.5-7.6,9.8-.6.7-1.1,1.5-1.8,2.2l-10.2,10c-1,1-2.1,1.9-3.2,2.8s-2.3,1.6-2.2,1.8c2,4.9-3.1,5.9-4.7,8.7-.7,1.2-2.6,2.7-3.5,2.4-4.4-1.3-5.4,2.6-7.2,4.7s-3.7,5.7-5.7,8.5a4.1,4.1,0,0,1-2.2,1.9l-14.3,3.4a10.3,10.3,0,0,1-8.9-2.1l1.6,11.2-2.8-1.9-.8.8c1.7,3.6,3.3,7.3,5,11,5.2.9,9.7-.2,13.5-4.2,1.6-1.8,4.1-2.8,6.3-3.9s3.5-2.2,4.8-1.8c4.4,1.4,5.8-.5,5.6-4.9l5,.2-2.4-2.4,4.8-4.2,2.1,2.1-.7-6a43.9,43.9,0,0,0,5.2.9,27.7,27.7,0,0,0,4.1.1c-.3-1.2-.7-2.3-.9-3.5a8.8,8.8,0,0,1-.2-2l7.5-.8c-.2-1.9-.4-3.7-.5-4.5,2-1.8,3.6-3.1,5.3-4.5a1.8,1.8,0,0,1,.8-.5c7.2,2.2,5.2-2.9,4.8-7l6.4.6c-.6-2.4-1.1-4.6-1.7-7.2h5l-.8-5.8,4.7-1.3-.5-4.9,5.2-1c.4-3,1.1-5.5,5.5-3.9,2.6.9,3.1-.7,1.1-6h6.5c-.6-6.7,4.9-3.9,7.9-5.1.5-3.4-4.3-6.8,1-10.1,2.6-1.6,4-5.1,6.1-8l-2.3-3.7Z"/><path class="cls-22" d="M702.9,429.9l2.1,3.8,4.1-4c5.3-9.9,10.3-20,11.5-31.3a131.1,131.1,0,0,0,.4-21.7c-.2-2.4-3.1-4.5-4.8-6.8l-4.8,6.3.8.6c4.2-2.5,4.9,0,4.9,3.4.1,12.8-3.1,24.7-11.1,34.8-3,3.9-5.7,7.6-4,12.8l.3.8Z"/><path class="cls-19" d="M610.1,626.7l13-3.1h.8l4.3-1.8a1,1,0,0,1,.7-.2l1.3-.7,22.5-10.1a28.6,28.6,0,0,0,4-2.8l-10.5,4.2c-2.6,1-5.3,1.7-8,2.6l-1.1.7-.2-.4,1.3-.4c-.1-.8-.1-1.5-.2-2.3l-26.4,12.5C610.9,625.2,610.6,626,610.1,626.7Z"/><path class="cls-8" d="M666.3,500.6l-10-5c1.5,4,4.8,5.2,8.8,5.2Z"/><path class="cls-19" d="M648.9,605.4l4-3.1Z"/><path class="cls-19" d="M641.9,610.3l2.2-1.7Z"/><path class="cls-19" d="M653.9,601.4l2.2-1.9Z"/><path class="cls-12" d="M607.2,627.7l2-1Z"/><path class="cls-19" d="M656.1,599.5l1.8-1.2Z"/><path class="cls-19" d="M646,607.4l1.9-1.1Z"/><path class="cls-19" d="M644.1,608.6l2-1.2Z"/><path class="cls-19" d="M641.2,610.5l.5.6a2.5,2.5,0,0,0,.1-.8C641.6,610.2,641.4,610.3,641.2,610.5Z"/><path class="cls-19" d="M652.9,602.4a5.2,5.2,0,0,0,1.1-1A5.2,5.2,0,0,1,652.9,602.4Z"/><path class="cls-19" d="M647.9,606.3l1.1-.9Z"/><path class="cls-19" d="M657.9,598.4l1.1-1.2Z"/><path class="cls-9" d="M548.1,597.6l-2.9,2.1-10.9-1.9,6,10.3c-3.6,0-6.9-1-9.3.2s-6,4.4-8.5,7.2-7,6.9-12.6,5.7c-3-5.1-5.8-10.2-8.9-15.1a40.2,40.2,0,0,0-5.7-7.2c-1.6-1.6-4.1-2.4-5.9-3.9s-2.6-2.2-3.2.7c1.7,2.2,3.6,4.3,5.1,6.6s2.3,4.4,3.5,6.6l1-.4,1-4.5,15.5,27.4a1.1,1.1,0,0,1,.8.3c.2-2.3.3-4.5.5-7.2,1.3,1.8,2.4,3.3,4.3,6.1.3-3.5.5-5.6.7-7.9l2.6,2,.3-1v-4.3l1.7,3.1c2.1-.8-.1-6.5,4.8-3.9a18,18,0,0,0,.5-1.9l1.2-2.9,1.4,1.1,1.8-1.2c-.3-1-.5-2-1.1-4.4l8.5,3.2c2.3.5,3.4-.2,2.5-2.7s-.5-4.5-.8-6.8l7.9,1.6c-.5-1.9-1-3.8-1.6-5.7C548.2,598.5,548.2,598,548.1,597.6Z"/><path class="cls-12" d="M549.9,604.6,542,603c.3,2.3.6,4.5.8,6.8,2.1-4.5,5-4.9,9.1-2.4a30.1,30.1,0,0,0,5.5,2.2l.7-1.4Z"/><path class="cls-16" d="M559.7,602.7l6.5-3.2-3.1-3.8-3.8-1.9h.1c-.2,1.3-.4,2.6-.5,3.9v1C559.2,600,559.5,601.3,559.7,602.7Z"/><path class="cls-20" d="M567.6,598.7l5.6-1,.8-.8c-1.3-1.7-2.3-3.6-3.9-4.9s-2.5-.1-3.8-.1a24.4,24.4,0,0,1,.1,2.7Z"/><path class="cls-9" d="M558.9,597.7c.1-1.3.3-2.6.5-3.9l-4.2,6.6a5,5,0,0,0,.2,1.2l.9.9,1.3.9,2.1-.7c-.2-1.4-.5-2.7-.7-4s-.3-.2-.3-.3A1.9,1.9,0,0,1,558.9,597.7Z"/><path class="cls-16" d="M540.3,612.5l-8.5-3.2c.6,2.4.8,3.4,1.1,4.4Z"/><path class="cls-19" d="M567.6,598.7l-1.2-4.1-3.3,1.1,3.1,3.8Z"/><path class="cls-19" d="M548.1,597.6c.1.4.1.9.2,1.3l3.9-1v-1.3h-4C548.2,597,548.1,597.3,548.1,597.6Z"/><path class="cls-16" d="M531.1,614.9l-1.4-1.1-1.2,2.9Z"/><path class="cls-9" d="M552.2,596.6v1.3l1,.7Z"/><path class="cls-16" d="M557.6,603.4l-1.3-.9Z"/><path class="cls-16" d="M555.4,601.6a5,5,0,0,1-.2-1.2h-.9Z"/><path class="cls-12" d="M697.2,682.7c.8,5.8,1.7,11.6,2.6,18.1,4.1-1.3,7.2-4,7.8-7.5,1.2-6.8,1.8-13.8-3.4-19.6Z"/><path class="cls-19" d="M664.5,603l-3.4,2.5Z"/><path class="cls-12" d="M628.2,621.7l-4.3,1.8Z"/><path class="cls-19" d="M661,605.6l-3.8,2.1Z"/><path class="cls-19" d="M667.6,600.9l-3.2,2Z"/><path class="cls-12" d="M630.2,620.8l-1.3.7Z"/><path class="cls-7" d="M486.2,595.7c.6-2.9,1.5-2.2,3.2-.7s4.3,2.3,5.9,3.9a40.2,40.2,0,0,1,5.7,7.2c3.1,4.9,5.9,10,8.9,15.1,5.6,1.2,9.2-1.7,12.6-5.7s5.3-5.6,8.5-7.2,5.7-.2,9.3-.2l-6-10.3,10.9,1.9c-1.6-3.9-2.1-9.2-5-11.3s-8.1-.8-13.1-1.1l6.3-9.5-.8-.8-6.2,1.9,6.5-9.4-.7-1.2-15.3,7.1c2-2.5,3.3-4.5,4.9-6.3s3-3.5,4.6-5.2l-1.1-1.2-13.2,7.8-1-.6,10.2-21-.9-.9-10.2,8.5-1-.6,9.6-27.5-.8-.7-6.5,7.9-1.4-.6a99.9,99.9,0,0,0,2.2-10.3c.4-3.4,0-6.9.3-10.3.6-5.4,1.4-10.8,2.3-16.1.6-3.8-2.3-8.4-6.1-8-1.6.1-3.3,2.1-4.4,3.7s-.2,2.9-.3,4.5l-3.8-2.2c.3,2.9.5,4.7.8,6.9-4.2-2.5-9.7.6-11.9,5.8-3.2,7.9-6.9,15.5-10.1,23.4-2.3,5.5-3.9,11.2-5.9,16.8-.8,2-1.9,3.8-2.7,5.7l-3,6.4L463,560v8.1l-8.3-3.2c.9,3.4,1.8,6.6,3.1,11.1l-8.6-4.8c.2,3.2.3,5.5.4,8.4l-7-4c.4,3.6.8,6.6,1.2,10.4l-8.4-6.6-1,.7L436,589l-1.3,1c-.7-1.8-1.4-3.5-2.2-5.3l-2.1,1.3c.2,3.3.4,6.7.7,11l-4.6-3.3c-.2,3.2-.4,5.8-.7,9.1-1.6-2.1-2.9-3.6-4.1-5.1.5,6.6-2.7,7.8-8.3,5.7.1,2.2.2,3.5.3,5.4l-3-1.2-4-2.5-1.5,5.9-11.4-5.8c-.1,2-.3,4.1-.5,6.7l-8.6-4.4c.1,1.9.1,3.3.3,5.7l-11-4.7,3,8.1-10.2-5V615l-1,1-6.6-6.3h-4c-.3.8-1.1,1.9-.9,2.6,2.1,4.9-.8,7.7-4.1,10.4s-4.4,5.6-6.9,8.2-1.6,5.9-5,6.8a2.8,2.8,0,0,0-.1.9,11.5,11.5,0,0,0,3.6.7c8.7-1.1,17.5-2.3,26.2-3.6s19.3.2,28.3-4.1a4.2,4.2,0,0,1,1.5-.4l14.9,1.3h1.5c.8-.6,1.6-1.5,2.5-1.6,5.2-.5,10.3-.8,15.4-1.1h.1a57.7,57.7,0,0,0,7.9-2.9c4.3-2.1,8.1-5.2,12.6-6.9,6.5-2.5,13.3-4.8,16.4-11.6,4-8.6,4.3-9,12.4-4.7.2.1.6-.2,1.5-.4s-.2-3.1.3-4.5,1.9-2,2.9-2.9Z"/><path class="cls-23" d="M338.3,637.7c3.4-.9,3.1-4.7,5-6.8s4.6-5.5,6.9-8.2c-4.2-3-4.6-4.5-3.5-13l-5.1,1.7c-.2-2.5-.5-4.8-.8-7.7l-8.1,4.4v-16l-5.9,3.4c-.5-3-1-5.7-1.5-9.3l-4.4,3.5c-1.4-3.5-2.7-6.7-4.3-10.9l-5.4,6.9c-1.7-3.8-3.2-7.5-4.8-11.1h-1.2l-2.7,7.5-3.8-8.2h-1.1l-2.1,7.2-1.1.4c-1-2.1-2.1-4.2-3.5-7.2-.7,2.6-1.1,4.6-1.7,6.9l-10.8-5.4-2.2,4.8-6.5-4c-.3,2.3-.6,4.2-.9,6.4l-4-.2c.1,2.1.2,4.1.3,6.6l-6-2.2,3.1,9.7-4.9,1.3,5.2,8.1-6.6-.5,3.1,8.2h-5.2l5,11.7-3.8,2.7c4.6,5.5,8.8,11,3.7,18.7l2.8,4-7.1,3.2c1.2,2.1,6.3,4.3-.5,6l6,4.9-8.3,3.3,6.1,4.3-5.9,1.2-.3,1.2,9.9,3.2-3.2,4.5,22.8,7-.2,1-4,1.2v1.1h10.1a33.2,33.2,0,0,1,4.4.6c1.3-1,2.5-2.1,3.7-3.2l.2-.3c1.9-3.6,3.9-7.2,5.9-10.8l1.1-2,1-1a.8.8,0,0,0,.2-.5l-.8-4.7a41.3,41.3,0,0,1-4.8,3.8c-.9.5-3.2.7-3.3.4-1.6-3.6-3.5-1-5.2-.4s-2.2,1-4.6,2.1c1.6-2.9,2.4-4.4,3.7-7l-10.9,3.6,4-5.3-9.6,2.3,3-7.8h-4.7l3.3-7.3-5.9,1.9c.3-5.9,11.1-8,3.7-15,6.5-4.1-1.7-8.4.5-12.6,3.5,2.2,5.5,1.7,5.4-2.6s-.5-9.4-.9-14.1c-.3-3.2-.9-6.3-1.5-10.4l9.7,6.4c-1.2-4.7-2-8-2.8-11.2l.8-.4,7.2,6.6c.4-3.9.7-6.7,1.1-10.3l8.5,7.8c.9-2.7,1.7-4.7,2.7-7.5,2.3,4.6,4,8.3,6.1,12.3l5-8.3c1.3,3.4,2,5.6,2.9,8l3.7-1.6v5l4.9-2.2c.4,2.9.8,5.3,1.2,8.5l6.2-3.6c-.3,3.6-.5,6.6-.8,10.1l5-1.9-4.3,9.9,5.6-1.8c-2.2,3.2-3.9,5.6-5.4,8.1-.2.2.7,1.2,1.1,1.8h0Z"/><polygon class="cls-18" points="348.2 586.7 347.8 586.9 348 587.1 348.2 586.7"/><path class="cls-20" d="M414.2,632.4h-1.5l2.5,4.2.2.4-.2-.5-6.8-1.8-.3,2.6c-7.8-3.6-16.2-3-18.5,1.2l-5-2.6c-.2,1.2-.4,2.3-.7,3.5l-5.5-2.9v1.5h-13c.2,1,.5,2.2.7,3.4l-14.7-2.8c.2,1.5.3,2.5.5,3.3l-4.6.9v1.6L336.5,641a.9.9,0,0,0-.9.1c-6.9,3.5-14.7,5.7-18.5,13.4,1.4,1.1,2.9,3,4.2,3,18.6-.4,37.2-.9,55.7-1.9q18.3-.9,36.6-3c10.8-1.3,21.5-3.5,32.2-5.3,1.7-.3,3.3-.3,4.9-.7s3.5-.7,3.6-1.3c.7-6.6,6.7-3.3,9.9-5.2.9-.5,3,1,4.4.4l5.7-1c.6-.1,1.4.1,1.9-.2,2.7-1.6,5.6-2.9,7.7-5,5.9-6,13.7-5.4,21-6.3,1.6-.2,3.4,2.3,5.2,3.3s1.5.1,2.2.1L496.8,604l-1,4.5-1,.4c-1.2-2.2-2.2-4.5-3.5-6.6s-3.4-4.4-5.1-6.6h0c-.4,4.2-.9,8.4-1.4,13.5l-6.9-4L472,607c1.8,7.8-7.3,8.8-9.2,13.2l-8.6,1.9a7.3,7.3,0,0,1-.2.8l-4.8,1.7.4,1-.6-.8-7.2,4c0,.6.1,2.3.2,4.3l-9.8-3.5h-.1c.3,1.1.6,2.3,1.1,4.5-2.7-1.2-5.4-2.8-5.4,1.8Z"/><path class="cls-24" d="M333.2,638.7c-.4-.6-1.3-1.6-1.1-1.8,1.5-2.5,3.2-4.9,5.4-8.1l-5.6,1.8,4.3-9.9-5,1.9c.3-3.5.5-6.5.8-10.1l-6.2,3.6c-.4-3.2-.8-5.6-1.2-8.5l-4.9,2.2v-5l-3.7,1.6c-.9-2.4-1.6-4.6-2.9-8l-5,8.3c-2.1-4-3.8-7.7-6.1-12.3-1,2.8-1.8,4.8-2.7,7.5l-8.5-7.8c-.4,3.6-.7,6.4-1.1,10.3l-7.2-6.6-.8.4c.8,3.2,1.6,6.5,2.8,11.2l-9.7-6.4c.6,4.1,1.2,7.2,1.5,10.4q.6,7.1.9,14.1c.1,4.3-1.9,4.8-5.4,2.6-2.2,4.2,6,8.5-.5,12.6,7.4,7-3.4,9.1-3.7,15l5.9-1.9-3.3,7.3h4.7l-3,7.8,9.6-2.3-4,5.3,10.9-3.6c-1.3,2.6-2.1,4.1-3.7,7,2.4-1.1,3.5-1.7,4.6-2.1s3.6-3.2,5.2.4c.1.3,2.4.1,3.3-.4a41.3,41.3,0,0,0,4.8-3.8c.3,2,.6,3.4.8,4.7a1.8,1.8,0,0,0,.7-.5l4.1-1.9,1.8-1.1,9.2-7.6a1.2,1.2,0,0,1,.7-.5l-7.2-3,2.5-5.8c.1-.3.1-.7.2-1h-.2c3.5-7.1,8.6-12.2,16.5-13.9C332.4,640.8,332.7,639.4,333.2,638.7Z"/><path class="cls-11" d="M319.9,664.5a1.2,1.2,0,0,0-.7.5c-1.1,4.8-3.8,7.9-9.2,7.6l-1.8,1.1c-1.7,2.9-2.4,7-7.1,6.9l-.2.2v.2l-.9,1.7a15.4,15.4,0,0,1-.5,1.7l1.3,1.7-3.2,1.3c-.3,1-.5,2.1-.8,3.1,7.2,1,14.3,2.5,21.6,3q18.6,1.5,37.2,2.1a112.5,112.5,0,0,0,15.3-1.1c1.2-.1,2.2-1.9,3.3-2.9l-10-3.9c7.5-4.5,13.8-2.8,18,5a6.3,6.3,0,0,0,2.2-.9c3-3,5.9-6.1,8.8-9.1l-9.3-7.7,3.7-1.3c-11.6-1-22-1.5-32.3-3s-20.7-4-31.1-6.1Z"/><path class="cls-9" d="M333.2,638.7c-.5.7-.8,2.1-1.5,2.2-7.9,1.7-13,6.8-16.5,13.9l1.9-.3c3.8-7.7,11.6-9.9,18.5-13.4a.9.9,0,0,1,.9-.1l10.7,3.5v-1.6l4.6-.9c-.2-.8-.3-1.8-.5-3.3l14.7,2.8c-.2-1.2-.5-2.4-.7-3.4h13v-1.5l5.5,2.9c.3-1.2.5-2.3.7-3.5l5,2.6c2.3-4.2,10.7-4.8,18.5-1.2l.3-2.6,6.8,1.8h0l-2.5-4.2-14.9-1.3a4.2,4.2,0,0,0-1.5.4c-9,4.3-18.8,2.6-28.3,4.1s-17.5,2.5-26.2,3.6a11.5,11.5,0,0,1-3.6-.7Z"/><path class="cls-12" d="M400.1,686.6c11.3-2.9,12.5-8.9,10.1-18.2-.3-1.2-.6-2.5-1-3.7l-4,.9c-1,.7-2,1.8-3.1,2-5.7.6-11.4,1-18,1.5C392.9,672.5,398.7,677.7,400.1,686.6Z"/><path class="cls-12" d="M415.2,664.6l-.9,20.6c8.2.7,17-11.9,16.9-22.5Z"/><path class="cls-9" d="M315.4,654.7c-.1.3-.1.7-.2,1S315.3,655,315.4,654.7Z"/><path class="cls-12" d="M523.2,622.5l-1.7-3.1v4.3Z"/><path class="cls-14" d="M393.2,682.7c-2.9,3-5.8,6.1-8.8,9.1a6.3,6.3,0,0,1-2.2.9c-.5,6.1-.9,12.2-1.4,18.2,11.4-1,18.8-18.2,13.8-27.7C394.4,682.9,393.7,682.8,393.2,682.7Z"/><path class="cls-3" d="M300.9,681v-.2l.2-.2a3.8,3.8,0,0,1,.1-1h-.1c-2,3.6-4,7.2-5.9,10.8h1.6c.3-1,.5-2.1.8-3.1l1.9-3a15.4,15.4,0,0,0,.5-1.7Z"/><path class="cls-25" d="M633.7,363c-7.6,7.1-9.4,15.1-5.6,24.7,1.6.3,3.4.2,4.8.9,3.9,2,6.4.8,7.7-3s2.9-6.1,6.5-5.6,3,4.5,3.1,7.3a1.1,1.1,0,0,1,.1.5l.3.3-.4.6h0c-1.4,7.3-9,10.1-16.1,5.8l-4.5-2.8,3.9,8,9.2,6,7.5,1.2h9l2-.4-6.9-25.2,1.8-.6,9.2,24.2,2.9-1.2,9.8-8.3,1.9-2.8,2.2-2.2a.6.6,0,0,1,.1-.7l.3-14.2-2.3,4-1.1,1.2h.1l-1,1.1h0l-1,2.1h0c-4.5,4.5-9.6,4.8-14,1h0l-1-.9c-.5-2.6-1.3-5.2-1.3-7.7,0-.4,4.1-1.9,5.1-1.2,6.6,4.7,10.9,1.9,14.5-3.9a2.5,2.5,0,0,1,.9-.4c-3.4-13.5-14.8-20.5-27.7-17-.5.1-.8.7-1.3,1l8.7.2,7.3,1.6c-2.1,2.8-3.2,5-4.9,6.5-7,5.9-15.7,6.7-24.2,7.7-6.2.7-7-.8-5.1-6.9Z"/><path class="cls-22" d="M641.2,453c-.4-4.1-.7-8.2-1-12.3-2.7-1.2-5.3-2.6-8.1-3.6-11.3-4-19.9-11.5-26.8-21.1-1.2-1.7-.7-4.8-1-7.2l-5.1-1.8c-.3,1.9-1.5,4.3-.8,5.6,4.2,7.5,8.1,15.3,13.4,21.9,7.3,9.1,17.1,15.1,28.4,18.6Z"/><path class="cls-10" d="M650.2,406.8l-7.5-1.2c-2.3,1.3-5,2.3-6.9,4.1-3.5,3.2-6.8,3.8-10.6,1h-3l-9,3.7v-8.7l-8,3.1,11,10.9a7.6,7.6,0,0,0,.8,1.1h0a34.8,34.8,0,0,1,5.6,1.2c6.5,2.7,13.2,3.9,19.7,1.1S652.7,414.7,650.2,406.8Z"/><path class="cls-10" d="M678,395.4l-9.8,8.3,4,2.5c2.9,1.5,7.1,2.3,8.5,4.8s4.3,3.1,6.8,1.7c7-4,15.8-5.2,20.7-12.8.2-.3,1.2-.2,1.9-.2,3.6-7.4,3.2-15.1,2.1-22.9l-.8-.6-1.2,1.5c.3,1.9,1,3.9.7,5.8-.8,4-.8,9.9-3.4,11.6-5.7,3.8-12.5,6.8-19.9,4.2C684.3,398.1,681.2,396.7,678,395.4Z"/><path class="cls-20" d="M678,395.4c3.2,1.3,6.3,2.7,9.6,3.9,7.4,2.6,14.2-.4,19.9-4.2,2.6-1.7,2.6-7.6,3.4-11.6.3-1.9-.4-3.9-.7-5.8-1.1-3.5-1.8-1.1-2.5.1-2.2,3.4-3.8,7.5-6.6,10s-5.9,2.3-9,2.6-6.6-.5-9.9-.7a.6.6,0,0,0-.1.7l-2.2,2.2Z"/><path class="cls-26" d="M616.2,419.7l-11-10.9h-.9c.3,2.4-.2,5.5,1,7.2,6.9,9.6,15.5,17.1,26.8,21.1,2.8,1,5.4,2.4,8.1,3.6-1.1-3.9-2.1-7.8-3.2-11.7-7.4-.8-14.6-2.2-20-8.1h0A7.6,7.6,0,0,1,616.2,419.7Z"/><path class="cls-15" d="M566.3,408.4l.9,3.3c3.3,0,6.7-.3,10,0,8.5.8,15.2-2.7,21.1-8.5,1.6-1.5,4-2.3,6.2-3.5.5-4.8.6-10.2,1.7-15.3,2.4-11.6,5.4-23.1,8-34.6.5-2,.6-4.2.9-6.3l-1.8,2.3h.1a21.2,21.2,0,0,0-1.1,2.1h.1c-1.1,2.7-2.1,5.4-3.1,8.1h.1l-1.2,3.5v.3c-.7,1.9-1.3,3.8-2,5.8h.2l-3.6,17.2a14.9,14.9,0,0,1-.2,2.1l-1.5,11.9h0l-1.9,1.4h.2l-6.3,5.8h0l-2,1.1h.1l-2,1.2h.1C582.3,411.7,574.3,410.5,566.3,408.4Z"/><path class="cls-22" d="M681.4,370.6a2.5,2.5,0,0,0-.9.4c-3.6,5.8-7.9,8.6-14.5,3.9-1-.7-5.1.8-5.1,1.2,0,2.5.8,5.1,1.3,7.7l1,.9h0l14-1h0a20,20,0,0,1,1-2.1h0l1-1.1h-.1l1.1-1.2,2.3-4Z"/><path class="cls-22" d="M650.3,387.8a1.1,1.1,0,0,0-.1-.5c-.1-2.8.8-6.7-3.1-7.3s-5.3,2.3-6.5,5.6-3.8,5-7.7,3c-1.4-.7-3.2-.6-4.8-.9l1.5,3.9,4.5,2.8c6.6,1.3,11.9-.8,16.1-5.8h0A2.8,2.8,0,0,1,650.3,387.8Z"/><path class="cls-27" d="M661.1,354.8l-8.7-.2c-6.1,1.9-12.5,3.2-17.3,7.9l.9,1.1c8.6,1.6,16-1.7,23.3-5.6C660.2,357.5,660.5,355.9,661.1,354.8Z"/><path class="cls-15" d="M625.2,410.7c3.8,2.8,7.1,2.2,10.6-1,1.9-1.8,4.6-2.8,6.9-4.1l-9.2-6C625.5,399.4,626.6,405.9,625.2,410.7Z"/><path class="cls-15" d="M613.2,405.7v8.7l9-3.7C620.6,406.5,618.6,403,613.2,405.7Z"/><path class="cls-15" d="M618.4,331.8c-.9,3.2-1.7,6.5-2.5,9.7.9-.7,2.5-1.2,2.8-2.2,1.9-6.7,3.6-13.6,5.2-20.5.1-.5-1.2-1.4-1.8-2.1C620.8,321.7,619.6,326.7,618.4,331.8Z"/><path class="cls-25" d="M636,363.6l-.9-1.1-1.4.5.5.7Z"/><path class="cls-6" d="M347.2,516.7l-.2-.5.2.5Z"/><path class="cls-17" d="M541.6,297.6l-.6-1.9c-2.9-2.9-3.1-6.3-2-10s1.5-6,2.2-9c-.2-.2-.2-.5-.3-.7l-8.2-6.5c.2,1.1.1,2.5.7,3.2s2.4,1.7,3.6,2.6l-.5,1.5c-2-.5-4.4-.5-6-1.5-8.3-5.5-16.3-2.1-18.4,7.5-4.4,21,4.8,37.4,17.1,52.9l9-18h0l-3.7-1.9,3.8-7.9v-1.2c-.4-.7-1.3-1.6-1.1-2C538.5,302.2,540.1,299.9,541.6,297.6Z"/><path class="cls-9" d="M533.5,335.4c3.4,2.9,3.7,5.6.4,10.5a9,9,0,0,0-1.5,1.9c-2.3,5.1-4.7,6.1-9.7,3.9a65.3,65.3,0,0,1-20.1-14.1c-6-6.3-12.2-12.5-18.2-18.8-4.2-4.4-8.7-8.7-12.2-13.6-4.9-7-9-14.5-13.5-21.7-5.3-8.8-9.7-17.9-12-27.9-2.8-12.2,3.5-24.4,17.9-22.7,8,1,15.9,3.9,23.6,6.5,4.2,1.4,8,3.9,11.8,6.2,1.6.9,2.9,2.5,4.4,3.8l-.3.4-16.8-8.6a30.2,30.2,0,0,0-5.1-1.6c-6.4-1.6-12.7-3.9-19.3-4.6-3-.4-6.5,2.3-9.7,3.6h0c-1,1-1.9,2.1-2.8,3.1a.6.6,0,0,0-.3.7c-4.3,7.6-.9,14.7,1.9,21.7a.5.5,0,0,0,.1.6l11,21.1h0c7.2,12.5,15.5,24.2,26,34.2l.7.9,22.3,22h0l10.8,6.1,3.7,1.1.4-1-2.7-1.5,2.9-1.7,5.8-4.9c-1.1-1.2-2.3-2.3-3.3-3.5a6.9,6.9,0,0,1-.5-1.7l9-18C536.7,323.4,535.1,329.2,533.5,335.4ZM528.8,350h-.1Z"/><path class="cls-9" d="M541.2,276.7c-.7,3-1.3,6-2.2,9s-.9,7.1,2,10a53.3,53.3,0,0,1,.2-5.6c.4-2.9,1.3-5.7,1.4-8.6S541.7,278.3,541.2,276.7Z"/><path class="cls-3" d="M566.3,408.4c8,2.1,16,3.3,23.1-2.6a6.7,6.7,0,0,0-2,0c-6.9,3.7-14,3.1-21.2.9a12.7,12.7,0,0,0-2-.1Z"/><path class="cls-9" d="M525,262.9c-1.1-1.4-2-3.3-3.4-4.2-4.3-2.6-8.9-4.8-13.3-7.1l-.4.4,4.4,3.5,3.8,2.4,2.2,1.6,1.9,1.2,1.1.9h0Z"/><path class="cls-9" d="M532.7,269.5l8.2,6.5c-.1-1.1.1-2.8-.5-3.2-4.1-2.8-8.3-5.3-12.5-7.9l2.5,2.7Z"/><path class="cls-3" d="M602.9,382.6l3.6-17.2C602.7,370.6,602,376.4,602.9,382.6Z"/><path class="cls-9" d="M538.3,307.8l-3.8,7.9,3.7,1.9C538.2,314.4,538.2,311.1,538.3,307.8Z"/><path class="cls-17" d="M530.4,267.6l-2.5-2.7-2.9-2-3.7-1.4C522.5,266.3,525.9,267.7,530.4,267.6Z"/><path class="cls-9" d="M541.6,297.6c-1.5,2.3-3.1,4.6-4.4,7-.2.4.7,1.3,1.1,2C541.8,304.5,542.2,301.2,541.6,297.6Z"/><path class="cls-3" d="M601.2,396.6l1.5-11.9Z"/><path class="cls-3" d="M593.2,403.7l6.3-5.8Z"/><path class="cls-3" d="M609.3,355.8c1-2.7,2-5.4,3.1-8.1C611.3,350.4,610.3,353.1,609.3,355.8Z"/><path class="cls-3" d="M606.3,365.3c.7-2,1.3-3.9,2-5.8C607.6,361.4,607,363.3,606.3,365.3Z"/><path class="cls-6" d="M609.3,342.7l-3.1,3Z"/><path class="cls-9" d="M508.3,251.6l-3.9-2.2-.3.4,2.1,1.9,1.7.3Z"/><path class="cls-3" d="M608.2,359.2l1.2-3.5Z"/><path class="cls-3" d="M599.3,398l1.9-1.4Z"/><path class="cls-3" d="M562.2,405.6l2,1Z"/><path class="cls-3" d="M589.3,405.9l2-1.2Z"/><path class="cls-3" d="M591.2,404.8l2-1.1Z"/><path class="cls-3" d="M612.3,347.8a21.2,21.2,0,0,1,1.1-2.1A21.2,21.2,0,0,0,612.3,347.8Z"/><path class="cls-22" d="M674,313.6c-3.6-3.1-8.2-5.3-7.6-10.6s.5-9,2.6-12.3,6.7-5.4,10.2-8a17.9,17.9,0,0,1,4,.1c6.9,1.2,13.4,3.7,17.4,9.6s1,16.6-5.3,21.5-17.8,6.2-23.8.9Zm3.6-5.5c1.1-.1,2.6-2.1,2.5-3.3s-1.9-2.9-2.8-2.9-2.2,1.9-3.9,3.4C675.2,306.6,676.6,308.3,677.6,308.1Zm-7.7-2.6-1.1-.5-.5,2,.7.3Z"/><path class="cls-28" d="M671.5,314.8l2.5-1.2c-3.6-3.1-8.2-5.3-7.6-10.6s.5-9,2.6-12.3,6.7-5.4,10.2-8c-8.5-.9-14.5,4.1-14.9,12.7-.2,3.7.5,7.5.8,11.3a2.9,2.9,0,0,1,.2.9h-.1l.9,1Z"/><path class="cls-6" d="M665.3,307.6a2.9,2.9,0,0,0-.2-.9,1.9,1.9,0,0,0-.2.7C664.9,307.5,665.1,307.6,665.3,307.6Z"/><path class="cls-6" d="M666.1,308.6l-.9-1Z"/><path class="cls-22" d="M602.1,341.5H602c-5,1.1-10.1,2.8-15.2,3.1-6.9.4-12.4-4.2-14.7-11a25.2,25.2,0,0,0-2.4-4.2c5.5-19,20-24.1,32.9-11.6l1.3,1.1h-.1l.3,1.9c.8,5.3,5.2,10.3,1.1,16l-.8,1.2a2.1,2.1,0,0,1-.3.7,8.3,8.3,0,0,0-.8,1.2l-.3.8Zm-9.8-12a4.8,4.8,0,0,0,2.8,3.1c.6.2,2.9-1.6,2.8-2.2s-1.6-2.8-3.1-5.2C593.5,327.4,592.1,328.7,592.3,329.5Z"/><path class="cls-28" d="M602,341.5c-5,1.1-10.1,2.8-15.2,3.1-6.9.4-12.4-4.2-14.7-11a25.2,25.2,0,0,0-2.4-4.2c-2.5,6.1,1.4,14.1,8.8,17.8S597.2,348.7,602,341.5Z"/><path class="cls-6" d="M603.8,318.8l.3,1.9Z"/><path class="cls-28" d="M604.1,338.6a8.3,8.3,0,0,0-.8,1.2A8.3,8.3,0,0,1,604.1,338.6Z"/><path class="cls-28" d="M605.2,336.7l-.8,1.2Z"/><path class="cls-28" d="M603,340.6l-.9.9Z"/><path class="cls-6" d="M602.6,317.8l1.3,1.1.3-1.2h-1.6Z"/><path class="cls-19" d="M578,561.6c-.2-1-.4-2-.7-3s-.7-3.6-1-5.4a6.9,6.9,0,0,1,1.8-.5l3.7,2.1,2.5-1.4-1.1-1.8-1.2-1.7-2.1-2.7,8.4.7-4.7-5.9c.9-.7,1.8-1.5,2.7-2.1-1.1-5.2-9.4-7.2-4.2-15.9l-11.3-8.4.7-1,6.2.5-9.7-7.7,4.3-2.7-6.3-6.9-4-3.1c0,1-.4,2.7,0,2.9,3.7,1.8,3.2,5,3.2,8.2,0,7.2,4.7,12,8.8,17.2,1.4,1.8,2.2,4.1,3.2,6.2.3.5,0,1.6.4,1.9,5.3,4,1.4,7.5-.1,11.7s-2.2,10.5-3.3,15.9c.4.9.7,1.8,1,2.7l.5.9Z"/><path class="cls-19" d="M556.4,449.7a17.7,17.7,0,0,0-.4-2l-7.7-13.6,4.1-1.4-2.2-2.3-3.5-2.1a77.1,77.1,0,0,0,1,8.4c1.7,8.5,5.2,16.6,2.5,25.7-.6,2.1,2.5,5.6,4.3,8a99.5,99.5,0,0,0,7.7,8.2l.7-.6-3.8-6.3h0l-5.7-8.5c3.9-2.3-.4-4.3-.2-6.5l-.4-.2v-.3l.4.4,3.2-.5-4.5-7.3Z"/><path class="cls-19" d="M566.3,591.9c1.3,0,3-.5,3.8.1s2.6,3.2,3.9,4.9l2.8,1.9-1.6-11.2c-.1-2.6-.3-5.2-.4-7.8l-1.1-1.2a34.6,34.6,0,0,0-1.4,5.3,30.1,30.1,0,0,0-.1,5.2l-6.2.6Z"/><path class="cls-19" d="M567.1,494.6c.9-.5,4.1,1.2,2.1-2.1l-1.8-2h-.1l-4.1-2.9-2,5.1Z"/><path class="cls-19" d="M566.5,485.8l1.8-.2a.8.8,0,0,1,.4-.8l-2.7-3.9c-1-1-2-2-3.1-2.9l-.7.6v6.1Z"/><path class="cls-19" d="M574.3,570.7c0-.7-.1-1.4-.1-2-.2-2.3-.3-4.7-.5-7-.2-.6-.3-1.3-.5-2l-.6,15,1.6-1C574.2,572.7,574.3,571.7,574.3,570.7Z"/><path class="cls-9" d="M566.3,591.9l-.3-2.2c-1.8.7-3.7,1.5-5.5,2.4s-.8,1.1-1.2,1.7l3.8,1.9,3.3-1.1A24.4,24.4,0,0,0,566.3,591.9Z"/><path class="cls-17" d="M566.5,485.8l-4.3-1.1c.3.9.6,1.9,1,2.9l4.1,2.9C567.1,488.9,566.8,487.4,566.5,485.8Z"/><path class="cls-16" d="M546.7,428.3l3.5,2.1-4.1-5.7-1.2,2c.3.1.4.3.5.6l1,1Z"/><path class="cls-17" d="M567.1,494.6l-5.9-1.9a11.9,11.9,0,0,1,.8,2l4,3.1A30.1,30.1,0,0,0,567.1,494.6Z"/><path class="cls-13" d="M574.2,573.7l-1.6,1c.4.6.7,1.3,1.1,2l1.4-.2v-2.7Z"/><path class="cls-9" d="M548.2,596.7h4C550.8,593.4,549.5,594.7,548.2,596.7Z"/><path class="cls-13" d="M573.2,559.7c.2.7.3,1.4.5,2l1.5-.3c-.3-.9-.6-1.8-1-2.7Z"/><path class="cls-20" d="M575.1,576.5l-1.4.2v1.9l1.1,1.2Z"/><path class="cls-19" d="M546.4,428.3l-1-1Z"/><path class="cls-16" d="M533.2,409.6l2.1.3c0-.3-.1-.6-.1-1l-.2-.3Z"/><path class="cls-16" d="M540.1,416.9l-1.2-4.4-4.5,1.1v1.1Z"/><path class="cls-16" d="M545.2,423.7l-3.7-4-3,.4Z"/><path class="cls-17" d="M535.2,408.9c0,.4.1.7.1,1h.6Z"/><path class="cls-16" d="M556.4,449.7l-4.5-.9,4.5,7.3-3.2.5h0c-.2,2.2,4.1,4.2.2,6.5l5.7,8.5c-.4-5.9-.8-11.9-1.3-17.9C557.7,452.4,556.9,451.1,556.4,449.7Z"/><path class="cls-8" d="M650.2,489.6c-7.2-10.8-8.2-23.2-9-35.6l-.3,8.8a39.7,39.7,0,0,0,5.9,24.3C647.5,488.2,649.1,488.8,650.2,489.6Z"/><path class="cls-16" d="M552.4,432.7l-4.1,1.4,7.7,13.6c.2-.1.4-.2.4-.3C555.1,442.5,553.8,437.6,552.4,432.7Z"/><path class="cls-16" d="M562.9,478c1.1.9,2.1,1.9,3.1,2.9,0-4.8-2.5-7.7-6.9-9.2Z"/><path class="cls-20" d="M575.2,561.4l-1.5.3c.2,2.3.3,4.7.5,7l3-2.9-1.5-3.5A4.1,4.1,0,0,0,575.2,561.4Z"/><path class="cls-8" d="M656.3,495.6l-6-6Q650.2,495.8,656.3,495.6Z"/><path class="cls-13" d="M578.1,552.7a6.9,6.9,0,0,0-1.8.5c.3,1.8.7,3.6,1,5.4C577.6,556.6,577.8,554.6,578.1,552.7Z"/><path class="cls-13" d="M575.7,562.3l1.5,3.5c3.6-.8,1.6-2.6.8-4.2Z"/><path class="cls-13" d="M584.3,553.4l-2.5,1.4,3,1.3C584.6,555.2,584.5,554.3,584.3,553.4Z"/><path class="cls-17" d="M567.4,490.5l1.8,2Z"/><path class="cls-20" d="M574.2,573.7h.9c-.2-1-.5-2.1-.8-3.1C574.3,571.7,574.2,572.7,574.2,573.7Z"/><path class="cls-13" d="M582,549.9l1.2,1.7Z"/><path class="cls-17" d="M568.7,484.8a.8.8,0,0,0-.4.8l.6-.5Z"/><path class="cls-12" d="M617,420.9c5.4,5.9,12.6,7.3,20,8.1l12.6-1.9,7.2-4.5,1.3-1.1H658c3.3-4.4,5.5-9,4-14.7a1.3,1.3,0,0,1-.8-.3l-2,.4c-2.4,3-4.9,2.5-7.3,0h-1.7c2.5,7.9-1,13.4-7.9,16.4s-13.2,1.6-19.7-1.1A34.8,34.8,0,0,0,617,420.9Z"/><path class="cls-26" d="M712.2,376.8c1.1,7.8,1.5,15.5-2.1,22.9-4.1,4.2-8.2,8.4-12.2,12.7,1.3,5.1,2.7,10.3,4.1,15.4-1.7-5.2,1-8.9,4-12.8,8-10.1,11.2-22,11.1-34.8C717.1,376.8,716.4,374.3,712.2,376.8Z"/><path class="cls-12" d="M697.9,412.4c4-4.3,8.1-8.5,12.2-12.7-.7,0-1.7-.1-1.9.2-4.9,7.6-13.7,8.8-20.7,12.8-2.5,1.4-4.7,2.1-6.8-1.7s-5.6-3.3-8.5-4.8l-4-2.5-2.9,1.2v1.8c2.4,4.9,6,8.4,11.4,9.8h10.9Z"/><path class="cls-3" d="M687.6,416.5H676.7c-5.8,0-11.4.1-15.9,4.6-.5.6-1.8.3-2.8.4h.1l-1.3,1.1-7.2,4.5c3.5-.8,7.4-.9,10.3-2.6,6.8-4.1,14.4-4.9,22-6C683.8,418.3,685.7,417.2,687.6,416.5Z"/><path class="cls-26" d="M702.9,429.9l-.6-1.3Z"/><path class="cls-9" d="M638.2,614.6l-1.3.4.2.4,1.1-.7Z"/><path class="cls-19" d="M558.9,597.7a1.9,1.9,0,0,0-.2.7c0,.1.2.2.3.3A3.8,3.8,0,0,1,558.9,597.7Z"/><path class="cls-9" d="M432.2,629.6l9.8,3.5c-.1-2-.2-3.7-.2-4.3l7.2-4,.2-.2,4.8-1.7a7.3,7.3,0,0,0,.2-.8l8.6-1.9c1.9-4.4,11-5.4,9.2-13.2l5.9-1.8,6.9,4c.5-5.1,1-9.3,1.4-13.5-1,.9-2.4,1.7-2.9,2.9s-.2,3.1-.3,4.5-1.3.5-1.5.4c-8.1-4.3-8.4-3.9-12.4,4.7-3.1,6.8-9.9,9.1-16.4,11.6-4.5,1.7-8.3,4.8-12.6,6.9A57.7,57.7,0,0,1,432.2,629.6Z"/><path class="cls-9" d="M414.2,632.4l13.6,3.6c0-4.6,2.7-3,5.4-1.8-.5-2.2-.8-3.4-1.1-4.5-5.1.3-10.2.6-15.4,1.1C415.8,630.9,415,631.8,414.2,632.4Z"/><path class="cls-24" d="M333.2,638.7h5a2.8,2.8,0,0,1,.1-.9Z"/><path class="cls-3" d="M302.2,677.6l-1.1,2h.1l.9-2Z"/><path class="cls-3" d="M304.1,675.6a1.8,1.8,0,0,1-.7.5.8.8,0,0,1-.2.5h0Z"/><path class="cls-3" d="M303.2,676.6l-1,1h-.1l1.1-1Z"/><path class="cls-9" d="M449,624.8l.6.8-.4-1Z"/><path class="cls-9" d="M415.2,636.6l.2.5-.2-.4Z"/><path class="cls-10" d="M310,672.6c5.4.3,8.1-2.8,9.2-7.6Z"/><path class="cls-10" d="M303.2,676.6l-1.1,1-.9,2a3.8,3.8,0,0,0-.1,1c4.7.1,5.4-4,7.1-6.9l-4.1,1.9Z"/><path class="cls-14" d="M299.5,684.4l-1.9,3,3.2-1.3Z"/><path class="cls-10" d="M300.9,681l-.9,1.7Z"/><path class="cls-29" d="M636,363.6h-1.8c-1.9,6.1-1.1,7.6,5.1,6.9,8.5-1,17.2-1.8,24.2-7.7,1.7-1.5,2.8-3.7,4.9-6.5l-7.3-1.6c-.6,1.1-.9,2.7-1.8,3.2C652,361.9,644.6,365.2,636,363.6Z"/><path class="cls-22" d="M665.3,406.7v-1.8l-9.2-24.2-1.8.6,6.9,25.2a1.3,1.3,0,0,0,.8.3Z"/><path class="cls-29" d="M650.2,388.6c-4.2,5-9.5,7.1-16.1,5.8C641.2,398.7,648.8,395.9,650.2,388.6Z"/><path class="cls-29" d="M677.2,383.6l-14,1C667.6,388.4,672.7,388.1,677.2,383.6Z"/><path class="cls-10" d="M651.9,406.9c2.4,2.5,4.9,3,7.3,0Z"/><path class="cls-11" d="M679.9,392.6l2.2-2.2Z"/><path class="cls-29" d="M678.2,381.6a20,20,0,0,0-1,2.1A20,20,0,0,1,678.2,381.6Z"/><path class="cls-29" d="M680.2,379.5l-1.1,1.2Z"/><path class="cls-29" d="M679.2,380.6l-1,1.1Z"/><path class="cls-29" d="M663.2,384.7l-1-.9Z"/><path class="cls-29" d="M650.3,387.8a2.8,2.8,0,0,0-.1.9l.4-.6Z"/><path class="cls-12" d="M616.2,419.7a7.6,7.6,0,0,0,.8,1.1A7.6,7.6,0,0,1,616.2,419.7Z"/><path class="cls-16" d="M506.2,251.7l-2.1-1.9-16.8-8.6a30.2,30.2,0,0,0-5.1-1.6c1.5,1.1,2.8,2.6,4.4,3.2,4.6,1.8,6.7,4.6,6.7,9.8a124.5,124.5,0,0,0,1.9,21.1c1.4,7.6,3.8,15,6.1,22.3,3.9,13.1,11.2,24.4,18.4,35.9,2.7,4.4,8.1,7.7,7.5,13.9l5.8-4.9c-1.1-1.2-2.3-2.3-3.3-3.5a6.9,6.9,0,0,1-.5-1.7c-12.3-15.5-21.5-31.9-17.1-52.9,2.1-9.6,10.1-13,18.4-7.5,1.6,1,4,1,6,1.5l.5-1.5c-1.2-.9-2.7-1.5-3.6-2.6s-.5-2.1-.7-3.2l-2.3-1.9c-4.5.1-7.9-1.3-9.1-6.1h0l-1.1-.9-1.9-1.2-2.2-1.6-3.8-2.4C508.5,256.9,507.2,254.6,506.2,251.7Z"/><path class="cls-15" d="M527.2,345.8c.6-6.2-4.8-9.5-7.5-13.9-7.2-11.5-14.5-22.8-18.4-35.9-2.3-7.3-4.7-14.7-6.1-22.3a124.5,124.5,0,0,1-1.9-21.1c0-5.2-2.1-8-6.7-9.8-1.6-.6-2.9-2.1-4.4-3.2-6.4-1.6-12.7-3.9-19.3-4.6-3-.4-6.5,2.3-9.7,3.6,2.6-.6,5.4-.9,7.9-2,4.2-1.7,5.9-.9,6.1,3.6.1,2-.2,4,0,6,.7,6.8,1.2,13.7,2.3,20.5.3,2.3,2.8,4.3,3.3,6.6,2.5,10.9,10,18.9,16.2,27.5,4.4,6,9.9,11.1,14.6,16.8s9.7,12.4,14.5,18.7c2.1,2.7,1,4.7-1.6,6s-2.9.3-4.4.5l10.8,6.1a18.5,18.5,0,0,1,1.4-1.4Z"/><path class="cls-11" d="M512.1,342.8c1.5-.2,3.1.1,4.4-.5s3.7-3.3,1.6-6c-4.8-6.3-9.5-12.6-14.5-18.7s-10.2-10.8-14.6-16.8c-6.2-8.6-13.7-16.6-16.2-27.5-.5-2.3-3-4.3-3.3-6.6-1.1-6.8-1.6-13.7-2.3-20.5-.2-2,.1-4,0-6-.2-4.5-1.9-5.3-6.1-3.6-2.5,1.1-5.3,1.4-7.9,2h0c-1,1-1.9,2.1-2.8,3.1a.6.6,0,0,0-.3.7c.6,7.2,1.3,14.5,1.9,21.7a.5.5,0,0,0,.1.6c1.9,2.6,4.2,5.1,5.6,8s3.6,8.7,5.4,13.1h0c1.2.8,2.9,1.3,3.8,2.4,7,8.8,13.9,17.7,20.7,26.8,1,1.3,1,3.3,1.5,5l.7.9c.5,0,1.2-.2,1.4.1l20.5,19c.5.6.3,1.9.4,2.9Z"/><path class="cls-15" d="M489.1,319.9c-.5-1.7-.5-3.7-1.5-5-6.8-9.1-13.7-18-20.7-26.8-.9-1.1-2.6-1.6-3.8-2.4C470.3,298.2,478.6,309.9,489.1,319.9Z"/><path class="cls-15" d="M512.1,342.8c-.1-1,.1-2.3-.4-2.9l-20.5-19c-.2-.3-.9-.1-1.4-.1Z"/><path class="cls-15" d="M463.1,285.8c-1.8-4.4-3.3-8.9-5.4-13.1s-3.7-5.4-5.6-8Z"/><path class="cls-15" d="M452,264.1c-.6-7.2-1.3-14.5-1.9-21.7C445.8,250,449.2,257.1,452,264.1Z"/><path class="cls-15" d="M450.4,241.7c.9-1,1.8-2.1,2.8-3.1C452.2,239.6,451.3,240.7,450.4,241.7Z"/><path class="cls-16" d="M524.3,347.5a18.5,18.5,0,0,0-1.4,1.4l3.7,1.1.4-1Z"/><polygon class="cls-16" points="528.7 350.2 528.8 350 528.5 350.1 528.7 350.2"/><path class="cls-17" d="M506.2,251.7c1,2.9,2.3,5.2,6.1,3.8l-4.4-3.5Z"/><path class="cls-17" d="M516.1,257.9l2.2,1.6Z"/><path class="cls-17" d="M520.2,260.7l1.1.9Z"/><path class="cls-2" d="M673.4,305.3c1.8,1.3,3.2,3,4.2,2.8s2.6-2.1,2.5-3.3-1.9-2.9-2.8-2.9S675.1,303.8,673.4,305.3Z"/><path class="cls-28" d="M669,307.3l.9-1.8-1.1-.5-.5,2Z"/><path class="cls-11" d="M594.8,325.2c-1.3,2.2-2.7,3.5-2.5,4.3a4.8,4.8,0,0,0,2.8,3.1c.6.2,2.9-1.6,2.8-2.2S596.3,327.6,594.8,325.2Z"/><path class="cls-16" d="M553.2,456.6l-.4-.4v.3l.4.2Z"/><path class="cls-29" d="M665.3,406.7H662c1.5,5.7-.7,10.3-4,14.7,1-.1,2.3.2,2.8-.4,4.5-4.5,10.1-4.6,15.9-4.6C671.3,415.1,667.7,411.6,665.3,406.7Z"/><path class="cls-29" d="M656.8,422.6l1.3-1.1Z"/></svg>