<svg id="Layer_1" data-name="Layer 1" xmlns="http://www.w3.org/2000/svg" viewBox="0 0 1090 1120.7"><defs><style>.cls-1{fill:#19143c;}.cls-2{fill:#2b2131;}.cls-3{fill:#2a273c;}.cls-4{fill:#262338;}.cls-5{fill:#242138;}.cls-6{fill:#27243b;}.cls-7{fill:#1d1a34;}.cls-8{fill:#261c2f;}.cls-9{fill:#fdfcfc;}.cls-10{fill:#fcfcfb;}.cls-11{fill:#f4dbb4;}.cls-12{fill:#f4dcb3;}.cls-13{fill:#f3dbb3;}.cls-14{fill:#f9f8f9;}.cls-15{fill:#f9f8f6;}.cls-16{fill:#fafafa;}.cls-17{fill:#ddcabf;}.cls-18{fill:#2c1e2b;}.cls-19{fill:#e2cec3;}.cls-20{fill:#eae8ed;}.cls-21{fill:#e7d3c7;}.cls-22{fill:#d8d3e1;}.cls-23{fill:#ccad93;}.cls-24{fill:#18123d;}.cls-25{fill:#dcc8c4;}.cls-26{fill:#24203a;}.cls-27{fill:#f0e2cc;}.cls-28{fill:#1b153c;}.cls-29{fill:#e1b87f;}</style></defs><path class="cls-1" d="M693.7,810c-6.8,11.8-18.2,15.5-30.6,16.9-10.5,1.1-21.1.3-31.7,2.7-7.7,1.8-14.4-3-20.1-8-8.4-7.4-13.1-17-15.7-27.8-.3-1.1-.5-2.2-.8-3.4l-.7-1.5H582.5c-1-.6-1.9-1.7-2.9-1.8-4.6-.7-9.6-2.3-13.9-1.2s-8.8-1-10.7,4.1-2.2,7.4-3.3,11.2h0l-2.1,1.9h-.1l-.9,1h-.1c-3.2,3.1-6.8,5.8-9.4,9.4s-4.7,4.8-8.5,4.6h-.1l-2.6-1.5c-.2.9-.3,1.9-.5,2.8a22.9,22.9,0,0,1-.8,2.8h-.9c-14.9,1.8-29.6,1.9-44-3.2-1.1-.4-2.7.7-4.1,1.2l-1.1-.2c-.6-.7-1-1.8-1.7-2.1-3.8-1.3-7.6-2.6-11.5-3.7s-6.5-1.4-9.7-2.1c-4-2.5-9.3-4.1-11.5-7.7s-8.1-5-11.5-8.2l-3-6a.8.8,0,0,1,.2-.4l-.3.4c-1.4-1-2.9-2.8-4.4-2.9-12.2-.5-24.4-.9-36.6-1-15.5-.2-31-.1-46.5-.1-1.5,0-3-.2-4.5-.1l-13.9,1h-3.1c-.9-.6-1.9-1.7-2.9-1.8-4.7-.2-9.5-.2-14.2,0-1.3.1-2.5,1.1-3.8,1.7-3.5,9.2-10.4,15.4-18.6,20.1-22.1,12.5-46.1,17.8-71.3,17.7s-37.3-16.4-43.1-34.9c-.7-2.1-1.3-4.1-1.9-6.2s-2.2-3-3.4-3.1c-4.2-.4-8.4-.2-12.7-.2,1.6-1.2,2.8-2.1,3.9-3.1h4.1c8.4,4.1,9.6,0,8.9-6.4-1.1-9.1-.3-17.8,4.4-25.9.5-.7,0-2.1-.1-3.2l.3-.4c3.8,1.3,1.4-1.5,1.6-2.5a.7.7,0,0,1,.4-.5l3.4-4.2a20.9,20.9,0,0,0,2-2.2l2.2,3.5a.5.5,0,0,1-.1.7c-4.4,4.2-4.6,9.8-5,15.2a78.6,78.6,0,0,0,7.9,40.5c1.6,3.4,4.9,5.9,7.5,8.8h.1c2.1,3.2,4.3,6.3,6.4,9.4a.5.5,0,0,1-.2.4l.3-.4c3.1,1,6.1,2.5,9.3,2.9,12.6,1.7,16.9-2,17.8-14.4.1-1.2,1.8-2.3,2.8-3.4.3.7.7,1.3,1,1.9-.3,2.7-.7,5.5-1.1,8.7,4.2,1,8.6,1.8,12.9,3.2,6.9,2.2,12.7-.2,18.3-3.8l2-1.1,1-.9a9.4,9.4,0,0,1,1-1l3-2c1.7-1.8,4.2-3.4,4.7-5.4,1.1-5.1,1.1-10.5,1.6-15.6l2.6,1,1,1.9c.4,3.3,1.1,6.2,4.9,6.9h1.2c2.9,1.7,3.4-.5,4.3-2.5,5-11.8,1.9-23-2.3-34.1-.8-1.9-2.6-3.5-3.9-5.3a.9.9,0,0,1-.3-.7c1.3-7.6-4.9-10.8-8.8-15.3a9.4,9.4,0,0,1-1-1,9.4,9.4,0,0,1-1-1l-4.1-7,1.1-1c3.7-1,7-1.2,10.2,2.3,1.8,1.9,5.2,2.4,7.9,3.6,2.4,2.7,4.9,5.4,7.3,8.2,7.5,11.3,13.4,23.3,12.8,37.5l119.5-1.9a62.2,62.2,0,0,1,9.2-30l6.1-6.7,1-1c2.1-.9,4.6-1.5,6.1-3,3.3-3.4,6-7.3,8.9-11l4.1-2.9c4.2-1.4,8.2-3.2,12.5-4.3,6.3-1.7,12.7-2.9,19.1-4.3v1.1l-17.8,5.9c1.2,4.2-3,3.9-5,5.5l-.5-.2.4.2c-1,1-2,2.2-3.1,3.1-7.3,6-14.8,11.9-16.9,21.9l-11,30.7,5,4.4c1,2.8-1,6.9,3.8,7.8l3.3-2.8,3.9-5.3,3.4-.4c.3,4.1.6,7.9.8,11.6a2.8,2.8,0,0,0-.1.9c-.5,3.4,1.1,5.6,4,7h0l2.3,1.6h.2c.7,1.2,1.2,2.7,2.3,3.4,5.5,4.1,12.3,4.3,18.8,4.7,2.9.1,7.3.2,8.7-4.2v-.2l1.4-1.3.7-1.1.8-1.3.2-.2c2.1,1.4,5.7,2.4,6.2,4.3,2.3,8.8,9.4,7.7,15.5,8.1,2.2.2,4.6-1.7,6.8-2.7,4.8.3,8.2-1.5,10-6.1,5.5-2.5,7.5-7.2,8.1-12.9,2.6-4.6,5.8-8.3,6.8-14.5a184.7,184.7,0,0,0,2.2-27.7c0-6.6-3.2-11.8-5.9-17.3-.1-.2-1.2.1-1.8.1v-.3l-2.7-4.1.2-.2-.2.2c.4-3.6.8-7.3,1.1-11a12.8,12.8,0,0,0-.2-3.9c-1.1-6.1-2.9-12.2-3.4-18.3-1.2-14.5-6.3-27.7-12.4-40.6-2.7-5.7-5.6-11.2-8.1-17s-3.8-10.3-5.6-15.5h.9l1,1.1,1,1a9.4,9.4,0,0,1,1,1l4,4,1.9,2c1,1.4,2,2.7,3.1,4l3.9,5,1.1,2,3.2,2.8c2.9,5.4,6.1,10.6,8.5,16.2A147.5,147.5,0,0,1,551.6,726c-.2,4.9-.7,10.6,1.4,14.6,4.7,9.2,8.4,18.3,6.9,29.2h34.4c.5-2.4,1.1-4.6,1.6-6.9s2.5-4.3,3.6-6.5c2-4.5,3.3-9.4,6.1-13.3,1.4-1.9,3.1-2.9,1.7-5.4h-.1l1.5-2.2a.8.8,0,0,1,.4-.4c5.8,1.9,4.2-3.1,5.3-5.6l1.1-1c3.6.9,7.4-2,8.8-6.7,13.2-9.1,28.2-11.9,43.9-11.9,1.8,0,3.6-.7,5.4-1,2.6-3,0-9.1-4.7-10.9l-.6-1c-.3-2.3-.4-4.7-1.2-6.7-.2-.5-3.2.3-4.9.5a.7.7,0,0,1-.6-.4l.3-.9c-5.3-2.8-10.3-6.7-16-7.9s-13.8-.6-20.8-.7-14.9-.9-22.1.4-14.5,2.3-21.5.4-13.4-2.2-17-9.4c-1-1.9-3.7-3-5.6-4.4s-1.6-2.7-1.7-4.1c-.8-10.2-7.4-16.1-14.4-22.5-13.9-12.8-23.6-28.3-26.8-47.3-1.7-9.8,1.5-17.8,8.4-21.7,5.1-3,10.6-5.7,15.2-9.4,11.2-9.2,22-18.8,32.8-28.4,3.4-3,5.7-6.8,4.1-12-2.4-7.5-.8-14.5,2.9-21.5,2.1-3.9,2.8-8.5,4-12.8l-1.3-1c-13.1,5.2-26.3,10-39.6,5.2-1.2,10-1.7,19.6-3.7,29-4.4,20.2-14.4,38-25.1,55.6-2.5,4-3.6,9-5,13.7s-2.7,10.9-4,16.4c-.8,0-2-.2-2.2.2a37.3,37.3,0,0,0-3.7,7.5c-2.7,8.5-7.7,15.4-14.4,21.3-1,.9-1.3,2.5-1.9,3.7l-7.1,6-1.9,1c-4.7-.3-7.5,2.6-10.1,6l-8.8,4.2a2.4,2.4,0,0,1-.2.8l-2.8.5a6.9,6.9,0,0,0-2.8-.5c-6.3,1.1-12.5,2.4-18.7,3.8-2.5.5-5,1.3-7.5,1.9l-10.9,8.3-8.3,6c-1.1.2-2.4,0-3.4.5-9.7,5-19.4,9.2-30.5,10.3s-21.8-2-32.3-5.4l-10.5-3.4-3-2-2.1-1.9c-2.1-1-4.1-2.6-6.2-2.8-6.2-.7-12.6-.3-18.8-1.4s-11.9-3.3-17.8-5.1l-8.7-2.5a.5.5,0,0,1-.6-.4l-1.9-2.8-2.6-1c-.2-.1-.3-.3-.4-.4,1.3-2.8-.5-2.6-2.3-2.4h0l-1.3-1.5v-.3l-.8-.7h-.2c-1.5-2.2-2.5-5.2-4.6-6.4-5.4-3.2-11.1-5.6-16.7-8.3l-3-2.1-.9-1c-2.8-5.3-5-11.2-11-15.1-2.9,5.7-5.7,10.8-8,16s-3.6,9.4-5.3,14.1l-7.5,11c-.1.2.2.6.1.9-2.3,7.7-4.7,15.3-7,22.9a28,28,0,0,0-1.2,6.3c-.2,6.4-.1,12.8-.4,19.2-.1,1.5-1.3,3.1-2.4,4.3a75.9,75.9,0,0,1-6.8,5.7,3.3,3.3,0,0,1-2.6.4,2.8,2.8,0,0,1-1-2c.5-6.3,1.1-12.5,1.5-18.8.1-2.6-.3-5.1-.4-7.7,4-27.7,16.3-51.4,35.9-71.3l3.6-3.4c.5-.5.8-1.1,1.4-1.8-1.2-1.6-2.3-3.3-3.5-4.8a42.2,42.2,0,0,1-9.3-28.3,6.9,6.9,0,0,0-2.9-6.2c-7.5-6.1-11.8-14.7-15.3-23.5s-7.2-18.6-10.9-28.2l-8.2,1.9c-15.3,3.4-30.2,2.7-44.3-4.3S106,502.1,101,486.5c-2.3-7.1,1.2-14,7.1-17.9a200.9,200.9,0,0,1,26.1-14.4c6.2-2.9,10-6.8,11.8-13.5a170.5,170.5,0,0,1,8.2-23.4,42.9,42.9,0,0,1,16.6-18.9c6.6-4.1,10.4-10,12.7-17.2a139.9,139.9,0,0,1,6.2-16.3c5.7-12.2,14.6-21.8,27.2-26.5,10.8-4.1,19.9-10.5,29.4-16.6a191.1,191.1,0,0,1,86.5-30.5c12.2-1.1,24.5-.2,36.8-.3h-23v1.4l25.8-1.3,48.2,8.3a19.3,19.3,0,0,0,15.8,4.6l1.1.2c.3.6.5,1.5.9,1.7,6.7,2.4,13.3,5,20.1,7,3.8,1.1,8.3,2.2,11.9,1.3s8.1-.2,11.9,1c6.4,2,12.6,4.5,18.9,6.8,7.8,4.4,12.9,11.4,16.9,19.1a20.2,20.2,0,0,0,12,10.4c12,4.1,20.6,12.7,27.5,23a162.4,162.4,0,0,1,11.9,21.2c3.8,8.4,9.8,12.6,18.8,13l3.5.3c11.8.1,21.9,2.9,25.3,16.5a31.6,31.6,0,0,0,4.3-2.4c14.4-11.1,30.9-17.4,48.5-21,3.8-.8,5.4-2.7,6.9-6.4,4.4-11.2,9.5-22.2,14.5-33.2a14.7,14.7,0,0,1,3.7-4.6c4.1-3.9,7.7-3.7,10.6,1.2,7.6,12.5,14.9,25.1,22.1,37.8a11,11,0,0,0,7.3,5.8c14.6,3.9,29.2,7.7,43.4,12.7,8.8,3,16.1,3,23.7-2.8,14.6-11,29.3-21.8,44.4-32.2,10.3-7,21.1-13.4,33.6-15.8,7.3-1.4,11.4.4,14.9,6.9A87.4,87.4,0,0,1,905.4,406a25.2,25.2,0,0,0-.8,5.3c.6,12.2,1.5,24.4,1.8,36.7.1,4-1.3,8.1-1.7,12.2-.8,7.5-1.3,14.9-1.8,22.4-.3,3.4-.3,6.8-.4,10.2-3.8,17.3-11.7,32.5-24.5,44.7-9.8,9.3-13.2,20.6-11.9,33.4a133.5,133.5,0,0,0,4.2,24.5c6.1,20.5,13.4,40.7,19.4,61.1,3.5,11.6,5.8,23.5,8,35.4s1,21.5-1.7,32.1c-.7,3-1.4,5.8,1.5,8.2,12.8,10.7,17.1,24.9,16.8,40.9,0,1,.2,2,.3,3,2.1,3.8,5,1.8,7.8,1h1.2c1.3.6,2.5,1.7,3.9,1.8a70.9,70.9,0,0,0,8,.1,12.7,12.7,0,0,0,.1,2c-4.8,0-9.6-.2-14.4.1-1.9.1-3.7,1.2-5.6,1.8-1.3,2.7-3.1,5.2-3.9,8-3,10.9-8.4,20.2-18.1,26.4-7.8,5-16.5,6.9-25.6,6.9-5.6,0-11-.1-16.5,2.4s-12.9,1.5-19-1a125.5,125.5,0,0,1-16.4-8.2c-7.2-4-14.1-8.6-21.3-12.6s-10.3-10.5-12.3-17.9c-1.5-.6-3-1.8-4.4-1.8-19.7.2-39.5.5-59.2,1-3.4.1-6.7,1.1-10.4,1.8l2.2,5.4c-3.9,3.2-7.9,6.2-11.5,9.7S695.5,807.6,693.7,810ZM616.5,445l-1,.9-1,1c-3.4.2-5.6,1.4-4.9,5.3l-.8,1-1.9,2.1-.2-.2.2.2-2.2,2.9h.1l-.9,1.3h0c-1.2.3-3,.2-3.4.9-1.9,3.1-3.3,6.5-4.9,9.7l-1.8-2.7-1,.9,2.7,1.8c-1.3,9.6-2.9,19.2-3.8,28.9-.4,4.6.5,9.4.8,14.1,0,1.3-.1,2.7-.1,4l-.8-1.1c-1.7,4.2-3.4,8.7-5.2,13.2l-1.2-.4c.8,1.3,1.5,2.6,2.3,3.8-2.6,3.7-4.5,7.9-7.7,10.9-10.2,9.5-20.8,18.6-31.2,27.8l-4.1,3.4c6.8,3.1,13.2,5.5,19.1,8.7s6.5,7.1,3.5,12.6a20.5,20.5,0,0,1-13.2,10.6c-3.7,1-6.2.4-6.5-4.1s-1.9-5.9-5.2-5.1-3.4,3.2-5.5,5.3c12,4.2,12.8,9.5,3.9,17.3,10.1,13,21.2,24.4,38.4,27.2,20,3.3,39-.7,56.9-9.9,3-1.6,5.3-4.8,7.9-7.2H653c.3.1.4.3.5.6.9,2.3,2,4.5,2.9,6.7a27.9,27.9,0,0,1,.7,4,31.2,31.2,0,0,1-4.1.6c-4.7.3-9.8-.7-14,.7-6.9,2.3-13.2,6.2-19.9,9-4.2,1.7-8.8,2.7-13.1,4l-9.3,3.2a55.9,55.9,0,0,1-26.3-2c-1.1-.4-2.6.8-3.9,1.3.4,1.9.8,3.9,1.3,5.8h-.1l1,2.1h0c1.4,4.1,3.6,7.9,8.2,8.9a33.8,33.8,0,0,0,7.8.2c13.3-.6,26.7-1.3,40-2.1,2-.2,3.9-1.8,5.8-2.7h3.1a56.2,56.2,0,0,0,5.7.9c11.4.4,22.9.6,34.3,1.1,4.3.1,8.6.7,12.9,1l1.1.2c.2,1.5-.9,3.8,2.6,3.1,1.6-.2,3.6,1.7,5.4,2.6h-.1c-5.4.4-10.8.6-16.2,1.2-1,.1-1.8,1.7-2.7,2.7,1.1,2.3,2.2,4.7,3.4,7,2.9,5.6,6.7,11.1,8.6,17.1s2.9,9.4,8.3,11.7c2.2.9,4,3,5.7,4.8,10.4,11,17.4,23.8,19.2,39.1.3,2.4.7,4.6,4,5.3,16.9,3.6,34,5.6,51.4,4.9,2.7-.1,4.2-.7,4.6-3.8s1.9-7.3,3-11a15.8,15.8,0,0,0,2.6-.4c-.2-8.5,8.3-12.4,10.4-19.7.2-.7,1.4-.9,1.8-1.6s1.8-3.7,2.7-5.5h0l1.3-1.2a.8.8,0,0,1,.5-.5c2.9,1.4,3.3-.3,3.4-2.6,25.8-19.2,52.4-18.3,79.8-1.8.1-2,.2-2.9.2-3.9,0-16-3.7-31.3-9.4-46.1-3.9-10.3-8.4-20.5-12.7-30.7.2-.7.7-1.5.6-2.1-1.4-4.3-3.3-8.5-4.4-12.8-2.6-10.3-4.9-20.7-7.4-31.1-.1-.4-1-.6-1.5-1v-1c.2-3,.3-6.1.4-9.1V572.3h1c-1.2-1.4-2.3-2.8-3.5-4.1a.6.6,0,0,1-.2-.7c.2-3.2-1.8-2.3-2.8-1s-.5,2.6-.7,3.9v0h-.8l.4.6c-.3,2-.5,4-.8,6s-.4,2.1-.7,3.9l-2.4-3.9-.2-1.1c-3.6-12.9-.8-24.7,6.3-35.8h-.1c.4-.6.7-1.3,1.1-2h0l4.7-4.1h.8c3.1.3,5.1-.7,5.1-4.2l.2.2h-.2l1.4-1.3.4-.3,6.5-4.1,7.3-3.4c-.2-1.4-.3-3.2-.5-5l.8-.9c1.6-.9,3.9-1.5,4.6-2.9a97.3,97.3,0,0,0,4.2-11.8,8.8,8.8,0,0,0-.4-3.1c.1-.3.1-.7.2-1,1-3.3,2.5-6.4,3-9.7,1.3-7.4,4.3-14.7.9-22.3a13.4,13.4,0,0,1,.1-2c.6-.8,1.6-1.6,1.7-2.5.4-4.6,1.1-9.3,1-13.9-.5-16-1.2-32.1-2.1-48.1-.1-2.9-1.9-5.7-3-8.5h.1c.1-5.1.1-5.1-2.5-5.1a.5.5,0,0,1-.3-.5c-.9-1.1-1.6-3.2-2.5-3.2a62,62,0,0,0-12.2.3c-.9.1-1.6,2.3-2.4,3.5h0l-17.4,7.7-.8.5-6.5,5.1c-1.6.7-3,3.4-3.9,3.2-6.4-1-6,3.6-6.5,7.4-2.1,0-4.3,0-4,3.1l-5.9,6.1a.8.8,0,0,0,.1.8l-5.2,5.3c-1,.2-2.3,0-3,.6-3.1,2.7-6,5.6-9,8.5-2.4-2.8-4.2-.7-5.6,1-4.3,4.8-9.9,4.6-14.6,2.2-8.4-4.2-16.6-8.8-25.6-11.9-4.6-1.6-9.2-3.6-14-4.4-10.1-1.8-20.3-3.5-30.5-4-23.3-1.1-46.2.8-67.7,11.2-.9.4-2.2.8-2.8.4-4-2.7-5.9-2.2-5.4,3a2.8,2.8,0,0,1-.7,1.3h0l-1.4,1.5h-.3l-1.2.4h0c-5.2,2.3-10.5,4.5-15.5,7-1,.5-1.1,2.6-1.7,3.9ZM264.4,527.3a.5.5,0,0,1-.5.5l-.6.6-.3.3-5.3,2.7,5,3.8c-3.4,3-7,6.3-10.8,9.5-.5.4-1.5.2-2.3.3l-.5-.2.4.2-2.1,5.5a.6.6,0,0,1-.6.5l-.4-.2.4.2c-1.1,1.3-2.1,2.6-3.2,3.8-14.6,17.1-18.5,36.1-9.9,57.1,3,7.3,7.4,13.7,15.1,17.1.6-.4,1.5-.6,1.7-1.1.8-3,1.5-6,2.2-9a48.1,48.1,0,0,1,4.1,11.5c.5,2.4,1.8,3.6,4.3,3.5,14.5,18.7,35.6,22.5,56.8,26.1l.9-1.4-10.5-8.2a23.7,23.7,0,0,1,11.3,2.4c5.1,2.7,9.8,6.2,14.7,9.3,12,7.8,25.1,9.6,39.1,7.2s24.9-8.7,35.1-17.4l8,1.4c.4-2.5-.1-5.3.9-6.2a59.4,59.4,0,0,1,10.5-6.5c1-.5,2.7.4,3.8.6.4,1.8.6,3.3.9,4.8s2.5,1.9,3.5,1.7c7.7-1.9,15.6-3.6,23-6.4,13-4.9,18.2-13.4,17.6-27.5-.2-6.1-1.1-12.2-1.7-19.1,7.6,6.1,9.4,14.4,11.6,22.9,11-22.9,10.1-44.1,2.8-61.5-6.7-15.9-17.3-28.2-35.2-31.5-5.6-1.1-11.7-.2-17.6-.2-.1-.6-.1-1.1-.2-1.6l19.9-5.5c-2.8-1.9-5-4-7.5-5.2a187.1,187.1,0,0,0-19.9-7.9c-7.9-2.5-16.1-4-24.1-6.3s-11.4-7.5-10.1-15.2c3.1-17.5,23.2-31,40.5-27,12.3,2.7,22.5,9.6,32.8,16.3,4.4,2.9,9,5.5,13.5,8.2l16.3,7.7c-4.9.3-8.4.7-11.9.6-10.2-.5-19.5-3.8-28.4-8.5l-7.3-4.6c2,6.8,3.2,13.1.2,19.6h.1l-2.1,3h.1c-1.3,1.4-4.4,2.8,0,4.2h0l11,6.1h-.1l2,1.2h-.1l4.3,2.7v.3h.3c8.8,6.5,17.7,12.9,23.7,22.5-2.5,4.3,1.2,5,3.8,6.4,2.2,6.6,4.3,13.2,6.6,19.8.3.9,1.6,1.5,2.4,2.2l1.5,1.1,3.6-6.1c3.6-4.9,8.4-9.2,8-16.1,3.4-6.7,7.7-13,8.4-20.8.8-9.4,2-18.9,2.4-28.4.1-2.9-.8-7.2-5.9-6.7l-3.1-2.1,1.3-1.2-5.6-2-.3-.3-1.4-1.4-.9-.9-3.1-3.1-.9-.9-3.3-4.1h-.6a1.9,1.9,0,0,0-.1-.8c-.7-1.4-1.5-2.7-2.2-4h.1l-1.1-2h-.1a9.8,9.8,0,0,0,.1-3.4c-2.5-7.7-4.9-15.4-7.7-22.9-1.1-2.9-3.2-5.3-4.9-8s-.2-7.1-4.9-7.9c-10.9-16.6-24.9-30.4-40-43.2l-1.7-2.3.6-1.2,29.8,11.8h-.1l9,5.1h0l3.1,2.1h-.1l5.4,4.3.3.3,1.3,1.2.2.2v1.7l-9.2-.3c-1,6,3.9,7.6,7.5,10.1h0l7.7,12.4a.6.6,0,0,1,.1.7c.2,1.7.1,3.7.9,5.2,3.2,5.8,6.9,11.3,10.1,17.1,2.2,4.2,3.9,8.7,5.8,13l-.3.4.2-.4,4,1,1,1,3,2.1,3.1,2.9c2.1,4,5.6,5.3,9.9,5l1,.3c2.6,1.6,5,4,7.9,4.6,11.7,2.5,23.4,1.8,34.3-3.6,3.2-1.6,5.9-4.1,8.9-6.3,7.5-3.1,9.7-10.1,12-16.9l1-2,1-1c6.6-2.2,4.9-7.8,4.9-12.5,0-2.9-1.5-4.6-4.6-4.5s-6.6-3-9.8-2.9c-15.7.6-26.4-6.4-33.1-20.3-1.3-2.6-2.9-5.2-4.3-7.8-7.3-13.5-17.5-24.3-31.4-31a41,41,0,0,1-17.2-15.3c-9.9-15.6-24.2-24.4-42.8-26.8a167.1,167.1,0,0,1-26.2-5.5c-20.5-6.3-41.1-11.8-62.7-13.8-45.5-4-86.2,9.3-124.1,33.5A122.8,122.8,0,0,1,227.7,350c-11,4.4-19.9,10.9-24.9,21.8a67.8,67.8,0,0,0-5,16.6c-1.6,10.3-6.9,17.4-16.1,21.7a10.1,10.1,0,0,0-8.4,7.3c0,.3-.2.4-.5.5h-.6l.2.4a.5.5,0,0,1-.5.5l-2.4-2.2c-1.3,2.4-2.5,4.4-3.5,6.6a110.2,110.2,0,0,0-4.4,11.3c-1.4,4.3-2.2,8.9-3.5,13.3-.9,2.9-2.2,5.6-3.3,8.4h0c-2.4,2.9-8.7,2-8.1,8h0l-8.1,5-7,3.9-1.8.2c-6.9-.4-7.5,0-7.6,5.3v.2c-3.4.1-3.7,2.3-3.4,4.9v.4c-2.3,5.4-1.5,8.7,2.4,10.2l.3.4c-1.2,5.1,0,6.5,4.7,5.4l.4.4,1.5,1.5c11.1,9.3,23.8,13.7,38.3,11.5,6-.9,11.9-2.6,16.3-7.4h0c1.3-1.7,2.7-3.4,4.1-5l.7-.8c6.7-9.8,6.8-20.9,6.6-32.1-.2-8.8-2.9-17.8,2.9-26,1.9-2.7,2.9-5.9,4.3-8.9l-.7-.8.2,1.1a.7.7,0,0,1-.8.3l-3.6-1.4.3-3.5,1-1,4-1,.4.2-.4-.2-2.1-2.5.5-.5c3.1,1.6,2.3-.9,2.4-2.4l.8-.7c5,0,5.2-.1,3.5-3.3a.8.8,0,0,1,.4-.4l2-1.6h.1l1.2-.9h-.1c2.5-.6,5.4-.6,7.4-1.8s3.3-4,4.9-6l2.7-3.3h0c1.5-.2,3.2,0,4.5-.7s3.9-.7,4.7,1.9c-5.1.6-8.3,3.9-9,9.1-5.3,4.6-10.6,9.2-11.1,16.9-1.3,1.1-3.4,1.9-3.7,3.2-2,7.3-4.3,14.6-4.9,22.1-.9,9.2-.2,18.6-.2,27.9a2.1,2.1,0,0,0,0,.8l-2.4,13.4v.4c-.5.8-.9,1.7-1.4,2.6h.1c-3.1.6-4.1,2.2-2.7,5.1l-.2.3-.5.7a.8.8,0,0,1-.4.7c-3-.3-4.5,1.1-4.6,4.1-.2,9.3,3.8,17.4,7.1,25.7l.9.2c1.4,2.7,2.7,5.4,4,8.1s1.2,5.1,2.4,7.3c2.2,3.8,3.5,8.6,9,9.3h0l1.2,1.5.3.3a18.5,18.5,0,0,0,1.4,1.4l2.5.8c4.6-1.3,8.6-9.6,7.2-14.8l.3-1.8h.7a21.9,21.9,0,0,0,4.1-2.6,35.8,35.8,0,0,0,4.4-5.1c1-1.6,1.7-3.5,2.6-5.3,3.5-3,7-6.1,10.6-9s6.2-4.7,9.3-7l2,5ZM812.5,787h.1l1.9,1c-1.4,9.1,2.5,15.1,10.7,18.7a36.6,36.6,0,0,0,8.5,2.7c9.5,1.5,16.4,1,20.6-9.7,1.6-4,4.6-7.4,7-11.2.1,4.9-1.3,9-1.6,13.3-.6,6.2,2.7,9.6,8.9,10.3,9.4,1.1,17.2-2.3,21.3-10.6a87.8,87.8,0,0,0,7.9-23.3c4.8-27.6-17.9-54-45.9-54.1-13.4,0-24.9,5.1-35.4,12.9a16.3,16.3,0,0,0-3.7,1.3c-3.8,2.4-5.7,6.5-8.4,9.8-4.6,5.6-5.5,12.6-7.6,19.1-.2.7,1.1,1.8,1.6,2.8v4c-.7.8-2.2,1.9-2,2.5,1.6,6.4,3.5,12.9,5.6,20l4.6-2.5ZM616.7,746.2h.1a17.1,17.1,0,0,0-8.2,14.2c-.5,9.5-.8,19-.8,28.6,0,3.2-.5,7.9,5.5,7,5.1,8.5,11.5,15.6,21.2,18.8V788.9c2.1,4.9,3,9.9,4.7,14.7,2.8,8,8.6,12,16.5,10.1,6.1-1.5,12-4.5,17.5-7.7s6.2-7.9,5-13.9-.7-11-1-16.6l1.4-.2c.5,2,.8,4,1.5,6a42.9,42.9,0,0,0,2.4,5.9c3.4,6.3,8.5,7.8,14.6,4.3s9.9-10,10.4-17.6c.9-13-4.5-23.8-11.9-33.9-1.1-5.7-11.3-13.8-17.3-13.8h.1l-1.8-3.2,1.3-.4-.3-.3-1.1.7-4.7-1.1c-4.1-.9-8.3-2.5-12.4-2.4s-11.2,1.6-16.8,2.5c-1,.2-2.2-.2-2.9.3-3.8,2.6-7.2,6.3-11.3,7.9s-5.1,4.7-6,8.2a.5.5,0,0,1-.4.5C616.9,739,615.4,741.5,616.7,746.2ZM414.6,475c-5.7.1-10.3,4.4-9.4,8.1a8,8,0,0,0,5,4.7c3.8.7,8.3-4.1,7.6-8C417.5,477.8,415.4,476,414.6,475Zm18.6-3.9c6.9,8.1,7.4,16.6,1.3,26.9,5.8-4.2,8.6-8.3,7.6-14S438.6,473.6,433.2,471.1Z"/><path class="cls-2" d="M177.7,735.3l-2.2-3.5c4.3-3.2,4.9-7.5,5-12.5.3-8.4,1.4-16.8,2.2-25.2.1,2.6.5,5.1.4,7.7-.4,6.3-1,12.5-1.5,18.8a2.8,2.8,0,0,0,1,2,3.3,3.3,0,0,0,2.6-.4,75.9,75.9,0,0,0,6.8-5.7c1.1-1.2,2.3-2.8,2.4-4.3.3-6.4.2-12.8.4-19.2a28,28,0,0,1,1.2-6.3c2.3-7.6,4.7-15.2,7-22.9.1-.3-.2-.7-.1-.9l7.5-11,.4.3-.5,2.6c-7.7,17.6-14.1,35.6-13.7,55.2-.2,4.3-1.5,7.7-5.6,10.3s-5.1,4.9-7.6,7.5l-2.1,3.1h.1l-1.3,2h.1l-.7,1.3h0Z"/><path class="cls-3" d="M915.6,782.9c1.9-.6,3.7-1.7,5.6-1.8,4.8-.3,9.6-.1,14.4-.1a12.7,12.7,0,0,1-.1-2,70.9,70.9,0,0,1-8-.1c-1.4-.1-2.6-1.2-3.9-1.8l72.1,1.7V780l-48.2,1.8-4.2-1.3,3.2-1c-2.4.7-6.6-3-7,2.5Z"/><path class="cls-3" d="M150.5,777.1c-1.1,1-2.3,1.9-3.9,3.1,4.3,0,8.5-.2,12.7.2,1.2.1,2.2,2,3.4,3.1-3.6-.4-7.2-1.1-10.9-1.3-15.9-.5-31.9-.8-47.8-1.2a29.7,29.7,0,0,1-9.7-1.8Z"/><path class="cls-4" d="M321.6,786.9l13.9-1c1.5-.1,3,.1,4.5.1,15.5,0,31-.1,46.5.1,12.2.1,24.4.5,36.6,1,1.5.1,3,1.9,4.4,2.9h.1l3,6h-1.2c-3.3-7.1-9.3-7.6-16.2-7.6C382.6,788.2,352.1,787.5,321.6,786.9Z"/><path class="cls-5" d="M693.7,810c1.8-2.4,3.4-5,5.5-7s7.6-6.5,11.5-9.7l-2.2-5.4c3.7-.7,7-1.7,10.4-1.8,19.7-.5,39.5-.8,59.2-1,1.4,0,2.9,1.2,4.4,1.8H766.6c-15.4.3-30.7.6-46,1.2-2.1.1-4.4,1.5-6.1,3-5.3,4.5-10.3,9.3-15.4,13.9Z"/><path class="cls-6" d="M902.5,492.8c.1-3.4.1-6.8.4-10.2.5-7.5,1-14.9,1.8-22.4.4-4.1,1.8-8.2,1.7-12.2-.3-12.3-1.2-24.5-1.8-36.7a25.2,25.2,0,0,1,.8-5.3c3.2,28,4,55.8-1.8,83.5A31.9,31.9,0,0,1,902.5,492.8Z"/><path class="cls-7" d="M501.3,322c-6.3-2.3-12.5-4.8-18.9-6.8-3.8-1.2-7.5-2.3-11.9-1s-8.1-.2-11.9-1.3c-6.8-2-13.4-4.6-20.1-7-.4-.2-.6-1.1-.9-1.7,12.7,6.4,26.6,5.8,40.1,8.1C485.9,313.6,493.4,318.6,501.3,322Z"/><path class="cls-6" d="M477.6,820c1.4-.5,3-1.6,4.1-1.2,14.4,5.1,29.1,5,44,3.2h1c-6.5,1-13.1,3.2-19.4,2.7C497.3,824.1,487.5,821.7,477.6,820Z"/><path class="cls-7" d="M167.8,741.6c.1,1.1.6,2.5.1,3.2-4.7,8.1-5.5,16.8-4.4,25.9.7,6.4-.5,10.5-8.9,6.4l7-.9C161,764.1,160.3,752.1,167.8,741.6Z"/><path class="cls-7" d="M551.7,801.2c1.1-3.8,1.9-7.6,3.3-11.2s7.2-3.2,10.7-4.1,9.3.5,13.9,1.2c1,.1,1.9,1.2,2.9,1.8-6.1.1-12.2.3-18.3.1s-8.9,1.2-10,7C553.9,797.8,552.5,799.4,551.7,801.2Z"/><path class="cls-7" d="M429.4,796.1h1.2c3.4,3.2,8.5,3.4,11.5,8.2s7.5,5.2,11.5,7.7l-1.2.2C443.4,808.7,435.4,803.8,429.4,796.1Z"/><path class="cls-6" d="M530.6,818c3.8.2,6.2-1.5,8.5-4.6s6.2-6.3,9.4-9.4l.9,1c-5.5,8.6-12.6,14.9-22.8,17.1a22.9,22.9,0,0,0,.8-2.8c.2-.9.3-1.9.5-2.8l2.6,1.5-1.3.4.3.4Z"/><path class="cls-6" d="M452.4,812.1l1.2-.2c3.2.7,6.5,1.2,9.7,2.1s7.7,2.4,11.5,3.7c.7.3,1.1,1.4,1.7,2.1Z"/><path class="cls-4" d="M297.6,786.8c1.3-.6,2.5-1.6,3.8-1.7,4.7-.2,9.5-.2,14.2,0,1,.1,2,1.2,2.9,1.8Z"/><path class="cls-7" d="M436.5,304a19.3,19.3,0,0,1-15.8-4.6Z"/><path class="cls-8" d="M372.5,291.1l-25.8,1.3V291h25.9Z"/><path class="cls-1" d="M939.5,782c.4-5.5,4.6-1.8,7-2.5l-3.2,1,4.2,1.3Z"/><path class="cls-3" d="M922.4,777.1c-2.8.8-5.7,2.8-7.8-1Z"/><path class="cls-7" d="M173.5,734l-3.4,4.2Z"/><path class="cls-7" d="M169.7,738.7c-.2,1,2.2,3.8-1.6,2.5Z"/><path class="cls-7" d="M549.6,803l2.1-1.9-1.1,1.9Z"/><path class="cls-1" d="M766.6,786.9h0Z"/><path class="cls-1" d="M549.6,803h1l-1.2,2-.9-1h.1l.9-1Z"/><path class="cls-9" d="M687.6,673.3l-1.1-.2c-17.4-5.3-35.1-5.1-52.9-3h-3.1c-12.7,1.2-25.4,2.6-38.2,3.5-8.8.6-17.2-1-23.6-7.8h0l-1-2.1h.1c-.5-1.9-.9-3.9-1.3-5.8,1.3-.5,2.8-1.7,3.9-1.3a55.9,55.9,0,0,0,26.3,2A82.3,82.3,0,0,0,631,647.9c10.8-6.3,21.2-6.7,31.8,0l1.5-.8-10.8-16.5c-.1-.3-.2-.5-.5-.6l-8.3-8.6c-.4,3.5-.6,6-.9,8.6-2.6,2.4-4.9,5.6-7.9,7.2-17.9,9.2-36.9,13.2-56.9,9.9-17.2-2.8-28.3-14.2-38.4-27.2,8.9-7.8,8.1-13.1-3.9-17.3,2.1-2.1,3.5-4.9,5.5-5.3s5,1.9,5.2,5.1,2.8,5.1,6.5,4.1a20.5,20.5,0,0,0,13.2-10.6c3-5.5,2-9.6-3.5-12.6s-12.3-5.6-19.1-8.7l4.1-3.4c10.4-9.2,21-18.3,31.2-27.8,3.2-3,5.1-7.2,7.7-10.9s3.2-10.3,4.9-15.5c0-1.3.1-2.7.1-4,.4-5.5.3-10.9,1.2-16.3,1.6-9.3,3.8-18.5,5.7-27.8l.3,4.1c2.3,11.2,4.7,22.5,6.9,33.3l7.9-15.3,10-12.5c7.8-9.7,18.9-14.2,29.9-18.7,1.7-.7,3.8-.5,6.5-.7L654,470.3c12.7-6.9,24.8-14.6,40.8-9.5l-8.2,8.7,26.9,1.6,9.1,3.8h.1l-3.9,4.9,7.8,2,3.8.3,2.2,1.7h1.9l2.1,1.9c7.4,3.7,11.2,10,13.5,18.2l-5.5-.9c2.1,6.5,4.8,13,6.3,19.7,2,9.4-3.4,17.5-12.6,20.3-2.1.7-4.3,1-6.9,1.6,7.3,10.3,13.9,21,25,25.9s22.5,6,35.2,9.2l-6,2.2-15.5,2.8a4.3,4.3,0,0,0-.2,1.1l16.7,4.8,4,.2h9.9l4-.9h2l5.1-2.8,1.9-.2,2.1-1.8,1.9-.2-.9,5.2-2,1.9-2.1,2-4.9,2.1-1.2,1.8-4.3,1.6L855.7,638l4.8,3.9h.1c-.1,4,2,2.8,4.1,1.8a1,1,0,0,0,.7.2c4.3,10.2,8.8,20.4,12.7,30.7,5.7,14.8,9.4,30.1,9.4,46.1,0,1-.1,1.9-.2,3.9-27.4-16.5-54-17.4-79.8,1.8l-3.4,2.6a.8.8,0,0,0-.5.5l-1.3,1.2h0c-8.7,7.2-14.2,16.5-17.5,27.2-1.1,3.7-2.5,7.3-3,11s-1.9,3.7-4.6,3.8c-17.4.7-34.5-1.3-51.4-4.9-3.3-.7-3.7-2.9-4-5.3-1.8-15.3-8.8-28.1-19.2-39.1-1.7-1.8-3.5-3.9-5.7-4.8-5.4-2.3-6.8-6.6-8.3-11.7s-5.7-11.5-8.6-17.1c-1.2-2.3-2.3-4.7-3.4-7,11.4-5,22.2-1.2,33,2.6l.6-1.9Zm-7-123.3,6.4-4.2.3-.3c5.8-5.2,9.1-11.6,9.9-20.8l-8.4,10.9c-.3-6.3-.6-11.7-.9-17.4,5.9,3.4,12.1,5.4,17.7,2.9l-17.7-11.6-9.3-6.5c-4.9-2.3-9.6-5.2-14.7-6.7-10.7-3.2-17.8.8-20.5,11.9-1.8,7.1-2.2,14.6-3.2,22,0,.2.4.4.7.8l2.5-1.1c2.9,4,5.6,7.4,8.1,11a11.2,11.2,0,0,1,1,3.1l-6.8-4.7C650.9,551.3,667.7,556.4,680.6,550Z"/><path class="cls-10" d="M408.5,651.9c-10.2,8.7-21.5,15.2-35.1,17.4s-27.1.6-39.1-7.2c-4.9-3.1-9.6-6.6-14.7-9.3a23.7,23.7,0,0,0-11.3-2.4l10.5,8.2-.9,1.4c-21.2-3.6-42.3-7.4-56.8-26.1-1.9-5.3-4.1-10.6-5.4-16.1-.8-3.8-.3-8-.4-12.1h.1c-5.2,6.9-5.8,15.1-6.6,23.2-7.7-3.4-12.1-9.8-15.1-17.1-8.6-21-4.7-40,9.9-57.1,1.1-1.2,2.1-2.5,3.2-3.8h0a.6.6,0,0,0,.6-.5l24.5-18.3H260.2l2.8-3.5.3-.3a.9.9,0,0,0,.6-.6.5.5,0,0,0,.5-.5l.3-.2.7-.6,5.5-4.6c.4,0,.6-.2.6-.5l7.5-5.6.4-.3,21.3-13.4,1.9-.9,5.9-2.3c6-2.6,9.1-6.4,7.4-12.2s-4.3-13-8.4-18c-8.1-9.7-19.3-10.1-30.9-7,1-1.6,1.9-3.2,3.5-6.1l-30.4-5.1c15.2-11.5,31.9-5.9,48.3-8-6.3-7.4-13.4-12.6-22-13.5s-16.7.8-25.3,1.4c18.3-17.6,40.3-23.8,66.2-20-6.6-11.5-16.7-16-26.8-20.6,13.3-2.3,25.4.7,36.4,7.7s11.4,7.4,21.2-2.1c13.2-13,28.9-19.6,47.6-18.3,1.7.1,3.4.9,5.7,1.6l-13.5,12.2-10.4,11.7,1.1,1.1c8.5-4.2,16.9-8.5,25.3-12.8,11.6-1.4,23.2-2.8,34.7,4.4-13.9,7.1-25.4,14.9-23.3,33,2.5-.5,4.4-1.1,6.3-1.3,7.4-.7,15-2.3,22.4-1.8s13.3,3.2,19.9,4.9l.2,3-4.1,1.1-2,.9h-3l-5.2,2.7-6.8.3-8.4,2.9a26.5,26.5,0,0,0,2.5,1.7c11,.8,21.8,2.5,31.9,7.1a47.5,47.5,0,0,1,16.6,20.2c3.2,7.2,3.3,7.2-3.7,10.1-4.5-2.7-9.1-5.3-13.5-8.2-10.3-6.7-20.5-13.6-32.8-16.3-17.3-4-37.4,9.5-40.5,27-1.3,7.7,1.9,12.9,10.1,15.2s16.2,3.8,24.1,6.3a187.1,187.1,0,0,1,19.9,7.9c2.5,1.2,4.7,3.3,7.5,5.2l-19.9,5.5c.1.5.1,1,.2,1.6,5.9,0,12-.9,17.6.2,17.9,3.3,28.5,15.6,35.2,31.5,7.3,17.4,8.2,38.6-2.8,61.5-2.2-8.5-4-16.8-11.6-22.9.6,6.9,1.5,13,1.7,19.1.6,14.1-4.6,22.6-17.6,27.5-7.4,2.8-15.3,4.5-23,6.4-1,.2-2.3-1.1-3.5-1.7l7.8-12.6C428,637.2,418,644.1,408.5,651.9ZM385,569.8l.3-.4c3.7-2.9,6.3-6.3,5.1-11.4.5-3.1.4-6.4,1.4-9.2,3.6-9.8.4-17.5-9.8-19.7-16.2-3.3-32.2-1.8-47.1,5.4-8.9,4.3-10.2,11.1-5,19.3l2.7,4.2c-.6,10.2,5.1,15.6,13.9,18.8,2.8,1,5.6,1.9,8.4,3.2s4.5,2.4,6.7,3.6c-2.7,6-5.9,9-11.8,11.8-12.9,6-24.4,1.3-36.2-4.6,2,3.4,4,6.9,7.1,8.4,4.9,2.5,10.5,3.8,15.8,5.6a65.7,65.7,0,0,1,6.2,4c10.5,7.8,21.5,11,33.9,4.7,1.8-.9,3.8-1.5,5.2-2.8a117.7,117.7,0,0,1,25.5-19.4c4.3-2.4,6.7-6.8,7.4-12.8-2.9,2.4-5,4.2-7.2,5.9-12.2,9.7-26.8,10.6-38.2,2.4-1-.7-1.2-2.5-1.8-3.8l10.1-8.3Zm50.4-45.3-.3-.2v.3Z"/><path class="cls-11" d="M387.5,390.9,401,378.7c-2.3-.7-4-1.5-5.7-1.6-18.7-1.3-34.4,5.3-47.6,18.3-9.8,9.5-9.6,9.4-21.2,2.1s-23.1-10-36.4-7.7c10.1,4.6,20.2,9.1,26.8,20.6-25.9-3.8-47.9,2.4-66.2,20,8.6-.6,17.1-2.2,25.3-1.4s15.7,6.1,22,13.5c-16.4,2.1-33.1-3.5-48.3,8l30.4,5.1c-1.6,2.9-2.5,4.5-3.5,6.1a61.6,61.6,0,0,0-25.4,19.4,48.5,48.5,0,0,1-22.7,16.3c-3.8,1.3-7.6,2.9-11.3,4.4,14.6-.1,28.1-3.9,40.9-10.5a39.7,39.7,0,0,1,5.8-2c-1.3,4.5-2.7,9.1.8,13.3l.9,9.5h.1c-6,.8-10.9,4.8-12.1,10.1h.1a18.5,18.5,0,0,1-1.4,1.4l-.3.3c-4-1.2-4.2,1.6-4.4,4.3h0c-5.1.7-7.9,3.9-9,10l-.8,1-1,1.2h0c-4.7.9-6.1,4.3-6.3,8.6V550h-.7l-1.1,2.1h0c-4.5,2.1-5.5,5.7-4.5,10.2v.4l-7.7-1.6h.1l-1.3-1.9h.1l-6-9.2-.9-1.6-3.3-6.1h0c-.2-3,.1-6-.8-8.7s-.8-6-5-4.5h-.1c-.4-2.7-.7-5.5-1.2-8.2s-1.2-8.2,1.9-11.8a33.7,33.7,0,0,0,7-29.1c.1-2.1.3-4.1.5-6.1s2-4,2-6c0-11.1.9-21.8,5.8-32.2S226.6,418.9,233,411c1.5-1.8,2.2-4.2,3.3-6.3l.2.2-.2-.2,1.4-1.3a.6.6,0,0,1,.6-.3h.7l-.4-.4a.5.5,0,0,1,.5-.5l1.8-1.7h.2l2.5-2.2h.1l1.8-1.3h-.1a11.4,11.4,0,0,0,1.1-1.1l1-.8,2.9-2.3,1-.8,1.7-.8-.7-1.7-5.7,2.8h0c-5.3-.2-9.5,2.2-13.1,6h.1l-1.1.7a.6.6,0,0,1-.8.3l-2.1,1.2h.1c-2.1.5-4.5.3-6,1.4-6.7,4.8-13.4,9.6-19.6,15-2.4,2.1-6.7,3.6-5.7,8.4h-4c.2,1.6.3,3,.5,4.4l-.4-.2.4.2-1.3,1.8h.1l-1.1,2.1h0a20,20,0,0,1-1,2.1h.1l-.3,1.9v.2l4.9,2.1c-6.1,7.6-5.3,16-4.5,24.6,1,11.1,2.1,22.4-4.8,32.5-.6.8.2,2.6.3,3.9l-.7.8c-1.4,1.6-2.7,3.3-4.1,5h0c-2.3.9-4.7,1.5-6.9,2.5a36.7,36.7,0,0,1-25.2,2.6c-11.6-2.8-21.1-8.8-27.9-18.9-2.2-3.1-2.6-5.9-.6-9.2a21.3,21.3,0,0,0,1.4-5.1h0l1.8-1.3h0l1.2-.9h-.1l5.2-1.7,5.8,1.3c11.3,3,21.5.5,26.4-9.6s9.8-20.2,14.5-30.3c3.3-7,6.9-13.6,14.3-17.2,4.8-2.2,7-6.3,8.7-11.3,3.5-9.8,7.2-20.2,17.6-24.7,8.9-3.8,15.9-9.4,22.4-16.4,14-14.9,31.3-24.9,50.3-31.8,10.2-3.7,21-6,31.6-8.4,21.4-5,42.7-2.7,64.1.9,18.9,3.2,35.5,15.1,55.4,14a22.7,22.7,0,0,1,6.9.5c6.8,1.2,13.8,2,20.4,4.2,11.8,3.9,20.6,12.3,28.7,21.6,2.2,2.5,4.5,5.5,7.4,6.8,4.8,2.1,10,3.1,15.1,4.3,8.6,2.2,14.5,8.3,18.7,15.2,6.1,9.9,10.7,20.8,16.1,31.2,3,5.8,6.4,12.4,13.1,13.3,8.3,1,17-.3,25.6-.6h4.8a24.6,24.6,0,0,1,0,4.7,50.5,50.5,0,0,1-1.8,5.5h0c-3.7-.1-4,2.4-3.9,5.2h0l-1.1,2h.1c-1.1,1.7-2.1,3.4-3.1,5.1h.1c-.4.8-.8,1.6-1.3,2.4a.8.8,0,0,1-.2.4l-1.4,1.4h.1l-1.2,1.1h.1c-3.6.2-6.8,1-8.2,4.9h.1l-9,4.2h.1l-3.3,1c-10.4,3.1-20.3,1.7-29.9-3l-2.3-1h.1l-2-1h0l-1.2-.6h-.3c-1.3-1.7-2.4-3.7-4.1-4.9-6.1-4.4-11.6-9-13.6-16.8-.4-1.5-2.6-2.4-4-3.6h.1l-.9-2.2h0c.2-6.2-3.4-12.5-8.1-14h.1c.4-2.8.2-5.2-3.5-5.3-2.7-3.7-5.3-7.5-7.9-11.3h0l-7.5-10.1,9.2.3,1.2-1.3-1.3-.4-.2-.2-1.3-1.2-.3-.3c.8-4.6-2.8-3.9-5.4-4.3h.1l-3.1-2.1h0c-.4-6.4-5-5.2-9-5.1h.1c-.7-1-1.2-2.5-2.1-2.9-6-2.5-12-5-18.2-7.2a41.2,41.2,0,0,0-8.6-1.9c-.9-.1-1.9,1.1-2.9,1.8l3.1,1.9c15.1,12.8,29.1,26.6,40,43.2-.1.2-.1.4-.2.6,1,3.2-.8,7.9,4.8,8.5.3.1.3.3.2.5a119.1,119.1,0,0,0,3.1,12.1c.8,2.6,2.7,4.8,4,7.2h0c-.5,4.6-1.4,9.4,4.3,11.8v0c.2,3.6-.1,7.3,4.7,8.3h.6l3.3,4.1.9.9,3.1,3.1.9.9,1.4,1.4.3.3,4.3,3.2,3.1,2.1c1.4,2.9,3.7,5.7,4.1,8.7,2,13.8-2,26.6-7.1,39.2l-1.8,4.2h.1a24.6,24.6,0,0,0-7.7,16.3h0l-4.9,3.3c-1.3-3.2-2.3-6.5-3.7-9.6-.6-1.2-2-2.1-3-3.1h0c-.3-1-.6-2-1-3.1l-1.1-.9h.1l-1.2-2h0l-2-3.1h.1c-.5-2-.2-4.5-1.4-5.9a66.1,66.1,0,0,0-11-10.8c-4-3-8.7-4.9-13-7.2h-.3v-.3l-4.3-2.7h.1l-2-1.2h.1c-1.8-5.6-6.6-5.5-11-6.1h0v-4.2h-.1l2.1-3h-.1c6-4.3,1.8-10.3,2.5-15.5l4.6.5c8.9,4.7,18.2,8,28.4,8.5,3.5.1,7-.3,11.9-.6l-16.3-7.7c7-2.9,6.9-2.9,3.7-10.1a47.5,47.5,0,0,0-16.6-20.2c-4.2-3.9-8.9-6.5-14.9-7-4-.4-9,.5-11.1-4.7l6.8-.3,5.2-2.7h3l2-.9,4.1-1.1,4.4.6.3-1.6-4.9-2c-6.6-1.7-13.2-4.4-19.9-4.9s-15,1.1-22.4,1.8c-1.9.2-3.8.8-6.3,1.3-2.1-18.1,9.4-25.9,23.3-33-11.5-7.2-23.1-5.8-34.7-4.4-2.6.5-5.2,1.2-7.8,1.5S389.6,395,387.5,390.9Z"/><path class="cls-12" d="M807.6,596.1l4.9-2.1,2.1-2,2-1.9c6.6-1.2,7-1.9,4.7-8.6l-3.8,3.4-1.9.2-2.1,1.8-1.9.2-5.1,2.8h-2l-4,.9h-9.9l-4-.2c-4.5-4.6-4.5-4.6-1-8.7l6-2.2c-12.7-3.2-24.7-4.6-35.2-9.2s-17.7-15.6-25-25.9c2.6-.6,4.8-.9,6.9-1.6,9.2-2.8,14.6-10.9,12.6-20.3-1.5-6.7-4.2-13.2-6.3-19.7l5.5.9c-2.3-8.2-6.1-14.5-13.5-18.2l-2.1-1.9h-1.9l-2.2-1.7-3.8-.3c-1.8-2.1,1.9-7.2-3.9-6.9h-.1c-1.4-5.1-5.9-3-9.1-3.8l-26.9-1.6,8.2-8.7c-16-5.1-28.1,2.6-40.8,9.5l6.9-11.2c-2.7.2-4.8,0-6.5.7-11,4.5-22.1,9-29.9,18.7l-10,12.5-3.5,3.1c-1,.7-2.1,1.1-3.1,1.7a10.2,10.2,0,0,1-1.3-2.8c-1.2-4.7-2.2-9.4-3.6-13.9-.7-2.2-2.2-4.1-3.3-6.1l-.3-4.1h-.1c2.4-2.9,5-5.7,7.1-8.8a89.5,89.5,0,0,0,5.2-9.1l.9-1,1.1-1h-.1c5.8-1.6,10.2-4.8,12.9-10.2h0a32.8,32.8,0,0,1,3.1-2h-.1l1.1-.8,4.2-3h0l1.2-.4h.3l1.4-1.5h0l5.1-1.6,22.7-7.7c.4.3.8.9,1.2.8,6.6-1,13.3-2.3,19.9-3s15.5-1.6,23.2-1.2c11,.6,21.9,2.4,32.8,3.6,9.4,3.5,18.8,7.1,28.2,10.5.7.2,1.8-.3,2.8-.5s4.3,1.7,6.1,3.1a16.4,16.4,0,0,0,16.7,2.9c1.7-.4,4.7,1.4,4.4-2.5.2-.2.3-.3.5-.3l.9-.6h.1c4,.9,12.4-5.7,14.3-11.3l5.2-5.3a3,3,0,0,1,.8-.8c.1-.3.4-.3.6-.3l2.3-2h-.1l1.2-1h-.1c4.4-.4,7-2.8,8.1-7h-.1c2.5.3,4.2-.4,4-3.4l20.1-13.6a12.3,12.3,0,0,0,2.8-.2c4-1.8,7.7-4.3,11.9-5.5,6.9-2,12.5,3,13.3,11.8.9,11.4,1.7,22.8,1.9,34.2.2,9.6-.5,19.2-.9,28.8,0,2.3-.6,4.6-.7,6.9-.2,6-.3,12.1-.5,18.1,0,.7-.1,1.3-.1,1.9l-4.5,18.3h0l-.9,2.2h0c-.7,1.3-1.4,2.6-2.2,3.9h.1l-1.2,2-.7,1.1c-3.9-.4-4.5,1.9-4.1,5.1h0l-2,2.1h0c-3.9.3-7.2,1.1-7,6.1h.1l-1.2,1.1h.1c-5.7,0-7.6,1.5-8.2,6.8h-.1c-2.8-.1-5.3.3-4.7,4.1h0l-1.1,2h.1c-1.4,1-3.5,1.8-3.9,3.1-2.3,6.6-4.9,13.3-6,20.1-.7,4.2-2.4,9.8,3.6,12.6a4.3,4.3,0,0,0,.2,1.1c0,2.5-.8,5.5,3.9,5.5v-7.4c3.6-.6,2.8,2.2,2.9,4,.4,7.3.2,14.6,1.2,21.8a152.3,152.3,0,0,0,4.9,21c.9,2.9,3,5.5,4.6,8.2a11.6,11.6,0,0,0,.4,1.8c-2,3-.2,4.6,2.2,6h-.1l-2.1,4.2h-.1l-4.8-3.9-53.6-38.5,4.3-1.6Zm63-194-1.1-1-3.4,1.9c-11,8.3-22,16.5-32.8,24.9-8.9,7-17.8,14-26.3,21.3-4.5,3.9-4.7,7.1-1.3,11.9a115.6,115.6,0,0,0,10.2,12c7.1,7.5,14.6,14.6,21.3,22.3,3.5,4.1,5.9,9.2,8.8,13.8a10.9,10.9,0,0,0-.7-5.5c-6.2-13-12.4-26.1-18.7-39-1.8-3.8-1.6-7.1,1-10.2,10-11.7,20.2-23.3,30-35.2C862.2,413.8,866.3,407.9,870.6,402.1Z"/><path class="cls-13" d="M183.4,727.8c2.5-2.6,4.7-5.7,7.6-7.5s5.4-6,5.6-10.3c1-.4,2.5-.7,2.8-1.4a60.3,60.3,0,0,0,1.9-7.6c3.3-13.3,9.9-24.8,18.7-35.2,2.7-3.2,4.2-3.4,7.3.1,5.4,6,11.2,12.1,17.8,16.6,19.7,13.4,40.7,15.7,62.6,4.9a7.6,7.6,0,0,1,6.1.3c16,9.4,33.4,12,51.4,10,21-2.2,40.1-9.9,57.7-21.4a22.3,22.3,0,0,1,10.8-3.2c6.2-.2,12.5.7,18.8.8,18.6.5,34.8-6.2,49.1-17.5,3.2-2.5,5.7-2.9,8.4.5,6.7,8.7,13.6,17.4,20.3,25.9l1.1-1.8c2.9,12.9,6.3,25.9,4.1,39.9l-4.5-1.7-.7.9,7.9,7.2.2-.2-.2.2,2.7,4.1v.3c9.9,19.4,7.1,38.4-1.4,57.3l-5.1,9h.1c-5.4.1-7.7,3.2-7.9,8.2h0l-3.1,2.1h.1c-7.1.7-14.2,1.6-21.2-1h0l.9-15.3,2.2-6.3-1.4-.9-11.1,15.8-.2.2-.8,1.3-.7,1.1-1.4,1.3v.2c-10.8,5-20.5,2.3-29.8-3.9h-.2l-2.3-1.6h0l-4-7a2.8,2.8,0,0,1,.1-.9c0-8.7,3.1-16.4,8-23.5l-1.6-1.1-10.6,13.4-3.9,5.3-4.1-.2v-.3c-.1-1.6.4-3.7-.4-4.8-3.6-5.1-1.5-9.9-.1-15s1.7-9.3,2.5-13.9h-.1l.5-1.3v-.3l2.3-4.6h0c3-1.4,5.2-3.4,4.4-7.2l.3-.4c4.2,1,3.1-2.2,3.5-4.3h-.1l1.1-1.3c13.5-14.4,29.1-24.2,50-23-2.5-1-4.8-1.9-7.1-1.9-12.4-.1-24.8-.3-36.4,5.3l-2.4,1.1h.1l-2.1,1.2-1.9.9-2,1.1h.1l-2.2.9h.1l-2.9,2.2h0l-3.2,1.8h.1l-1,1.2h.1l-2.2,1.9h.1l-1.1,1h0c-3.1-.4-3.8,1.6-3.9,4.1h.1c-4.1.1-5.3,2.5-4.8,6.2h0l-.7,1c0,.2-.1.3-.3.4l-5.4-1.8c-9.8-12.1-23.1-19.4-37.2-24.5a90.3,90.3,0,0,0-40.1-4.8c-20.7,2.2-38.4,10.4-53.9,23.9-2.3,2-4.9,3.7-7.4,5.5-2.4-2.8-4.9-5.5-7.3-8.2l-2.2-2.7c.4-3.3-1.8-3.3-4-3.2l-1-.6-3.1-2.2h.1l-1.3-.7h-.1l-1.8-1.2h0c0-4.7-3.5-3-5.9-3.1h0c-.5-.7-.8-1.9-1.5-2.1-5.3-1.9-10.6-4-16.1-5.4-9.1-2.4-18.3-1.7-27.3.5-.8.1-1.3,1.5-1.9,2.3l-1.2.2-4.1,1.1.5,1.3,2.6-.9,18.1.6c.5.6.9,1.5,1.5,1.8,6.9,3.2,13.7,6.2,20.6,9.2.9.4,2,.1,3,.2h0c-.4,3.7,2,4.2,4.9,4l2.1,2c.5,5.2,3.9,7.9,8.2,9.8v0l1.9,3.2h-.1c1.7,4.4,3.9,8.7,5,13.2,1.7,6.9,3.4,13.9,3.6,20.9.1,3.4-1,8.2-5.6,10h0l-1.1-2h.1c-.1-2.5.3-5.3-3.6-5.2l-.2-.3c-.2-1.1.1-2.4-.5-3.1-3.7-4.5-7.6-8.9-11.5-13.5-3.3,3.2-5.4,5.5-.2,7h0c.1,2.3-.9,5.4,3.5,4.5v.2l.7,1.3h-.1l1.8,7.8a14.3,14.3,0,0,1,.9,4.1c0,3.2-.4,6.4-.6,9.6h.1l-2.2,2.9h.1c-7.3,2.5-13.8,7.5-21.9,6.8-3-.2-5.8-1.7-8.7-2.8a35.9,35.9,0,0,1-3.8-2.1l-.9-1.8c-.7-1-1.3-2.1-2-3.2h0l-1.3-2c-2.1-2.4-4.2-4.8-6.4-7-.4-.4-1.6-.1-2.5,0-1.5,2.5-.9,3.9,2.2,3.9l.2.2v.3c.7,6,2.4,12-.4,18l-.3.2-19.6-.6h.1c.6-3.4-1.7-2.3-3.3-2.1l-6.1-5.5H188c-2.3-4-4.5-8-6.7-12.1l-.7-1.4-.2-.2v-.2c-.1-2,.5-4.4-.4-5.9-3.6-6-3.6-12.5-3.5-19.1s.6-15.4.9-23.1v-.4l1.9-4.2h0l.7-1.3h-.1l1.3-2h-.1Z"/><path class="cls-14" d="M668.3,697.1l.6,1c1.6,3.6,3.1,7.2,4.7,10.9-1.8.3-3.6,1-5.4,1-15.7,0-30.7,2.8-43.9,11.9l-8.8,6.7-1.1,1-5.3,5.6a.8.8,0,0,0-.4.4l-1.5,2.2h.1c-6,7.4-9.5,16-11.4,25.2-.5,2.3-1.1,4.5-1.6,6.9H559.9c1.5-10.9-2.2-20-6.9-29.2-2.1-4-1.6-9.7-1.4-14.6a147.5,147.5,0,0,0-12.4-65.9c-2.4-5.6-5.6-10.8-8.5-16.2l-1.6-2.8c.1-.9.6-2,.2-2.6-3.1-4.6-6-9.5-9.8-13.6S509.2,615,504,610l.7-2.8c1.3-5.5,2.4-11,4-16.4s2.5-9.7,5-13.7c10.7-17.6,20.7-35.4,25.1-55.6,2-9.4,2.5-19,3.7-29,13.3,4.8,26.5,0,39.6-5.2l1.3,1c-1.2,4.3-1.9,8.9-4,12.8-3.7,7-5.3,14-2.9,21.5,1.6,5.2-.7,9-4.1,12-10.8,9.6-21.6,19.2-32.8,28.4-4.6,3.7-10.1,6.4-15.2,9.4-6.9,3.9-10.1,11.9-8.4,21.7,3.2,19,12.9,34.5,26.8,47.3,7,6.4,13.6,12.3,14.4,22.5.1,1.4,1.1,2.7,1.7,4.1,4.9,11.1,14.3,15.6,25.5,15.9s25.3-.7,37.9-1.3,27.2.3,39.3,7.9a.7.7,0,0,0,.6.4Z"/><path class="cls-15" d="M594.6,437.1c-8.6.3-17.3,1.6-25.6.6-6.7-.9-10.1-7.5-13.1-13.3-5.4-10.4-10-21.3-16.1-31.2-4.2-6.9-10.1-13-18.7-15.2-5.1-1.2-10.3-2.2-15.1-4.3-2.9-1.3-5.2-4.3-7.4-6.8-8.1-9.3-16.9-17.7-28.7-21.6-6.6-2.2-13.6-3-20.4-4.2a22.7,22.7,0,0,0-6.9-.5c-19.9,1.1-36.5-10.8-55.4-14-21.4-3.6-42.7-5.9-64.1-.9-10.6,2.4-21.4,4.7-31.6,8.4-19,6.9-36.3,16.9-50.3,31.8-6.5,7-13.5,12.6-22.4,16.4-10.4,4.5-14.1,14.9-17.6,24.7-1.7,5-3.9,9.1-8.7,11.3-7.4,3.6-11,10.2-14.3,17.2-4.7,10.1-9.6,20.2-14.5,30.3s-15.1,12.6-26.4,9.6l-5.8-1.3a4.1,4.1,0,0,1,.1-1.1l7-3.9,8.1-5h0l8.1-8h0c2.2-4.6,5.7-9,6.5-13.9,1.6-8.9,4.5-16.8,10.6-23.5a.5.5,0,0,0,.5-.5l.4-.4c.3-.1.5-.2.5-.5l8.4-7.3c9.2-4.3,14.5-11.4,16.1-21.7a67.8,67.8,0,0,1,5-16.6c5-10.9,13.9-17.4,24.9-21.8a122.8,122.8,0,0,0,20.6-10.8c37.9-24.2,78.6-37.5,124.1-33.5,21.6,2,42.2,7.5,62.7,13.8a167.1,167.1,0,0,0,26.2,5.5c18.6,2.4,32.9,11.2,42.8,26.8a41,41,0,0,0,17.2,15.3c13.9,6.7,24.1,17.5,31.4,31,1.4,2.6,3,5.2,4.3,7.8,6.7,13.9,17.4,20.9,33.1,20.3,3.2-.1,6.5,1.9,9.8,2.9l2.7,7-3.2.8h-4.8Z"/><path class="cls-9" d="M288,735.1c2.5-1.8,5.1-3.5,7.4-5.5,15.5-13.5,33.2-21.7,53.9-23.9a90.3,90.3,0,0,1,40.1,4.8c14.1,5.1,27.4,12.4,37.2,24.5l3.2,4.2-.3,1.5a62.2,62.2,0,0,0-9.2,30l-119.5,1.9C301.4,758.4,295.5,746.4,288,735.1Z"/><path class="cls-16" d="M816.5,737c10.5-7.8,22-12.9,35.4-12.9,28,.1,50.7,26.5,45.9,54.1a87.8,87.8,0,0,1-7.9,23.3c-4.1,8.3-11.9,11.7-21.3,10.6-6.2-.7-9.5-4.1-8.9-10.3.3-4.3,1.7-8.4,1.6-13.3-2.4,3.8-5.4,7.2-7,11.2-4.2,10.7-11.1,11.2-20.6,9.7a36.6,36.6,0,0,1-8.5-2.7c-8.2-3.6-12.1-9.6-10.7-18.7,2.1-5,4.3-10,6.5-15l-1.4-.9-14.3,21.7c-5-5.7-6.1-12.7-6.9-19.8v-4C800.1,756.6,806.6,745.9,816.5,737Z"/><path class="cls-16" d="M695.6,740c7.4,10.1,12.8,20.9,11.9,33.9-.5,7.6-3.6,13.8-10.4,17.6s-11.2,2-14.6-4.3a42.9,42.9,0,0,1-2.4-5.9c-.7-2-1-4-1.5-6l-1.4.2c.3,5.6,0,11.2,1,16.6s.1,11-5,13.9-11.4,6.2-17.5,7.7c-7.9,1.9-13.7-2.1-16.5-10.1-1.7-4.8-2.6-9.8-4.7-14.7v25.9c-9.7-3.2-16.1-10.3-21.2-18.8-1.3-4.5-3-8.8-3.8-13.4-2.3-13,1.4-25,7.3-36.4h-.1l5.3-7.3a.5.5,0,0,0,.4-.5c16-16.2,34.6-20.5,56-12.2h-.1Z"/><path class="cls-2" d="M665.4,421.8l-22.7,7.7-5.1,1.6a2.8,2.8,0,0,0,.7-1.3c-.5-5.2,1.4-5.7,5.4-3,.6.4,1.9,0,2.8-.4,21.5-10.4,44.4-12.3,67.7-11.2,10.2.5,20.4,2.2,30.5,4,4.8.8,9.4,2.8,14,4.4,9,3.1,17.2,7.7,25.6,11.9,4.7,2.4,10.3,2.6,14.6-2.2,1.4-1.7,3.2-3.8,5.6-1l-2.3,2.2h-.1l-.9.6c-.2,0-.3.1-.5.3l-4.4,2.5a16.4,16.4,0,0,1-16.7-2.9c-1.8-1.4-4.1-2.1-6.1-3.1l-31-10.8c-7.1-1.2-14.2-2.9-21.4-3.6C702.3,416,683.7,416.4,665.4,421.8Z"/><path class="cls-8" d="M538.2,727.3l-7.9-7.2.7-.9,4.5,1.7c2.2-14-1.2-27-4.1-39.9a44.4,44.4,0,0,0-1.5-6.3c-6.4-14-12.8-28.1-19.3-42.1L503.1,616l1.2-.8,5.5,4.6-.3.3-1.3.5,1.3.4h.1c1.8,5.2,3.4,10.5,5.6,15.5s5.4,11.3,8.1,17c6.1,12.9,11.2,26.1,12.4,40.6.5,6.1,2.3,12.2,3.4,18.3a12.8,12.8,0,0,1,.2,3.9C539,720,538.6,723.7,538.2,727.3Z"/><path class="cls-2" d="M455.7,715.2l1.9-.9,2.1-1.2h-.1l2.4-1.1c11.6-5.6,24-5.4,36.4-5.3,2.3,0,4.6.9,7.1,1.9-20.9-1.2-36.5,8.6-50,23l-1.1,1.3h.1l-3.5,4.3-.3.4c-1.4,2.4-2.9,4.8-4.4,7.2h0l-1,.9-.8-.7c2.1-10,9.6-15.9,16.9-21.9,1.1-.9,2.1-2.1,3.1-3.1h.1c2-1.6,6.2-1.3,5-5.5l17.8-5.9v-1.1c-6.4,1.4-12.8,2.6-19.1,4.3-4.3,1.1-8.3,2.9-12.5,4.3l-.2-.2A1.9,1.9,0,0,0,455.7,715.2Z"/><path class="cls-5" d="M661.6,690.5c-12.1-7.6-25.5-8.6-39.3-7.9s-25.3,1.6-37.9,1.3-20.6-4.8-25.5-15.9c1.9,1.4,4.6,2.5,5.6,4.4,3.6,7.2,10.7,7.8,17,9.4s14.2.9,21.5-.4,14.7-.4,22.1-.4,14.2-.8,20.8.7,10.7,5.1,16,7.9Z"/><path class="cls-17" d="M886.3,484c.2-6,.3-12.1.5-18.1.1-2.3.7-4.6.7-6.9.4-9.6,1.1-19.2.9-28.8-.2-11.4-1-22.8-1.9-34.2-.8-8.8-6.4-13.8-13.3-11.8-4.2,1.2-7.9,3.7-11.9,5.5a12.3,12.3,0,0,1-2.8.2l8.1-5.9h0c5.6-.8,11.3-3.8,17.1-.6a.5.5,0,0,0,.3.5c.8,1.7,1.6,3.4,2.5,5.1h-.1c1.1,8.8,2.8,17.5,2.9,26.2.3,15.6-.3,31.2-.5,46.8a13.4,13.4,0,0,0-.1,2Z"/><path class="cls-17" d="M123.4,477.9A21.3,21.3,0,0,1,122,483c-2,3.3-1.6,6.1.6,9.2,6.8,10.1,16.3,16.1,27.9,18.9a36.7,36.7,0,0,0,25.2-2.6c2.2-1,4.6-1.6,6.9-2.5-4.4,4.8-10.3,6.5-16.3,7.4-14.5,2.2-27.2-2.2-38.3-11.5l-1.5-1.5-.4-.4-4.7-5.4-.3-.4L118.7,484v-.4c1.1-1.6,2.2-3.3,3.4-4.9v-.2Z"/><path class="cls-4" d="M653.5,630.6l10.8,16.5-1.5.8c-10.6-6.7-21-6.3-31.8,0a82.3,82.3,0,0,1-34.3,10.9l9.3-3.2c4.3-1.3,8.9-2.3,13.1-4,6.7-2.8,13-6.7,19.9-9,4.2-1.4,9.3-.4,14-.7a31.2,31.2,0,0,0,4.1-.6,27.9,27.9,0,0,0-.7-4C655.5,635.1,654.4,632.9,653.5,630.6Z"/><path class="cls-4" d="M264.7,502.6c-3.5-4.2-2.1-8.8-.8-13.3.3,1.4.7,2.8,1,4.2a40.1,40.1,0,0,0,.9,5c1.5,4.9,3.2,9.7,4.7,14.5-4.4,1.1-6.6,4.6-9,8s-6.3,4.6-9.3,7-7.1,6-10.6,9l-.8-.8,6.8-8.1h0l4.4-4.3.3-.3a18.5,18.5,0,0,0,1.4-1.4h-.1l12.1-10.1h-.1c2.6-.9,3.8-2.3,1.9-5S265.6,504.1,264.7,502.6Z"/><path class="cls-18" d="M326.7,679.9l10.5,3.4c10.5,3.4,20.9,6.5,32.3,5.4s20.8-5.3,30.5-10.3c1-.5,2.3-.3,3.4-.5s.3.3.4.4c-21.5,15.7-56.1,16.6-77.5,2Z"/><path class="cls-19" d="M187.4,500.3c-.1-1.3-.9-3.1-.3-3.9,6.9-10.1,5.8-21.4,4.8-32.5-.8-8.6-1.6-17,4.5-24.6l-4.9-2.1,8.4-3.3a.7.7,0,0,0,.8-.3.5.5,0,0,0,.5-.3c-1.4,3-2.4,6.2-4.3,8.9-5.8,8.2-3.1,17.2-2.9,26C194.2,479.4,194.1,490.5,187.4,500.3Z"/><path class="cls-8" d="M493.1,800.4l11.1-15.8,1.4.9-2.2,6.3c-2.3,5-4.7,9.9-.9,15.3h0c5.5,6.1,12.3,4.1,18.9,2.7l.2.3c-2.2,1-4.6,2.9-6.8,2.7-6.1-.4-13.2.7-15.5-8.1C498.8,802.8,495.2,801.8,493.1,800.4Z"/><path class="cls-8" d="M539.6,789c8.5-18.9,11.3-37.9,1.4-57.3.6,0,1.7-.3,1.8-.1,2.7,5.5,5.9,10.7,5.9,17.3a184.7,184.7,0,0,1-2.2,27.7c-1,6.2-4.2,9.9-6.8,14.5l-.3-.2Z"/><path class="cls-4" d="M568.7,665.9c6.4,6.8,14.8,8.4,23.6,7.8,12.8-.9,25.5-2.3,38.2-3.5-1.9.9-3.8,2.5-5.8,2.7-13.3.8-26.7,1.5-40,2.1a33.8,33.8,0,0,1-7.8-.2C572.3,673.8,570.1,670,568.7,665.9Z"/><path class="cls-5" d="M678.4,726.2c-21.4-8.3-40-4-56,12.2.9-3.5,1.6-6.5,6-8.2s7.5-5.3,11.3-7.9c.7-.5,1.9-.1,2.9-.3,5.6-.9,11.2-2.3,16.8-2.5s8.3,1.5,12.4,2.4l4.7,1.1h.1Z"/><path class="cls-20" d="M414.6,475c.8,1,2.9,2.8,3.2,4.8.7,3.9-3.8,8.7-7.6,8a8,8,0,0,1-5-4.7C404.3,479.4,408.9,475.1,414.6,475Z"/><path class="cls-2" d="M188.1,800.6l6.1,5.5,3.3,2.1h-.1c6.4,3.6,12.9,4.8,19.6.6l.3-.2c5.5-5.9,2.9-12,.4-18v-.3l-.2-.2c-.7-1.3-1.4-2.6-2.2-3.9.9-.1,2.1-.4,2.5,0,2.2,2.2,4.3,4.6,6.4,7a8.4,8.4,0,0,0,.5,1.7l-.2.3c-1,1.1-2.7,2.2-2.8,3.4-.9,12.4-5.2,16.1-17.8,14.4-3.2-.4-6.2-1.9-9.3-2.9h-.1C192.4,806.9,190.2,803.8,188.1,800.6Z"/><path class="cls-2" d="M888.8,462c.2-15.6.8-31.2.5-46.8-.1-8.7-1.8-17.4-2.9-26.2,1.1,2.8,2.9,5.6,3,8.5.9,16,1.6,32.1,2.1,48.1.1,4.6-.6,9.3-1,13.9C890.4,460.4,889.4,461.2,888.8,462Z"/><path class="cls-5" d="M408.5,651.9c9.5-7.8,19.5-14.7,31.9-18.5L432.6,646c-.3-1.5-.5-3-.9-4.8-1.1-.2-2.8-1.1-3.8-.6a59.4,59.4,0,0,0-10.5,6.5c-1,.9-.5,3.7-.9,6.2Z"/><path class="cls-2" d="M517.5,534c5.1-12.6,9.1-25.4,7.1-39.2-.4-3-2.7-5.8-4.1-8.7,5.1-.5,6,3.8,5.9,6.7-.4,9.5-1.6,19-2.4,28.4-.7,7.8-5,14.1-8.4,20.8l-.7-.6.9-3.3h-.1Z"/><path class="cls-2" d="M177.6,738.1v.4c-.6,1.1-1.6,2.2-1.8,3.4a70.9,70.9,0,0,0,4.8,44.7v.2l.2.2c.2.5.5,1,.7,1.4,2.2,4.1,4.4,8.1,6.7,12.1-2.6-2.9-5.9-5.4-7.5-8.8a78.6,78.6,0,0,1-7.9-40.5c.4-5.4.6-11,5-15.2Z"/><path class="cls-5" d="M599.4,468.9c-1.9,9.3-4.1,18.5-5.7,27.8-.9,5.4-.8,10.8-1.2,16.3-.3-4.7-1.2-9.5-.8-14.1.9-9.7,2.5-19.3,3.8-28.9h.1c1.6-3.2,3-6.6,4.9-9.7.4-.7,2.2-.6,3.4-.9-1.5,3.2-3.1,6.3-4.6,9.5Z"/><path class="cls-5" d="M616.8,746.2c-5.9,11.4-9.6,23.4-7.3,36.4.8,4.6,2.5,8.9,3.8,13.4-6,.9-5.5-3.8-5.5-7,0-9.6.3-19.1.8-28.6A17.1,17.1,0,0,1,616.8,746.2Z"/><path class="cls-2" d="M866.6,384l-8.1,5.9-20.1,13.6-4,3.4h.1l-2.6,1.5-.4-.5c.5-3.8.1-8.4,6.5-7.4.9.2,2.3-2.5,3.9-3.2l6.5-5.1.8-.5Z"/><path class="cls-17" d="M860.2,630.1c-1.6-2.7-3.7-5.3-4.6-8.2a152.3,152.3,0,0,1-4.9-21c-1-7.2-.8-14.5-1.2-21.8-.1-1.8.7-4.6-2.9-4l3.6-3.1,2.4,24a3.4,3.4,0,0,1,.1,1Z"/><path class="cls-6" d="M633.6,670.1c17.8-2.1,35.5-2.3,52.9,3-4.3-.3-8.6-.9-12.9-1-11.4-.5-22.9-.7-34.3-1.1A56.2,56.2,0,0,1,633.6,670.1Z"/><path class="cls-6" d="M687.6,673.3l22.6,10.3-.6,1.9c-10.8-3.8-21.6-7.6-33-2.6.9-1,1.7-2.6,2.7-2.7,5.4-.6,10.8-.8,16.2-1.2l2.1.9c.1-.2.1-.5.2-.7l-2.2-.2c-1.8-.9-3.8-2.8-5.4-2.6C686.7,677.1,687.8,674.8,687.6,673.3Z"/><path class="cls-2" d="M207.4,474c-.2,2-.4,4-.5,6.1s-.9,2.7-1.3,4c0-9.3-.7-18.7.2-27.9.6-7.5,2.9-14.8,4.9-22.1.3-1.3,2.4-2.1,3.7-3.2l.5.4C207.6,444.7,207.6,459.4,207.4,474Z"/><path class="cls-2" d="M860.2,630.1,852.7,597c.5.4,1.4.6,1.5,1,2.5,10.4,4.8,20.8,7.4,31.1,1.1,4.3,3,8.5,4.4,12.8.1.6-.4,1.4-.6,2.1a1,1,0,0,1-.7-.2c-.7-2-1.3-4-2-6h.1c-.8-2-1.5-4-2.2-6A11.6,11.6,0,0,1,860.2,630.1Z"/><path class="cls-2" d="M535.6,471.2c9.6,4.7,19.5,6.1,29.9,3l3.3-1h-.1l9-4.2h-.1l7.3-3.7a2.3,2.3,0,0,1,.7.7c-3,2.1-5.7,4.6-8.9,6.2-10.9,5.4-22.6,6.1-34.3,3.6-2.9-.6-5.3-3-7.9-4.6Z"/><path class="cls-4" d="M263,528.7l-2.8,3.5h11.7l-24.5,18.3,2.1-5.5h.1c.8-.1,1.8.1,2.3-.3,3.8-3.2,7.4-6.5,10.8-9.5l-5-3.8Z"/><path class="cls-19" d="M205.6,484.1c.4-1.3.8-2.7,1.3-4a33.7,33.7,0,0,1-7,29.1c-3.1,3.6-2.6,7.6-1.9,11.8s.8,5.5,1.2,8.2c-2.6-6.9-6.3-13.8-1.1-21.2a.8.8,0,0,0,.4-.7c.3-.1.4-.4.5-.7l.2-.3,2.7-5.1h-.1c.5-.9.9-1.8,1.4-2.6v-.4l2.4-13.4A2.1,2.1,0,0,1,205.6,484.1Z"/><path class="cls-2" d="M231.8,399.1a.6.6,0,0,0,.8-.3l1.1-.7h-.1l13.1-6h0l4.7-.3-1,.8-2.9,2.3a3.9,3.9,0,0,1-1,.8,11.4,11.4,0,0,1-1.1,1.1h.1l-1.8,1.3h-.1l-2.5,2.2h-.2l-1.8,1.7a.5.5,0,0,0-.5.5l-.3.4a.6.6,0,0,0-.6.3l-1.4,1.3.2.2-.2-.2-1.5.6-.3-.4c-.8-2.6-2.2-3.2-4.7-1.9s-3,.5-4.5.7l4.5-3.5h-.1Z"/><path class="cls-8" d="M248.8,629c.8-8.1,1.4-16.3,6.6-23.2h-.1c.1,4.1-.4,8.3.4,12.1,1.3,5.5,3.5,10.8,5.4,16.1-2.5.1-3.8-1.1-4.3-3.5a48.1,48.1,0,0,0-4.1-11.5c-.7,3-1.4,6-2.2,9C250.3,628.4,249.4,628.6,248.8,629Z"/><path class="cls-2" d="M276.7,747c1.3,1.8,3.1,3.4,3.9,5.3,4.2,11.1,7.3,22.3,2.3,34.1-.9,2-1.4,4.2-4.3,2.5,6.5-11.5,5.4-23.2.7-34.9C278.4,751.7,277.6,749.3,276.7,747Z"/><path class="cls-21" d="M276.7,747c.9,2.3,1.7,4.7,2.6,7,4.7,11.7,5.8,23.4-.7,34.9h-1.2l-1.8-3.9c4.6-1.8,5.7-6.6,5.6-10-.2-7-1.9-14-3.6-20.9-1.1-4.5-3.3-8.8-5-13.2l3.8,5.4A.9.9,0,0,0,276.7,747Z"/><path class="cls-18" d="M504.7,607.2a28.6,28.6,0,0,0-.7,2.8l-2.7,5.8c-4.2,9.6-9.9,18.1-18.4,24.5a.8.8,0,0,1-.4-.4c.6-1.2.9-2.8,1.9-3.7,6.7-5.9,11.7-12.8,14.4-21.3a37.3,37.3,0,0,1,3.7-7.5C502.7,607,503.9,607.2,504.7,607.2Z"/><path class="cls-2" d="M210.4,651.9c1.7-4.7,3.2-9.5,5.3-14.1s5.1-10.3,8-16c6,3.9,8.2,9.8,11,15.1l-.5.5-1.3-.7h0l-1.3-1.8h.1l-1-1.2h.1l-3.1-5h0c-.6-1.3-1.2-2.6-2.1-4.8-1.5,2.5-2.4,4.2-3.3,5.8h0c-.9,1.7-1.9,3.4-2.9,5.1h.1a21.2,21.2,0,0,0-1.1,2.1h.1c-1.2,2.2-2.3,4.5-3.4,6.8h0l-1.5,3.3c-.3.1-.3.3-.2.6a24.4,24.4,0,0,0-1,2.4v-.2l-1.6,2.4Z"/><path class="cls-2" d="M271.5,780.1l-2.6-1c-.5,5.1-.5,10.5-1.6,15.6-.5,2-3,3.6-4.7,5.4l-.4-.4.6-1.6h-.1l2.2-2.9h-.1c4.8-7.7,2-14.7-2.1-21.5h.1l-.7-1.3v-.2l-3.5-4.5h0c1.3.3,2.9.1,3.7.8,2.9,2.7,5.7,5.8,8.5,8.8l.2.3.9,1.9Z"/><path class="cls-18" d="M270.1,664.2l8.7,2.5c5.9,1.8,11.8,4.1,17.8,5.1s12.6.7,18.8,1.4c2.1.2,4.1,1.8,6.2,2.8l-.7.8c-2.4-.8-4.7-2-7.1-2.2-6.4-.5-12.8-.6-19.2-.8l-2-.5-19.7-6.7h0l-1.3-.8h.1Z"/><path class="cls-2" d="M227.5,798.2l.9,1.8c2.5,2.2,4.7,5.2,7.6,6.2,6.4,2.2,12.8.4,18.9-1.9l.7.8c-5.6,3.6-11.4,6-18.3,3.8-4.3-1.4-8.7-2.2-12.9-3.2.4-3.2.8-6,1.1-8.7l.4-.3Z"/><path class="cls-2" d="M512.6,459c-1.9-4.3-3.6-8.8-5.8-13-3.2-5.8-6.9-11.3-10.1-17.1-.8-1.5-.7-3.5-.9-5.2l3.6,3.5h-.1l8.1,14h0l.9,2.2h-.1l9.1,16-.8.7-4-1Z"/><path class="cls-17" d="M229.8,400.2l-4.5,3.5h0l-2.9,1.8-12.1,9.3h.1l-1.2.9h-.1l-2,1.6a.8.8,0,0,0-.4.4l-3.5,3.3a2.7,2.7,0,0,1-.8.7L200,424l-.5.5-1,.5c-1-4.8,3.3-6.3,5.7-8.4,6.2-5.4,12.9-10.2,19.6-15C225.3,400.5,227.7,400.7,229.8,400.2Z"/><path class="cls-19" d="M842.4,575.9c-6-2.8-4.3-8.4-3.6-12.6,1.1-6.8,3.7-13.5,6-20.1.4-1.3,2.5-2.1,3.9-3.1C841.6,551.2,838.8,563,842.4,575.9Z"/><path class="cls-22" d="M433.2,471.1c5.4,2.5,7.9,7.3,8.9,12.9s-1.8,9.8-7.6,14C440.6,487.7,440.1,479.2,433.2,471.1Z"/><path class="cls-7" d="M816.5,737c-9.9,8.9-16.4,19.6-18.1,33-.5-1-1.8-2.1-1.6-2.8,2.1-6.5,3-13.5,7.6-19.1,2.7-3.3,4.6-7.4,8.4-9.8A16.3,16.3,0,0,1,816.5,737Z"/><path class="cls-4" d="M171.9,418.8c-6.1,6.7-9,14.6-10.6,23.5-.8,4.9-4.3,9.3-6.5,13.9,1.1-2.8,2.4-5.5,3.3-8.4,1.3-4.4,2.1-9,3.5-13.3a110.2,110.2,0,0,1,4.4-11.3c1-2.2,2.2-4.2,3.5-6.6Z"/><path class="cls-19" d="M466,512.2c4.3,2.3,9,4.2,13,7.2a66.1,66.1,0,0,1,11,10.8c1.2,1.4.9,3.9,1.4,5.9l-1.7-1.4C483.7,525.1,474.8,518.7,466,512.2Z"/><path class="cls-7" d="M784.8,758c3.3-10.7,8.8-20,17.5-27.2-.9,1.8-1.7,3.7-2.7,5.5s-1.6.9-1.8,1.6c-2.1,7.3-10.6,11.2-10.4,19.7A15.8,15.8,0,0,1,784.8,758Z"/><path class="cls-23" d="M451.6,658.4l2.8-.5.3.3c-.2.4-.4,1.2-.7,1.3-6.6,1.5-13.1,3.4-19.8,4.4s-13.9.9-18.7,7.2c-.8,1-2.5,1.3-3.7,2v-1.2l10.9-8.3Z"/><path class="cls-24" d="M261.5,521c2.4-3.4,4.6-6.9,9-8l2.1,5-1.1,3.4c0,.3-.2.5-.6.5-3,.1-5.9.4-5.5,4.6l-.7.6-1.2-1.1Z"/><path class="cls-18" d="M449.5,779.8l10.6-13.4,1.6,1.1c-4.9,7.1-8,14.8-8,23.5-.2-3.7-.5-7.5-.8-11.6Z"/><path class="cls-6" d="M805.3,793.8l14.3-21.7,1.4.9c-2.2,5-4.4,10-6.5,15l-1.9-1,.7-1-.4-.3-.4,1.3-5.9,7Z"/><path class="cls-21" d="M441.8,377.8l-3.1-1.9c1-.7,2-1.9,2.9-1.8a41.2,41.2,0,0,1,8.6,1.9c6.2,2.2,12.2,4.7,18.2,7.2.9.4,1.4,1.9,2.1,2.9l-29.8-11.8-.6,1.2Z"/><path class="cls-2" d="M438.5,780.1l-5-4.4,11-30.7.8.7-1.3,3.7v.3c-.2.4-.3.9-.5,1.3h.1c-3.9,9.3-7.7,18.6-4.8,29Z"/><path class="cls-2" d="M278.5,724.2l2.2,2.7c-2.7-1.2-6.1-1.7-7.9-3.6-3.2-3.5-6.5-3.3-10.2-2.3h0c1.5-2.5.8-4.1-1.8-5.5s-3.3-2.8-4.9-4.2l5.5,1.9h0l5.9,3.1h0l1.8,1.2h.1l1.3.7h-.1l3.1,2.2,1,.6Z"/><path class="cls-18" d="M486.6,430.6c.1-.2.1-.4-.2-.5s.1-.7.1-1l.2-.2c1.7,2.7,3.8,5.1,4.9,8,2.8,7.5,5.2,15.2,7.7,22.9a9.8,9.8,0,0,1-.1,3.4l-1.3-1.5v0c-1.5-3.9-2.9-7.9-4.3-11.8h0C491.4,443.5,489,437.1,486.6,430.6Z"/><path class="cls-2" d="M198.1,508c-5.2,7.4-1.5,14.3,1.1,21.2h.1c1,2.8,1.9,5.5,2.9,8.2l-.7.6-.9-.2c-3.3-8.3-7.3-16.4-7.1-25.7C193.6,509.1,195.1,507.7,198.1,508Z"/><path class="cls-18" d="M460.1,800.6c9.3,6.2,19,8.9,29.8,3.9-1.4,4.4-5.8,4.3-8.7,4.2-6.5-.4-13.3-.6-18.8-4.7C461.3,803.3,460.8,801.8,460.1,800.6Z"/><path class="cls-2" d="M451.6,719c-2.9,3.7-5.6,7.6-8.9,11-1.5,1.5-4,2.1-6.1,3l-.8-.7,2-3.1h-.1l3.9-4.1h0l1.1-1h-.1l2.2-1.9h-.1l1-1.2h-.1l3.2-1.8h0l2.1-.9Z"/><path class="cls-2" d="M886.3,484l2.4-20c3.4,7.6.4,14.9-.9,22.3-.5,3.3-2,6.4-3,9.7.4-3.4.9-6.7,1.4-10.1C886.2,485.3,886.3,484.7,886.3,484Z"/><path class="cls-7" d="M805.3,793.8l1.3.2-4.6,2.5c-2.1-7.1-4-13.6-5.6-20-.2-.6,1.3-1.7,2-2.5C799.2,781.1,800.3,788.1,805.3,793.8Z"/><path class="cls-7" d="M595.9,762.9c1.9-9.2,5.4-17.8,11.4-25.2,1.4,2.5-.3,3.5-1.7,5.4-2.8,3.9-4.1,8.8-6.1,13.3C598.4,758.6,597.1,760.7,595.9,762.9Z"/><path class="cls-2" d="M852.6,596l-2.4-24,.3-3.9c1.2,1.3,2.3,2.7,3.5,4.1h-1v14.6C852.9,589.9,852.8,593,852.6,596Z"/><path class="cls-25" d="M802.2,434.5l2.3-2.2c3-2.9,5.9-5.8,9-8.5.7-.6,2-.4,3-.6C814.6,428.8,806.2,435.4,802.2,434.5Z"/><path class="cls-2" d="M597.6,449.1c-2.3,6.8-4.5,13.8-12,17a2.3,2.3,0,0,0-.7-.7l.9-1.2h-.1l1.2-1.1h-.1l1.4-1.4a.8.8,0,0,0,.2-.4c.5-.8.9-1.6,1.3-2.4h-.1c1-1.7,2-3.4,3.1-5.1h-.1l1.1-2h0l3.3-3.7Z"/><path class="cls-2" d="M238.6,640c5.6,2.7,11.3,5.1,16.7,8.3,2.1,1.2,3.1,4.2,4.6,6.4l-2.2-1.9h0l-2-2.1h.1l-9-4.1h0l-1.3-.8h0l-2.7-1.4h.1l-1.3-.7h0l-3.8-3.2Z"/><path class="cls-2" d="M451.6,658.4l-29,5.2c2.5-.6,5-1.4,7.5-1.9,6.2-1.4,12.4-2.7,18.7-3.8A6.9,6.9,0,0,1,451.6,658.4Z"/><path class="cls-19" d="M457.5,480l-4.6-.5c-.7,5.2,3.5,11.2-2.5,15.5,3-6.5,1.8-12.8-.2-19.6Z"/><path class="cls-4" d="M643.8,630c.3-2.6.5-5.1.9-8.6L653,630Z"/><path class="cls-2" d="M208.4,548.5l.9,1.6,6,9.2h-.1c.4.7.9,1.3,1.3,1.9h-.1c.2.5.3,1,.5,1.6-5.5-.7-6.8-5.5-9-9.3-1.2-2.2-1.6-4.9-2.4-7.3l.8-.7Z"/><path class="cls-5" d="M695.6,740l-17.3-13.8C684.3,726.2,694.5,734.3,695.6,740Z"/><path class="cls-2" d="M214.4,430.9c.5-7.7,5.8-12.3,11.1-16.9l.8.7-11.4,16.6Z"/><path class="cls-5" d="M592.4,517c-1.7,5.2-3.3,10.4-4.9,15.5-.8-1.2-1.5-2.5-2.3-3.8l1.2.4c1.8-4.5,3.5-9,5.2-13.2Z"/><path class="cls-2" d="M602.6,436.1l-2.7-7c3.1-.1,4.6,1.6,4.6,4.5,0,4.7,1.7,10.3-4.9,12.5l-.3-.3Z"/><path class="cls-19" d="M599.3,468.9c1.5-3.2,3.1-6.3,4.6-9.5h0l.9-1.3h-.1l2.2-2.9-.2-.2.2.2,1.9-2.1.8-1,2-1.2a89.5,89.5,0,0,1-5.2,9.1C604.3,463.2,601.7,466,599.3,468.9Z"/><path class="cls-8" d="M634.7,433.1l-4.2,3-1.1.8h.1a32.8,32.8,0,0,0-3.1,2h0l-8.3,5.7-.6-.5c.6-1.3.7-3.4,1.7-3.9C624.2,437.6,629.5,435.4,634.7,433.1Z"/><path class="cls-23" d="M257.7,652.8l2.2,1.9h.2l.8.7v.3l1.3,1.5h0l2.3,2.4c.1.1.2.3.4.4l1.2,1.1,3.3,2.7a.5.5,0,0,0,.6.4l1.6,1.7C266.6,665.8,258.3,658,257.7,652.8Z"/><path class="cls-4" d="M230.5,550v-1.1l6.3-8.6h0l1-1.2.8-1,2.2-1.9.8.8c-.9,1.8-1.6,3.7-2.6,5.3a35.8,35.8,0,0,1-4.4,5.1A21.9,21.9,0,0,1,230.5,550Z"/><path class="cls-8" d="M210.3,414.8l12.1-9.3.2,1.5c-1.6,2-2.8,4.7-4.9,6S212.8,414.2,210.3,414.8Z"/><path class="cls-2" d="M502.5,563.1c-.8-.7-2.1-1.3-2.4-2.2-2.3-6.6-4.4-13.2-6.6-19.8v-.2l.9.3h-.1l1.1,2.1,1,1.9h0l6.1,17.8Z"/><path class="cls-2" d="M515.6,542c.4,6.9-4.4,11.2-8,16.1l-.8-.7c.5-1,.9-1.9,1.3-2.9h0l6.8-13Z"/><path class="cls-2" d="M883.7,383.5c-5.8-3.2-11.5-.2-17.1.6.8-1.2,1.5-3.4,2.4-3.5a62,62,0,0,1,12.2-.3C882.1,380.3,882.8,382.4,883.7,383.5Z"/><path class="cls-4" d="M229.5,551.9c1.4,5.2-2.6,13.5-7.2,14.8l1.8-4v-.4l4.5-10.2h0Z"/><path class="cls-2" d="M876.8,513.1l.7-1.1,1.2-2h-.1c.8-1.3,1.5-2.6,2.2-3.9h0l.9-2.1h0l2.9-7.2a8.8,8.8,0,0,1,.4,3.1,97.3,97.3,0,0,1-4.2,11.8c-.7,1.4-3,2-4.6,2.9Z"/><path class="cls-2" d="M276.4,746.3l-3.8-5.4h.1l-1.9-3.2v0l-4.1-6,.9-.8C271.5,735.5,277.7,738.7,276.4,746.3Z"/><path class="cls-2" d="M262.6,728l-2.1-2-4.9-4h0l-4.3-3.6,10.3,3.6h-.1l4.1,7-.8.8Z"/><path class="cls-8" d="M539.7,791.1c-.6,5.7-2.6,10.4-8.1,12.9l-.8-.7,3.8-5.3h-.1c1.7-2.3,3.3-4.7,4.9-7.1Z"/><path class="cls-8" d="M199.9,433.9l-8.4,3.3V437l.3-1.9h-.1a20,20,0,0,0,1-2.1h0a21.2,21.2,0,0,1,1.1-2.1h-.1l1.3-1.8-.4-.2.4.2,1.2-.8.4.4-.3,3.5Z"/><path class="cls-2" d="M225.5,414c.7-5.2,3.9-8.5,9-9.1l.3.4-8.5,9.4Z"/><path class="cls-5" d="M668.3,697.1l-6.1-6.2c1.7-.2,4.7-1,4.9-.5C667.9,692.4,668,694.8,668.3,697.1Z"/><path class="cls-17" d="M884.6,497l-2.9,7.2,4.5-18.3c-.5,3.4-1,6.7-1.4,10.1Z"/><path class="cls-5" d="M673.6,709c-1.6-3.7-3.1-7.3-4.7-10.9C673.6,699.9,676.2,706,673.6,709Z"/><path class="cls-2" d="M488,410.6c2.6,3.8,5.2,7.6,7.9,11.3a4.3,4.3,0,0,0-.2,1.1Z"/><path class="cls-2" d="M480.5,400.5l7.5,10.1C484.4,408.1,479.5,406.5,480.5,400.5Z"/><path class="cls-2" d="M875.4,515.7c.2,1.8.3,3.6.5,5l-7.3,3.4a6,6,0,0,0-.8-.8c1-1.1,2-2.1,2.9-3.2h0l2-2.1h0Z"/><path class="cls-19" d="M448.5,502.1c4.4.6,9.2.5,11,6.1Z"/><path class="cls-19" d="M854.5,533.9c.6-5.3,2.5-6.8,8.2-6.8l-.6,1.1-.4.3-1.4,1.3h.2l-.2-.2-5.1,4.2Z"/><path class="cls-21" d="M470.4,386.1c4-.1,8.6-1.3,9,5.1Z"/><path class="cls-7" d="M615.5,728.6l8.8-6.7C622.9,726.6,619.1,729.5,615.5,728.6Z"/><path class="cls-25" d="M224.1,562.7l-1.8,4-2.5-.8-1.4-1.4-.3-.3-1.2-1.5h0c-.2-.6-.3-1.1-.5-1.6Z"/><path class="cls-2" d="M533.5,471c-4.3.3-7.8-1-9.9-5l.6-.7,5.7,3.3h.3l1.2.6h0l2,1h-.1A1.2,1.2,0,0,0,533.5,471Z"/><path class="cls-4" d="M154.8,456.2l-8.1,8C146.1,458.2,152.4,459.1,154.8,456.2Z"/><path class="cls-2" d="M205.6,484.9l-2.4,13.4Z"/><path class="cls-8" d="M531.6,804c-1.8,4.6-5.2,6.4-10,6.1l-.2-.3,2.3-1.7h-.1l3.1-2.1h0l4.1-2.9Z"/><path class="cls-18" d="M463.4,652.9c2.6-3.4,5.4-6.3,10.1-6l.2.3-6.3,4.7h.1l-2.1,1h.1l-1.8.3Z"/><path class="cls-5" d="M622,738.9l-5.3,7.3C615.4,741.5,616.9,739,622,738.9Z"/><path class="cls-8" d="M123.4,477.9l-1.2.6c.1-5.3.7-5.7,7.6-5.3l-3.5,2.6h.1l-1.2.9h0l-1.8,1.3Z"/><path class="cls-25" d="M850.5,568.1l-.3,3.9-3.6,3.1a12.1,12.1,0,0,1-.1,1.9h-.8c.3-2,.5-4,.8-6a.8.8,0,0,0,.4-.7v0l3.5-2.9A.6.6,0,0,0,850.5,568.1Z"/><path class="cls-2" d="M429.5,740.7l.3-1.5,2.2-2.4c.2-.1.3-.2.3-.4a8.6,8.6,0,0,1,.7-1h0l2-2,.6.6Z"/><path class="cls-8" d="M121.4,494.6l4.7,5.4C121.4,501.1,120.2,499.7,121.4,494.6Z"/><path class="cls-18" d="M411.7,671.9v1.2h-.2l-3.3,2.7-1,.7-3.5,1.7c-.1-.1-.2-.3-.4-.4Z"/><path class="cls-18" d="M475.4,645.9l7.1-6a.8.8,0,0,0,.4.4l-4.4,4.3-2.9,1.4Z"/><path class="cls-19" d="M845.7,577h.8v5.5c-4.7,0-3.9-3-3.9-5.5l2.4,3.9C845.3,579.1,845.5,578,845.7,577Z"/><path class="cls-4" d="M181.7,410.1l-8.4,7.3A10.1,10.1,0,0,1,181.7,410.1Z"/><path class="cls-17" d="M497.9,461.7l1.3,1.5h.1a19.8,19.8,0,0,0,1.1,2h-.1c.7,1.3,1.5,2.6,2.2,4a1.9,1.9,0,0,1,.1.8C497.8,469,498.1,465.3,497.9,461.7Z"/><path class="cls-2" d="M441.5,784.6v.3c.3,1,.6,2,.8,3-4.8-.9-2.8-5-3.8-7.8l.2-.2Z"/><path class="cls-2" d="M205.5,546.1c-1.3-2.7-2.6-5.4-4-8.1l.7-.6,2.9,5h0l1.2,3Z"/><path class="cls-2" d="M489.7,534.7l1.7,1.4h-.1l2,3.1h0l.3,1.7v.2C490.9,539.7,487.2,539,489.7,534.7Z"/><path class="cls-2" d="M507.6,558.1l-3.6,6.1-1.5-1.1v-.2l4.2-5.5Z"/><path class="cls-7" d="M609.1,735.2l5.3-5.6C613.3,732.1,614.9,737.1,609.1,735.2Z"/><path class="cls-18" d="M517.4,484l-4.3-3.2,5.6,2Z"/><path class="cls-4" d="M146.7,464.1l-8.1,5Z"/><path class="cls-2" d="M823.1,416.8c-.2,0-.5,0-.6.3a1.4,1.4,0,0,0-.9,0l5.9-6.1.8.7-1.9,2.2h.1l-1.2,1h.1Z"/><path class="cls-18" d="M481.6,421.6c.1-.2.1-.4.2-.6,4.7.8,4.4,4.6,4.9,7.9l-.2.2Z"/><path class="cls-8" d="M118.7,484l2.4,10.2C117.2,492.7,116.4,489.4,118.7,484Z"/><path class="cls-2" d="M862.1,528.2l.6-1.1h-.1l1.2-1.1h-.1l4.1-2.9a6,6,0,0,1,.8.8Z"/><path class="cls-2" d="M275.6,785l1.8,3.9c-3.8-.7-4.5-3.6-4.9-6.9l.7-.5,1.4,1.5h-.1l1.1,2Z"/><path class="cls-18" d="M454.6,657.1l8.8-4.2.3.3a1.9,1.9,0,0,0-.2.8h0Z"/><path class="cls-19" d="M875.4,515.7l-2.7,2.5c-.4-3.2.2-5.5,4.1-5.1l-.6,1.7Z"/><path class="cls-8" d="M611.6,451l-2,1.2c-.7-3.9,1.5-5.1,4.9-5.3l.3.3-1.3,1.8h.1l-1.1,1Z"/><path class="cls-18" d="M453.6,791.9l4,7C454.7,797.5,453.1,795.3,453.6,791.9Z"/><path class="cls-23" d="M454.6,657.1l8.9-3.2-8.8,4.3-.3-.3A2.4,2.4,0,0,0,454.6,657.1Z"/><path class="cls-19" d="M495.7,423a4.3,4.3,0,0,1,.2-1.1c3.7.1,3.9,2.5,3.5,5.3l-3.6-3.5A.6.6,0,0,0,495.7,423Z"/><path class="cls-25" d="M442.3,787.9c-.2-1-.5-2-.8-3l4.1.2Z"/><path class="cls-19" d="M849.7,538.1c-.6-3.8,1.9-4.2,4.7-4.1Z"/><path class="cls-21" d="M482.4,393.1c2.6.4,6.2-.3,5.4,4.3Z"/><path class="cls-2" d="M855.2,533.9l5.1-4.2C860.3,533.2,858.3,534.2,855.2,533.9Z"/><path class="cls-2" d="M850.3,567.4l-3.5,2.9c.2-1.3,0-3.1.7-3.9S850.5,564.2,850.3,567.4Z"/><path class="cls-8" d="M517.5,628.1l-4-4,.5-.6,3.9,4.2Z"/><path class="cls-17" d="M182.6,506.1c1.4-1.7,2.7-3.4,4.1-5C185.3,502.7,183.9,504.4,182.6,506.1Z"/><path class="cls-8" d="M203.2,420.9l3.5-3.3C208.4,420.8,208.2,420.9,203.2,420.9Z"/><path class="cls-8" d="M526.4,639.1l-3.9-5,.2-.2c1.4,1.6,2.7,3.3,4,5Z"/><path class="cls-2" d="M455.7,716.1l-4.1,2.9-.7-.6.8-1.3h-.1l2.2-.9h-.1l1.8-.4Z"/><path class="cls-2" d="M827.5,411c-.3-3.1,1.9-3.1,4-3.1l.4.5-3.6,3.3Z"/><path class="cls-5" d="M595.5,470l-2.7-1.8,1-.9,1.8,2.7Z"/><path class="cls-17" d="M126.3,475.8l3.5-2.6,1.8-.2a4.1,4.1,0,0,0-.1,1.1Z"/><path class="cls-2" d="M886.5,389.1c-.9-1.7-1.7-3.4-2.5-5.1C886.6,384,886.6,384,886.5,389.1Z"/><path class="cls-2" d="M201.9,501.2l-2.7,5.1C197.8,503.4,198.8,501.8,201.9,501.2Z"/><path class="cls-4" d="M566.5,658.1c.4,1.9.8,3.9,1.3,5.8C567.3,662,566.9,660,566.5,658.1Z"/><path class="cls-8" d="M522.5,634.1c-1.1-1.3-2.1-2.6-3.1-4l.3-.2,3,4Z"/><path class="cls-19" d="M448.5,497.9v4.2C444.1,500.7,447.2,499.3,448.5,497.9Z"/><path class="cls-7" d="M804.1,729.1l3.4-2.6C807.4,728.8,807,730.5,804.1,729.1Z"/><path class="cls-18" d="M506.5,474.2l-3.3-4.1Z"/><path class="cls-2" d="M222.6,407l-.2-1.5,2.9-1.8Z"/><path class="cls-8" d="M529.1,641.1l1.6,2.8-3.2-2.8.6-.7Z"/><path class="cls-19" d="M461.3,509.2l4.3,2.7Z"/><path class="cls-18" d="M510.5,478.2l-3.1-3.1Z"/><path class="cls-8" d="M122.1,478.7c-1.2,1.6-2.3,3.3-3.4,4.9C118.4,481,118.7,478.8,122.1,478.7Z"/><path class="cls-8" d="M540.9,731.4l-2.7-4.1Z"/><path class="cls-19" d="M177.6,738.1V736a.5.5,0,0,0,.1-.7l1.8-1.4Z"/><path class="cls-8" d="M198.5,425l1-.5,2.1,2.5h0l-4,1-.7-.6,1.6-2.4Z"/><path class="cls-2" d="M523.6,466l-3.1-2.9.2-.3,3.5,2.5Z"/><path class="cls-2" d="M264.6,659.6l-2.3-2.4C264.1,657,265.9,656.8,264.6,659.6Z"/><path class="cls-18" d="M269.5,663.8l-3.3-2.7h1.4Z"/><path class="cls-18" d="M323.7,677.9l3,2-.4.4-3-2C323.4,678.1,323.6,678,323.7,677.9Z"/><path class="cls-18" d="M502.5,469.2c-.7-1.4-1.5-2.7-2.2-4C501,466.5,501.8,467.8,502.5,469.2Z"/><path class="cls-19" d="M450.5,494.9l-2.1,3Z"/><path class="cls-8" d="M200,424l2.4-2.4C202.3,423.1,203.1,425.6,200,424Z"/><path class="cls-2" d="M262.6,800.1l-3,2-.2-.2,2.8-2.2Z"/><path class="cls-8" d="M207.1,417.2l2-1.6Z"/><path class="cls-2" d="M520.5,463.1l-3-2.1.7-.7,2.5,2.5Z"/><path class="cls-18" d="M321.6,676l2.1,1.9c-.1.1-.3.2-.4.4l-1.6-.4h0l-.8-1.1Z"/><path class="cls-2" d="M235.6,637.9l3,2.1-.8.8-2.6-2.4Z"/><path class="cls-21" d="M479.4,391.1l3.1,2.1Z"/><path class="cls-2" d="M267.6,661h-1.4L265,660Z"/><path class="cls-8" d="M519.4,630.1l-1.9-2,.4-.4,1.8,2.2Z"/><path class="cls-5" d="M606.9,455.3l-2.2,2.9Z"/><path class="cls-5" d="M608.8,453.2l-1.9,2.1Z"/><path class="cls-21" d="M489.6,399.1l1.3.4-1.2,1.3C489.7,400.2,489.6,399.7,489.6,399.1Z"/><path class="cls-7" d="M607.2,737.8l1.5-2.2Z"/><path class="cls-18" d="M457.6,798.9l2.3,1.6Z"/><path class="cls-2" d="M203.2,498.7c-.5.8-.9,1.7-1.4,2.6C202.3,500.4,202.7,499.5,203.2,498.7Z"/><path class="cls-21" d="M488.1,397.7l1.3,1.2Z"/><path class="cls-8" d="M637.6,431.1l-1.4,1.5Z"/><path class="cls-8" d="M201.2,433.3a.5.5,0,0,1-.5.3,4.3,4.3,0,0,1-.2-1.1Z"/><path class="cls-2" d="M218.4,564.5l1.4,1.4Z"/><path class="cls-2" d="M216.9,562.7l1.2,1.5Z"/><path class="cls-25" d="M229.5,551.9l-.8.3,1.1-2.1Z"/><path class="cls-19" d="M848.6,540.1l1.1-2C849.3,538.8,849,539.5,848.6,540.1Z"/><path class="cls-19" d="M459.4,508.1l2,1.2Z"/><path class="cls-18" d="M512.8,480.5l-1.4-1.4Z"/><path class="cls-8" d="M126.5,500.4l1.5,1.5Z"/><path class="cls-4" d="M567.7,663.8l1,2.1Z"/><path class="cls-5" d="M676.5,723l1.1-.7.3.3-1.3.4Z"/><path class="cls-7" d="M802.3,730.8l1.3-1.2Z"/><path class="cls-19" d="M533.5,471a1.2,1.2,0,0,1-.2-.8l2.3,1h-1.1Z"/><path class="cls-2" d="M262.3,657.2l-1.3-1.5Z"/><path class="cls-18" d="M500.4,465.2a19.8,19.8,0,0,1-1.1-2A19.8,19.8,0,0,0,500.4,465.2Z"/><path class="cls-2" d="M860.3,529.8l1.4-1.3Z"/><path class="cls-18" d="M473.5,646.9l1.9-1h.2l-1.9,1.2Z"/><path class="cls-2" d="M272.5,782l-1-1.9.4-.4,1.3,1.8Z"/><path class="cls-2" d="M598.6,447.1l-1,2-.6-.6.6-1.5h0l.8-.2Z"/><path class="cls-8" d="M527.5,641.1l-1.1-2,.3-.2,1.4,1.5Z"/><path class="cls-2" d="M225.5,797c-.3-.6-.7-1.2-1-1.9l.2-.3.8.3h0c.1.6.3,1.2.4,1.7Z"/><path class="cls-8" d="M492.1,801.9l.8-1.3Z"/><path class="cls-18" d="M490,804.3l1.4-1.3Z"/><path class="cls-2" d="M257.6,804l-2,1.1-.7-.8,2-1A4.6,4.6,0,0,0,257.6,804Z"/><path class="cls-2" d="M436.6,733l-1,1-.6-.6.8-1.1Z"/><path class="cls-4" d="M263.9,527.8a.9.9,0,0,1-.6.6Z"/><path class="cls-2" d="M517.5,461l-1-1,.8-.7.9,1Z"/><path class="cls-2" d="M512.5,459l-.2.4.3-.4Z"/><path class="cls-5" d="M604.8,458.1l-.9,1.3Z"/><path class="cls-2" d="M266.6,730a9.4,9.4,0,0,0,1,1l-.9.8-.9-1Z"/><path class="cls-2" d="M265.6,729a9.4,9.4,0,0,0,1,1,6,6,0,0,0-.8.8,9.4,9.4,0,0,0-1-1Z"/><path class="cls-8" d="M513.5,624.1a9.4,9.4,0,0,0-1-1l.5-.6a9.4,9.4,0,0,0,1,1Z"/><path class="cls-4" d="M263.5,526l1.2,1.1-.3.2Z"/><path class="cls-8" d="M512.5,623.1l-1-1,.4-.5,1.1.9Z"/><path class="cls-8" d="M511.5,622.1l-1-1.1.4-.3,1,.9Z"/><path class="cls-2" d="M199,506.6c-.1.3-.2.6-.5.7Z"/><path class="cls-8" d="M510.5,621h-1v-.9l.3-.3,1.1.9Z"/><path class="cls-4" d="M427.5,790l.3-.4a.8.8,0,0,0-.2.4Z"/><path class="cls-8" d="M614.5,446.9l1-1,.3.4-1,.9Z"/><path class="cls-8" d="M615.5,445.9l1-.9.4.4-1.1.9Z"/><path class="cls-8" d="M616.5,445l1-1,.6.5-1.2.9Z"/><path class="cls-2" d="M234.7,636.9l.9,1-.4.5-1-1Z"/><path class="cls-4" d="M249.5,545l-.4-.2.5.2Z"/><path class="cls-4" d="M246.8,551h0l-.4-.2Z"/><path class="cls-2" d="M846.9,570.3a.8.8,0,0,1-.4.7l-.4-.6Z"/><path class="cls-8" d="M197.6,428l-1,1-.4-.4.7-1.2Z"/><path class="cls-8" d="M201.6,427l.4.2-.4-.2Z"/><path class="cls-25" d="M821.6,417.1a1.4,1.4,0,0,1,.9,0,3,3,0,0,0-.8.8A.8.8,0,0,1,821.6,417.1Z"/><path class="cls-2" d="M259.6,802.1a9.4,9.4,0,0,0-1,1l-.4-.5,1.2-.7Z"/><path class="cls-2" d="M258.6,803.1l-1,.9a4.6,4.6,0,0,1-.7-.7l1.3-.7Z"/><path class="cls-7" d="M549.5,803l-.9,1Z"/><path class="cls-4" d="M172.8,417.9l-.4.4a.8.8,0,0,1-.2-.4Z"/><path class="cls-2" d="M464.5,720l-.4-.2.5.2Z"/><path class="cls-8" d="M209.2,415.6l1.2-.9Z"/><path class="cls-2" d="M260.9,655.4l-.8-.7Z"/><path class="cls-2" d="M262.6,721l-1.1,1h.1l1-1Z"/><path class="cls-2" d="M194.6,810l-.3.4a.5.5,0,0,0,.2-.4Z"/><path class="cls-8" d="M635.9,432.7l-1.2.4Z"/><path class="cls-2" d="M599.6,446.1l-1,1-.2-.2.9-1.1Z"/><path class="cls-23" d="M201.3,701a60.3,60.3,0,0,1-1.9,7.6c-.3.7-1.8,1-2.8,1.4-.4-19.6,6-37.6,13.7-55.2l.3.3c-1.9,6.1-4,12.2-5.8,18.4s-4.3,15.2-6.1,22.9C198.2,698.3,197.7,701.1,201.3,701Z"/><path class="cls-23" d="M210.8,652.2l1.6-2.4-1.8,5.3-.3-.3A23.8,23.8,0,0,1,210.8,652.2Z"/><path class="cls-19" d="M183.4,727.8l-2.1,3.1Z"/><path class="cls-19" d="M181.4,730.8l-1.3,2Z"/><path class="cls-19" d="M180.2,732.7l-.7,1.3Z"/><path class="cls-1" d="M530.6,818l-1.1.8-.3-.4,1.3-.4Z"/><path class="cls-1" d="M652.5,544a11.2,11.2,0,0,0-1-3.1c-2.5-3.6-5.2-7-8.1-11l-2.5,1.1c-.3-.4-.7-.6-.7-.8,1-7.4,1.4-14.9,3.2-22,2.7-11.1,9.8-15.1,20.5-11.9,5.1,1.5,9.8,4.4,14.7,6.7a26.4,26.4,0,0,1,3.4,4.1,28.9,28.9,0,0,1,1.8,4.4l-4.3.8c-.2.3-.7.7-.6.9,5.6,10.9,2.5,20.1-5.3,28.4a6,6,0,0,0-1,2.3c-.2,4.1,2.3.8,3.3.9,2.5.5,3.1-1.1,1.8-3.3a.5.5,0,0,1,.5-.3c2.6.2,5.3.5,3.5-3.6v-.2c6.9-.4,7.5.3,5.5,6.7a7.1,7.1,0,0,0,.1,1.4l-.3.3-6.5,3.2a32.4,32.4,0,0,1-21.5.7C658.7,543,657.4,541.9,652.5,544Zm6.3-17.3c0-6.4-3.9-12.9-7-12.3-1.6.4-3.5,3.3-3.7,5.2-.4,4.8,4.1,10.9,7.3,10.2C657,529.5,658.2,527.2,658.8,526.7Z"/><path class="cls-26" d="M687.3,545.5a7.1,7.1,0,0,1-.1-1.4c2-6.4,1.4-7.1-5.5-6.7,5.8-11.4,5.2-18.3-2.2-25.1l4.3-.8a28.9,28.9,0,0,0-1.8-4.4,26.4,26.4,0,0,0-3.4-4.1l9.3,6.5,17.7,11.6c-5.6,2.5-11.8.5-17.7-2.9.3,5.7.6,11.1.9,17.4l8.4-10.9C696.4,533.9,693.1,540.3,687.3,545.5Z"/><path class="cls-3" d="M652.5,544c4.9-2.1,6.2-1,6.5,5.7a32.4,32.4,0,0,0,21.5-.7c0,.4.1.7.1,1-12.9,6.4-29.7,1.3-34.9-10.7Z"/><path class="cls-27" d="M599.7,473c1.1,2,2.6,3.9,3.3,6.1,1.4,4.5,2.4,9.2,3.6,13.9a10.2,10.2,0,0,0,1.3,2.8c1-.6,2.1-1,3.1-1.7l3.5-3.1-7.9,15.3C604.4,495.5,602,484.2,599.7,473Z"/><path class="cls-27" d="M785.6,582.1c-3.5,4.1-3.5,4.1,1,8.7L769.9,586a4.3,4.3,0,0,1,.2-1.1Z"/><path class="cls-27" d="M722.7,475c5.8-.3,2.1,4.8,3.9,6.9l-7.8-2Z"/><path class="cls-27" d="M817.5,584.9l3.8-3.4c2.3,6.7,1.9,7.4-4.7,8.6Z"/><path class="cls-27" d="M713.5,471.1c3.2.8,7.7-1.3,9.1,3.8Z"/><path class="cls-17" d="M862.7,637.8c.7,2,1.3,4,2,6-2.1,1-4.2,2.2-4.1-1.8Z"/><path class="cls-27" d="M790.6,591h0Z"/><path class="cls-26" d="M680.6,550c0-.3-.1-.6-.1-1l6.5-3.2Z"/><path class="cls-17" d="M855.7,638l4.8,3.9Z"/><path class="cls-27" d="M806.5,589.9l5.1-2.8Z"/><path class="cls-27" d="M800.5,590.9l4-.9Z"/><path class="cls-27" d="M730.4,482.2l2.2,1.7Z"/><path class="cls-27" d="M734.5,484l2.1,1.9Z"/><path class="cls-27" d="M813.5,586.9l2.1-1.8Z"/><path class="cls-27" d="M814.6,592l-2.1,2Z"/><path class="cls-27" d="M807.6,596.1l-1.2,1.8Z"/><path class="cls-28" d="M272.6,518l-2.1-5c-1.5-4.8-3.2-9.6-4.7-14.5a40.1,40.1,0,0,1-.9-5c-.3-1.4-.7-2.8-1-4.2a39.7,39.7,0,0,0-5.8,2c-12.8,6.6-26.3,10.4-40.9,10.5,3.7-1.5,7.5-3.1,11.3-4.4a48.5,48.5,0,0,0,22.7-16.3,61.6,61.6,0,0,1,25.4-19.4c11.6-3.1,22.8-2.7,30.9,7,4.1,5,6.5,11.7,8.4,18s-1.4,9.6-7.4,12.2c-2.2.2-5.1-1.5-5.9,2.3l-1.9.9c-2.4.5-5.1.4-7.1,1.6a78.2,78.2,0,0,0-10.8,7.6c-1.4,1.1-2.3,2.8-3.4,4.2l-.4.3Zm5.4-40.9c-8.8,8.7-8.7,19.1.2,24.4-4.6-11.2-4.5-12.8.6-23.3l3-3.2a2.2,2.2,0,0,0-2.1.4A13.7,13.7,0,0,0,278,477.1Zm24.6,7.3a8.1,8.1,0,0,0-8.1-7.7c-3.2.1-4.7,2-4.8,5.1s4.3,8,8.2,7.7S302.8,487.8,302.6,484.4Z"/><path class="cls-1" d="M377.6,574.7,367.5,583l-2.9,2c-1.1-1.3-2-3.1-3.4-3.8-5-2.4-10.3-4.3-15.4-6.7-1.5-.7-2.7-2.3-4-3.5,3.2-2.3,8,1.4,8.7-4.2l3.9-9.7-1.6-1.1c-2.2,8.1-7.2,10.7-14.8,8.2l-.2,1.8c-2.5.5-2.3-.9-2.5-2.8s1.2-5.1-2.7-5.2l-2.7-4.2c-5.2-8.2-3.9-15,5-19.3,14.9-7.2,30.9-8.7,47.1-5.4,10.2,2.2,13.4,9.9,9.8,19.7-1,2.8-.9,6.1-1.4,9.2l-3,1.1c-10.5,3.2-11.9,2.8-17.9-4.7V558c-3.2,2.7.7,4,1.5,4.7s4.8,2.3,7.3,3.4l.2-.9h1l5.6,1.1.2,3.2-.3.4Zm-35-35.6c11.8,2,22.8-1.2,34.2-3C371.6,527.9,347.7,529.9,342.6,539.1Z"/><path class="cls-24" d="M376.6,613.5c-12.4,6.3-23.4,3.1-33.9-4.7a65.7,65.7,0,0,0-6.2-4c-.5-1.3-.9-2.6-1.7-4.7,2.4.3,4.4,1.2,5.8.6,7.5-3.3,17-3.5,21.3-12.5.5-.9,1.7-1.5,2.6-2.2h1.1c2.7,5.9,8,7.3,13.8,7.8l16.4,1.4c-1.7,1.4-3.3,2.3-4.3,3.7-3.8,5.3-9.1,8.5-14.9,11.1l-.5-.2.4.2C376.6,611.2,376.6,612.4,376.6,613.5Z"/><path class="cls-26" d="M364.5,586c-.9.7-2.1,1.3-2.6,2.2-4.3,9-13.8,9.2-21.3,12.5-1.4.6-3.4-.3-5.8-.6.8,2.1,1.2,3.4,1.7,4.7-5.3-1.8-10.9-3.1-15.8-5.6-3.1-1.5-5.1-5-7.1-8.4,11.8,5.9,23.3,10.6,36.2,4.6,5.9-2.8,9.1-5.8,11.8-11.8-2.2-1.2-4.4-2.6-6.7-3.6s-5.6-2.2-8.4-3.2c-8.8-3.2-14.5-8.6-13.9-18.8,3.9.1,2.5,3.4,2.7,5.2s0,3.3,2.5,2.8c4,2.7,8.2,3.5,12.7.8-.7,5.6-5.5,1.9-8.7,4.2,1.3,1.2,2.5,2.8,4,3.5,5.1,2.4,10.4,4.3,15.4,6.7,1.4.7,2.3,2.5,3.4,3.8A3.4,3.4,0,0,0,364.5,586Z"/><path class="cls-26" d="M376.6,610c5.8-2.6,11.1-5.8,14.9-11.1,1-1.4,2.6-2.3,4.3-3.7l-16.4-1.4c-5.8-.5-11.1-1.9-13.8-7.8a9.4,9.4,0,0,1-1-1l2.9-2c.6,1.3.8,3.1,1.8,3.8,11.4,8.2,26,7.3,38.2-2.4,2.2-1.7,4.3-3.5,7.2-5.9-.7,6-3.1,10.4-7.4,12.8a117.7,117.7,0,0,0-25.5,19.4c-1.4,1.3-3.4,1.9-5.2,2.8,0-1.1,0-2.3-.1-3.5Z"/><path class="cls-27" d="M387.5,390.9c2.1,4.1,5.4,1.8,8.2,1.5s5.2-1,7.8-1.5c-8.4,4.3-16.8,8.6-25.3,12.8l-1.1-1.1Z"/><path class="cls-27" d="M442.6,438.2c2.1,5.2,7.1,4.3,11.1,4.7,6,.5,10.7,3.1,14.9,7-10.1-4.6-20.9-6.3-31.9-7.1a26.5,26.5,0,0,1-2.5-1.7Z"/><path class="cls-3" d="M385.3,569.4l-.2-3.2-5.6-1.1,7.9-6,3-1.1C391.6,563.1,389,566.5,385.3,569.4Z"/><path class="cls-4" d="M279.4,515.5c1.1-1.4,2-3.1,3.4-4.2a78.2,78.2,0,0,1,10.8-7.6c2-1.2,4.7-1.1,7.1-1.6Z"/><path class="cls-4" d="M272.6,518l6.4-2.2-7.5,5.6C271.9,520.3,272.2,519.2,272.6,518Z"/><path class="cls-27" d="M463.5,430.1l4.9,2-.3,1.6-4.4-.6C463.6,432.1,463.6,431.1,463.5,430.1Z"/><path class="cls-3" d="M377.6,574.7l7.4-4.9Z"/><path class="cls-4" d="M265.4,526.5c-.4-4.2,2.5-4.5,5.5-4.6Z"/><path class="cls-27" d="M454.6,435.2l-5.2,2.7Z"/><path class="cls-4" d="M302.6,501.2c.8-3.8,3.7-2.1,5.9-2.3Z"/><path class="cls-27" d="M459.6,434.2l-2,.9Z"/><polygon class="cls-1" points="435.4 524.5 435 524.6 435.1 524.3 435.4 524.5"/><path class="cls-8" d="M255.4,605.8h0Z"/><path class="cls-19" d="M226.3,414.7l8.5-9.4,1.5-.6c-1.1,2.1-1.8,4.5-3.3,6.3-6.4,7.9-13.3,15.3-17.8,24.8s-5.8,21.1-5.8,32.2c0,2-1.3,4-2,6,.2-14.6.2-29.3,7.5-42.7Z"/><path class="cls-19" d="M518.2,460.3l-.9-1-9.1-16c1.4,1.2,3.6,2.1,4,3.6,2,7.8,7.5,12.4,13.6,16.8,1.7,1.2,2.8,3.2,4.1,4.9l-5.7-3.3-3.5-2.5Z"/><path class="cls-17" d="M506.8,557.4l-4.2,5.5-6.1-17.8c1,1,2.4,1.9,3,3.1,1.4,3.1,2.4,6.4,3.7,9.6l4.9-3.3C507.7,555.5,507.3,556.4,506.8,557.4Z"/><path class="cls-17" d="M486.6,430.6c2.4,6.5,4.8,12.9,7.1,19.3-1.3-2.4-3.2-4.6-4-7.2A119.1,119.1,0,0,1,486.6,430.6Z"/><path class="cls-19" d="M205.1,542.4l-2.9-5c-1-2.7-1.9-5.4-2.9-8.2,4.2-1.5,4.4,2.4,5,4.5S204.9,539.4,205.1,542.4Z"/><path class="cls-19" d="M507.4,441.2l-8.1-14C504,428.7,507.6,435,507.4,441.2Z"/><path class="cls-17" d="M514.9,541.4l-6.8,13a24.6,24.6,0,0,1,7.7-16.3Z"/><path class="cls-19" d="M265.7,512.1l-12.1,10.1C254.8,516.9,259.7,512.9,265.7,512.1Z"/><path class="cls-19" d="M240.8,536.2l-2.2,1.9c1.1-6.1,3.9-9.3,9-10Z"/><path class="cls-21" d="M599.3,445.8l-.9,1.1-.8.2a50.5,50.5,0,0,0,1.8-5.5,24.6,24.6,0,0,0,0-4.7l3.2-.8Z"/><path class="cls-17" d="M493.7,449.9c1.4,3.9,2.8,7.9,4.3,11.8C492.3,459.3,493.2,454.5,493.7,449.9Z"/><path class="cls-19" d="M246.7,392.2l-13.1,6C237.2,394.4,241.4,392,246.7,392.2Z"/><path class="cls-25" d="M228.7,552.1l-4.5,10.2C223.2,557.8,224.2,554.2,228.7,552.1Z"/><path class="cls-19" d="M264.7,502.6c.9,1.5,1.8,3.1,2.8,4.5s.7,4.1-1.9,5Z"/><path class="cls-19" d="M215.3,559.3l-6-9.2Z"/><path class="cls-19" d="M236.8,540.3l-6.3,8.6C230.7,544.6,232.1,541.2,236.8,540.3Z"/><path class="cls-21" d="M585.8,464.2l-.9,1.2-7.3,3.7C579,465.2,582.2,464.4,585.8,464.2Z"/><path class="cls-17" d="M481.6,421.6l4.9,7.5c0,.3-.1.7-.1,1C480.8,429.5,482.6,424.8,481.6,421.6Z"/><path class="cls-21" d="M577.7,469.1l-9,4.2Z"/><path class="cls-17" d="M196.9,427.4l-.7,1.2-1.2.8c-.2-1.4-.3-2.8-.5-4.4h4Z"/><path class="cls-19" d="M251.4,391.9l-4.7.3,5.7-2.8.7,1.7Z"/><path class="cls-21" d="M597.6,447l-.6,1.5-3.3,3.7C593.6,449.4,593.9,446.9,597.6,447Z"/><path class="cls-19" d="M206.3,545.4l-1.2-3,3.3,6.1Z"/><path class="cls-19" d="M252,523.8l-4.4,4.3C247.8,525.4,248,522.6,252,523.8Z"/><path class="cls-21" d="M592.7,454.1c-1.1,1.7-2.1,3.4-3.1,5.1C590.6,457.5,591.6,455.8,592.7,454.1Z"/><path class="cls-17" d="M517.5,534l-1.8,4.2Z"/><path class="cls-19" d="M247.5,395l2.9-2.3Z"/><path class="cls-19" d="M241.1,400.4l2.5-2.2Z"/><path class="cls-21" d="M594.6,437.1h0Z"/><path class="cls-21" d="M589.7,459.1c-.4.8-.8,1.6-1.3,2.4C588.9,460.7,589.3,459.9,589.7,459.1Z"/><path class="cls-19" d="M493.3,539.2l-2-3.1Z"/><path class="cls-19" d="M239.1,402.2l1.8-1.7Z"/><path class="cls-17" d="M496.5,545.1l-1-1.9V542C495.9,543.1,496.2,544.1,496.5,545.1Z"/><path class="cls-21" d="M568.8,473.2l-3.3,1Z"/><path class="cls-19" d="M243.7,398.1l1.8-1.3Z"/><path class="cls-19" d="M231.8,399.1l-2.1,1.2Z"/><path class="cls-19" d="M236.3,404.7l1.4-1.3Z"/><path class="cls-17" d="M195,429.4l-1.3,1.8Z"/><path class="cls-25" d="M216.5,561.1c-.4-.6-.9-1.2-1.3-1.9S216.1,560.5,216.5,561.1Z"/><path class="cls-19" d="M495.5,542v1.2l-1.1-2.1Z"/><path class="cls-19" d="M493.6,540.9l-.3-1.7,1.2,2Z"/><path class="cls-19" d="M193.8,431.1a21.2,21.2,0,0,0-1.1,2.1A21.2,21.2,0,0,1,193.8,431.1Z"/><path class="cls-17" d="M123.4,477.9l1.8-1.3Z"/><path class="cls-19" d="M253.7,522.1a18.5,18.5,0,0,1-1.4,1.4A18.5,18.5,0,0,0,253.7,522.1Z"/><path class="cls-19" d="M533.4,470.2l-2-1Z"/><path class="cls-21" d="M588.2,461.9l-1.4,1.4Z"/><path class="cls-21" d="M593.7,452.1l-1.1,2Z"/><path class="cls-19" d="M508.3,443.3l-.9-2.2Z"/><path class="cls-19" d="M191.8,435.1l-.3,1.9Z"/><path class="cls-19" d="M192.7,433.1a20,20,0,0,1-1,2.1A20,20,0,0,0,192.7,433.1Z"/><path class="cls-19" d="M245.4,396.9a11.4,11.4,0,0,0,1.1-1.1A11.4,11.4,0,0,1,245.4,396.9Z"/><path class="cls-19" d="M237.8,539.1l-1,1.2Z"/><path class="cls-19" d="M531.4,469.3l-1.2-.6Z"/><path class="cls-17" d="M125.2,476.6l1.2-.9Z"/><path class="cls-21" d="M586.9,463.2l-1.2,1.1Z"/><path class="cls-19" d="M238.3,403.1l.3-.4.4.4Z"/><path class="cls-19" d="M233.7,398.1l-1.1.7Z"/><path class="cls-29" d="M870.6,402.1c-4.3,5.8-8.4,11.7-13,17.2-9.8,11.9-20,23.5-30,35.2-2.6,3.1-2.8,6.4-1,10.2,6.3,12.9,12.5,26,18.7,39a10.9,10.9,0,0,1,.7,5.5c-2.9-4.6-5.3-9.7-8.8-13.8-6.7-7.7-14.2-14.8-21.3-22.3a115.6,115.6,0,0,1-10.2-12c-3.4-4.8-3.2-8,1.3-11.9,8.5-7.3,17.4-14.3,26.3-21.3,10.8-8.4,21.8-16.6,32.8-24.9l3.4-1.9Z"/><path class="cls-19" d="M665.4,421.8c18.3-5.4,36.9-5.8,55.7-4.2,7.2.7,14.3,2.4,21.4,3.6v.8c-10.9-1.2-21.8-3-32.8-3.6-7.7-.4-15.5.4-23.2,1.2s-13.3,2-19.9,3C666.2,422.7,665.8,422.1,665.4,421.8Z"/><path class="cls-17" d="M742.5,422v-.8l31,10.8c-1,.2-2.1.7-2.8.5C761.3,429.1,751.9,425.5,742.5,422Z"/><path class="cls-19" d="M616.9,445.4l1.2-.9,8.3-5.7c-2.7,5.4-7.1,8.6-12.9,10.2l1.3-1.8,1-.9Z"/><path class="cls-25" d="M828.3,411.7l3.6-3.3,2.6-1.5c-1.1,4.2-3.7,6.6-8.1,7Z"/><path class="cls-19" d="M867.8,523.3l-4.1,2.9c-.2-5,3.1-5.8,7-6.1C869.8,521.2,868.8,522.2,867.8,523.3Z"/><path class="cls-17" d="M860.6,631.9c.7,2,1.4,4,2.2,6C860.4,636.5,858.6,634.9,860.6,631.9Z"/><path class="cls-25" d="M834.4,406.9l4-3.4C838.6,406.5,836.9,407.2,834.4,406.9Z"/><path class="cls-25" d="M796.3,438l4.4-2.5C801,439.4,798,437.6,796.3,438Z"/><path class="cls-19" d="M880.8,506.2c-.7,1.3-1.4,2.6-2.2,3.9C879.4,508.8,880.1,507.5,880.8,506.2Z"/><path class="cls-19" d="M626.4,438.9a32.8,32.8,0,0,1,3.1-2A32.8,32.8,0,0,0,626.4,438.9Z"/><path class="cls-25" d="M823.1,416.8l2.3-2Z"/><path class="cls-19" d="M872.7,518.1l-2,2.1Z"/><path class="cls-19" d="M878.7,510l-1.2,2Z"/><path class="cls-19" d="M881.7,504.1l-.9,2.1Z"/><path class="cls-19" d="M612.5,450l1.1-1Z"/><path class="cls-19" d="M863.8,526.1l-1.2,1.1Z"/><path class="cls-19" d="M629.4,436.9l1.1-.8Z"/><path class="cls-25" d="M801.2,435.2l.9-.6Z"/><path class="cls-25" d="M825.3,414.9l1.2-1Z"/><path class="cls-29" d="M210.6,655.1l1.8-5.3v.2a24.4,24.4,0,0,1,1-2.4c-.1-.3-.1-.5.2-.6l1.5-3.3h0c1.1-2.3,2.2-4.6,3.4-6.8h-.1a21.2,21.2,0,0,1,1.1-2.1h-.1c3.7-.1,3.1-2.7,2.9-5.1h0l5.4-1h0c-.1,2.3-.7,5,3.1,5h-.1l1,1.2h-.1l1.3,1.8h0c.7,5,4.4,6.4,8.7,7.3h0l1.3.7h-.1l2.7,1.4h0l1.3.8h0l9,4.1h-.1l2,2.1h0c.6,5.2,8.9,13,14,13.1h-.1l1.3.8h0c3.2,4.8,13.3,8.2,19.7,6.7l2,.5c1,.7,2,1.9,3.2,2,7.9.8,15.9,1.4,23.9,2.1h0c1.3,1.8,2.4,4.1,4.1,5.5s4.3,1.6,6.4,2.4c8.7,3.7,17.6,6.3,27.3,6.4a90.9,90.9,0,0,0,31.2-4.7c6.2-2.1,13-4.4,16.6-10.9l1-.7,3.3-2.7h.2c1.2-.7,2.9-1,3.7-2,4.8-6.3,11.9-6.1,18.7-7.2s13.2-2.9,19.8-4.4c.3-.1.5-.9.7-1.3l8.8-4.3h0l2-1.1h-.1l2.1-1h-.1c4.7-.9,9.1-2.2,11.1-7.3l4.4-4.3c8.5-6.4,14.2-14.9,18.4-24.5L504,610c5.2,5,10.7,9.6,15.5,14.9s6.7,9,9.8,13.6c.4.6-.1,1.7-.2,2.6l-1-.7-1.4-1.5c-1.3-1.7-2.6-3.4-4-5l-3-4-1.8-2.2-3.9-4.2a9.4,9.4,0,0,1-1-1l-1.1-.9-1-.9-1.1-.9-5.5-4.6-1.2.8,7.5,16.6c6.5,14,12.9,28.1,19.3,42.1a44.4,44.4,0,0,1,1.5,6.3l-1.1,1.8c-6.7-8.5-13.6-17.2-20.3-25.9-2.7-3.4-5.2-3-8.4-.5-14.3,11.3-30.5,18-49.1,17.5-6.3-.1-12.6-1-18.8-.8a22.3,22.3,0,0,0-10.8,3.2c-17.6,11.5-36.7,19.2-57.7,21.4-18,2-35.4-.6-51.4-10a7.6,7.6,0,0,0-6.1-.3c-21.9,10.8-42.9,8.5-62.6-4.9-6.6-4.5-12.4-10.6-17.8-16.6-3.1-3.5-4.6-3.3-7.3-.1-8.8,10.4-15.4,21.9-18.7,35.2-3.6.1-3.1-2.7-2.6-4.6,1.8-7.7,3.9-15.3,6.1-22.9S208.7,661.2,210.6,655.1Z"/><path class="cls-2" d="M230.5,710.8l-18.1-.6a13,13,0,0,1,1-1.5l1.2-.2c13.7-4.2,27-3.2,40,2.4l-12.9-1.1,8.5,8Zm-.1-3.3v1.7l7.6.7v-1.6Z"/><path class="cls-21" d="M254.6,710.9c-13-5.6-26.3-6.6-40-2.4.6-.8,1.1-2.2,1.9-2.3,9-2.2,18.2-2.9,27.3-.5,5.5,1.4,10.8,3.5,16.1,5.4.7.2,1,1.4,1.5,2.1l-5.5-1.9h0l-1.3-.4Z"/><path class="cls-19" d="M180.5,786.6a70.9,70.9,0,0,1-4.8-44.7c.2-1.2,1.2-2.3,1.8-3.4-.3,7.7-.8,15.4-.9,23.1s-.1,13.1,3.5,19.1C181,782.2,180.4,784.6,180.5,786.6Z"/><path class="cls-17" d="M258.2,802.6l-1.3.7-2,1c-6.1,2.3-12.5,4.1-18.9,1.9-2.9-1-5.1-4-7.6-6.2a35.9,35.9,0,0,0,3.8,2.1c2.9,1.1,5.7,2.6,8.7,2.8,8.1.7,14.6-4.3,21.9-6.8l-.6,1.6-2.8,2.2Z"/><path class="cls-25" d="M441.5,784.6l-2.8-4.7c-2.9-10.4.9-19.7,4.8-29-.8,4.6-1.3,9.4-2.5,13.9s-3.5,9.9.1,15C441.9,780.9,441.4,783,441.5,784.6Z"/><path class="cls-21" d="M270.8,777.5c-2.8-3-5.6-6.1-8.5-8.8-.8-.7-2.4-.5-3.7-.8-5.2-1.5-3.1-3.8.2-7,3.9,4.6,7.8,9,11.5,13.5C270.9,775.1,270.6,776.4,270.8,777.5Z"/><path class="cls-19" d="M230.5,710.8l19.7,7h0l1.1.6h0l4.3,3.6c-1-.1-2.1.2-3-.2-6.9-3-13.7-6-20.6-9.2C231.4,712.3,231,711.4,230.5,710.8Z"/><path class="cls-17" d="M523.7,808.1l-2.3,1.7c-6.6,1.4-13.4,3.4-18.9-2.7C509.5,809.7,516.6,808.8,523.7,808.1Z"/><path class="cls-21" d="M262.7,773.8c4.1,6.8,6.9,13.8,2.1,21.5.2-3.2.6-6.4.6-9.6a14.3,14.3,0,0,0-.9-4.1Z"/><path class="cls-17" d="M217,808.7c-6.7,4.2-13.2,3-19.6-.6Z"/><path class="cls-17" d="M530.8,803.3l-4.1,2.9c.2-5,2.5-8.1,7.9-8.2Z"/><path class="cls-21" d="M264.8,729.8a9.4,9.4,0,0,1,1,1l.9,1,4.1,6c-4.3-1.9-7.7-4.6-8.2-9.8Z"/><path class="cls-17" d="M217.7,790.5c2.5,6,5.1,12.1-.4,18C220.1,802.5,218.4,796.5,217.7,790.5Z"/><path class="cls-17" d="M502.5,807.1c-3.8-5.4-1.4-10.3.9-15.3Z"/><path class="cls-21" d="M435.8,732.3l-.8,1.1-2,2c-.5-3.7.7-6.1,4.8-6.2Z"/><path class="cls-17" d="M539.4,790.9c-1.6,2.4-3.2,4.8-4.9,7.1l5.1-9A11.1,11.1,0,0,1,539.4,790.9Z"/><path class="cls-19" d="M446.3,744.8c1.5-2.4,3-4.8,4.4-7.2C451.5,741.4,449.3,743.4,446.3,744.8Z"/><path class="cls-21" d="M267.3,716.3l-5.9-3.1C263.8,713.3,267.3,711.6,267.3,716.3Z"/><path class="cls-21" d="M273.2,781.5l-1.3-1.8-.9-1.9c3.9-.1,3.5,2.7,3.6,5.2Z"/><path class="cls-19" d="M255.6,722l4.9,4C257.6,726.2,255.2,725.7,255.6,722Z"/><path class="cls-21" d="M432,736.8l-2.2,2.4-3.2-4.2Z"/><path class="cls-19" d="M451,737.2l3.5-4.3C454.1,735,455.2,738.2,451,737.2Z"/><path class="cls-21" d="M258.6,767.9l3.5,4.5C257.7,773.3,258.7,770.2,258.6,767.9Z"/><path class="cls-17" d="M215.3,786.1c.8,1.3,1.5,2.6,2.2,3.9C214.4,790,213.8,788.6,215.3,786.1Z"/><path class="cls-21" d="M278.5,724.2l-4-3.2C276.7,720.9,278.9,720.9,278.5,724.2Z"/><path class="cls-19" d="M444,749.4l1.3-3.7,1-.9C445.5,746.3,444.8,747.9,444,749.4Z"/><path class="cls-21" d="M213.4,708.7a13,13,0,0,0-1,1.5l-2.6.9-.5-1.3Z"/><path class="cls-21" d="M441.6,725.1l-3.9,4.1C437.8,726.7,438.5,724.7,441.6,725.1Z"/><path class="cls-21" d="M451.7,717.1l-.8,1.3-2.1.9Z"/><path class="cls-17" d="M197.5,808.2l-3.3-2.1C195.8,805.9,198.1,804.8,197.5,808.2Z"/><path class="cls-21" d="M264.9,795.3l-2.2,2.9Z"/><path class="cls-21" d="M273.5,720.4l-3.1-2.2Z"/><path class="cls-17" d="M526.7,806.1l-3.1,2.1Z"/><path class="cls-21" d="M448.8,719.3l-3.2,1.8Z"/><path class="cls-17" d="M225.9,796.7c-.1-.5-.3-1.1-.4-1.7.7,1.1,1.3,2.2,2,3.2Z"/><path class="cls-21" d="M270.8,737.8l1.9,3.2Z"/><path class="cls-21" d="M455.5,715.9l-1.8.4,2-1.1A1.9,1.9,0,0,1,455.5,715.9Z"/><path class="cls-21" d="M444.8,722.2l-2.2,1.9Z"/><path class="cls-21" d="M462,712.1l-2.4,1.1Z"/><path class="cls-21" d="M459.7,713.1l-2.1,1.2Z"/><path class="cls-21" d="M269.1,717.5l-1.8-1.2Z"/><path class="cls-21" d="M453.8,716.2l-2.2.9Z"/><path class="cls-21" d="M275.6,785l-1.1-2Z"/><path class="cls-17" d="M225.5,795.1l-.8-.3a8.4,8.4,0,0,1-.5-1.7Z"/><path class="cls-19" d="M443.4,751c.2-.4.3-.9.5-1.3S443.6,750.6,443.4,751Z"/><path class="cls-21" d="M270.5,718.2l-1.3-.7Z"/><path class="cls-21" d="M262.1,772.6l.7,1.3Z"/><path class="cls-21" d="M433,735.4a8.6,8.6,0,0,0-.7,1A8.6,8.6,0,0,1,433,735.4Z"/><path class="cls-19" d="M454.4,733l1.1-1.3Z"/><path class="cls-21" d="M442.7,724.1l-1.1,1Z"/><path class="cls-19" d="M181.3,788.4c-.2-.4-.5-.9-.7-1.4S181.1,788,181.3,788.4Z"/><path class="cls-21" d="M445.7,721.1l-1,1.2Z"/><path class="cls-1" d="M509.5,620.1v.9l-1.3-.4Z"/><path class="cls-23" d="M407.3,676.6c-3.6,6.5-10.4,8.8-16.6,10.9a90.9,90.9,0,0,1-31.2,4.7c-9.7-.1-18.6-2.7-27.3-6.4-2.1-.8-4.6-1.1-6.4-2.4s-2.8-3.7-4.1-5.5l1.6.4,3,2c21.4,14.6,56,13.7,77.5-2Z"/><path class="cls-1" d="M695.6,679l2.2.2c-.1.2-.1.5-.2.7l-2.1-.9Z"/><path class="cls-23" d="M241.6,644c-4.3-.9-8-2.3-8.7-7.3l1.3.7,1,1,2.6,2.4Z"/><path class="cls-23" d="M227.7,628.9l-5.4,1c.9-1.6,1.8-3.3,3.3-5.8C226.5,626.3,227.1,627.6,227.7,628.9Z"/><path class="cls-23" d="M218.5,636.9c-1.2,2.2-2.3,4.5-3.4,6.8C216.2,641.4,217.3,639.1,218.5,636.9Z"/><path class="cls-23" d="M230.8,633.9c-3.8,0-3.2-2.7-3.1-5Z"/><path class="cls-23" d="M222.3,629.8c.2,2.4.8,5-2.9,5.1C220.4,633.2,221.4,631.5,222.3,629.8Z"/><path class="cls-23" d="M215.1,643.7l-1.5,3.3Z"/><path class="cls-23" d="M219.5,634.9a21.2,21.2,0,0,0-1.1,2.1A21.2,21.2,0,0,1,219.5,634.9Z"/><path class="cls-23" d="M213.4,647.6a24.4,24.4,0,0,0-1,2.4A24.4,24.4,0,0,1,213.4,647.6Z"/><path class="cls-23" d="M232.9,636.7l-1.3-1.8Z"/><path class="cls-23" d="M231.7,635l-1-1.2Z"/><path class="cls-23" d="M321.7,677.9c-8-.7-16-1.3-23.9-2.1-1.2-.1-2.2-1.3-3.2-2,6.4.2,12.8.3,19.2.8,2.4.2,4.7,1.4,7.1,2.2Z"/><path class="cls-23" d="M292.6,673.3c-6.4,1.5-16.5-1.9-19.7-6.7Z"/><path class="cls-23" d="M272.9,666.7l-1.3-.8Z"/><path class="cls-1" d="M812.5,787l.4-1.3.4.3-.7,1Z"/><path class="cls-24" d="M250.2,717.8l-8.5-8,12.9,1.1h0l1.3.4h0c1.6,1.4,3,3.2,4.9,4.2s3.3,3,1.8,5.5l-1,1-10.3-3.6h0l-1.1-.6Z"/><path class="cls-23" d="M255.8,650.8l-9-4.1Z"/><path class="cls-23" d="M245.5,646l-2.7-1.4Z"/><path class="cls-23" d="M257.7,652.9l-2-2.1Z"/><path class="cls-23" d="M246.8,646.8l-1.3-.8Z"/><path class="cls-23" d="M242.9,644.7l-1.3-.7Z"/><path class="cls-23" d="M478.5,644.6c-2,5.1-6.4,6.4-11.1,7.3l6.3-4.7,1.9-1.2Z"/><path class="cls-23" d="M467.5,651.9l-2.1,1Z"/><path class="cls-23" d="M465.5,652.9l-2,1.1a1.9,1.9,0,0,1,.2-.8Z"/><path class="cls-23" d="M411.6,673.2l-3.3,2.7Z"/><path class="cls-20" d="M658.8,526.7c-.6.5-1.8,2.8-3.4,3.1-3.2.7-7.7-5.4-7.3-10.2.2-1.9,2.1-4.8,3.7-5.2C654.9,513.8,658.8,520.3,658.8,526.7Z"/><path class="cls-22" d="M679.5,512.3c7.4,6.8,8,13.7,2.2,25.1v.2l-3.5,3.6a.5.5,0,0,0-.5.3l-5.1,2.4a6,6,0,0,1,1-2.3c7.8-8.3,10.9-17.5,5.3-28.4C678.8,513,679.3,512.6,679.5,512.3Z"/><path class="cls-26" d="M672.6,543.9l5.1-2.4c1.3,2.2.7,3.8-1.8,3.3C674.9,544.7,672.4,548,672.6,543.9Z"/><path class="cls-26" d="M678.2,541.2l3.5-3.6C683.5,541.7,680.8,541.4,678.2,541.2Z"/><path class="cls-20" d="M302.6,484.4c.2,3.4-1.7,4.9-4.7,5.1s-8.3-3.9-8.2-7.7,1.6-5,4.8-5.1A8.1,8.1,0,0,1,302.6,484.4Z"/><path class="cls-22" d="M278.8,478.2c-5.1,10.5-5.2,12.1-.6,23.3-8.9-5.3-9-15.7-.2-24.4Z"/><path class="cls-22" d="M278,477.1a13.7,13.7,0,0,1,1.7-1.7,2.2,2.2,0,0,1,2.1-.4l-3,3.2Z"/><path class="cls-20" d="M342.6,539.1c5.1-9.2,29-11.2,34.2-3C365.4,537.9,354.4,541.1,342.6,539.1Z"/><path class="cls-20" d="M387.4,559.1l-7.9,6h-1c-4.6-.3-7.3-3-9-7.2v-3.6C375.5,561.9,376.9,562.3,387.4,559.1Z"/><path class="cls-22" d="M350.5,566.8c-4.5,2.7-8.7,1.9-12.7-.8a11,11,0,0,0,.2-1.8c7.6,2.5,12.6-.1,14.8-8.2l1.6,1.1Z"/><path class="cls-3" d="M369.5,558c1.7,4.2,4.4,6.9,9,7.2a2.9,2.9,0,0,1-.2.9c-2.5-1.1-5.2-1.8-7.3-3.4S366.3,560.7,369.5,558Z"/><path class="cls-26" d="M376.5,610l-.4-.2.5.2Z"/><path class="cls-1" d="M364.6,585a9.4,9.4,0,0,0,1,1h-1.1A3.4,3.4,0,0,1,364.6,585Z"/><path class="cls-24" d="M230.4,707.5l7.6.8v1.6l-7.6-.7Z"/><path class="cls-2" d="M255.9,711.3l-1.3-.4Z"/><path class="cls-2" d="M250.2,717.8l1.1.6Z"/></svg>