<svg id="Layer_1" data-name="Layer 1" xmlns="http://www.w3.org/2000/svg" viewBox="0 0 1050.9 1081.5"><defs><style>.cls-1{fill:#f8a479;}.cls-2{fill:#f7a379;}.cls-3{fill:#362c2a;}.cls-4{fill:#edebe8;}.cls-5{fill:#08b2ac;}.cls-6{fill:#ea7f36;}.cls-7{fill:#ef4143;}.cls-8{fill:#01a498;}.cls-9{fill:#f39064;}.cls-10{fill:#392f2c;}.cls-11{fill:#1ab3ac;}.cls-12{fill:#e97e35;}.cls-13{fill:#fff;}.cls-14{fill:#fcf2eb;}.cls-15{fill:#00a398;}.cls-16{fill:#f47d72;}.cls-17{fill:#241811;}.cls-18{fill:#faede3;}.cls-19{fill:#080706;}.cls-20{fill:#e7e5e4;}.cls-21{fill:#1d1d1d;}.cls-22{fill:#f6f5f5;}.cls-23{fill:#222221;}.cls-24{fill:#ecf5f5;}.cls-25{fill:#f9b9a8;}</style></defs><path class="cls-1" d="M387.9,828c-11.5-2.6-23.2-4.6-34.4-8.2a122.8,122.8,0,0,1-23.9-10.9c-13.2-7.6-16.7-20.9-18.7-34.8-4.7-33.8-5.7-67.9-4.4-102a496.3,496.3,0,0,1,7.5-69.9c5.8-13.3,16.9-19.4,30.6-21.2,7.3-1,14.8-.9,22.3-1.2,14.8,1.7,29,5.1,41.6,13.4,9.7,6.3,17.1,14.3,16.6,27-1.6,11-3.1,22-4.8,33-3.1,20.3-6.3,40.4-9.2,60.7-.7,5.3-2.9,12.2-.4,15.6s9.7,5,15.1,6.3c32.1,7.5,64.4,12.6,97.4,9.1,17-1.8,32.1-7.8,45-19.5,8.2-7.5,17.1-14.2,25.8-21.2a7.4,7.4,0,0,1,3.5-1.8c2.2-.2,5-.5,6.4.7s1.2,4.1.6,5.9-2.5,5.4-3.9,8c-3.3,5.6-6.7,11.1-9.8,16.8-1.8,3.2-.5,5.5,3.1,6.2a28,28,0,0,0,6.4.8c11.6-.5,22.8-2.4,33.8-7.8l-18.4-35.4c-1.9-3.6-3.9-7-6-10.4a4.1,4.1,0,0,0-2.6-1.9c-9.3-1.4-18.7-2.3-27.9-4.1-17-3.4-33.8-5.5-50.6.8a76.2,76.2,0,0,1-15.3,4.4c-2.3.4-5.8-1-7-2.8s.8-4.5,1.6-6.8,1.4-1.4,2.2-2l21.4-15.2-5.9,1.3c-9.6,1.8-19.2,4.2-28.9,5.1-13.8,1.2-14.7-.1-15.2-13.9.4-2.3.6-4.6,1-6.9,2.8-13.4,10.7-23.1,22.2-30.1,10.7-2.9,21.3-6.4,32.1-8.4,8.6-1.6,17.5-.8,26.2-2,16.2-2.1,31.7.5,47,5.2,9.8,4.4,19.7,8.6,29.4,13.2,7.3,3.4,12.9,8,15.9,16.4s9,16.9,13.7,25.2c.4.7,1.3,1,2,1.4.5,9.1,6.8,15.1,12.7,20.7,9.2,8.6,19.4,16.1,29.1,24.1,3.4,2.6,6.7,5.4,10.3,7.7,7.3,4.6,11.5,10.4,9.9,19.4-.6,6.6-2.3,13.4-1.8,20,.8,9.3,7.4,15.3,16,16.5,7.1,1,13.7-3.5,17.6-12a53.3,53.3,0,0,0,5.1-27.5c-1.4-9.6-2.7-19.1-4.1-28.7-.7-2.3-1-4.8-2.1-7-5.5-10.3-14-17.9-23.6-24.4a44.1,44.1,0,0,0-5.2-4.5c-7.6-5.2-9.2-12.4-7.3-21.5a40.3,40.3,0,0,0,4.7.6c9.9-.4,20,.3,29.6-1.7,7.4-1.6,14-6.5,21-9.9.6,17.3,2.1,34.6,1.6,51.9-.7,29.7-4.4,59.1-15.7,86.9-5.1,12.6-11.8,24.2-22.1,33.5-18,16.1-52.3,20-72.7-6.4a15.3,15.3,0,0,0-1.8-1.8l-32.9-55.6c-.1,2.2-.9,4.7-.2,6.7,3.4,9.8,1,19-3.9,27.2s-12.6,17.8-19.1,26.6c-6.6,4.6-13,9.9-20.1,13.6-4.7,2.4-10.5,3.3-15.8,3.6-27.4,1.8-54.8,3.1-82.1,4.6l-31.9,2.1L449.9,832c-4.8-.2-9.6-.3-14.4-.6ZM615.4,622.9c.1-1.1.3-1.7.1-2.1a2.8,2.8,0,0,0-1.2-1.4,64.5,64.5,0,0,0-28.1-7.3c-1,0-1.9,1.3-2.9,2a16.5,16.5,0,0,0,3.1,1.8l25.3,6.4C612.9,622.6,614.1,622.7,615.4,622.9Zm-177,130.4.6-1.9a10.5,10.5,0,0,0-3.5-2.1c-7.5-1.9-15-3.6-22.6-5.2-1.2-.2-2.5.4-3.8.7.7.9,1.3,2.4,2.2,2.7a108,108,0,0,0,14.7,4.4C430.1,752.8,434.3,752.8,438.4,753.3Zm11-2.1-2.4,1.9c.6.6,1.2,1.7,1.9,1.8,8.4.8,16.8,1.5,25.2,2,.9.1,1.8-1,2.7-1.5-.8-.8-1.6-2.1-2.5-2.2Zm108-140.1v-.8c-5.7,1-11.4,1.8-17.1,2.9-.8.2-1.5,1.5-2.2,2.3.9.5,1.8,1.5,2.7,1.4,8.1-.5,16.2-1.2,24.2-2,.9-.1,1.7-1.2,2.5-1.8-.8-.6-1.6-1.8-2.5-1.9C562.4,611,559.9,611.1,557.4,611.1Zm20.7,110.3-1.2-.3c-3.5,3.3-6.8,6.8-10.5,9.7a122.9,122.9,0,0,1-11.3,7.5l1.3,1.8c9.2-1.6,15.3-8.2,21.4-14.9C578.4,724.5,578,722.7,578.1,721.4ZM315.9,670.8h-.1c0,2-.1,4,.1,6s1,1.8,1.6,2.7c.7-.9,2-1.7,2.1-2.6.5-7.8.9-15.6,1.1-23.5.1-.9-1.1-1.9-1.8-2.9-.6.9-1.8,1.9-1.9,2.9C316.5,659.2,316.3,665,315.9,670.8Zm9.5-60.4-1.5-2.3c-.8.8-2,1.6-2.1,2.6q-1.7,9.6-2.7,19.2c-.1,1.1,1.1,2.3,1.7,3.5.7-1,1.9-1.8,2-2.9C323.8,624.1,324.5,617.7,325.4,610.4ZM335,641a22.4,22.4,0,0,0,.1,4.5c.1.7,1.1,1.3,1.7,2s1.9-1.2,1.9-1.9c.5-4.7.8-9.5.9-14.3,0-.8-1.3-1.5-2-2.3-.6.7-1.6,1.4-1.7,2.1C335.5,634.4,335.3,637.7,335,641Z"/><path class="cls-2" d="M513.6,423.8c4.4-14,8.1-28.1,13.3-41.7,3.3-8.6,8.9-16.3,13.5-24.5-11.1-11.2-12.5-21.3-4.2-37.9,2.9-5.9,7.1-11.2,10.7-16.7l4.6-2.7c.5,3.3,1.8,4.6,5.2,3s6.6-2,9.6.9c-3.6.5-7.6.2-10.6,1.8-12,6.5-17.4,17.4-17.6,30.8a13,13,0,0,0,7.1,12.3c1.2.7,3.1,0,4.8-.1a42.7,42.7,0,0,0-1.8-4.3c-1.4-2.7-4.1-5.2-4.2-7.9-.5-11,4.2-19.7,13.4-25.6,5.2-3.3,8.2-1.8,10.2,3.8.6,1.5,2.3,2.6,3.5,3.8.7-1.6,1.3-3.3,2-5s2.5-3.1,2.2-4.2c-1.5-5.4-4.8-9.5-10.5-10.6-3.3-.6-6.8-.3-10.1-.4,6.8-4.4,14.2-3.8,18.9,1.4s5.8,13.2.8,19.8c-3.2,4.2-6,8.8-8.9,13.2l1.5,2c4.2-1.5,8.6-2.6,12.6-4.5,14.8-7,29.2-14.7,44.1-21.2,11-4.8,22.7-8.2,34.2-12.3,1,2.3,1.5,3.3,2,4.3a270.4,270.4,0,0,0,76.5,99.1c5.4,4.4,6.2,8.3,4.8,14.4-2.7,11.7-9.6,20.6-17.4,29.1l-37.4,29.3a13,13,0,0,0-1.9,2.2l-16.7,14.5-25.8,18-9.2,3.9-19.9,6.1c-12.7,2-25.3,3-38.1,1.1-22.8-3.3-38.9-15.9-50-35.4-9.5-16.7-12-35-10.9-53.9A56.8,56.8,0,0,0,513.6,423.8Zm94.9,30.1c-4.5,2.9-6.9-.5-9.8-2.9-1.1-.9-3-.8-4.5-1.1.1,1.6-.3,3.6.5,4.7,6.6,9.1,16.5,8,21.6-2.1s9.8-18.4,14.5-27.7c.6-1.3,0-3.2,0-4.7-1.4.4-3.4.4-4.2,1.4-2.9,3.8-5.5,7.9-8.2,11.8-.4-1.4-.9-2.9-1.4-4.8-1.1.7-2.2.9-2.4,1.5-3.1,6.8-6.1,13.6-8.8,20.6C605.5,451.2,607.5,452.8,608.5,453.9Zm-13-42.4a144.4,144.4,0,0,0-8.5-12.2,10.7,10.7,0,0,0-6.1-3.2c-2.6-.5-3.4-1.4-4.2-3.9s-3.3-5-5.2-7.5c-.8-.9-2.1-1.6-2.7-2.6-2.3-4.3-6-5.4-10.4-4.4s-6.7,4.6-6.5,9.3a175.4,175.4,0,0,0,1.2,17.8c.2,2.1,1.8,4.9,3.4,5.6,3.4,1.4,3.6,3.6,3.4,6.3-.4,5.1,2.3,8,6.6,10.1a7.8,7.8,0,0,1,3.6,3.6c3.6,7.3,9.7,8.8,15.6,3.1S593.6,420.7,595.5,411.5ZM663,487.2c-.7-6.6-1.6-11.8-6.6-13.7s-7.1-5.1-8.8-9.6c-3-7.9-11.3-9.6-15.9-3.3-2.7,3.5-6,6.6-8.9,10-5.2,6.5-3.5,13,4.2,16.4a6.2,6.2,0,0,1,2.2,1.7c6.5,8.7,19.9,10.7,28.5,4A51.6,51.6,0,0,0,663,487.2Zm-61.1-140-5.1,2.9c1.6,1.6,2.8,4.1,4.7,4.7,9.8,3.4,17.9,9.3,25.2,16.4a47.6,47.6,0,0,0,9.5,7.2c1.4.9,3.6.3,5.4.4-.1-1.9.5-4.2-.4-5.6a50.5,50.5,0,0,0-7.1-8.9C625.5,355.8,615.7,349.1,601.9,347.2ZM698,450.7a43.8,43.8,0,0,0-1.2-5.3c-5.2-13.4-15-22.4-27.5-28.8a4.5,4.5,0,0,0-2.4-.6c-1.5.2-3.4.4-4.3,1.4s-.2,3,.6,4a28.5,28.5,0,0,0,6,6.5c9,6.5,17.1,13.6,21.9,24,.6,1.3,2.7,1.9,4.1,2.9C696.3,453.3,697.3,451.7,698,450.7Zm-138.1,1.5c.6,19.8,22,37,41.2,32.7,1.3-.2,2.2-1.9,3.3-2.9a23,23,0,0,0-3.7-2.3c-.6-.3-1.6.1-2.4.2-21,1.1-35-15.6-30.3-35.9.3-1.1-.8-2.5-1.2-3.8-1.3.6-3.3.8-3.6,1.7C561.8,445.2,561,448.7,559.9,452.2ZM585,377.7c.6,12.8,11.2,23.6,24.7,24.4,1.8.1,4.9-1,5.1-2,.8-3.6-2.3-3-4.5-3.3-14.3-1.5-21.9-13.1-17.5-26.4.4-1.2-.5-2.9-.7-4.3-1.5.7-3.7,1.1-4.2,2.2C586.5,371.2,585.9,374.5,585,377.7ZM673.7,464c1.3,0,2.8.4,3.9-.1s2.3-1.8,3.4-2.7a16.1,16.1,0,0,0-3.5-2.5c-.8-.4-1.9.1-2.9.1-12.5-.1-22.1-10.8-19.8-22.1.4-2.3,2.6-5.7-1.6-6.2-1.1-.2-2.8,3.6-4.1,5.7-.4.4-.2,1.3-.2,1.9C647.9,452.1,659.1,463.8,673.7,464ZM579.2,341.9l7.2-3,16-6.8c.9-.4,1.3-1.7,2-2.5-1-.4-2.2-1.5-2.8-1.2-7.7,3.1-15.4,6.4-23,9.7a2.9,2.9,0,0,0-1.4,2.2C577.3,341,578.5,341.5,579.2,341.9ZM628,323.1c6.1-1.8,11.5-3.3,16.9-5,.8-.2,1.2-1.6,1.8-2.5-1.2-.3-2.4-1.3-3.4-1q-7.8,1.9-15.3,4.5c-.9.3-1.4,1.5-2.1,2.3Z"/><path class="cls-3" d="M551.5,300.3l-4.6,2.7c10.2-25.7,22.5-50.4,40-72.1,11.7-14.4,26-25.3,44.9-28.4,10.1-1.7,19.6-.5,27.1,8.1,17.8-9.3,35.9-6.3,54.1-.8s33.4,11.3,47.2,22.8c5.8,4.8,10.8,10.8,15.5,16.8a19.5,19.5,0,0,1,3.5,18.7c15,9.1,25.1,22.1,29.6,39s5.1,33.2-5.5,48.6a67.2,67.2,0,0,1,5.3,8.4c5.2,10.5,1.5,21.9-8.6,27.9a6.5,6.5,0,0,0-2.4,4.5c-.1,11.5-3,22-10.1,31.2s-13.3,10.1-22.8,7.3c-4.8,7.8-12.6,9.6-21,9.6-6.6.1-13.3-.4-19.9-.7,7.8-8.5,14.7-17.4,17.4-29.1,1.4-6.1.6-10-4.8-14.4a270.4,270.4,0,0,1-76.5-99.1c-.5-1-1-2-2-4.3-11.5,4.1-23.2,7.5-34.2,12.3-14.9,6.5-29.3,14.2-44.1,21.2-4,1.9-8.4,3-12.6,4.5l-1.5-2c2.9-4.4,5.7-9,8.9-13.2,5-6.6,4.9-13.5-.8-19.8s-12.1-5.8-18.9-1.4h0a11.8,11.8,0,0,0-1.9,1.1h0l-1.2.5Zm232.9,75.5c-20.4-7.7-41-15.2-59.3-27.4s-33-28.5-47.5-45.6c-2.3,8.3,14,31.7,31.7,45.9C731.1,366.1,755.5,377.4,784.4,375.8Zm-4-61.3,1.9-1.5c-1.7-4.1-2.9-8.5-5.2-12.1-13.5-21.3-33.1-33.5-57.6-37.7-3.6-.6-8-1.7-12.8,2.6C737.2,274.3,760.8,291.4,780.4,314.5Zm-30.9,8.9c-4.6-22.8-50-50.2-77.1-41.7,3.5,1.4,5.7,2.6,8,3.2,24,7,45.5,18.4,63.7,35.6C745.4,321.8,747.3,322.3,749.5,323.4Zm11.2-62.5a25.6,25.6,0,0,0,1.1-2.4c-13.9-19.5-34.1-27-57-28.2-8.5-.5-17.6.3-24.9,6.9C709.4,236.5,736.2,244.8,760.7,260.9ZM716.4,322c13.1,18.3,71.2,23.5,79.5,12.2-2.7-.4-5-1-7.4-1.2-6.1-.5-12.3-.2-18.3-1.3-15.6-2.8-31.1-6.2-46.6-9.3A47.5,47.5,0,0,0,716.4,322ZM580.8,280.2c1.7-2.3,3.2-3.9,4.3-5.7,11-18.4,23.7-35.2,40.4-48.8,1.8-1.5,3-3.7,4.9-6C611.2,218.1,575.7,259.5,580.8,280.2Zm79.8-61.7-2.4-.5c-.8,1.3-2,2.5-2.4,4-2,7.4-4.6,14.9-5.4,22.5-1.3,13.2-1.5,26.5,3.4,39.3.4,1.3,1.6,2.2,2.5,3.4l1.7-.6Q659.8,252.5,660.6,218.5ZM786,396.1l-53-14.9C737.1,396.4,773.3,405.4,786,396.1ZM635.5,280.7c-6.1-1.1-41.6,20.5-43.3,26.4C603.3,311.3,632.5,293.2,635.5,280.7Zm1.6-32.5-.6-1.3c-2.4.3-5.1-.2-7,.9-6.1,3.4-12.5,6.8-17.8,11.2s-6.5,8-9.2,12.3c-.8,1.2,0,3.4,0,5.1,1.3-.2,3.1.1,4-.7,9.5-7.9,18.9-16,28.2-24.2C635.7,250.7,636.3,249.3,637.1,248.2Zm8.8-34.2,2-1.2c-.7-.9-1.3-2.3-2.3-2.7-11.9-4.5-32.9,1.7-40.9,12.2-.6.8-.5,2.2-.8,3.4,1.2-.3,2.5-.2,3.4-.8s3.6-3.5,5.6-5C622.6,212.9,633.4,211.2,645.9,214Zm67.8,9.1.3-1.4a9,9,0,0,0-1.5-1.8c-12.1-7.1-24.9-8.9-38.4-4.9-.7.2-1.1,1.6-1.7,2.4,1,.3,2,1,2.9.9,2.7-.2,5.2-1.1,7.9-1.3a44.4,44.4,0,0,1,26.4,5.5C710.7,223.1,712.3,222.9,713.7,223.1Zm-19.2,26.2c-5.2,1-12,2.4-18.8,4-1,.2-1.7,1.9-2.5,2.9,1.2.2,2.5.9,3.5.6a60.1,60.1,0,0,1,32-1.9c1,.2,2.2-.7,3.3-1.1-1-.9-1.8-2.4-2.9-2.6C704.9,250.4,700.6,250,694.5,249.3Zm97.6,62.5-1,.4c-.2,2-.5,4-.5,5.9a18.6,18.6,0,0,0,1,3.9c.9-1.1,2.3-2.2,2.5-3.4,1.9-9.2,0-17.8-4.6-25.9-.5-.9-2.1-1.3-3.2-1.9a12.1,12.1,0,0,0,.1,3.8C788.2,300.4,790.2,306.1,792.1,311.8Zm-28.7-66.9a4.8,4.8,0,0,0-.5-1.2c-5.8-8.6-13.9-14.2-23.7-17.3-.6-.1-1.5.9-2.3,1.3s.8,2,1.4,2.2a44.3,44.3,0,0,1,21.8,16,2.7,2.7,0,0,0,2.1.7C762.8,246.3,763.1,245.4,763.4,244.9ZM592.7,270.1a9.1,9.1,0,0,0,2.4-.9c5.6-7.8,12-14.9,20.7-19.6.6-.3.5-1.8.8-2.8s-2.3-.4-3.1.1a51.4,51.4,0,0,0-20,18.7C592.9,266.6,593.1,268,592.7,270.1Z"/><path class="cls-4" d="M765.8,706.3c1.4,9.6,2.7,19.1,4.1,28.7-3.6-.3-7.3-1.1-10.7-.5s-6.6,2.6-9.9,4.2c-5.6,2.7-10.9.7-16.3-.7,1.6-9-2.6-14.8-9.9-19.4-3.6-2.3-6.9-5.1-10.3-7.7a60,60,0,0,0-8-36.4c-2.8-5.2-7.6-8.8-13.6-9.2s-13.5.5-20.2.8c-.7-.4-1.6-.7-2-1.4-4.7-8.3-10.4-16.3-13.7-25.2s-8.6-13-15.9-16.4c-9.7-4.6-19.6-8.8-29.4-13.2,2.6-3.3,5.2-6.7,7.9-10,3.7,1,7.4,2.7,11.1,3,5.3.3,9.3,1.9,12.2,6.5a32.8,32.8,0,0,0,3.2,4.4c2.4,3,5.4,4.4,9.2,3.2s5.9-4.1,6.4-8.1-1.4-9.5-4.8-13.1c-5.5-6-11.1-11.9-16.7-17.8a11.7,11.7,0,0,0-10.8-4l1.2-12c5.6.5,11.1,1.1,16.7,1.4l24.5.9c.6-1.5,1.3-2.9,1.9-4.4,7.6-3.7,15.9-6.3,22.4-11.3s13.6-7.2,21.7-4.8,16.2-.4,22.2-7.1c2.7-3.1,5.2-6.5,7.9-9.6S754,519,757.9,515c8.4,3.9,16.9,7.8,25.3,11.9a51.3,51.3,0,0,1,5.7,3.8,55.1,55.1,0,0,0-20.3,22c-5.8,11.2-4.7,17.4,3.9,26.5,3.9,4.2,6.7,8.8,6.6,14.6-.1,7.5-.2,15-.5,22.4s.6,13.6,4.3,19.7v2c-7,3.4-13.6,8.3-21,9.9-9.6,2-19.7,1.3-29.6,1.7a40.3,40.3,0,0,1-4.7-.6c-1.9,9.1-.3,16.3,7.3,21.5a44.1,44.1,0,0,1,5.2,4.5c-4,2.3-5.3,5.9-5.4,10.4-.2,8.3,4.6,14,9.8,19.4C751.5,712.2,757.7,712.6,765.8,706.3ZM697.9,593.9h0c.4,3.6.8,7.1,1.1,10.6.5,1.7,1,3.5,1.4,5.2-1.9,3.5-.6,10.3,2.9,14.2s11.4,6.8,18,6.8c3.6,0,8.4-.7,9.5-6l.8-.9c3.8-.2,8.5,1.7,10.3-3.9,5.6,3.5,11.2,7,16.9,10.3,1,.6,2.6.4,3.9.6-.7-1.3-1-3-2.1-3.7-4.8-3.4-9.9-6.5-14.9-9.7l-.6-8.9c4.9,1.3,9.7,2.8,14.7,4,1.3.3,2.8-.3,4.2-.4-1-1.1-1.9-2.7-3.1-3.1-6.6-1.9-13.3-3.5-20-5.3l-10.8-3.6a.8.8,0,0,1-.4-.8c5.9-5.1,7.3-12.2,9-19.2.2-1.1-1.4-3.3-2.6-3.7s-4.2-.1-4.9,1c-3.7,5.3-6.9,11-10.3,16.6l-2.9.2-4.3-3.2c-6.2-5.6-12.4-11.4-18.8-16.9-.9-.7-2.8-.2-4.2-.3.7,1.1,1.2,2.5,2.2,3.3,3.2,2.8,6.6,5.4,10,8.1-1.1,1.6-2.1,3.2-3.1,4.8l-1-.3-1.1-.7a.9.9,0,0,1-.9-.3l-1.1-.7a.9.9,0,0,1-.9-.3l-1.1-.7c-3-1.3-5.9-2.8-9-3.9-1-.4-2.4.1-3.7.2.8,1.1,1.3,2.6,2.3,3.1,4.5,2.5,9.1,4.6,13.6,6.9Zm8-36.1-2.3-3.5c-1.2,1.7-3.3,3.3-3.5,5.1a14.4,14.4,0,0,0,7.4,14.6c5.5,3.3,11.2,2.9,16.3-.7,1.3-.9,1.5-3.3,2.3-5.1-1.7.2-3.7-.2-5,.5-3.7,2.1-7.2,2.7-10.8.6S705.3,563.7,705.9,557.8Zm55.2,43.4c3.5-1.9,7.2-3.6,10.4-6,1-.7.8-3.3,1.2-5-1.7.4-3.7.4-4.9,1.3-3.3,2.6-6.7,4.4-11,2.5s-5.6-4.7-6.1-8.9c-.2-1.5-1.8-2.8-2.8-4.2-.9,1.5-2.6,3.1-2.6,4.6C745.2,593.6,752.3,600.2,761.1,601.2Z"/><path class="cls-5" d="M366.9,579.8c-7.5.3-15,.2-22.3,1.2-13.7,1.8-24.8,7.9-30.6,21.2,1.2-8.1,2.5-16.3,3.8-24.4l.9,3.1,53.8-30.4c6.7-3.7,8.4-9.4,4-15.2-8.2-10.5-16.5-21-24.8-31.4l18.2-17.8c.4,1.8.4,3.7,1.1,5.3a75.3,75.3,0,0,0,4.1,7.3l-.2.2.2-.2c1.3,3.3,2.2,6.8,4,9.8,4.5,7.7,9.1,15.4,14.1,22.7s9.7,10,17.2,2.6a46.3,46.3,0,0,0,6.4-8.2c9.9-15.3,19.4-30.8,27.4-47.3,3.4-7.2-.2-13.6-7.6-13.5l1.3-.7,3.9-2.7c-1.6-.2-3.3-.9-4.7-.5-6.6,1.9-13.1,4-19.7,6.1l-2.5,1.1.2.2c-4.3.9-8.6,1.7-12.8,2.7l-15.7,3.8c16.2-10.4,34.2-16.3,52.7-20.7,5.8-1.4,11.7-2.1,17.6-3.1.4,1.7.6,3.5,1.1,5.2,2.1,6.1,4.6,12,6.5,18.2s6.9,9.7,14.1,6.2c4.1-2,8.1-4.4,12.2-6.4.5-.2,1.5.7,2.2,1.1a80.3,80.3,0,0,0,.4,9.8c1.6,10.8,8.7,18.1,16.4,24.9l8,11.8,25,36-16.7,3.3L516,563c-6.2-9.4-12.2-18.9-18.7-28-8.6-12-17.5-23.7-26.4-35.5-2.4-3.2-5.8-3.6-8.9-1.5a43.5,43.5,0,0,0-9.7,8.4c-10,12.8-19.5,25.9-29.3,38.8-5.8,7.8-5.8,9.8,1.2,16.6,9.8,9.4,14.5,22,21.6,33.1L435,606.1l-5.8,7c-1.4-2.5-3.5-4.9-4.1-7.6-3.4-16.2-8.3-31.9-15.8-46.8-3.1-6.2-8.3-7.4-13.7-3l-25.8,20.9A22.1,22.1,0,0,0,366.9,579.8Z"/><path class="cls-4" d="M387.9,828l47.6,3.4c4.8.3,9.6.4,14.4.6,9,9.2,17.7,18.8,27.2,27.4a99.7,99.7,0,0,0,31,19.7c-.9,10.6-.3,21,5,30.5,6.2,11.2,19.6,15.6,30.2,9.7,4.1-2.3,6.4-1.6,9.3,1.7,7,7.7,17.5,5.5,21.1-4.2.7-1.9,1-3.9,1.5-5.8,12.7,4.4,19.5-.3,17.3-12.1,1-.6,2-1.7,3.1-1.8l30.7-2.2c7.2-.5,14.6-.8,21.6-2.3s12.8.4,18.9,2.6c1.4.6,3.2,3.2,2.9,4.5-.9,4.1-2.7,8.1-4.1,12.2-2.4-5.6-5.8-10.2-12.4-9.6-12.1.9-24.1,1.9-36,3.9-4.2.7-9.3,3.2-11.5,6.6-5,7.7-5.9,16.9-5.7,26.1-10.9.3-21.8,1.3-32.7.9-21.5-.7-42.7-4-63-11.6-6.3-2.3-12.5-5-18.8-7.4,7-4,10.8-9.6,9.2-18-1.3-6.9-7.7-12.6-15.6-14-2.3-.4-4.6-.6-6.9-.9-2.9-9.3-9.2-15-18.9-15.9-4.7-.4-6.2-2.2-6.4-6.7-.5-10-5.3-18-15-20.9-7.3-2.1-15.3-2.5-23.1-2.6-4-.1-8,2-12.1,3.2Z"/><path class="cls-6" d="M782.9,635.9c-3.7-6.1-4.6-12.7-4.3-19.7s.4-14.9.5-22.4c.1-5.8-2.7-10.4-6.6-14.6-8.6-9.1-9.7-15.3-3.9-26.5a55.1,55.1,0,0,1,20.3-22l6.4,5.6c7.6-3.4,14.6-7.5,22.2-9.6s15.3-2.8,23-3.1c5.8-.2,8.6,3.2,9.2,9.1s-1.3,13.8-4.6,20.1c-5.9,11.6-15,20.7-24.4,29.5-1.8,1.7-2.8,4.5-3.7,7s-1.8,7.9-3.6,11.4c-6.9,13.3-16.5,24.5-27.8,34.3C784.9,635.6,783.8,635.6,782.9,635.9Zm59.6-104.2a7.1,7.1,0,0,0-2,.2c-14.1,3.2-26.1,10.5-37.1,19.6a5.5,5.5,0,0,0-1.2,4.9c3.2,7.2,6.7,14.4,10.3,21.4,1.5,2.9,3.7,2.7,6,.4,4.3-4.3,9-8.4,13.2-12.9,7.4-8,13.2-17,14.9-28.2C847.1,534,846.9,531.2,842.5,531.7ZM822.9,530c-.1-.5-.1-.9-.2-1.4s-2.8-.9-3.8-.4c-5.8,2.7-11.5,5.7-17.1,8.8-.8.5-.8,2.4-1.2,3.6a12.8,12.8,0,0,0,3.5-.7c5.3-2.6,10.6-5.3,15.8-8.1C820.9,531.3,821.9,530.6,822.9,530Zm10-1a17.8,17.8,0,0,0,4.2-.3c.9-.2,1.5-1.3,2.2-2.1s-1.7-1.5-2.5-1.5a47.5,47.5,0,0,0-8.4.6,7.9,7.9,0,0,0-2.5,1.7,11.7,11.7,0,0,0,2.8,1.7C829.6,529.4,830.7,529.1,832.9,529Z"/><path class="cls-7" d="M474.2,282.3c2.5-4.3,4.6-8.6,7.3-12.5,4.8-7.3,11.9-10,19.3-8a17.1,17.1,0,0,1,12.8,16.6,73.2,73.2,0,0,1-16.9,48.4,12.7,12.7,0,0,1-13.9,4.4c-18-4.8-32.1-14.7-39.7-32-5-11.4-.2-21.6,11.2-24.3,3.6-.8,8,.5,11.8,1.8S471.5,280.3,474.2,282.3Z"/><path class="cls-8" d="M386.6,474.8l15.7-3.8c4.2-1,8.5-1.8,12.8-2.7a23.7,23.7,0,0,0-3.3,2.2,38.6,38.6,0,0,0-3,3.8c1.6-.3,3.3-.2,4.8-.8,7.7-2.8,15.3-5.8,23-8.7,7.4-.1,11,6.3,7.6,13.5-8,16.5-17.5,32-27.4,47.3a46.3,46.3,0,0,1-6.4,8.2c-7.5,7.4-12.1,4.8-17.2-2.6s-9.6-15-14.1-22.7c-1.8-3-2.7-6.5-4-9.8.8-.2,1.7,0,2.3-.4l14.9-12.2c.7-.6.8-1.9,1.1-2.8s-2.4-.6-3.1-.1c-4.8,3.6-9.4,7.2-13.9,11.2-1,.8-.9,2.8-1.3,4.3a75.3,75.3,0,0,1-4.1-7.3c-.7-1.6-.7-3.5-1.1-5.3Z"/><path class="cls-9" d="M509.8,510c-7.7-6.8-14.8-14.1-16.4-24.9a80.3,80.3,0,0,1-.4-9.8c3.6-9.5,7.3-18.9,10.9-28.3,3.2-7.8,6.5-15.5,9.7-23.2a56.8,56.8,0,0,1,.3,5.9c-1.1,18.9,1.4,37.2,10.9,53.9,11.1,19.5,27.2,32.1,50,35.4,12.8,1.9,25.4.9,38.1-1.1l-6.1,5.7-18.9,6.5c-5.8.2-11.6.8-17.3.5C548.5,529.2,528,522.9,509.8,510Z"/><path class="cls-10" d="M757.9,515c-3.9,4-7.9,8-11.7,12.1s-5.2,6.5-7.9,9.6c-6,6.7-13.1,9.9-22.2,7.1s-14.7-.6-21.7,4.8-14.8,7.6-22.4,11.3c2.3-5.6,4.7-11.2,7-16.9l18.4-21.4a7.3,7.3,0,0,0,1.4-3.1c1.4-9.2,2.7-18.4,4.1-27.6,1-2.5,1.9-5,2.9-7.6,3.2-7.7,7.1-15,14.1-20s11-4.3,16.2,2.2c8.6,10.8,12.2,23.4,13.7,36.8C750.4,508,750.5,513.7,757.9,515Zm-23.5-14.5a46.5,46.5,0,0,0-.5-7.5c-2-8.4-4-16.7-6.4-25-1.1-3.7-3.8-4.5-6.6-1.4a51.7,51.7,0,0,0-6.1,7.2c-8.3,12.8-9.8,27.4-11.1,42-.1.9,2.2,2.9,3.4,2.9a93,93,0,0,0,14.8-1.6C734.5,514.5,735.3,513.3,734.4,500.5Zm-52,49.9c1.3-1,2-1.3,2.2-1.8a43.4,43.4,0,0,1,13.5-17.1c.5-.3.2-1.6.3-2.5s-2.1-.5-2.7-.1a38.3,38.3,0,0,0-14,17.8C681.4,547.5,682,548.7,682.4,550.4Z"/><path class="cls-8" d="M351.7,503.9c8.3,10.4,16.6,20.9,24.8,31.4,4.4,5.8,2.7,11.5-4,15.2l-53.8,30.4-.9-3.1C322.8,550.3,333.1,525.2,351.7,503.9Z"/><path class="cls-6" d="M396.7,845c4.1-1.2,8.1-3.3,12.1-3.2,7.8.1,15.8.5,23.1,2.6,9.7,2.9,14.5,10.9,15,20.9.2,4.5,1.7,6.3,6.4,6.7,9.7.9,16,6.6,18.9,15.9-9.3,1.4-18.9,2.3-25.2,10.8-18.8-13.4-34.1-30.3-47.2-49.3Z"/><path class="cls-6" d="M575.2,911c-.5,1.9-.8,3.9-1.5,5.8-3.6,9.7-14.1,11.9-21.1,4.2-2.9-3.3-5.2-4-9.3-1.7-10.6,5.9-24,1.5-30.2-9.7-5.3-9.5-5.9-19.9-5-30.5l35.4,12.7a65.5,65.5,0,0,0,4.9,5.6c1.9,1.9,5.2,3.1,6,5.3,1.4,4.1,4,4.9,7.6,4.3A15.9,15.9,0,0,1,575.2,911Z"/><path class="cls-6" d="M600,938.9c-.2-9.2.7-18.4,5.7-26.1,2.2-3.4,7.3-5.9,11.5-6.6,11.9-2,23.9-3,36-3.9,6.6-.6,10,4,12.4,9.6-5.5,7.3-13.3,11.4-21.3,15.1C630.3,933.5,615.2,936.5,600,938.9Z"/><path class="cls-11" d="M616.1,806.9c6.5-8.8,13.5-17.3,19.1-26.6s7.3-17.4,3.9-27.2c-.7-2,.1-4.5.2-6.7L672.2,802c-7.2.9-14.4,2-21.7,2.6C639.1,805.5,627.6,806.2,616.1,806.9Z"/><path class="cls-7" d="M386.2,334.9c1.2-3.1,2.1-6.2,3.4-9a9.4,9.4,0,0,1,10.1-5.8,9.5,9.5,0,0,1,8.9,7.6,40.9,40.9,0,0,1-4.2,30.4c-1.2,2.2-4.7,4.3-7.1,4.2-11.4-.3-21.1-4.6-27.5-14.5-3.2-4.9-2.6-9.3,1-12.7s6.4-4.2,10.4-2.4Z"/><path class="cls-8" d="M503.9,447c-3.6,9.4-7.3,18.8-10.9,28.3-.7-.4-1.7-1.3-2.2-1.1-4.1,2-8.1,4.4-12.2,6.4-7.2,3.5-11.8,1.2-14.1-6.2s-4.4-12.1-6.5-18.2c-.5-1.7-.7-3.5-1.1-5.2Z"/><path class="cls-7" d="M797.4,478.2c2.7-1.3,5-2.4,7.3-3.3a8.6,8.6,0,0,1,10.4,2.2,8.4,8.4,0,0,1,1.2,10.6,36.1,36.1,0,0,1-22.5,17,8.4,8.4,0,0,1-6.7-1.8,29.3,29.3,0,0,1-8.8-25.5c.6-4.4,2.8-8.3,8.1-8.8s7.8,1.5,10,7.1Z"/><path class="cls-10" d="M447,898.7c6.3-8.5,15.9-9.4,25.2-10.8,2.3.3,4.6.5,6.9.9,7.9,1.4,14.3,7.1,15.6,14,1.6,8.4-2.2,14-9.2,18-6.1-2.9-12.4-5.4-18.2-8.7S453.8,903.2,447,898.7Z"/><path class="cls-7" d="M392.9,244.9c.7-2.4.7-4.9,2-6.4s4.4-4.6,7-5.2,6.3,1.7,7.4,5.3a29.2,29.2,0,0,1-1.4,22.3c-.9,1.9-3.9,3.7-6.1,3.9-6.5.6-12.4-1.9-17.4-6s-5.9-8.1-3.8-11.7S386,242.4,392.9,244.9Z"/><path class="cls-10" d="M575.2,911a15.9,15.9,0,0,0-13.2-4c-3.6.6-6.2-.2-7.6-4.3-.8-2.2-4.1-3.4-6-5.3a65.5,65.5,0,0,1-4.9-5.6c15.1,1.7,30.2,3.3,45.4,5.2,1.2.1,2.4,1.3,3.6,1.9C594.7,910.7,587.9,915.4,575.2,911Z"/><path class="cls-7" d="M480.7,390.6c1.3-1.8,1.9-3.6,3.2-4.4s5.1-2.9,6.8-2.2,4.5,3.8,4.6,6a23.1,23.1,0,0,1-6.7,17.2c-1.3,1.3-5.1,2.1-6.6,1.2a47.1,47.1,0,0,1-11.2-8.6c-2.6-2.9-3.8-7-.5-10.4S477.2,387.4,480.7,390.6Z"/><path class="cls-11" d="M705.8,483.3c-1,2.6-1.9,5.1-2.9,7.6l-35.1-1,16.7-14.5Z"/><path class="cls-4" d="M429.2,613.1l5.8-7,12.8,17.1c-9.5,15.2-2.3,25.3,12.9,27.3,6.9.9,13.9,1.1,20.8,1.6.5,13.8,1.4,15.1,15.2,13.9,9.7-.9,19.3-3.3,28.9-5.1l5.9-1.3-21.4,15.2c-.8.6-1.9,1.1-2.2,2s-2.6,5.6-1.6,6.8,4.7,3.2,7,2.8a76.2,76.2,0,0,0,15.3-4.4c16.8-6.3,33.6-4.2,50.6-.8,9.2,1.8,18.6,2.7,27.9,4.1a4.1,4.1,0,0,1,2.6,1.9c2.1,3.4,4.1,6.8,6,10.4L634.1,733c-11,5.4-22.2,7.3-33.8,7.8a28,28,0,0,1-6.4-.8c-3.6-.7-4.9-3-3.1-6.2,3.1-5.7,6.5-11.2,9.8-16.8,1.4-2.6,3.1-5.2,3.9-8s.6-5-.6-5.9-4.2-.9-6.4-.7a7.4,7.4,0,0,0-3.5,1.8c-8.7,7-17.6,13.7-25.8,21.2-12.9,11.7-28,17.7-45,19.5-33,3.5-65.3-1.6-97.4-9.1-5.4-1.3-12.4-2.5-15.1-6.3s-.3-10.3.4-15.6c2.9-20.3,6.1-40.4,9.2-60.7,1.7-11,3.2-22,4.8-33Zm49.7,117c10.8,0,18-3,21.8-11.1s-.5-13.4-5.5-18.7c-9.1-9.9-18.3-19.8-27.5-29.6a42.2,42.2,0,0,0-6.4-5.5c-8.1-5.6-15.5-4.4-21.3,3.5s-8.4,17.9-8.5,28.1c-.1,7,2.4,12.8,7.8,17C451.6,723.3,465.9,727.8,478.9,730.1Z"/><path class="cls-12" d="M447.8,623.2,435,606.1l10.8-11.2c12.4-7,24.5-14.8,37.3-20.7,10.4-4.9,21.9-7.6,32.9-11.2l10.1-1.9a27,27,0,0,0,5.3,17.8c6.4,8.9,11.2,10.5,21.8,7.5,2.2-.7,4.5-1.2,6.7-2.1,9.5-4.1,18.3-3.1,26.8,3a24,24,0,0,0,17.5,4.3c7-.9,8.8-3.2,7.9-10.3s-2.5-14.5,1.8-21.3l15,2-1.2,12c-9.7,5.3-13.8,16-9.8,25.9-2.7,3.3-5.3,6.7-7.9,10-15.3-4.7-30.8-7.3-47-5.2-8.7,1.2-17.6.4-26.2,2-10.8,2-21.4,5.5-32.1,8.4-3.7-6.8-9.1-11.7-17.2-9.9C473.1,608.5,458.3,611.3,447.8,623.2Z"/><path class="cls-3" d="M447.8,623.2c10.5-11.9,25.3-14.7,39.7-18,8.1-1.8,13.5,3.1,17.2,9.9-11.5,7-19.4,16.7-22.2,30.1-.4,2.3-.6,4.6-1,6.9-6.9-.5-13.9-.7-20.8-1.6C445.5,648.5,438.3,638.4,447.8,623.2Z"/><path class="cls-8" d="M429.2,613.1l-4.1,7.1c.5-12.7-6.9-20.7-16.6-27-12.6-8.3-26.8-11.7-41.6-13.4a22.1,22.1,0,0,1,2.9-3.2l25.8-20.9c5.4-4.4,10.6-3.2,13.7,3,7.5,14.9,12.4,30.6,15.8,46.8C425.7,608.2,427.8,610.6,429.2,613.1Z"/><path class="cls-13" d="M733,738c5.4,1.4,10.7,3.4,16.3.7,3.3-1.6,6.5-3.6,9.9-4.2s7.1.2,10.7.5a53.3,53.3,0,0,1-5.1,27.5c-3.9,8.5-10.5,13-17.6,12-8.6-1.2-15.2-7.2-16-16.5C730.7,751.4,732.4,744.6,733,738Z"/><path class="cls-6" d="M671,666.1c6.7-.3,13.5-1.2,20.2-.8s10.8,4,13.6,9.2a60,60,0,0,1,8,36.4c-9.7-8-19.9-15.5-29.1-24.1C677.8,681.2,671.5,675.2,671,666.1Z"/><path class="cls-10" d="M765.8,706.3c-8.1,6.3-14.3,5.9-21.3-1.6-5.2-5.4-10-11.1-9.8-19.4.1-4.5,1.4-8.1,5.4-10.4,9.6,6.5,18.1,14.1,23.6,24.4C764.8,701.5,765.1,704,765.8,706.3Zm-25.9-21c1.4,1.7,1.7,2.4,2.2,2.6,7.3,2.8,13,7.2,16.1,14.6.3.7,1.8.8,2.7,1.2s.7-2.2.3-3.1a27.2,27.2,0,0,0-16.5-15.5C743.7,684.7,742.4,685.2,739.9,685.3Z"/><path class="cls-14" d="M615.4,622.9c-1.3-.2-2.5-.3-3.7-.6l-25.3-6.4a16.5,16.5,0,0,1-3.1-1.8c1-.7,1.9-2,2.9-2a64.5,64.5,0,0,1,28.1,7.3,2.8,2.8,0,0,1,1.2,1.4C615.7,621.2,615.5,621.8,615.4,622.9Z"/><path class="cls-14" d="M438.4,753.3c-4.1-.5-8.3-.5-12.4-1.4a108,108,0,0,1-14.7-4.4c-.9-.3-1.5-1.8-2.2-2.7,1.3-.3,2.6-.9,3.8-.7,7.6,1.6,15.1,3.3,22.6,5.2a10.5,10.5,0,0,1,3.5,2.1Z"/><path class="cls-14" d="M449.4,751.2l24.9,2c.9.1,1.7,1.4,2.5,2.2-.9.5-1.8,1.6-2.7,1.5-8.4-.5-16.8-1.2-25.2-2-.7-.1-1.3-1.2-1.9-1.8Z"/><path class="cls-14" d="M557.4,611.1c2.5,0,5-.1,7.5.1.9.1,1.7,1.3,2.5,1.9-.8.6-1.6,1.7-2.5,1.8-8,.8-16.1,1.5-24.2,2-.9.1-1.8-.9-2.7-1.4.7-.8,1.4-2.1,2.2-2.3,5.7-1.1,11.4-1.9,17.1-2.9Z"/><path class="cls-14" d="M578.1,721.4c-.1,1.3.3,3.1-.3,3.8-6.1,6.7-12.2,13.3-21.4,14.9l-1.3-1.8a122.9,122.9,0,0,0,11.3-7.5c3.7-2.9,7-6.4,10.5-9.7Z"/><path class="cls-14" d="M315.9,670.8c.4-5.8.6-11.6,1.1-17.4.1-1,1.3-2,1.9-2.9.7,1,1.9,2,1.8,2.9-.2,7.9-.6,15.7-1.1,23.5-.1.9-1.4,1.7-2.1,2.6-.6-.9-1.5-1.7-1.6-2.7s-.1-4-.1-6Z"/><path class="cls-14" d="M325.4,610.4c-.9,7.3-1.6,13.7-2.6,20.1-.1,1.1-1.3,1.9-2,2.9-.6-1.2-1.8-2.4-1.7-3.5q1-9.6,2.7-19.2c.1-1,1.3-1.8,2.1-2.6Z"/><path class="cls-14" d="M335,641c.3-3.3.5-6.6.9-9.9.1-.7,1.1-1.4,1.7-2.1.7.8,2,1.5,2,2.3-.1,4.8-.4,9.6-.9,14.3,0,.7-1.2,1.3-1.9,1.9s-1.6-1.3-1.7-2A22.4,22.4,0,0,1,335,641Z"/><path class="cls-15" d="M628.9,562l-15-2-25.2-2.9c1.6-.1,3.4.3,4.9-.3s3.6-1.7,4-3.1c3.3-10,6.2-20.1,9.2-30.1l6.1-5.7,19.9-6.1c3.4,11.6,9.5,21.8,17,30.9,6.3,7.6,13.5,14.4,20.3,21.6l-24.5-.9C640,563.1,634.5,562.5,628.9,562Z"/><path class="cls-15" d="M667.8,489.9l35.1,1c-1.4,9.2-2.7,18.4-4.1,27.6a7.3,7.3,0,0,1-1.4,3.1L679,543a33.2,33.2,0,0,1-4.2-3.2c-6.1-6.2-12-12.5-18.2-18.5s-9.7-8.9-14.6-13.4Z"/><path class="cls-16" d="M595.5,411.5c-1.9,9.2-4.1,16.5-9.8,22s-12,4.2-15.6-3.1a7.8,7.8,0,0,0-3.6-3.6c-4.3-2.1-7-5-6.6-10.1.2-2.7,0-4.9-3.4-6.3-1.6-.7-3.2-3.5-3.4-5.6a175.4,175.4,0,0,1-1.2-17.8c-.2-4.7,1.8-8.1,6.5-9.3s8.1.1,10.4,4.4c.6,1,1.9,1.7,2.7,2.6,1.9,2.5,4.3,4.8,5.2,7.5s1.6,3.4,4.2,3.9a10.7,10.7,0,0,1,6.1,3.2A144.4,144.4,0,0,1,595.5,411.5Z"/><path class="cls-16" d="M663,487.2a51.6,51.6,0,0,1-5.3,5.5c-8.6,6.7-22,4.7-28.5-4A6.2,6.2,0,0,0,627,487c-7.7-3.4-9.4-9.9-4.2-16.4,2.9-3.4,6.2-6.5,8.9-10,4.6-6.3,12.9-4.6,15.9,3.3,1.7,4.5,3.8,7.8,8.8,9.6S662.3,480.6,663,487.2Z"/><path class="cls-5" d="M642,507.9c4.9,4.5,9.9,8.8,14.6,13.4s12.1,12.3,18.2,18.5A33.2,33.2,0,0,0,679,543c-2.3,5.7-4.7,11.3-7,16.9-.6,1.5-1.3,2.9-1.9,4.4-6.8-7.2-14-14-20.3-21.6-7.5-9.1-13.6-19.3-17-30.9Z"/><path class="cls-10" d="M601.9,347.2c13.8,1.9,23.6,8.6,32.2,17.1a50.5,50.5,0,0,1,7.1,8.9c.9,1.4.3,3.7.4,5.6-1.8-.1-4,.5-5.4-.4a47.6,47.6,0,0,1-9.5-7.2c-7.3-7.1-15.4-13-25.2-16.4-1.9-.6-3.1-3.1-4.7-4.7Z"/><path class="cls-10" d="M698,450.7c-.7,1-1.7,2.6-2.8,4.1-1.4-1-3.5-1.6-4.1-2.9-4.8-10.4-12.9-17.5-21.9-24a28.5,28.5,0,0,1-6-6.5c-.8-1-1.2-3.3-.6-4s2.8-1.2,4.3-1.4a4.5,4.5,0,0,1,2.4.6c12.5,6.4,22.3,15.4,27.5,28.8A43.8,43.8,0,0,1,698,450.7Z"/><path class="cls-17" d="M573.1,313.8c-.7,1.7-1.3,3.4-2,5-1.2-1.2-2.9-2.3-3.5-3.8-2-5.6-5-7.1-10.2-3.8-9.2,5.9-13.9,14.6-13.4,25.6.1,2.7,2.8,5.2,4.2,7.9A42.7,42.7,0,0,1,550,349c-1.7.1-3.6.8-4.8.1a13,13,0,0,1-7.1-12.3c.2-13.4,5.6-24.3,17.6-30.8,3-1.6,7-1.3,10.6-1.8Z"/><path class="cls-17" d="M559.9,452.2c1.1-3.5,1.9-7,3.3-10.3.3-.9,2.3-1.1,3.6-1.7.4,1.3,1.5,2.7,1.2,3.8-4.7,20.3,9.3,37,30.3,35.9.8-.1,1.8-.5,2.4-.2a23,23,0,0,1,3.7,2.3c-1.1,1-2,2.7-3.3,2.9C581.9,489.2,560.5,472,559.9,452.2Z"/><path class="cls-17" d="M618.4,433.3c2.7-3.9,5.3-8,8.2-11.8.8-1,2.8-1,4.2-1.4,0,1.5.6,3.4,0,4.7-4.7,9.3-9.8,18.4-14.5,27.7s-15,11.2-21.6,2.1c-.8-1.1-.4-3.1-.5-4.7,1.5.3,3.4.2,4.5,1.1,2.9,2.4,5.3,5.8,9.8,2.9.9-1.5,2-2.9,2.8-4.5,1.9-4.3,3.7-8.7,5.5-13.1l1.6-2.9Z"/><path class="cls-17" d="M585,377.7c.9-3.2,1.5-6.5,2.9-9.4.5-1.1,2.7-1.5,4.2-2.2.2,1.4,1.1,3.1.7,4.3-4.4,13.3,3.2,24.9,17.5,26.4,2.2.3,5.3-.3,4.5,3.3-.2,1-3.3,2.1-5.1,2C596.2,401.3,585.6,390.5,585,377.7Z"/><path class="cls-17" d="M673.7,464c-14.6-.2-25.8-11.9-24.8-25.9,0-.6-.2-1.5.2-1.9,1.3-2.1,3-5.9,4.1-5.7,4.2.5,2,3.9,1.6,6.2-2.3,11.3,7.3,22,19.8,22.1,1,0,2.1-.5,2.9-.1a16.1,16.1,0,0,1,3.5,2.5c-1.1.9-2.1,2.2-3.4,2.7S675,464,673.7,464Z"/><path class="cls-14" d="M573.1,313.8l-6.8-9.6c-3-2.9-6.4-2.3-9.6-.9s-4.7.3-5.2-3h.1l1.2-.5h0a11.8,11.8,0,0,1,1.9-1.1h0c3.3.1,6.8-.2,10.1.4,5.7,1.1,9,5.2,10.5,10.6C575.6,310.7,573.9,312.4,573.1,313.8Z"/><path class="cls-18" d="M616.8,436.3c-1.8,4.4-3.6,8.8-5.5,13.1-.8,1.6-1.9,3-2.8,4.5-1-1.1-3-2.7-2.7-3.3,2.7-7,5.7-13.8,8.8-20.6.2-.6,1.3-.8,2.4-1.5.5,1.9,1,3.4,1.4,4.8h0A26.9,26.9,0,0,0,616.8,436.3Z"/><path class="cls-14" d="M579.2,341.9c-.7-.4-1.9-.9-2-1.6a2.9,2.9,0,0,1,1.4-2.2c7.6-3.3,15.3-6.6,23-9.7.6-.3,1.8.8,2.8,1.2-.7.8-1.1,2.1-2,2.5l-16,6.8Z"/><path class="cls-14" d="M628,323.1l-2.1-1.7c.7-.8,1.2-2,2.1-2.3q7.5-2.6,15.3-4.5c1-.3,2.2.7,3.4,1-.6.9-1,2.3-1.8,2.5C639.5,319.8,634.1,321.3,628,323.1Z"/><path class="cls-19" d="M784.4,375.8c-28.9,1.6-53.3-9.7-75.1-27.1-17.7-14.2-34-37.6-31.7-45.9,14.5,17.1,29.1,33.4,47.5,45.6S764,368.1,784.4,375.8Z"/><path class="cls-19" d="M780.4,314.5c-19.6-23.1-43.2-40.2-73.7-48.7,4.8-4.3,9.2-3.2,12.8-2.6,24.5,4.2,44.1,16.4,57.6,37.7,2.3,3.6,3.5,8,5.2,12.1Z"/><path class="cls-19" d="M749.5,323.4c-2.2-1.1-4.1-1.6-5.4-2.9-18.2-17.2-39.7-28.6-63.7-35.6-2.3-.6-4.5-1.8-8-3.2C699.5,273.2,744.9,300.6,749.5,323.4Z"/><path class="cls-19" d="M760.7,260.9c-24.5-16.1-51.3-24.4-80.8-23.7,7.3-6.6,16.4-7.4,24.9-6.9,22.9,1.2,43.1,8.7,57,28.2A25.6,25.6,0,0,1,760.7,260.9Z"/><path class="cls-19" d="M716.4,322a47.5,47.5,0,0,1,7.2.4c15.5,3.1,31,6.5,46.6,9.3,6,1.1,12.2.8,18.3,1.3,2.4.2,4.7.8,7.4,1.2C787.6,345.5,729.5,340.3,716.4,322Z"/><path class="cls-19" d="M580.8,280.2c-5.1-20.7,30.4-62.1,49.6-60.5-1.9,2.3-3.1,4.5-4.9,6-16.7,13.6-29.4,30.4-40.4,48.8C584,276.3,582.5,277.9,580.8,280.2Z"/><path class="cls-19" d="M660.6,218.5q-.7,34-2.6,68.1l-1.7.6c-.9-1.2-2.1-2.1-2.5-3.4-4.9-12.8-4.7-26.1-3.4-39.3.8-7.6,3.4-15.1,5.4-22.5.4-1.5,1.6-2.7,2.4-4Z"/><path class="cls-19" d="M786,396.1c-12.7,9.3-48.9.3-53-14.9Z"/><path class="cls-19" d="M635.5,280.7c-3,12.5-32.2,30.6-43.3,26.4C593.9,301.2,629.4,279.6,635.5,280.7Z"/><path class="cls-19" d="M637.1,248.2c-.8,1.1-1.4,2.5-2.4,3.3-9.3,8.2-18.7,16.3-28.2,24.2-.9.8-2.7.5-4,.7,0-1.7-.8-3.9,0-5.1,2.7-4.3,5.3-9.1,9.2-12.3s11.7-7.8,17.8-11.2c1.9-1.1,4.6-.6,7-.9Z"/><path class="cls-20" d="M645.9,214c-12.5-2.8-23.3-1.1-33,5.9-2,1.5-3.7,3.5-5.6,5s-2.2.5-3.4.8c.3-1.2.2-2.6.8-3.4,8-10.5,29-16.7,40.9-12.2,1,.4,1.6,1.8,2.3,2.7Z"/><path class="cls-20" d="M713.7,223.1c-1.4-.2-3,0-4.1-.6a44.4,44.4,0,0,0-26.4-5.5c-2.7.2-5.2,1.1-7.9,1.3-.9.1-1.9-.6-2.9-.9.6-.8,1-2.2,1.7-2.4,13.5-4,26.3-2.2,38.4,4.9a9,9,0,0,1,1.5,1.8Z"/><path class="cls-20" d="M694.5,249.3c6.1.7,10.4,1.1,14.6,1.9,1.1.2,1.9,1.7,2.9,2.6-1.1.4-2.3,1.3-3.3,1.1a60.1,60.1,0,0,0-32,1.9c-1,.3-2.3-.4-3.5-.6.8-1,1.5-2.7,2.5-2.9C682.5,251.7,689.3,250.3,694.5,249.3Z"/><path class="cls-20" d="M792.1,311.8c-1.9-5.7-3.9-11.4-5.7-17.2a12.1,12.1,0,0,1-.1-3.8c1.1.6,2.7,1,3.2,1.9,4.6,8.1,6.5,16.7,4.6,25.9-.2,1.2-1.6,2.3-2.5,3.4a18.6,18.6,0,0,1-1-3.9c0-1.9.3-3.9.5-5.9Z"/><path class="cls-20" d="M763.4,244.9c-.3.5-.6,1.4-1.2,1.7a2.7,2.7,0,0,1-2.1-.7,44.3,44.3,0,0,0-21.8-16c-.6-.2-.9-1.4-1.4-2.2s1.7-1.4,2.3-1.3c9.8,3.1,17.9,8.7,23.7,17.3A4.8,4.8,0,0,1,763.4,244.9Z"/><path class="cls-4" d="M592.7,270.1c.4-2.1.2-3.5.8-4.5a51.4,51.4,0,0,1,20-18.7c.8-.5,2-.1,3.1-.1s-.2,2.5-.8,2.8c-8.7,4.7-15.1,11.8-20.7,19.6A9.1,9.1,0,0,1,592.7,270.1Z"/><path class="cls-2" d="M554.7,298.7a11.8,11.8,0,0,0-1.9,1.1A11.8,11.8,0,0,1,554.7,298.7Z"/><path class="cls-2" d="M552.8,299.8l-1.2.5Z"/><path class="cls-10" d="M617.9,599.9c-4-9.9.1-20.6,9.8-25.9a11.7,11.7,0,0,1,10.8,4c5.6,5.9,11.2,11.8,16.7,17.8,3.4,3.6,5.5,7.9,4.8,13.1s-2.5,6.8-6.4,8.1-6.8-.2-9.2-3.2a32.8,32.8,0,0,1-3.2-4.4c-2.9-4.6-6.9-6.2-12.2-6.5C625.3,602.6,621.6,600.9,617.9,599.9Z"/><path class="cls-21" d="M718,594.2l2.9-.2,8.8,5.3a.8.8,0,0,0,.4.8c1,3.7-1.6,4.2-4.1,5.3a7.5,7.5,0,0,0-4,4c-1.5,5.5.1,7.9,5.5,9.6,2.4.8,5.2,1.2,4.1,4.8l-.8.9c-7.4.4-12.3-2.9-15-10-6.2,1.5-11-1.2-15.4-5-.4-1.7-.9-3.5-1.4-5.2,3.5-2.2,4.8,1.5,7.1,2.5s6.1,2.4,8.3,1.5,4.4-4.4,3-8.3C716.8,598.5,717.7,596.2,718,594.2Z"/><path class="cls-22" d="M700.4,609.7c4.4,3.8,9.2,6.5,15.4,5,2.7,7.1,7.6,10.4,15,10-1.1,5.3-5.9,6-9.5,6-6.6,0-13.2-1.5-18-6.8S698.5,613.2,700.4,609.7Z"/><path class="cls-22" d="M731.6,623.8c1.1-3.6-1.7-4-4.1-4.8-5.4-1.7-7-4.1-5.5-9.6a7.5,7.5,0,0,1,4-4c2.5-1.1,5.1-1.6,4.1-5.3l10.8,3.6a40,40,0,0,0-4.9,0,9.7,9.7,0,0,0-3,1.6,15.3,15.3,0,0,0,2.9,1.8c3,.6,6.1.9,9.2,1.4l.6,8.9-12.9-7.6-1.3,1.2a12,12,0,0,0,2.3,3.4c2.6,2,5.4,3.7,8.1,5.5C740.1,625.5,735.4,623.6,731.6,623.8Z"/><path class="cls-22" d="M718,594.2c-.3,2-1.2,4.3-.6,6,1.4,3.9,0,7.2-3,8.3s-5.7-.4-8.3-1.5-3.6-4.7-7.1-2.5c-.3-3.5-.7-7-1.1-10.6a66.6,66.6,0,0,0,7.3,3.1c.9.3,2.1-.5,3.2-.7-.6-.8-1-2-1.8-2.5s-4.5-2.5-6.8-3.8c1-1.6,2-3.2,3.1-4.8,2.4,2.5,4.7,5,7.1,7.4s3.8,1.9,3.7-1.6Z"/><path class="cls-22" d="M729.7,599.3l-8.8-5.3c3.4-5.6,6.6-11.3,10.3-16.6.7-1.1,3.5-1.4,4.9-1s2.8,2.6,2.6,3.7C737,587.1,735.6,594.2,729.7,599.3Z"/><path class="cls-21" d="M705.9,557.8c-.6,5.9.7,9.3,4.4,11.5s7.1,1.5,10.8-.6c1.3-.7,3.3-.3,5-.5-.8,1.8-1,4.2-2.3,5.1-5.1,3.6-10.8,4-16.3.7a14.4,14.4,0,0,1-7.4-14.6c.2-1.8,2.3-3.4,3.5-5.1Z"/><path class="cls-21" d="M761.1,601.2c-8.8-1-15.9-7.6-15.8-15.7,0-1.5,1.7-3.1,2.6-4.6,1,1.4,2.6,2.7,2.8,4.2.5,4.2,2.2,7.2,6.1,8.9s7.7.1,11-2.5c1.2-.9,3.2-.9,4.9-1.3-.4,1.7-.2,4.3-1.2,5C768.3,597.6,764.6,599.3,761.1,601.2Z"/><path class="cls-23" d="M741.9,619.9c-2.7-1.8-5.5-3.5-8.1-5.5a12,12,0,0,1-2.3-3.4l1.3-1.2,12.9,7.6c5,3.2,10.1,6.3,14.9,9.7,1.1.7,1.4,2.4,2.1,3.7-1.3-.2-2.9,0-3.9-.6C753.1,626.9,747.5,623.4,741.9,619.9Z"/><path class="cls-23" d="M745.1,608.5c-3.1-.5-6.2-.8-9.2-1.4a15.3,15.3,0,0,1-2.9-1.8,9.7,9.7,0,0,1,3-1.6,40,40,0,0,1,4.9,0c6.7,1.8,13.4,3.4,20,5.3,1.2.4,2.1,2,3.1,3.1-1.4.1-2.9.7-4.2.4C754.8,611.3,750,609.8,745.1,608.5Z"/><path class="cls-23" d="M699.8,590c2.3,1.3,4.6,2.4,6.8,3.8s1.2,1.7,1.8,2.5c-1.1.2-2.3,1-3.2.7a66.6,66.6,0,0,1-7.3-3.1h0l-1-.6c-4.5-2.3-9.1-4.4-13.6-6.9-1-.5-1.5-2-2.3-3.1,1.3-.1,2.7-.6,3.7-.2,3.1,1.1,6,2.6,9,3.9l1.1.7a.9.9,0,0,0,.9.3l1.1.7a.9.9,0,0,0,.9.3l1.1.7Z"/><path class="cls-23" d="M713.7,591c.1,3.5-1.3,3.9-3.7,1.6s-4.7-4.9-7.1-7.4-6.8-5.3-10-8.1c-1-.8-1.5-2.2-2.2-3.3,1.4.1,3.3-.4,4.2.3C701.3,579.6,707.5,585.4,713.7,591Z"/><path class="cls-22" d="M698.8,589.7l-1.1-.7Z"/><path class="cls-22" d="M696.9,593.3l1,.6Z"/><path class="cls-22" d="M696.8,588.7l-1.1-.7Z"/><path class="cls-22" d="M694.8,587.7l-1.1-.7Z"/><path class="cls-15" d="M516,563c-11,3.6-22.5,6.3-32.9,11.2-12.8,5.9-24.9,13.7-37.3,20.7-7.1-11.1-11.8-23.7-21.6-33.1-7-6.8-7-8.8-1.2-16.6,9.8-12.9,19.3-26,29.3-38.8A43.5,43.5,0,0,1,462,498c3.1-2.1,6.5-1.7,8.9,1.5,8.9,11.8,17.8,23.5,26.4,35.5C503.8,544.1,509.8,553.6,516,563Z"/><path class="cls-3" d="M588.7,557.1l25.2,2.9c-4.3,6.8-2.8,14.1-1.8,21.3s-.9,9.4-7.9,10.3a24,24,0,0,1-17.5-4.3c-8.5-6.1-17.3-7.1-26.8-3-2.2.9-4.5,1.4-6.7,2.1-10.6,3-15.4,1.4-21.8-7.5a27,27,0,0,1-5.3-17.8l16.7-3.3,34-1.2,4.1.2h1Z"/><path class="cls-15" d="M576.8,556.6l-34,1.2-25-36-8-11.8c18.2,12.9,38.7,19.2,60.8,20.6,5.7.3,11.5-.3,17.3-.5a68.4,68.4,0,0,1-4.7,7.2c-5,6.2-10.2,12.2-15.3,18.2Z"/><path class="cls-24" d="M436.6,464.8c-7.7,2.9-15.3,5.9-23,8.7-1.5.6-3.2.5-4.8.8a38.6,38.6,0,0,1,3-3.8,23.7,23.7,0,0,1,3.3-2.2l-.2-.2,2.5-1.1c6.6-2.1,13.1-4.2,19.7-6.1,1.4-.4,3.1.3,4.7.5l-3.9,2.7Z"/><path class="cls-8" d="M417.4,467l-2.5,1.1Z"/><path class="cls-25" d="M842.5,531.7c4.4-.5,4.6,2.3,4.1,5.4-1.7,11.2-7.5,20.2-14.9,28.2-4.2,4.5-8.9,8.6-13.2,12.9-2.3,2.3-4.5,2.5-6-.4-3.6-7-7.1-14.2-10.3-21.4a5.5,5.5,0,0,1,1.2-4.9c11-9.1,23-16.4,37.1-19.6A7.1,7.1,0,0,1,842.5,531.7Z"/><path class="cls-18" d="M822.9,530c-1,.6-2,1.3-3,1.8-5.2,2.8-10.5,5.5-15.8,8.1a12.8,12.8,0,0,1-3.5.7c.4-1.2.4-3.1,1.2-3.6,5.6-3.1,11.3-6.1,17.1-8.8,1-.5,2.5.3,3.8.4S822.8,529.5,822.9,530Z"/><path class="cls-18" d="M832.9,529c-2.2.1-3.3.4-4.2.1a11.7,11.7,0,0,1-2.8-1.7,7.9,7.9,0,0,1,2.5-1.7,47.5,47.5,0,0,1,8.4-.6c.8,0,1.7,1,2.5,1.5s-1.3,1.9-2.2,2.1A17.8,17.8,0,0,1,832.9,529Z"/><path class="cls-24" d="M375.1,498.7c.4-1.5.3-3.5,1.3-4.3,4.5-4,9.1-7.6,13.9-11.2.7-.5,2.1,0,3.1.1s-.4,2.2-1.1,2.8l-14.9,12.2c-.6.4-1.5.2-2.3.4l-.2.2Z"/><path class="cls-5" d="M576.8,556.6l-8.9-1.1c5.1-6,10.3-12,15.3-18.2a68.4,68.4,0,0,0,4.7-7.2l18.9-6.5c-3,10-5.9,20.1-9.2,30.1-.4,1.4-2.5,2.5-4,3.1s-3.3.2-4.9.3l-6.8-.3h-1Z"/><path class="cls-25" d="M734.4,500.5c.9,12.8.1,14-12.5,16.6a93,93,0,0,1-14.8,1.6c-1.2,0-3.5-2-3.4-2.9,1.3-14.6,2.8-29.2,11.1-42a51.7,51.7,0,0,1,6.1-7.2c2.8-3.1,5.5-2.3,6.6,1.4,2.4,8.3,4.4,16.6,6.4,25A46.5,46.5,0,0,1,734.4,500.5Z"/><path class="cls-20" d="M682.4,550.4c-.4-1.7-1-2.9-.7-3.7a38.3,38.3,0,0,1,14-17.8c.6-.4,1.8,0,2.7.1s.2,2.2-.3,2.5a43.4,43.4,0,0,0-13.5,17.1C684.4,549.1,683.7,549.4,682.4,550.4Z"/><path class="cls-6" d="M478.9,730.1c-13-2.3-27.3-6.8-39.6-16.3-5.4-4.2-7.9-10-7.8-17,.1-10.2,2.5-19.8,8.5-28.1s13.2-9.1,21.3-3.5a42.2,42.2,0,0,1,6.4,5.5c9.2,9.8,18.4,19.7,27.5,29.6,5,5.3,9.1,11.2,5.5,18.7S489.7,730.1,478.9,730.1Z"/><path class="cls-20" d="M739.9,685.3c2.5-.1,3.8-.6,4.8-.2a27.2,27.2,0,0,1,16.5,15.5c.4.9-.2,2.1-.3,3.1s-2.4-.5-2.7-1.2c-3.1-7.4-8.8-11.8-16.1-14.6C741.6,687.7,741.3,687,739.9,685.3Z"/><path class="cls-2" d="M616.8,436.3a26.9,26.9,0,0,1,1.6-2.9Z"/><path class="cls-15" d="M580.9,556.8h0Z"/></svg>