<svg id="Layer_1" data-name="Layer 1" xmlns="http://www.w3.org/2000/svg" viewBox="0 0 612 792"><defs><style>.cls-1{fill:#5a4f37;}.cls-2{fill:#c3bfa6;}.cls-3{fill:#ece9d7;}.cls-4{fill:#dfd8bb;}.cls-5{fill:#d9d8c9;}.cls-6{fill:#9f6f33;}.cls-7{fill:#aa773a;}.cls-8{fill:#f8f8ea;}.cls-9{fill:#e5e1ca;}.cls-10{fill:#5b5c5d;}.cls-11{fill:#f1ede5;}.cls-12{fill:#674c29;}.cls-13{fill:#4a6ba9;}.cls-14{fill:#62573f;}.cls-15{fill:#69614b;}.cls-16{fill:#283d5f;}.cls-17{fill:#3b3539;}.cls-18{fill:#211d1d;}.cls-19{fill:#bb7c6d;}.cls-20{fill:#a67538;}.cls-21{fill:#86423d;}.cls-22{fill:#b1acab;}.cls-23{fill:#273573;}.cls-24{fill:#491c19;}.cls-25{fill:#f8e671;}.cls-26{fill:#9a5347;}.cls-27{fill:#fefefd;}.cls-28{fill:#cc7484;}.cls-29{fill:#e7abb6;}.cls-30{fill:#8e9096;}</style></defs><path class="cls-1" d="M122,555.9c-2.9,7.4-5.9,14.8-8.9,22.2A29.3,29.3,0,0,1,111,582c.7-9.4,3-18.3,9.1-25.8C120.4,555.9,121.3,556,122,555.9Z"/><path class="cls-2" d="M122,616l-.4.4v-.3Z"/><path class="cls-3" d="M330.8,172.1c5.9-1.1,11.8-2.3,17.7-3.1,1.5-.2,3.2.9,4.9,1.4l6.3,3-7.5,6.7a60.8,60.8,0,0,0-17.8,23.5,25.6,25.6,0,0,1-2.2,3.5c-4.2-6.7-6.8-7.9-10.7-4.8l2.6,3.4-16.8,1.5,1.4,4.8h-.5c-1.5.6-3,1.7-4.4,1.6-6.2-.9-5.3,3-4.7,6.7v.6c-2.1,1.5-5.3,2.6-6,4.6s-.1,6.4,0,9.6l3,8.8v4.9l-13-4.8-2.1-.8v.7h2.2c-.1,1.2-.2,2.3-.3,3.1l-8.7,1c.8,2,1.3,3.2,1.8,4.6l-2.7,1.8c-11.1,7.2-15.5,18.1-6.9,29.4,4,5.2,10.3,8.8,15.8,12.8,8.5,6.1,18.2,9.3,28.6,10.6,2,.2,3.7,3.4,5.3,5.4s.8,2.2,1.2,3.4l1.5-.3V303.2H324l17-3.4c.6.7,1.3,1.8,2,1.9a12.9,12.9,0,0,0,4.8-.4c1.6-.5,3.7-1.2,4.2-2.3,1.8-3.6,3.6-4.1,6.6-1.7.6.5,1.8.3,3.2.5l-1.8-3.9c2.8-1.9,5.5-3.6,8-5.5,7.8-5.9,9.3-13.9,4.3-21.9-.6-.9-.2-2.3-.2-3.5l27.4-4.4c3.6-.2,7.5.5,10.8-.7,7.5-2.7,9.7-2.1,13.4,5.6l-5.5,2.8,2,4.7-4.7,2.2c2.2,8.5,4.3,16.8,6.5,25.1l-1.1.3-7.3-9.7-1.7.7c.3,2.7.7,5.4.9,8.1s0,2.5,0,3.7c-1.7-.1-3.6.1-5-.6s-1.8-2.4-3.2-4.4c-.7,3.4-.8,5.7-1.6,7.9-1.8,5.6-3.5,11.2-6.1,16.5s-7.6,12.9-10.6,19.7-5.7,15.4-8.2,23.2c-.6,1.6,0,3.6.1,5.5l-6,15.9c-1.3,2.3-2.7,4.6-4.1,6.9l-16.3,14.7-1.7.3c-6.2.3-12.5.5-18.7,1-3.6.4-7.3,2.1-10.9,1.8-6.4-.6-12.8-1.9-17-7.8-1.3-1.9-1.6-2.9,1.1-3.2,4.2,2.6,8.8,2.4,13.4,1.6-.2,2.5,1.1,4.5,3.4,3.4,5.6-2.5,13.5.4,16.2-7.1,1.9.8,4.3,2.3,4.9,1.7,5-4.2,13.3-5.2,14-13.8,5.2.3,8.2-3.1,9.6-7.1,2.4-7,7.5-12.5,8.9-20.3,2.1-12.6,6.8-24.8,9.8-37.3,1.6-6.6,2-13.6,3-20.4l3.3-11.6c1.9-4.9,3.9-9.7,5.8-14.6l3.2,1.2c-.6-6.2-2.6-6.8-8.9-2.9l4.3,1.4c-2.3,4.5-4.4,8.7-6.4,12.8l-19.7,18.1-3.3,1.5L364,307h.1L361,308h.1L357,310h.1a62.1,62.1,0,0,0-6.2,1.4c-14,4-28.2,6.7-42.9,6.5a10.5,10.5,0,0,0-2.9-2.3c-1-.3-2.4.6-3.4.3-8.1-2.6-16.7-4.3-24.1-8.4-12.8-7-21.1-17.6-19.7-33.4.3-3.3-1.6-3.1-3.7-3l-.2-1.9-4.4,4.1c-1.5-1.7-4.6-3.7-4.3-5.1.8-4.7-.9-10,4.3-13.8s8.2-9.8,15.2-10.1a78.5,78.5,0,0,1,9.1.7c.1-1.8-.4-4,.4-5s4.5-3.5,6.8-5.4c.5-.4.6-1.4,1-2,3.6-6.8,7.2-13.7,10.9-20.4a9.8,9.8,0,0,1,2-2.1l5.1-7.1c.3-1.3.7-2.6,1.1-4h-.1a32.8,32.8,0,0,0,2-3.1h0l1.2-2.7,8.8-12.2,2-2.2,3-1.3c-.3-1.1-.6-2-.8-2.8l4.8-.8c.7.4,1.5,1.2,2.1,1.1,6.5-.7,11.5,2.3,16.7,5.7a19.4,19.4,0,0,0-5.4-4.9Zm84,115.1,1.4-.4c-.9-5.3-.9-11-5.6-14.5l-1.4.6Zm-7.9,8.4,2.7-.6-2.8-10.6-2,.4Z"/><path class="cls-3" d="M110.9,585.9c0-1.3.1-2.6.1-3.9a29.3,29.3,0,0,0,2.1-3.9c3-7.4,6-14.8,8.9-22.2h2c10.8,4.2,20.3.1,29.1-5.3a89.9,89.9,0,0,1,4.3-8.1,6.5,6.5,0,0,0,.6-2.4,56.5,56.5,0,0,1,7.9-25.3l.9-1.5,3.4,2.6L175,513l.4.2-.4-.2c-.3-1.6-.7-3.2-1.1-5.2l-3.7,3.2c-.5-.6-.9-.8-.9-1a5.5,5.5,0,0,1,.2-1.9c2.1-6.1,8.1-8.6,12.1-12.9s8.1-6.8,12.2-10.1L193,484l-8.3,2.1-.2-1.1-1.4,2.8-4.7-2.8-.6,5.5-2.4,1.7-.9-.6,4.6-13.5,6-9.1H185c2.8-.6,5.4-1.4,5-5.1l3-1.8a18.3,18.3,0,0,0,3.2-.7c9.5-4.7,18.8-9.8,28.5-14.2,14.5-6.5,29.1-12.7,43.8-19a10.1,10.1,0,0,1,2.5-.3v1.2l-1,.7c-10.5,5.7-20.7,11.9-31.5,17-9.1,4.3-18.8,7.3-28.3,11-3,1.2-5.8,2.7-8.7,4.1,4.1,8.1,9.1,14.4,16.4,18.7a12.5,12.5,0,0,1,2.3,2.3c-2.4-.5-5-.6-7.1-1.7-6-2.9-10.9-2.4-16.3,2.2,19.2,1.4,19.9,11.9,17.3,22.5-8-3.6-15.8-3-23.5.9-13,6.6-21.1,17.2-25.1,30.9-1.8,6.1-2.8,12.6,1.5,18.5-1.1,3.2-6.3,6.3-9.3,5.4.9-3.3-.6-5-3.7-4.6a19,19,0,0,0-7.8,2.6c-4.1,2.5-4,5.1-.2,8.5l-8,6.9c-2.7-1.5-4.8-1.4-6.5,1.7s-4.6,8.2-7,12.3-5.1,4-8.2.7C114.8,588.1,112.7,587.2,110.9,585.9Z"/><path class="cls-3" d="M228,129c4-4.8,7.8-9.7,11.9-14.4,6.4-7.4,13-14.7,19.6-21.9.6-.6,2.1-.4,3.2-.8,2.8-1,5.5-2.3,8.3-3.1a18.5,18.5,0,0,1,5.8-.8c3.4.1,6.9.6,10.3.8.5.8,1,2.2,1.7,2.3a31.7,31.7,0,0,0,5.3-.2h0l.8.9c.3,1,.2,2.3.9,2.8,6.9,4.4,7,4.5,5.5,8.1-6.9-1.9-13.6-4.3-20.4-5.5s-14.1,1.9-20.4,6c5.6,1.7,12-1.6,15.9,2.7-3.8,6.7-7.1,12.5-10.5,18.3-7,11.9-14.2,23.7-21.2,35.7s-30.4,19.4-43.8,14.6c-1.4-.5-3.4.3-5.1.5l-7.6-5.1.5-1.6,5.5.6h.4l.7-1.1,2.3.2-.7-1c0-.4.1-.7.1-1l5.9.9-.9-3.9h0a7.8,7.8,0,0,0,8.7,1.3c3.6-1.9,6.6-5.1,9.6-8,6.3-6.3,12.5-12.8,18.8-19.1a6.5,6.5,0,0,1,2.5-1.4l3.4-10.4c-1.5-.4-3.5-.4-3.8-1.2-1.6-3.6-3.2-2.1-5.3-.5S230.7,127.2,228,129Z"/><path class="cls-4" d="M195.8,175c1.7-.2,3.7-1,5.1-.5,13.4,4.8,36.5-2.1,43.8-14.6s14.2-23.8,21.2-35.7c3.4-5.8,6.7-11.6,10.5-18.3-3.9-4.3-10.3-1-15.9-2.7,6.3-4.1,12.9-7.4,20.4-6s13.5,3.6,20.4,5.5c1.5-3.6,1.4-3.7-5.5-8.1-.7-.5-.6-1.8-.9-2.8l-.8-.9h0l.9-2,3.7,3c.6-1.7,1-3,1.3-4.2l12.9,13.9c3-1.2,3.3,1.9,3.8,4.7l-5.3.6.2,1.7,5.4-.8c2,7.7,4.9,15,1.5,23.2-1.6,3.9-1,8.6-1.4,12.9s-2.2,6.4-2.2,9.6c0,6.1.7,12.2,1.1,18.3l1.3,3c.2.8.5,1.7.8,2.8l-3,1.3a18.6,18.6,0,0,1-2-4.3c-2.1-10.9-3.9-21.8-6.1-32.7-1.6-8.1-2.3-16.8-8.7-23.2l-1.1-1-1.6-1.4c-9.3-4.9-13.7-4.2-18.7,4.9-6.7,12.3-12.7,25.1-19,37.7a.6.6,0,0,0-.3.6h0c-2.9,4.5-5.7,9-8.5,13.5h0c-.6,1-1.3,2-2,3h0l-8.8,5.8-7.7,2.2a18.5,18.5,0,0,0-4.6-.8c-9.7.9-18.4-2.5-27.1-6.2h.1l-1.2-1.1L197,177Zm117.3-60.6h1c-.1-1-.1-2.1-.2-3.1h-.6ZM298.5,93.6l-.2.4h.5v-.3Z"/><path class="cls-5" d="M355.6,549.6l-7.6.4-26.7,6.7c-.2,0-.1.9-.2,1.3-4.9.8-9.7,1.8-14.5,2.3s-9.8.5-14.6.7l-4.1-1.1c3.1-9.1,6.1-17.6,9-26.2v14.9c7.4-.5,14.9-.7,22.3-1.7,15.5-2,30.6-5.8,43.7-15,5.3-3.6,10.4-7.9,13-15.1-11,1.7-20.4,9.4-31.4,4,3.9-2,8-3.2,12-4.8,19.4-7.7,28.1-18.5,29.6-36.2s-4.2-36.4-11.4-53.5c-1.4-3.3-3.9-3.3-6.6-.3-.5-.9-1-1.8-1.4-2.7l-2.6-3.4h0l-2-3.5,1.1-1.3,14.8-9.2c4.1,3.7,1.5,8.5,1.8,12.7a9.8,9.8,0,0,1-.7,3.3c.5,2.4.7,4.9,1.4,7.1,2.9,8.5,6,17,9,25.4,7.2,19.9,8,39.7-.5,59.4l-5.1,9a12.9,12.9,0,0,0-1.6,1.7,9.4,9.4,0,0,0-1,1,4.6,4.6,0,0,0-.7.7c-3.8,3.5-7.7,7-11.4,10.6-.6.6-.5,1.8-.7,2.8l-3.4,1.4-12.4,6.4Z"/><path class="cls-6" d="M399.1,92.2c3.4-2.1,5.7-6.5,11.5-4.8L408.1,90l-4.8,5.9c-4.1,1.9-5.2,5.6-3.3,11.4,4-6.3,4-6.3,7.4-2.8,10.3-6.8,25-2.8,31.1,4-5.7-.9-11.1-1.1-15.8,1.9,2.5,3.6,5.3,6.6,7,10.1,5,10.7,9.5,21.7,14.3,32.5s11,19.6,21.2,25.6c11.7,6.9,23.6,8.4,36,2.2l1.2,2.5h0l-6.2,3.5-12,4.3c-4.7,0-9.4.2-14-.1-8.7-.6-16.5-3.5-21.5-10.8a143.9,143.9,0,0,1-12.5-21.9c-5.2-11.2-9.3-22.8-14.6-33.9-1.9-3.8-6.2-6.4-9.3-9.5l-2.1-1.9-.6,1L412,115l1.2,1.9H413l-9,2.8-2,1.1-5.1,6.9c-.9,1.4-2.2,2.8-2.7,4.4-2.8,10.2-5.4,20.5-8.1,30.7-1.4,5-2.9,9.9-4.3,14.8l-1.3-.3a11.4,11.4,0,0,1-.2-2.6c2.9-13.4,2.1-26.7,1-40.2a57.5,57.5,0,0,1,2.8-22.9l2.4,5.4c2.4-6.6,4.4-12.5,6.5-18.4h-.1l2.2-2h-.2l1-1.3h-.2l1.9-2h.1Zm2.1,19.6v.9h5.9v-1.2Z"/><path class="cls-7" d="M501.2,180.8c-12.4,6.2-24.3,4.7-36-2.2-10.2-6-16.5-15.1-21.2-25.6s-9.3-21.8-14.3-32.5c-1.7-3.5-4.5-6.5-7-10.1,4.7-3,10.1-2.8,15.8-1.9-6.1-6.8-20.8-10.8-31.1-4-3.4-3.5-3.4-3.5-7.4,2.8-1.9-5.8-.8-9.5,3.3-11.4a25.8,25.8,0,0,1,.2,3.2c3.1-1.7,5.5-3.5,8.3-4.3a23.8,23.8,0,0,1,9.2-.7c3.9.5,7.7,1.8,11.5,2.8l1.6,1.1c.1.5,0,1.2.2,1.4C444,105.3,450.7,114,457,123l3,5.2,2.8,6.7-.7,1-9-5.1a23.2,23.2,0,0,0,.8,2.2,30.3,30.3,0,0,0,1.2,3.2c6.4,13.2,16,23.5,27.4,32.4a12.1,12.1,0,0,0,3.5,1.3l7.4,3.8h-.2Z"/><path class="cls-8" d="M368.2,600l-2.1-6,5.4-1.9c.8,2.1,1.3,4,2.1,5.8a46.4,46.4,0,0,0,2.8,4.5L384,596c.1,1.3.1,2.7.1,4,1.8,8.1,3.6,16.2,5.3,24.4a22.9,22.9,0,0,0-12.5,13.5l12.3-7.8c.2,2.4-.8,3.9-1.2,5.6s.2,2.9.3,4.3l-.9,2.8,1.1.6c.9-1.8,1.8-3.6,2.6-5.4h.5l.4-.2c12-1.7,20.2,5,21.2,17,.6,7.1-.7,13.3-6.3,18.1a98.9,98.9,0,0,1-13.3.8c-3.3-.1-6.5-1.2-9.8-1.9-11.3-2.3-13.9-7.1-17.4-18-2.5-7.4,1.6-13.6-.1-20.3-.3-1.3,1.1-2.9,1.8-4.4,3.6-9.4,3.2-19,1.8-28.7C369.8,600.3,368.7,600.2,368.2,600Z"/><path class="cls-4" d="M265,645.1v-1.2c.7-1.5,2-2.9,1.9-4.3-.6-9.5-1.4-19-2.2-28.6h1.3c3.2,3.8,5.6,1,7.6-1.3s5.3-3.1,8.4-.7c1.3,7.5,2.6,14.9,4,22.5l-9.9,6.9,20.3,1.5v1.6l-1.7.8c-2.4-.6-4.7-1.6-7.2-1.9-5-.7-9.5,1.3-11.5,4.6h0l-3.9,2.4.5.8,1.4-.2v3.8c12.2-2.1,18.2,1.3,21.4,12s-3.4,20.4-15,20.4a33.9,33.9,0,0,0-6.4.6,18.1,18.1,0,0,1-9-11.4c-.1-.6-1.2-.9-1.8-1.3-.4-4.4-1.2-8.8-1-13.2s1.8-8.2,2.7-12.3C264.9,646.1,265,645.6,265,645.1Z"/><path class="cls-9" d="M110.9,585.9c1.8,1.3,3.9,2.2,5.4,3.8,3.1,3.3,5.9,3.3,8.2-.7s4.8-8.1,7-12.3,3.8-3.2,6.5-1.7c-.3.7-.7,1.4-1,2s-2.5.7-2.8,1.4a94.6,94.6,0,0,0-5.1,13.4c-2.1,8.2-.2,17.5-7.1,24.2h-.4v.3l.4-.4h3v.2c-.6,1.8-1.2,3.5-2,6.1,2.4-.7,4.1-1.1,5.8-1.7,5.1-1.6,9.4-.1,12.4,3.9s3.9,9.9,1.7,15.1-6.2,8.2-11.5,8.4-10.7-1.1-16.1-1.7a9.2,9.2,0,0,0-2.7.8c-1.2-3.5-3.4-7-3.6-10.5-.4-10.7,0-21.4.1-32.1-.1-4.9-.3-9.8-.1-14.8C109.1,588.4,110.3,587.2,110.9,585.9Z"/><path class="cls-5" d="M388.3,640c-.1-1.4-.6-2.9-.3-4.3s1.4-3.2,1.2-5.6l-12.3,7.8a22.9,22.9,0,0,1,12.5-13.5c-1.7-8.2-3.5-16.3-5.3-24.4l4.5,1.4c2.9.9,5.8,1.6,8.8,2.4,2.6,6.6,5.2,13.3,7.7,19.9l-1.8,2.1c7.4.7,14.4,1.3,21.3,2.1.6.1,1.1,1.4,1.6,2.1l-2.4.3.2.7,2.1-1.1,14.9,4.2,9,13.2-.9-6.3,10,12-1,6.1h.1l-2,2.8c-.8,3.7-3.8,4.2-6.8,4.8l-14.6,3.2-3.6-1.5L427,667c.6-3.1,2.5-6.7,1.6-9.3-2.1-6.7-4.7-13.5-8.6-19.3-2.5-3.5-7.6-5.1-11.6-7.6s-8.6-.5-12.4,2.2h.1l-1,1.1h0l-2.1,1h.1l-2,3.1h0A28.3,28.3,0,0,1,388.3,640Zm53.1,4.1c-2-3.6-3.2-7.1-5.5-9.6s-6.3-2-9.5.3-2.3,4.8-.7,7.4l3.7,5.3c1.8,2.8,4.5,4.7,7.5,3.2S439.7,646.8,441.4,644.1Z"/><path class="cls-8" d="M222.4,584.7l1.8-11.8,1.4.8c.8,2.1,2,4,2.4,6.1.6,4,2.3,5.2,5.9,3.6L237,582c0,3.3-.2,6.7.1,10s3.1,6.1,7.3,4.8c1.1-.4,2.7.5,3.7.8l-5.1,5.3-1.8,1.4-.9,1.6,1.9-.7,1.8-.5c.8.7,1.4,1.6,2.3,1.8,5.1,1,7.3,4.9,8.9,9.1,3.3,8.2,2.7,16.6-7.4,20.1-.7.2-1.3,1-1.9,1.5H238c-10.5.1-15.2-4.1-15.9-17.1l.2-1.6V608.4l.4-4.3.3-4.1c.3-3.9.8-7.8,1-11.6C223.9,587.1,222.9,585.9,222.4,584.7Z"/><path class="cls-9" d="M378.2,369.2c-.1-1.9-.7-3.9-.1-5.5,2.5-7.8,4.9-15.7,8.2-23.2s7.4-13,10.6-19.7,4.3-10.9,6.1-16.5c.8-2.2.9-4.5,1.6-7.9,1.4,2,2,3.8,3.2,4.4s3.3.5,5,.6c0-1.2.1-2.5,0-3.7s-.6-5.4-.9-8.1l1.7-.7,7.3,9.7,1.1-.3c-2.2-8.3-4.3-16.6-6.5-25.1l4.7-2.2-2-4.7,5.5-2.8c-3.7-7.7-5.9-8.3-13.4-5.6-3.3,1.2-7.2.5-10.7.7l15.6-5,3.5.2,4.9.6a18.9,18.9,0,0,0,1.3,3.3c2.5,3.8,5.2,7.4,8.3,11.9l-4.1-.6H429c1.4,2,2.8,3.9,4.1,5.9s2.2,4.8,1.7,6.8c-1.4,6.2-3.7,12.2-5.6,18.3-1.1-3.9-2.1-7.7-3.2-11.7-.4,4.5-.9,8.8-1.1,13.1-.1,1,.8,2,1.2,3A26.7,26.7,0,0,1,423,308c-2.3,2-2,7-7,5.9-.3-.1-1.1,1.8-1.8,3.1-6-2.7-8,1.6-10.5,5.7-4.1,6.7-9,12.9-12.7,19.8s-4.7,12.4-7.2,18.6a18,18,0,0,1-2.8,4Z"/><path class="cls-6" d="M211.2,549.9l-7.1,4.3L178,565.1l-9.1-7c1-.9,1.8-1.9,2.8-2.7,7.8-6.1,16.1-11.5,23.4-18.2a65.9,65.9,0,0,0,19.1-30.6c6.8,3.5,9,9.7,9.9,16.6.5,4.3.6,8.5.9,12.8l-3.8,4-2.1,3a9.4,9.4,0,0,1-1,1,9.4,9.4,0,0,1-1,1l-2.1.9Z"/><path class="cls-2" d="M112.7,647a9.2,9.2,0,0,1,2.7-.8c5.4.6,10.8,1.8,16.1,1.7s9.4-3.6,11.5-8.4,1.8-10.6-1.7-15.1-7.3-5.5-12.4-3.9c-1.7.6-3.4,1-5.8,1.7.8-2.6,1.4-4.3,2-6.1l1.3-.5-.3-.4-1.1.7h-3c6.9-6.7,5-16,7.1-24.2a94.6,94.6,0,0,1,5.1-13.4c.3-.7,1.8-.9,2.8-1.4l.3,5.9c-.5,5.6-1.3,11.3-1.3,17,0,2,2,4,3,6.1,4.4.7,8.9,1.3,13.2,2.1.7.2,1.2,1.3,1.8,1.9l4.4,2.5-.7.8c-5.3,1-10.4,1.6-16,.6-3.8-.8-8.2,1.1-12.3,1.8l.2,1.5,7.2-1.6c5.1-1,9.7,0,13.4,3.6a28.5,28.5,0,0,1,8.7,17.6c1,8-1.9,12.4-9.9,13.1a268.7,268.7,0,0,1-28.4.5C117.9,650.3,115.3,648.2,112.7,647Z"/><path class="cls-2" d="M294.7,642.3l1.7-.8v-1.6l-20.3-1.5,9.9-6.9c-1.4-7.6-2.7-15-4-22.5l7,2c1.9,4.8,3.9,9.5,5.8,14.3l1.2.7,3.9,8.1-4.1,1.4,13,2.7v.9l-4.7,1.7c7,.7,13.7.1,16.8,7.2a22.6,22.6,0,0,0-3.5-1.7c-5.1-1.8-9.9,1.1-9.3,5.8s4.9,8.4,8.4,8.8,6.1-2.4,7-6.1c0-.4.7-.6,1.1-.9,3.2,7.4,1.6,14.8-.5,22.2h0l-1,2.1h0l-1,1.1h0l-1,1.1h0l-1,1.1h0c-5.6,1.5-11.3,3-17,4.2-.5.1-1.3-1.4-2-2.2H301l2.1-2H303l3.3-4.9c.7-3,1.9-6,1.9-9.1C308.3,656.3,303.1,648.4,294.7,642.3Z"/><path class="cls-3" d="M384,596l-7.6,6.4a46.4,46.4,0,0,1-2.8-4.5c-.8-1.8-1.3-3.7-2.1-5.8l-5.4,1.9c-1.3-7-2.7-14-4-21,.2-2.1,1-4.3.5-6.2-1.6-6.5-3.7-12.9-5.5-18.8l8-7,3.4-1.4,2.6-1.7a8.6,8.6,0,0,1-.2,2.3c-5.7,14.9-2.9,24,10.2,32.6l1,.4,6,1.9c-1.1.6-2.7,1-3.3,2s-1.3,4-.9,4.2c5.7,2.8,3.1,7.8,3.1,11.9C387,594.1,385.1,595.1,384,596Z"/><path class="cls-10" d="M290.2,404.9l.9-3.9,5,6.8,8.7,6.4,9.3,5.9V422l1.5,31.3h0c-9.6-2.3-16.1-7.8-18.7-17.4-1.6-5.6-2.8-11.2-4.1-16.8-.7-1.7-1.5-3.3-2.2-5h.1L290,413h0c.6-2.2,1.3-4.5,2.1-7.1Z"/><path class="cls-2" d="M274,684.7a33.9,33.9,0,0,1,6.4-.6c11.6,0,18.3-9.1,15-20.4s-9.2-14.1-21.4-12v-3.8l.9-.9,1.1-1.1v-1h0c9.8-4.1,15.9-3.4,22.2,3.3S308,665.5,305,676l-2,5h.1l-2.1,2h.1l-13.9,4.9h-6Z"/><path class="cls-1" d="M112.7,647c2.6,1.2,5.2,3.3,7.9,3.4a268.7,268.7,0,0,0,28.4-.5c8-.7,10.9-5.1,9.9-13.1a28.5,28.5,0,0,0-8.7-17.6c-3.7-3.6-8.3-4.6-13.4-3.6l-7.2,1.6-.2-1.5c4.1-.7,8.5-2.6,12.3-1.8,5.6,1,10.7.4,16-.6l2.9.5-2.2-1.3L154,610c8.6,3.5,17.9,5.9,25.5,10.9s6,16.4-.2,23.1l-.5-1.2,2.1-4.8c2.3-5.6,1-10.6-2.5-15.3l-8.9-6c2.1,5.5,3.7,9.4,5.3,13.4l.2,2.9c-1.3,3.6-2.7,7.3-4,11h-1.1L172,631c-.9-2.7-1.7-5.5-2.6-8.2-4.4-6.7-11.9-9.1-17.9-6,7.1,9.2,13.4,18.6,7.4,30.3l1.9,2.8c-11,1-22,2.7-33,3-16.4.4-20-2.7-21.2-19.1-.6-9,.8-18.2,1.4-27.3.1-.7.8-1.4,1.2-2.1-.1,10.7-.5,21.4-.1,32.1C109.3,640,111.5,643.5,112.7,647Z"/><path class="cls-5" d="M406.9,673c5.6-4.8,6.9-11,6.3-18.1-1-12-9.2-18.7-21.2-17l1.1-3H393l2.1-1h0l1-1.1H396l10.2-1.2c11.3,2.6,23.1,20.7,20.7,31.9a17.9,17.9,0,0,1-1.3,3.2l-9.4,4.9Z"/><path class="cls-11" d="M177.8,490.5c.1-1.6.3-3.2.6-5.5l4.7,2.8,1.4-2.8.2,1.1L193,484l.8,1.1c-4.1,3.3-8.7,6.2-12.2,10.1s-10,6.8-12.1,12.9a5.5,5.5,0,0,0-.2,1.9c0,.2.4.4.9,1l3.7-3.2L175,513h0l-4.8,2.9-3.4-2.6-.9,1.5a56.5,56.5,0,0,0-7.9,25.3,6.5,6.5,0,0,1-.6,2.4,89.9,89.9,0,0,0-4.3,8.1c-8.8,5.4-18.3,9.5-29.1,5.3,3.2-.5,6.4-.8,9.6-1.4s8.3-1.8,12.4-2.7c2.7-4.6,5.8-9,7.9-13.8,3.4-7.7,6-15.7,8.9-23.6.5-1.3,1-2.7,1.4-4l-.9-.4-2.2,3.1c-.3-.8-1-1.9-.7-2.2,2.1-2.7,4.3-5.3,6.5-7.9l4.1-4.1h0Z"/><path class="cls-8" d="M228,129c2.7-1.8,5.4-3.5,7.9-5.4s3.7-3.1,5.3.5c.3.8,2.3.8,3.8,1.2l-3.4,10.4a6.5,6.5,0,0,0-2.5,1.4c-6.3,6.3-12.5,12.8-18.8,19.1-3,2.9-6,6.1-9.6,8a7.8,7.8,0,0,1-8.7-1.3l7.9-7.9c2.4-2.4,4.6-5,7.1-7.4,1-.9,2.5-1.2,3.9-1.7v2.7a40,40,0,0,0,8.5-11.3c.5-1.1-2.1-3.6-3.2-5.5s0-1.3,0-1.9Zm5.7,2c-.2-.3-.3-.6-.5-.7s-.5.2-.7.3l.6.9Zm-2.4,3.3h-.4c-.1,0-.1.2-.1.3l.4.2Z"/><path class="cls-3" d="M152.1,356l-6.4-1.6.3-1.4,2.9-1h10.6l-3.2-3.9c7.3-.4,7.7-.2,15.7,5.7l4,3.2,1.6,1.8c-3.7,3-3.6,5.8-.3,9.1-.9,2.4-1.6,4.6-2.4,6.8-2.6.6-2.6.6-9.9-5.2l-3,6.5c-1-4.9-2-9.7-3.3-15.8l-.8,4.1Z"/><path class="cls-12" d="M393,98.7c-2.1,5.9-4.1,11.8-6.5,18.4l-2.4-5.4a57.5,57.5,0,0,0-2.8,22.9c1.1,13.5,1.9,26.8-1,40.2a11.4,11.4,0,0,0,.2,2.6l1.3.3c1.4-4.9,2.9-9.8,4.3-14.8,2.7-10.2,5.3-20.5,8.1-30.7.5-1.6,1.8-3,2.7-4.4l.3.2c-2.9,10.6-5.8,21.3-8.6,31.9a77.6,77.6,0,0,0-1.3,8.2c-.7,2.1-1,4.3-2,6.2-2,3.7-1.6,6.3,1.8,9.2s5.7,6.5,8.5,9.7c1.1,1.1,2.5,1.9,3.7,2.9v5.6l-.2.2c-2.8-3.8-5.2-7.9-8.3-11.4-7.3-8.5-15.3-16.1-27.8-15.5a19.8,19.8,0,0,0-1.1-2c1.1.3,2.1.7,3.2.9l14,1.5c.4-7.4,1-15.4,1.2-23.4.3-12,.3-24.1.8-36.2.1-2.8,1.4-5.8,2.8-8.4s1-6.2,5.7-4.8C390.3,102.8,391.8,100.1,393,98.7Z"/><path class="cls-3" d="M151,448c-3.1-4.9-5.6-10-5-16v-6.9l3.3,1.9c.3,4.6.6,9.2,1.1,13.7a10.1,10.1,0,0,0,1.4,3L155,442c5,.4,1.7-4.7,4-6,2.1,6.5,6.4,11.2,12.1,14.7l-5.3,3.2c6.4,5.4,12.2,10.4,17.9,15.4-1.6,2.6-3.3,2.8-5.9,1s-3.2-.9-4.9-1.3l-6.9-5.1-3-1.9h0l-5-5h0l-1.1-2h.1Z"/><path class="cls-11" d="M155,442l-3.2,1.7a10.1,10.1,0,0,1-1.4-3c-.5-4.5-.8-9.1-1.1-13.7-1-7.5-2-15.1-2.9-22.5l-1.3,1.5c-.3-1.4-1.3-3-.8-4.1,3.7-8,7.6-15.9,11.5-23.9.7-1.2,2-2.3,2.1-3.5.3-3.4,0-6.8,0-10.2l.8-4.1c1.3,6.1,2.3,10.9,3.3,15.8.3,1.6.7,3.3,1,4.9l-3.9,2.1v2l-2.1,7v2c-5.4,2.8-3.7,6.9-2,11l-1,3c-1,1.3-2.8,2.6-2.8,3.9,0,4.7.5,9.4.9,14.1S154,436.6,155,442Z"/><path class="cls-3" d="M462.8,134.9c-.9-2.3-1.9-4.5-2.8-6.7l4.1-.3h0a4.9,4.9,0,0,1,.1,1.2l2,3.8h0l1,1h0l1,1h-.1l4.1,3h-.1l4.2,3.1a20.9,20.9,0,0,1-2.2,2l-1,.9-5.2-2.5-1.2,1.1,6.6,8.4,7.8,10-1.8.6,2.9,1.4h0l3,4h-.1l1.1,1h-.1c0,.6-.1,1.3-.1,2a12.1,12.1,0,0,1-3.5-1.3c-11.4-8.9-21-19.2-27.4-32.4a30.3,30.3,0,0,1-1.2-3.2,23.2,23.2,0,0,1-.8-2.2l9,5.1h0v1.4l4.2,2.3.7-1Z"/><path class="cls-5" d="M341.1,670.2c1,4.4-.8,7.3-4.9,8.8l-3.1,2.1h0l-2,1.1h0l-11.6,2,.6-3h0l1-1.1h0l1-1.1h0l1-1.1h0l1-2.1h0c1-1.5,2.4-2.8,2.9-4.5,2.9-9.2,1-17.8-4.1-26.1l5.1-.5h2.1l3.2,3.8c-4.1,1.2-4.8,4-3.5,7.7s5.9,8.1,8.8,7.3c.8-.2,1.2-1.4,1.7-2.2C340.6,664.5,340.9,667.3,341.1,670.2Z"/><path class="cls-9" d="M300.1,202.9,295,210c1.7-6.6-2.3-11.3-6.2-15.3s-11.5-10.2-17.3-15.2L264,175h0l-7.7-3.6-1.2-.6c5.9-2.2,11.7-2.9,17.5.3.6.4,1.7-.1,2.5-.2H277l4,4h0a13.7,13.7,0,0,0,.2,1.9c-1.3,3.4.9,3.7,3.4,3.8l5.2,6.3,3.2,4h0l3,5h0C297.3,198.3,298.7,200.6,300.1,202.9Z"/><path class="cls-1" d="M296.9,533.7c-2.9,8.6-5.9,17.1-9,26.2L292,561c-4.1.9-4.9,4.2-4.8,7.5.2,10.2.5,20.5,1.3,30.7.2,2.4,2.1,5,4,6.7,4.9,4.6,6.9,12.8,4,19a9.3,9.3,0,0,1-.5-1v-2.1c-1.3-4.3-2.5-8.6-3.8-12.9-.1-.2-1.3-.1-2-.1l-1,1.2c-1.9-11.7-3.8-23.4-5.9-35.9l-3.3-1-2.2-1.7c.5-.3,1.4-1,1.5-.9,3.7,3.4,4.7.4,5.7-2.4s.6-3.3,1-4.8c2.4-9.2,4.7-18.3,7.2-27.4,2-7.2,5.9-13.9,4.9-21.8-.3-2-.1-4-.2-6,3.6,2.3,1.5-2.2,2.9-2.4l.6,2.3-.2,7C299.8,521.2,298.3,527.5,296.9,533.7Z"/><path class="cls-1" d="M211.2,549.9l3.8-4,.8.8c1.1,1,2,2.5,3.3,2.9,10.6,3.3,21.2,6.3,31.8,9.3l.5-3.9-2.1-11.5c-.4-7.5-.7-15-1.1-22.6.3-2.6.5-5.3.8-7.9v-1a12.1,12.1,0,0,0,.5-1.8c2.3-8.3,4-16.9,10.5-23.3a6.6,6.6,0,0,1-.4,2.5,59.6,59.6,0,0,0-8.8,34.6c.5,11,1.5,21.9,2.2,32.8-.3,1.4-.7,2.8-1.1,4.2h0l-2.5-.9-3.5-.3-3.1-.8-13.8-3.1c-1,5.2-2,10.2-2.9,15.1a1.1,1.1,0,0,0-.1,1l-.5,1.7-1.4-.8c.7-5.8,1.5-11.7,2.5-18.7Z"/><path class="cls-12" d="M412.3,114.8c3.1,3.1,7.4,5.7,9.3,9.5,5.3,11.1,9.4,22.7,14.6,33.9a143.9,143.9,0,0,0,12.5,21.9c5,7.3,12.8,10.2,21.5,10.8,4.6.3,9.3.1,14,.1-10.2,4.7-27.3,1.3-35.5-7.9-3.6-4-6.7-6.5-12.1-4.2-1,.4-2.3,0-3.5,0l6-2.1,3.2-.8c0-.2.2-.3.2-.4a4.3,4.3,0,0,1-.4-.7c-2.4-2.9-2-8-7-9,0-1.5.7-3.3.1-4.6-4.4-10.5-8.9-21.1-13.7-31.4s-7.6-10.9-17.4-9.9v-.2l9-2.8.6.4-.4-.5L412,115Z"/><path class="cls-9" d="M439.1,176.8l-6,2.1c-2.2,1.6-4.3,3.9-6.8,4.6-9.6,2.7-15.8,10.2-23.1,16-.9.8-1.3,2.3-2,3.4l-1.9-1.2v-5.6h.8l2.1-3h0l1-2h0l4-4h0l1.8-1.1,5.2-4.9c4.4-2,9-3.7,13.3-6.1S435.6,173.6,439.1,176.8Z"/><path class="cls-4" d="M137.3,582.9,137,577c.3-.6.7-1.3,1-2l8-6.9c5.9,1.2,8.1,0,11.7-6.5,3,.9,8.2-2.2,9.3-5.4l1.9,1.9,9.1,7-5.7,3.7-1.3.2-18.1,3.6A24.3,24.3,0,0,0,137.3,582.9Z"/><path class="cls-9" d="M183.7,469.3c-5.7-5-11.5-10-17.9-15.4l5.3-3.2,12,3.2h5.4l5.6,6-1.1,2.1-3,1.8-5,5.1h.1Z"/><path class="cls-13" d="M378,405.9l-14.8,9.2-7.8-8.1,3.6-2,1.4-.3c8.9-2.7,15.7-8.8,22.6-14.6l-1.8,11Z"/><path class="cls-5" d="M172,631l-2.1,12.9-6.9,5-2.2,1-1.9-2.8c6-11.7-.3-21.1-7.4-30.3,6-3.1,13.5-.7,17.9,6-2.1-.1-4.5-.9-6.1-.1-3.8,1.8-2.3,5.4-1.2,8.2s2.6,3.3,4,5l4-3.6Z"/><path class="cls-3" d="M277,322l-4-7.7,6.9-.3,3.2,2,4.1,6.8c.3,2.7.2,5.6,1.1,8.2a74.3,74.3,0,0,1,3.8,31h-3l-.6-1.8a33.1,33.1,0,0,0,.5-6.2c-.3-3.2-2.4-6.9-1.3-9.4,1.8-4.6.3-7.1-2.7-9.9s-2.8-5.3.7-8Z"/><path class="cls-1" d="M389,513.8c8.5-19.7,7.7-39.5.5-59.4-3-8.4-6.1-16.9-9-25.4-.7-2.2-.9-4.7-1.4-7.1.3.2.5.3.8.1l1,1.2c4,11.7,8.1,23.2,11.8,34.9,3.1,9.7,5.3,19.6,4.2,29.9l-.3.2c0,.3.2.5.3.8-.4,2.6-.8,5.3-1.1,8l-.6,2.1L391,515Z"/><path class="cls-9" d="M384,596c1.1-.9,3-1.9,3-2.8,0-4.1,2.6-9.1-3.1-11.9-.4-.2.1-3,.9-4.2s2.2-1.4,3.3-2l1.1-.5,3.5,3.8a15.5,15.5,0,0,1,.4,2.1c.7,5.9,1.2,11.8,2,17.6.2,1.1,1.5,2,2.2,2.9s.1,1.9.1,2.8c-3-.8-5.9-1.5-8.8-2.4l-4.5-1.4C384.1,598.7,384.1,597.3,384,596Z"/><path class="cls-14" d="M193,462.1l1.1-2.1,77.2-34.8a8.2,8.2,0,0,1,2.8-.4l-1,2.1H272l-1,1h0a10.1,10.1,0,0,0-2.5.3c-14.7,6.3-29.3,12.5-43.8,19-9.7,4.4-19,9.5-28.5,14.2A18.3,18.3,0,0,1,193,462.1Z"/><path class="cls-11" d="M277,322l8.7,4.7c-3.5,2.7-3.4,5.5-.7,8s4.5,5.3,2.7,9.9c-1.1,2.5,1,6.2,1.3,9.4a33.1,33.1,0,0,1-.5,6.2c-1.1-2.8-2.2-5.5-3.4-8.2-2-7-3.9-14-6-21-.4-1.3-2.2-2.2-2.5-3.4S276.8,323.8,277,322Z"/><path class="cls-14" d="M264.8,611c.8,9.6,1.6,19.1,2.2,28.6.1,1.4-1.2,2.8-1.9,4.3v-5.5l-5.1.4a7.6,7.6,0,0,0-.1-1.5c5.1-.1,6.3-2.8,5.5-7.5s-1.4-12.1-2.5-18.1c-1.6-9.4-3.6-10.7-13.3-9.4l-1.4.3a6.1,6.1,0,0,1-.1-1.4l1.7-.3h1.8l6.6-.2,1.7.2c-.2-1.5-.4-3.1-.6-5h-7.7l-.9-1.2,2.3-1,4.5.3,2.4-5.8C261.5,595.7,263.2,603.4,264.8,611Z"/><path class="cls-1" d="M328,645l-5.1.5c5.1,8.3,7,16.9,4.1,26.1-.5,1.7-1.9,3-2.9,4.5,2.1-7.4,3.7-14.8.5-22.2l-3.7-5.9c-3.1-7.1-9.8-6.5-16.8-7.2l4.7-1.7v-.9l-13-2.7,4.1-1.4Z"/><path class="cls-4" d="M457,123c-6.3-9-13-17.7-22.7-23.6-.2-.2-.1-.9-.2-1.4s1.1-1.4,1.3-1.3c10.4,6.1,20.2,12.8,23.9,25.2Z"/><path class="cls-12" d="M399.3,201.7l1.9,1.2c5.2,15.5,10.3,31,15.5,46.4a44.3,44.3,0,0,0,2,4.5l-3.5-.2c-2.6-1.2-.3-3.3-.8-4.9-2.2-7.3-4.7-14.5-7.1-21.8-1.5-4.6-2.8-9.2-4.3-13.8s-2.6-7.4-3.9-11.2Z"/><path class="cls-1" d="M177.6,358.8,176,357v-1c1.4,1.1,3.4,1.9,4.2,3.3,4.5,8.2,4.3,17,2.6,25.8-1.3,7-3.2,13.9-4.9,20.8l-1.1-1.2c.1-.9.1-1.8.2-2.7l.9-2.3c.5-2.9,1.3-5.8,1.6-8.8.6-6,.9-12.1,1.3-18.2S180.2,363.1,177.6,358.8Z"/><path class="cls-12" d="M392.7,578.4c-1.1-1.3-2.3-2.5-3.5-3.8.3-3.6.9-7.2.9-10.8-.3-13-.8-26-1.3-39.1a13.6,13.6,0,0,0,.4-1.7,7.1,7.1,0,0,1,1.4,1c.1,6,.2,12,.2,18a13.4,13.4,0,0,1,.1,2l2.1,33v1h-.2Z"/><path class="cls-1" d="M222.1,620.1c.7,13,5.4,17.2,15.9,17.1h7.9a.9.9,0,0,0,.3.7L236.1,639c-9.7-.1-14.5-3.8-15-13.4s0-17.7.2-26.6l1.6,1-.3,4.1c-.1,1.4-.3,2.9-.4,4.3v9a4.5,4.5,0,0,0,.1,1.1A7.8,7.8,0,0,0,222.1,620.1Z"/><path class="cls-1" d="M441,634.1l-14.9-4.2h.1c-.5-.7-1-2-1.6-2.1-6.9-.8-13.9-1.4-21.3-2.1l1.8-2.1c1.9.2,3.9.8,5.7.7,10.8-.1,21,1.9,30.3,7.7C441.1,632.7,441,633.4,441,634.1Z"/><path class="cls-14" d="M161.1,513.1l2.2-3.1.9.4c-.4,1.3-.9,2.7-1.4,4-2.9,7.9-5.5,15.9-8.9,23.6-2.1,4.8-5.2,9.2-7.9,13.8-.1-.5-.1-1-.2-1.5,1.7-2.9,3.8-5.8,5-8.9C154.4,532,157.7,522.5,161.1,513.1Z"/><path class="cls-14" d="M137.3,582.9a24.3,24.3,0,0,1,15.6-10.3,6.6,6.6,0,0,1,.1,1.4c-15.5,4.8-18.1,13.8-14,32-1-2.1-3-4.1-3-6.1C136,594.2,136.8,588.5,137.3,582.9Z"/><path class="cls-14" d="M320.1,681a26.2,26.2,0,0,1-.6,3l11.6-2c-2.3,1-4.6,2.5-7,2.9a138.5,138.5,0,0,1-17,2.1c-6.1.3-12.3-.8-18.3,1.6-.3.2-1.1-.4-1.6-.7l13.9-4.9c.7.8,1.5,2.3,2,2.2C308.8,684,314.5,682.5,320.1,681Z"/><path class="cls-12" d="M176.8,404.7l1.1,1.2c-.3,2.3-.6,4.6-.9,7.3l5.1-2.3c-1.3,5.1-2.3,9.6-3.4,14.1v3.9c.2,1.4.3,2.7.4,4.1l-2.5-1.1c.5-4.9,1.1-9.9,1.6-14.9l.7-1.2-.4-.3-.5,1.4c-.9,1.7-1.8,3.5-3.5,6.6C174,416.2,174.5,410.3,176.8,404.7Z"/><path class="cls-1" d="M145.1,406l1.3-1.5c.9,7.4,1.9,15,2.9,22.5l-3.3-1.9V432c-2.2-5.4-3.7-10.7-1.4-16.8C145.6,412.5,145,409.1,145.1,406Z"/><path class="cls-1" d="M365.1,541l-8,7c1.8,5.9,3.9,12.3,5.5,18.8.5,1.9-.3,4.1-.5,6.2-2.2-7.8-4.3-15.6-6.5-23.4l-2.9-2.2Z"/><path class="cls-1" d="M458.1,659.1c.4-2.1.7-4.1,1-6.1s.1-1.1.2-1.6.1-2.7.1-4c-1.2-9-6.6-14.5-15-15.3l-1-.3c6.5-2,12.2,1,16,8.2S462.2,655.1,458.1,659.1Z"/><path class="cls-12" d="M432.5,96.9c-3.8-1-7.6-2.3-11.5-2.8a23.8,23.8,0,0,0-9.2.7c-2.8.8-5.2,2.6-8.3,4.3a25.8,25.8,0,0,0-.2-3.2l4.8-5.9c-.3,1.1-.5,2.2-.8,3.3l-2,2.2.5.5,2.7-1.6c7.8-4.2,15.4-2.3,22.9.6C431.9,95.2,432.1,96.2,432.5,96.9Z"/><path class="cls-3" d="M226.2,129.9c0,.6-.3,1.4,0,1.9s3.7,4.4,3.2,5.5a40,40,0,0,1-8.5,11.3v-2.7a11.1,11.1,0,0,1,.2-1.9l4.7-4.2c.8-5.6-5.1-4.9-7.7-8Z"/><path class="cls-1" d="M279.9,314l-6.9.3c-1.5-1.3-3-2.8-4.7-4-5.8-3.8-10.2-8.6-12.3-15.4l1-.9C261.8,303.9,269.7,310.3,279.9,314Z"/><path class="cls-1" d="M172,353.8c-8-5.9-8.4-6.1-15.7-5.7l3.2,3.9H148.9c1.2-1.9,5.3-.3,5.1-4.2,0-.4,2.6-1.3,3.9-1.3,5.6.3,11.4.5,15.4,5.4Z"/><path class="cls-14" d="M172.3,568.8l5.7-3.7,26.1-10.9c-.6.7-.9,1.8-1.7,2.1C192.4,560.6,182.3,564.7,172.3,568.8Z"/><path class="cls-14" d="M176.5,431.9,179,433l9.5,21h-5.4c2-5.5-3.8-8.7-4.1-13.7-.2-2.5-2.6-4.9-3.9-7.3Z"/><path class="cls-15" d="M198.9,177c8.7,3.7,17.4,7.1,27.1,6.2a18.5,18.5,0,0,1,4.6.8C219,186.3,208.3,184.6,198.9,177Z"/><path class="cls-1" d="M177.8,490.5,171,499c2.4-7.3,4.8-14.7,7.1-22l1,1.1-4.6,13.5.9.6Z"/><path class="cls-1" d="M333.3,648.8l-3.2-3.8c8.6,1.8,15.3,14.8,11,25.2-.2-2.9-.5-5.7-.8-8.6A17,17,0,0,0,333.3,648.8Z"/><path class="cls-15" d="M368.2,600c.5.2,1.6.3,1.7.5,1.4,9.7,1.8,19.3-1.8,28.7.2-3.3.7-6.6.6-9.9C368.7,612.9,368.4,606.5,368.2,600Z"/><path class="cls-14" d="M274,684.7l7.2,3.3c-6.6,1-11.2-2.5-14.7-7.3-1.8-2.4-2.2-5.8-3.3-8.7.6.4,1.7.7,1.8,1.3A18.1,18.1,0,0,0,274,684.7Z"/><path class="cls-16" d="M381.2,401.1l1.8-11c-.9-6.4-1.9-12.8-2.9-19.2l1.8-3c.8,8.6,1.9,17.1,2.2,25.7C384.2,396.1,382.2,398.6,381.2,401.1Z"/><path class="cls-14" d="M321.1,558c.1-.4,0-1.3.2-1.3L348,550c-2.7,1.1-5.4,2.5-8.3,3.4C333.5,555.1,327.3,556.5,321.1,558Z"/><path class="cls-15" d="M273.1,426.9l1-2.1,10.3-9.5.9.8c.4,2,.9,3.9,1.4,5.8l-2.9-1.6.6,1.5Z"/><path class="cls-14" d="M316,171.8c-.4-6.1-1.1-12.2-1.1-18.3,0-3.2,1.4-6.4,2.2-9.6,0,.7.1,1.3.1,2v1Z"/><path class="cls-15" d="M257,294l-1,.9c-1.4-5.9-2.7-11.9-4.3-17.8-.3-1.4-1.4-2.6-2.1-3.9l4.4-4.1.2,1.9C251.5,279.1,254.7,286.5,257,294Z"/><path class="cls-14" d="M433.2,274.9,429,269h.1l4.1.6c-3.1-4.5-5.8-8.1-8.3-11.9a18.9,18.9,0,0,1-1.3-3.3,120.2,120.2,0,0,1,8,9.4A11.1,11.1,0,0,1,433.2,274.9Z"/><path class="cls-1" d="M145.8,550.3c.1.5.1,1,.2,1.5-4.1.9-8.2,1.9-12.4,2.7s-6.4.9-9.6,1.4h-2.1c2.7-1.1,5.3-2.5,8.1-3.1C135.2,551.8,140.6,551.2,145.8,550.3Z"/><path class="cls-13" d="M296.1,407.8l-5-6.8-1.2-2.7.3-3,1.8.7h0l1,1.3,4.1,3.6h0l1,2.7,1,.3h0l1,1h0V408Z"/><path class="cls-14" d="M361.9,173a19.8,19.8,0,0,1,1.1,2l-8.1,6.7a9.4,9.4,0,0,1-1,1c-.6-.8-1.1-1.7-1.7-2.6l7.5-6.7-6.3-3Z"/><path class="cls-15" d="M330.8,172.1l4.7,3.8a19.4,19.4,0,0,1,5.4,4.9c-5.2-3.4-10.2-6.4-16.7-5.7-.6.1-1.4-.7-2.1-1.1Z"/><path class="cls-11" d="M295,88.9l-.9,2a31.7,31.7,0,0,1-5.3.2c-.7-.1-1.2-1.5-1.7-2.3,1.8-2.7,2.5-7,7.5-5.3.3.1.4.8.5,1.3S295.1,87.5,295,88.9Z"/><path class="cls-1" d="M426.1,304.4c-.4-1-1.3-2-1.2-3,.2-4.3.7-8.6,1.1-13.1,1.1,4,2.1,7.8,3.2,11.7Z"/><path class="cls-14" d="M157.9,364.3c0,3.4.3,6.8,0,10.2-.1,1.2-1.4,2.3-2.1,3.5l.6-5.9v-2.3L156,367l-.8-3.6-3.1-7.4Z"/><path class="cls-15" d="M397.3,601c-.7-.9-2-1.8-2.2-2.9-.8-5.8-1.3-11.7-2-17.6Z"/><path class="cls-16" d="M290.2,395.3l-.3,3c-3.3-6.8-3.4-13.9-2.1-21.1.2-.5.3-1,.5-1.6.5,2.8,1.1,5.6,1.7,8.4C286.1,387.8,289.7,391.5,290.2,395.3Z"/><path class="cls-15" d="M416.2,671.8l9.4-4.9H427l4.2,1.3,3.6,1.5Z"/><path class="cls-15" d="M163,648.9l6.9-5H171a10.7,10.7,0,0,0,.6,1.9c1.6-.3,3.2-.8,4.7-1.2l1.8.3Z"/><path class="cls-17" d="M381.9,367.9l-1.8,3c-2.6,4.8-5.2,9.5-7.9,14.2l6-15.9,2.8-4.1Z"/><path class="cls-12" d="M501.2,180.8l-8-7,13.8,6.1-4.6,3.4Z"/><path class="cls-14" d="M443.4,631.8l1,.3c-.1.8-.5,1.8-.2,2.3,1.5,2.2,3.2,4.4,4.9,6.6l.9,6.3-9-13.2c0-.7.1-1.4.1-2Z"/><path class="cls-15" d="M153,574a6.6,6.6,0,0,0-.1-1.4L171,569Z"/><path class="cls-15" d="M288.3,375.6c-.2.6-.3,1.1-.5,1.6L285.1,352c1.2,2.7,2.3,5.4,3.4,8.2l.6,1.8-.2,1.1Z"/><path class="cls-14" d="M390.6,524a7.1,7.1,0,0,0-1.4-1c-.1-1.3-.2-2.5-.3-4.1l-4.1,4.8-.9-.9,5.1-9,2,1.2C390.9,518,390.8,521,390.6,524Z"/><path class="cls-1" d="M255.1,170.8l1.2.6-.3,1.3-2.2-.6a.8.8,0,0,0-.8-.1l-3.9,1c2.8-4.5,5.6-9,8.5-13.5l.6,1.7c-1.5,2.6-3.1,5-4.5,7.6C253.6,169.2,254.6,170.1,255.1,170.8Z"/><path class="cls-14" d="M179.1,478.1l-1-1.1a28.9,28.9,0,0,0,1.9-3.5l-7.1-4.5c1.7.4,3.6.4,4.9,1.3s4.3,1.6,5.9-1l1.4-.3Z"/><path class="cls-15" d="M222.9,600l-1.6-1c.3-4.8.7-9.6,1.1-14.3.5,1.2,1.5,2.4,1.5,3.7C223.7,592.2,223.2,596.1,222.9,600Z"/><path class="cls-15" d="M290.2,404.9l1.9,1c-.8,2.6-1.5,4.9-2.1,7.1-3.5-1.8-2.7,2.8-4.7,3.1l-.9-.8C286.4,411.9,288.3,408.4,290.2,404.9Z"/><path class="cls-9" d="M473.3,150.9l-6.6-8.4,1.2-1.1,5.2,2.5C473.2,146.2,473.2,148.6,473.3,150.9Z"/><path class="cls-18" d="M236.1,639l10.1-1.1h8l5.7-.6a7.6,7.6,0,0,1,.1,1.5Z"/><path class="cls-3" d="M295,88.9c.1-1.4.1-2.8.1-4.1l4.9,2.9c-.3,1.2-.7,2.5-1.3,4.2Z"/><path class="cls-9" d="M457,123l2.3-1.1,4.8,6-4.1.3Z"/><path class="cls-1" d="M486,169.9c0-.7.1-1.4.1-2l7.3,5.8Z"/><path class="cls-1" d="M238.3,181.8l8.8-5.8Z"/><path class="cls-9" d="M172,353.8l1.3-1.9c1.3,1.1,4.8.7,2.7,4.1v1Z"/><path class="cls-8" d="M202,162.9l.9,3.9-5.9-.9Z"/><path class="cls-15" d="M476.3,141l-4.2-3.1,6.8,1.4,1.8,2-4.2,1.4C476.4,142.1,476.4,141.5,476.3,141Z"/><path class="cls-1" d="M151,448l6,7Z"/><path class="cls-15" d="M264,175l7.5,4.5Z"/><path class="cls-19" d="M317,107.8l-5.4.8-.2-1.7,5.3-.6Z"/><path class="cls-1" d="M158,457l5,5Z"/><path class="cls-8" d="M225.8,139.8l-4.7,4.2C220.7,140.3,223,139.8,225.8,139.8Z"/><path class="cls-15" d="M256,172.7l.3-1.3L264,175Z"/><path class="cls-12" d="M496.2,186.7l6.2-3.5Z"/><path class="cls-1" d="M171,498.9l-4.1,4.1Z"/><path class="cls-15" d="M472.2,137.9l-4.1-3Z"/><path class="cls-1" d="M485.2,166.9l-3-4Z"/><path class="cls-15" d="M466.2,132.9l-2-3.8a1.1,1.1,0,0,0,.8.1Z"/><path class="cls-1" d="M482.2,162.9l-2.9-1.4,1.8-.6C481.5,161.5,481.8,162.2,482.2,162.9Z"/><path class="cls-1" d="M456.2,661.8l2-2.8Z"/><path class="cls-14" d="M333.1,681.1l3.1-2.1Z"/><path class="cls-1" d="M163,462l3,1.9Z"/><path class="cls-11" d="M156.4,369.8v0Z"/><path class="cls-9" d="M476.3,141c.1.5.1,1.1.2,1.7l-2.4.3A20.9,20.9,0,0,0,476.3,141Z"/><path class="cls-14" d="M178.6,428.9c0-1.3.1-2.6.1-3.9C178.7,426.3,178.6,427.6,178.6,428.9Z"/><path class="cls-8" d="M196.9,166.9l.7,1-2.3-.2Z"/><path class="cls-12" d="M395.1,96.8l-2.2,2Z"/><path class="cls-12" d="M397.6,93.5l-1.9,2Z"/><path class="cls-1" d="M247.1,176c.7-1,1.4-2,2-3C248.5,174,247.8,175,247.1,176Z"/><path class="cls-11" d="M155.2,363.4l.8,3.6Z"/><path class="cls-14" d="M390.9,544a13.4,13.4,0,0,0-.1-2A13.4,13.4,0,0,1,390.9,544Z"/><path class="cls-1" d="M296.1,626l-1.2-.7a13.4,13.4,0,0,1,1.1-1.4,9.3,9.3,0,0,0,.5,1Z"/><path class="cls-15" d="M197,177l.8-1.1L199,177Z"/><path class="cls-14" d="M265,645.1c0,.5-.1,1-.1,1.4S265,645.6,265,645.1Z"/><path class="cls-1" d="M156.9,455l1.1,2Z"/><path class="cls-15" d="M395.2,499.1l.6-2.1Z"/><path class="cls-14" d="M331.1,682.1l2-1.1Z"/><path class="cls-12" d="M399.1,92.2l-1.4,1.3Z"/><path class="cls-4" d="M317.2,146.9v-1a2.1,2.1,0,0,1,.3.7Z"/><path class="cls-15" d="M468.2,134.9l-1-1h1.2Z"/><path class="cls-15" d="M467.2,133.9l-1-1h1.2Z"/><path class="cls-9" d="M465,129.2a1.1,1.1,0,0,1-.8-.1,4.9,4.9,0,0,0-.1-1.2Z"/><path class="cls-15" d="M253,172a.8.8,0,0,1,.8.1Z"/><path class="cls-8" d="M194.6,168.8h0Z"/><path class="cls-1" d="M178.1,645l-1.8-.3,1.5-.9,1.1.6Z"/><path class="cls-1" d="M486.2,167.9l-1.1-1Z"/><path class="cls-5" d="M380.9,423.2l-1-1.2Z"/><path class="cls-9" d="M392.9,578c0-.4.1-.7.1-1Z"/><path class="cls-12" d="M395.9,95.6l-1,1.3Z"/><path class="cls-15" d="M396.9,489c-.1-.3-.3-.5-.3-.8l.3-.2Z"/><path class="cls-1" d="M179.3,644l-.4.4-1.1-.6,1-1Z"/><path class="cls-7" d="M352.2,180.1c.6.9,1.1,1.8,1.7,2.6l.5.6c-.3.7-.6,1.5-1,2.3l.7.6,9.2-7.1.7-1.2h.1l-1.4.6-7.3,3.8-.5-.6L363,175c12.5-.6,20.5,7,27.8,15.5,3.1,3.5,5.5,7.6,8.3,11.4,1.3,3.8,2.7,7.5,3.9,11.2s2.8,9.2,4.3,13.8a15.6,15.6,0,0,0-2.1,4.3,59.9,59.9,0,0,0-.6,7.5c-3.5-.7-5.8-1.6-8.3-1.7s-4-1.6-4.3-4.6a68.1,68.1,0,0,0-2.9-14.4c-4.1-11.2-14.1-15.2-22-14.1-3.9.9-8.4,1.1-11.6,3.1s-6.3,6.6-9.4,9.9l-3.9-5-1.6.9c.5,5.6,1.3,11.2,1.4,16.8s-.6,12.1-.9,18.2c-2-3.1-4.1-6.2-5.9-9.4s-2.7-5.8-4-8.7l-.9-1.7c.6-1.3,1.7-2.6,1.8-3.9.2-3.9,0-7.8,0-11.7,0-1.7.1-3.5.1-5.3a25.6,25.6,0,0,0,2.2-3.5A60.8,60.8,0,0,1,352.2,180.1Z"/><path class="cls-18" d="M322.4,303.3h-3.7l-2.4-.3c-17.2-2.2-30.3-10.3-37.7-26.3-1.9-4-2.7-8.2.3-12.2-.8,6,2.4,8.9,7.7,10.9,19.9,7.5,40.4,8.4,61,4.1,7.1-1.5,14.8-4,15.5-13.6.7,3,2.2,6,2,8.9-.3,7.2-4.5,12.7-10.2,16.7s-9.3,5.6-13.9,8.4l-17,3.4Z"/><path class="cls-19" d="M277,171h-1.9v-.8L273,167h0l-2-1h0c0-.7-.1-1.3-.1-2,1.3-4.9,1.8-10.2,4.1-14.5,6.3-12.1,16.8-12.4,24.3-1.1a100.2,100.2,0,0,1,4.8,9.2l4.2,8.3,4.8,15.2-8.8,12.2-1.2,2.7h0a32.8,32.8,0,0,1-2,3.1h.1a7.1,7.1,0,0,1-2.6-.7A14.3,14.3,0,0,1,296,196h0l-3-5h0c-.6-1.4-1.3-2.8-1.9-4.1l-7.2-7.9h.1l-1-1h0l-2-3h0Z"/><path class="cls-20" d="M341.1,247.8c.3-6.1,1-12.1.9-18.2s-.9-11.2-1.4-16.8l1.6-.9,3.9,5c-.7,6.5-1.5,13-1.9,19.5-.1,1.1,1.1,2.3,1.7,3.4l8.2,13,2.1,1.1h-.1c1,.7,1.9,1.8,3,2.1,10.2,2.9,18.7-.7,26.2-6.6a7.6,7.6,0,0,1-.1-4.7c5.9-15-.9-31-15.7-37.1-1.1-.5-1.6-2.4-2.4-3.6,7.9-1.1,17.9,2.9,22,14.1a68.1,68.1,0,0,1,2.9,14.4c.3,3,1,4.5,4.3,4.6s4.8,1,8.3,1.7a59.9,59.9,0,0,1,.6-7.5,15.6,15.6,0,0,1,2.1-4.3c2.4,7.3,4.9,14.5,7.1,21.8.5,1.6-1.8,3.7.8,4.9l-15.6,5L372.1,263,359,261.1l-6.9-2.3h.1l-2.2-2.1c-.3-.6-.7-1.1-1-1.6l-1.8-1.3h-.1L346,253l-1-1-1-1h0l-1.9-2.1Z"/><path class="cls-9" d="M278.9,264.4c-3,4-2.2,8.2-.3,12.2,7.4,16,20.5,24.1,37.7,26.3l2.4.3v12.5l-1.5.3c-.4-1.2-.5-2.5-1.2-3.4s-3.3-5.2-5.3-5.4c-10.4-1.3-20.1-4.5-28.6-10.6-5.5-4-11.8-7.6-15.8-12.8-8.6-11.3-4.2-22.2,6.9-29.4l2.7-1.8c-.5-1.4-1-2.6-1.8-4.6l8.7-1c.1-.8.2-1.9.3-3.1h0l13,4.8.2.3,2.7,2.9-.7,1.7c-1.8.5-3.5.9-5.2,1.5C287.6,257,281.9,258.7,278.9,264.4Z"/><path class="cls-9" d="M387.8,299.5c-1,6.8-1.4,13.8-3,20.4-3,12.5-7.7,24.7-9.8,37.3-1.4,7.8-6.5,13.3-8.9,20.3-1.4,4-4.4,7.4-9.6,7.1-.7,8.6-9,9.6-14,13.8-.6.6-3-.9-4.9-1.7-2.7,7.5-10.6,4.6-16.2,7.1-2.3,1.1-3.6-.9-3.4-3.3l2.1-.5,1.1-.2,1.9-1.6,11.1-7.2,1.9-1h0c14.3-3.2,24.8-11.7,31.5-24.4,3.8-7.3,6-15.4,8.4-23.2,1.6-5.2,2.3-10.7,3.5-16.1C382.3,317.4,385,308.4,387.8,299.5Z"/><path class="cls-11" d="M330.3,228l.9,1.7-2.2,5.4a47.5,47.5,0,0,1-1.4-4.6c-.5-4.4-1.2-8.5-6.3-9.9h-.1c-.3-.4-.4-1-.8-1.2a12.5,12.5,0,0,0-14.3,2.4,12.8,12.8,0,0,0-2.5,14.7c2.3,4.7,7.4,7.8,12.7,6.8,3-.5,5.9-2.1,8.8-3.2v.9c-.9,1.3-1.5,3.2-2.7,3.8-8.2,4.1-17,5.2-26.1,4.3l-.2-.3a7.6,7.6,0,0,0,.1-1.5c3.2-1.3,1.2-2.3-.1-3.4l-3-8.8,6-14.2v-.6l9.1-8.3H311l3-.5c5.7-1.5,9.7,1.9,14,4.5h0l.9,3.2C329.4,222.1,329.8,225.1,330.3,228Z"/><path class="cls-9" d="M359,261.1l13.1,1.9c0,1.2-.4,2.6.2,3.5,5,8,3.5,16-4.3,21.9-2.5,1.9-5.2,3.6-8,5.5l1.8,3.9c-1.4-.2-2.6,0-3.2-.5-3-2.4-4.8-1.9-6.6,1.7-.5,1.1-2.6,1.8-4.2,2.3a12.9,12.9,0,0,1-4.8.4c-.7-.1-1.4-1.2-2-1.9,4.6-2.8,9.5-5.3,13.9-8.4s9.9-9.5,10.2-16.7c.2-2.9-1.3-5.9-2-8.9l-3.9-3.9A.8.8,0,0,1,359,261.1Z"/><path class="cls-21" d="M387.8,299.5c-2.8,8.9-5.5,17.9-8.3,26.8L369,314.4a37.3,37.3,0,0,0,1.2-5.6,20.9,20.9,0,0,0-.8-4.9l19.7-18.1,2,2.1Z"/><path class="cls-22" d="M369.4,303.9a20.9,20.9,0,0,1,.8,4.9,37.3,37.3,0,0,1-1.2,5.6l-13,11.4c0-2,.2-4,.1-6-.2-4.7-1.7-5.9-6.2-5l-3.9,1.1c-15.7,4.5-31.4,8.8-48,6.2-1-.2-2.1.6-3.1,1-.5-1.4-1.1-2.7-1.6-4,12.9-.8,25.8-.8,38.6-2.5,8.6-1.1,16.8-4.4,25.2-6.7H357l4.1-2.1H361l3.1-1.1H364l2.1-1.6Z"/><path class="cls-8" d="M257,294c-2.3-7.5-5.5-14.9-2.8-23,2.1-.1,4-.3,3.7,3-1.4,15.8,6.9,26.4,19.7,33.4,7.4,4.1,16,5.8,24.1,8.4,1,.3,2.4-.6,3.4-.3a10.5,10.5,0,0,1,2.9,2.3H293.2L283.1,316l-3.2-2C269.7,310.3,261.8,303.9,257,294Z"/><path class="cls-23" d="M372.2,385.1c2.7-4.7,5.3-9.4,7.9-14.2,1,6.4,2,12.8,2.9,19.2-6.9,5.8-13.7,11.9-22.6,14.6l-1.4.3c.8-1.1,1.7-2.1,2.5-3.3,2.3-3.2,4.4-6.5,6.6-9.7S370.9,387.4,372.2,385.1Z"/><path class="cls-11" d="M288.9,363.1l.2-1.1h3l.9,2.9c-1,2.3-2.4,4.6,1,6.1l.2,1.1c-1.9,6.7-1.4,13.1,2.8,18.9h0l1,.9h0l1,1h-.1l5.7,5.7c-2.7.3-2.4,1.3-1.1,3.2,4.2,5.9,10.6,7.2,17,7.8,3.6.3,7.3-1.4,10.9-1.8,6.2-.5,12.5-.7,18.7-1a1.4,1.4,0,0,0-.2.6l-4.9,2.3h0l-11.3,2-1.8,1.1c-1.6-.3-3.2-1-4.7-.9-9.8.6-19-1.3-27.1-7.2h0l-1-1h0A11.8,11.8,0,0,0,298,402l-.9-1.1h0c-1.4-4.5-3.3-8.9-4.2-13.5C291.3,379.3,290.2,371.2,288.9,363.1Z"/><path class="cls-12" d="M313.1,181.1l-4.8-15.2c.2-.7.8-1.5.6-2.2-1.1-7.3-2-14.7-3.8-21.8s-4.7-15.3-7-23l.2-.2c6.4,6.4,7.1,15.1,8.7,23.2,2.2,10.9,4,21.8,6.1,32.7a18.6,18.6,0,0,0,2,4.3Z"/><path class="cls-4" d="M310.3,212h-1.6l-1.4-4.8,16.8-1.5,4,3.2a41.4,41.4,0,0,1,.9,4.6,30.9,30.9,0,0,1,.1,4.3L328,216h0c-2.8-5.7-9.4-7.9-14-4.5l-3,.5Z"/><path class="cls-10" d="M293.2,317.8H308c14.7.2,28.9-2.5,42.9-6.5a62.1,62.1,0,0,1,6.2-1.4c-8.4,2.3-16.6,5.6-25.2,6.7-12.8,1.7-25.7,1.7-38.6,2.5A6.2,6.2,0,0,1,293.2,317.8Z"/><path class="cls-1" d="M391.1,287.9l-2-2.1c2-4.1,4.1-8.3,6.4-12.8l-4.3-1.4c6.3-3.9,8.3-3.3,8.9,2.9l-3.2-1.2C395,278.2,393,283,391.1,287.9Z"/><path class="cls-8" d="M328.1,208.9l-4-3.2-2.6-3.4c3.9-3.1,6.5-1.9,10.7,4.8,0,1.8-.1,3.6-.1,5.3l-1.2-.5-.7-.8Z"/><path class="cls-4" d="M299.1,220.8l-6,14.2c-.1-3.2-.9-6.7,0-9.6S297,222.3,299.1,220.8Z"/><path class="cls-16" d="M368.1,392c-2.2,3.2-4.3,6.5-6.6,9.7-.8,1.2-1.7,2.2-2.5,3.3l-3.5,2-3.7-.3Z"/><path class="cls-19" d="M304.6,398.8l-5.7-5.7c5.3,2.9,10,7.3,16.8,5.9a59.8,59.8,0,0,1,7.4-.8l-1.9,1.6-1.1.2-2.1.5C313.4,401.2,308.8,401.4,304.6,398.8Z"/><path class="cls-8" d="M414.8,287.2l-5.6-14.3,1.4-.6c4.7,3.5,4.7,9.2,5.6,14.5Z"/><path class="cls-4" d="M308.2,211.9l-9.1,8.3c-.6-3.7-1.5-7.6,4.7-6.7C305.2,213.6,306.7,212.5,308.2,211.9Z"/><path class="cls-15" d="M351.8,406.7l3.7.3,7.7,8.1-1.1,1.3-2.2-.6c-.7-1.6-1.1-3.6-2.3-4.6s-4.8-4.3-6.8.3l-.9-.4v-3.5a1.4,1.4,0,0,1,.2-.6Z"/><path class="cls-8" d="M406.9,295.6l-2.1-10.8,2-.4,2.8,10.6Z"/><path class="cls-12" d="M296,196a14.3,14.3,0,0,0,2.6,2.3,7.1,7.1,0,0,0,2.6.7c-.4,1.3-.8,2.6-1.1,3.9C298.7,200.6,297.3,198.3,296,196Z"/><path class="cls-10" d="M361.1,307.9,357,310Z"/><path class="cls-12" d="M303.1,196l1.2-2.7Z"/><path class="cls-9" d="M296.1,243.8c1.3,1.1,3.3,2.1.1,3.4C296.2,246.1,296.2,244.9,296.1,243.8Z"/><path class="cls-12" d="M301.1,199a32.8,32.8,0,0,0,2-3.1A32.8,32.8,0,0,1,301.1,199Z"/><path class="cls-10" d="M364.1,306.9,361,308Z"/><path class="cls-9" d="M283.1,243.9h-2.2v-.7l2.1.8Z"/><path class="cls-10" d="M366.1,305.4,364,307Z"/><path class="cls-9" d="M322.4,303.3h0Z"/><path class="cls-10" d="M273.1,426.9l11.3-5.1-.6-1.5,2.9,1.6c5.6,18.7,1.9,35.2-11.3,49.6-1.1,1.3-1.6,3-2.4,4.4l-2.3,1.9-1.7.4-6.9,3c-12.7,5-25.7,6.3-39,2.7h0l-2-.8a1.5,1.5,0,0,0-.9-.2,12.5,12.5,0,0,0-2.3-2.3c-7.3-4.3-12.3-10.6-16.4-18.7,2.9-1.4,5.7-2.9,8.7-4.1,9.5-3.7,19.2-6.7,28.3-11,10.8-5.1,21-11.3,31.5-17l.7.5.3-1.2v-1.2h0l1-1Z"/><path class="cls-7" d="M168.9,558.1l-1.9-1.9c-4.3-5.9-3.3-12.4-1.5-18.5,4-13.7,12.1-24.3,25.1-30.9,7.7-3.9,15.5-4.5,23.5-.9,0,.3.1.5.1.7a65.9,65.9,0,0,1-19.1,30.6c-7.3,6.7-15.6,12.1-23.4,18.2C170.7,556.2,169.9,557.2,168.9,558.1Z"/><path class="cls-4" d="M214.2,506.6c0-.2-.1-.4-.1-.7,2.6-10.6,1.9-21.1-17.3-22.5,5.4-4.6,10.3-5.1,16.3-2.2,2.1,1.1,4.7,1.2,7.1,1.7a1.5,1.5,0,0,1,.9.2l2,.8h0c.6,1.1.9,2.6,1.8,3.3,5.3,4,7.6,9.4,7.2,16s-.7,11.4-1,17.1a11,11,0,0,0,.2,1.8L225,536c-.3-4.3-.4-8.5-.9-12.8C223.2,516.3,221,510.1,214.2,506.6Z"/><path class="cls-10" d="M157.7,561.6c-3.6,6.5-5.8,7.7-11.7,6.5-3.8-3.4-3.9-6,.2-8.5A19,19,0,0,1,154,557C157.1,556.6,158.6,558.3,157.7,561.6Z"/><path class="cls-14" d="M185,469l5-5.1C190.4,467.6,187.8,468.4,185,469Z"/><path class="cls-15" d="M271,429.1l-.3,1.2-.7-.5Z"/><path class="cls-11" d="M175,513l.4.2-.4-.2Z"/><path class="cls-11" d="M294.1,90.9l.8.9Z"/><path class="cls-12" d="M258.2,161.2l-.6-1.7h.8l-.5-.6c6.3-12.6,12.3-25.4,19-37.7,5-9.1,9.4-9.8,18.7-4.9l-.6.7c-6-2-11.5-.5-14.7,4.8-7.2,11.8-13.6,24.1-20.1,35.7l3.8,3.6Z"/><path class="cls-24" d="M313.1,114.4l.2-3.1h.6c.1,1,.1,2.1.2,3.1Z"/><path class="cls-12" d="M295.6,116.3l1.6,1.4v.2L295,117Z"/><path class="cls-3" d="M298.5,93.6h.3V94h-.5Z"/><path class="cls-12" d="M297.2,117.7l1.1,1-.2.2a4.7,4.7,0,0,1-1-1Z"/><path class="cls-1" d="M257.9,158.9l.5.6h-.8A.6.6,0,0,1,257.9,158.9Z"/><path class="cls-8" d="M301.4,508l-.6-2.3a76.5,76.5,0,0,1,3.2-7.1c8.5-14,12.8-28.9,11.7-45.3L314.2,422l18.9,5.8,7.3,2.2a17,17,0,0,0,1.9,1.9c2.5,6.7,9.4,9.7,16.7,7.2s9.6-6.3,9.1-13.1c2.7-3,5.2-3,6.6.3,7.2,17.1,12.9,34.6,11.4,53.5s-10.2,28.5-29.6,36.2c-4,1.6-8.1,2.8-12,4.8,11,5.4,20.4-2.3,31.4-4-2.6,7.2-7.7,11.5-13,15.1-13.1,9.2-28.2,13-43.7,15-7.4,1-14.9,1.2-22.3,1.7V533.7c1.4-6.2,2.9-12.5,4.3-18.7Z"/><path class="cls-25" d="M368.1,426c.5,6.8-3.1,10.8-9.1,13.1-6.4.1-12.1-1.2-14.9-7.9l-1.8.7a17,17,0,0,1-1.9-1.9c-.2-2.6-.3-5.3-.5-8l9.3-6.7c-.5,1.2-1,2.4-1.6,3.6l3.6-1.1,3.7,6.9,7.1-4.4-.6-1.1,2.7.7h0l2.6,3.4C367.1,424.2,367.6,425.1,368.1,426Z"/><path class="cls-20" d="M364.1,419.9l-2.7-.7.6,1.1-7.1,4.4-3.7-6.9-3.6,1.1c.6-1.2,1.1-2.4,1.6-3.6l.8-.4,4.2-1.1v9.5c1.6-.9,3.4-1.3,4.2-2.4s1-3.4,1.5-5.1l2.2.6Z"/><path class="cls-14" d="M371.1,537.9l-2.6,1.7c.2-1,.1-2.2.7-2.8,3.7-3.6,7.6-7.1,11.4-10.6a3.9,3.9,0,0,0,.8,1c0,.5-.1,1.1-.1,1.6l-8.7,8.1L371,538Z"/><path class="cls-20" d="M366.7,423.3l-2.6-3.4Z"/><path class="cls-14" d="M382.3,524.5a12.9,12.9,0,0,1,1.6-1.7l.9.9-1.5,1.5Z"/><path class="cls-14" d="M381.3,525.5a9.4,9.4,0,0,1,1-1l1,.7-1,1Z"/><path class="cls-14" d="M380.6,526.2a4.6,4.6,0,0,1,.7-.7l1,.7-.9,1Z"/><path class="cls-12" d="M396.9,127.8l5.1-6.9h.1l-4.9,7Z"/><path class="cls-12" d="M401.2,111.8l5.9-.3v1.2h-5.9Z"/><path class="cls-12" d="M412,115l-2.4-1.1.6-1,2.1,1.9Z"/><path class="cls-12" d="M402,120.9l2-1.1v.2l-2,1Z"/><path class="cls-9" d="M462.8,134.9l4.2,3.7-.7,1-4.2-2.3a3.9,3.9,0,0,1,.8-1l-.8-.4h0Z"/><path class="cls-15" d="M388.3,640a28.3,28.3,0,0,0,2.8-2c-.8,1.8-1.7,3.6-2.6,5.4l-1.1-.6Z"/><path class="cls-15" d="M393.1,634.9l-1.1,3-.4.2h-.5Z"/><path class="cls-3" d="M273,475.9c.8-1.4,1.3-3.1,2.4-4.4,13.2-14.4,16.9-30.9,11.3-49.6-.5-1.9-1-3.8-1.4-5.8,2-.3,1.2-4.9,4.7-3.1h0l.8,1.3h-.1c.7,1.7,1.5,3.3,2.2,5,1.3,5.6,2.5,11.2,4.1,16.8,2.6,9.6,9.1,15.1,18.7,17.4-1.5,1.4-3.8,2.5-4.4,4.2s-.9,5.8-1.2,8.8c-.9,8.8-3.3,17-8.4,24.1-3.6-3.9-6.5-8.5-10.6-11.3-8.5-5.7-10.4-5.5-13.8-1.8,5.5.9,8,4.2,8.2,9.5s.4,8,.5,11.9c-6.9.8-11.9,4.7-16.1,10-10.7,13.8-10.6,42.9.5,56.5,2,2.4,4.9,4.1,7.4,6.1l2.2,1.7c-4.1.9-6.7,2.1-5.5,7.8s.3,12.8.3,19.1l-1-.6c-1.6,1.9-3.4,3.8-4.9,5.9a37.7,37.7,0,0,0-2.8,5.7h-1.3c-1.6-7.6-3.3-15.3-4.9-22.9,0-3.3.3-6.6,0-9.8-1.2-9.9-2.6-19.8-3.8-29.6-1.6-12.1-3.1-24.2-1.1-36.5,1.3-8.3,2.7-16.4,8.1-23.3,2.4-3.2,4-7.1,5.9-10.7l1.7-.4C271.6,477.4,274.6,479.3,273,475.9Z"/><path class="cls-9" d="M266.1,611a37.7,37.7,0,0,1,2.8-5.7c1.5-2.1,3.3-4,4.9-5.9l1,.6c0-6.3,1.1-13-.3-19.1s1.4-6.9,5.5-7.8l3.3,1c2.1,12.5,4,24.2,5.9,35.9v1l-7-2c-3.1-2.4-5.7-2.4-8.4.7S269.3,614.8,266.1,611Z"/><path class="cls-1" d="M305,676c3-10.5.6-19.8-6.8-27.7s-12.4-7.4-22.2-3.3c2-3.3,6.5-5.3,11.5-4.6,2.5.3,4.8,1.3,7.2,1.9,8.4,6.1,13.6,14,13.5,24.7,0,3.1-1.2,6.1-1.9,9.1Z"/><path class="cls-1" d="M276,644.9v1l-1.1,1.1-.9.9-1.4.2-.5-.8Z"/><path class="cls-8" d="M441.4,644.1c-1.7,2.7-2.6,5.6-4.5,6.6s-5.7-.4-7.5-3.2l-3.7-5.3c-1.6-2.6-2.3-5.1.7-7.4s6.7-3.3,9.5-.3S439.4,640.5,441.4,644.1Z"/><path class="cls-11" d="M449.1,641c-1.7-2.2-3.4-4.4-4.9-6.6-.3-.5.1-1.5.2-2.3,8.4.8,13.8,6.3,15,15.3,0,1.3-.1,2.6-.1,4s-.1,1-.2,1.6Z"/><path class="cls-1" d="M427,667h-1.4a17.9,17.9,0,0,0,1.3-3.2c2.4-11.2-9.4-29.3-20.7-31.9l2.2-1c4,2.5,9.1,4.1,11.6,7.6,3.9,5.8,6.5,12.6,8.6,19.3C429.5,660.3,427.6,663.9,427,667Z"/><path class="cls-15" d="M408.4,630.8l-2.2,1L396,633C399.8,630.3,403.9,629.2,408.4,630.8Z"/><path class="cls-1" d="M426.1,629.9,424,631l-.2-.7,2.4-.3Z"/><path class="cls-15" d="M395.1,634l-2.1,1Z"/><path class="cls-15" d="M396.1,632.9l-1,1.1Z"/><path class="cls-9" d="M226.2,571c.9-4.9,1.9-9.9,2.9-15.1l13.8,3.1,3.1.8,3.5.3,2.5.9h0c.1,2.4.7,4.9.3,7.2-.8,4.3-2.2,8.5-3.3,12.8-4-3.2-8.8-2.8-12,1l-3.1,1.4c-3.6,1.6-5.3.4-5.9-3.6-.4-2.1-1.6-4-2.4-6.1l.5-1.7c.1-.1.4-.2.3-.3A2.5,2.5,0,0,0,226.2,571Z"/><path class="cls-5" d="M259.9,637.3l-5.7.6h-8a.9.9,0,0,1-.3-.7c.6-.5,1.2-1.3,1.9-1.5,10.1-3.5,10.7-11.9,7.4-20.1-1.6-4.2-3.8-8.1-8.9-9.1-.9-.2-1.5-1.1-2.3-1.8l4.2-2.1,1.4-.3c9.7-1.3,11.7,0,13.3,9.4,1.1,6,1.5,12.1,2.5,18.1S265,637.2,259.9,637.3Z"/><path class="cls-5" d="M237,582c3.2-3.8,8-4.2,12-1l1.2,8.5c1,1.3,1.9,2.7,2.8,4.1l-2.3,1,.9,1.2h7.7c.2,1.9.4,3.5.6,5l-1.7-.2-6.6.2h-1.8l-1.7.3-5.1,1.7,5.1-5.3c-1-.3-2.6-1.2-3.7-.8-4.2,1.3-6.9-.2-7.3-4.8S237,585.3,237,582Z"/><path class="cls-15" d="M243,602.9l5.1-1.7a6.1,6.1,0,0,0,.1,1.4l-4.2,2.1-1.8.5-1-.9Z"/><path class="cls-15" d="M222.2,608.4l.4-4.3Z"/><path class="cls-15" d="M242.2,605.2l-1.9.7.9-1.6Z"/><path class="cls-15" d="M222.2,617.4v0Z"/><path class="cls-15" d="M222.1,620.1a7.8,7.8,0,0,1,.2-1.6A7.8,7.8,0,0,0,222.1,620.1Z"/><polygon class="cls-14" points="429 269 429 268.9 429.1 269 429 269"/><path class="cls-8" d="M225,536l6.3-13.9a31,31,0,0,1,4.2-.8l12.7-.4c.4,7.6.7,15.1,1.1,22.6-1.5.8-3.1,2.5-4.5,2.4-8.3-.8-16.5-1.9-24.8-2.9l1.2-3Z"/><path class="cls-1" d="M221.2,540l-1.2,3h-.9Z"/><path class="cls-1" d="M215,545.9l2.1-.9h0c-.4.5-.9,1-1.3,1.6Z"/><path class="cls-1" d="M217.1,545a9.4,9.4,0,0,0,1-1h.1l-1.1,1Z"/><path class="cls-1" d="M218.1,544a9.4,9.4,0,0,0,1-1h.1l-1,1Z"/><path class="cls-9" d="M125,615.9l1.1-.7.3.4-1.3.5Z"/><path class="cls-4" d="M320.9,648l3.7,5.9c-.4.3-1.1.5-1.1.9-.9,3.7-2.5,6.6-7,6.1s-8-5.2-8.4-8.8,4.2-7.6,9.3-5.8A22.6,22.6,0,0,1,320.9,648Z"/><path class="cls-14" d="M289.1,611v-1l1-1.2c.6,1.7,1.1,3.4,1.8,5s2.7,5.4,4,8v2.1a13.4,13.4,0,0,0-1.1,1.4C293,620.5,291,615.8,289.1,611Z"/><path class="cls-14" d="M305,676h1.3L303,681C303.7,679.4,304.4,677.7,305,676Z"/><path class="cls-14" d="M301,683l2.1-2Z"/><path class="cls-1" d="M324.1,676l-1,2.1Z"/><path class="cls-14" d="M323.1,678l-1,1.1Z"/><path class="cls-14" d="M322.1,679l-1,1.1Z"/><path class="cls-14" d="M321.1,680l-1,1.1Z"/><path class="cls-20" d="M372.6,536.9l8.7-8.1,7.5-4.1c.5,13.1,1,26.1,1.3,39.1,0,3.6-.6,7.2-.9,10.8l-1.1.5-6-1.9-1-.4c-13.1-8.6-15.9-17.7-10.2-32.6a8.6,8.6,0,0,0,.2-2.3H371Z"/><path class="cls-9" d="M381.1,572.8l1,.4Z"/><path class="cls-9" d="M286,498.8c-.1-3.9-.3-7.9-.5-11.9s-2.7-8.6-8.2-9.5c3.4-3.7,5.3-3.9,13.8,1.8,4.1,2.8,7,7.4,10.6,11.3,5.1-7.1,7.5-15.3,8.4-24.1.3-3,.2-6.1,1.2-8.8s2.9-2.8,4.4-4.2h0c1.1,16.4-3.2,31.3-11.7,45.3a76.5,76.5,0,0,0-3.2,7.1c-1.4.2.7,4.7-2.9,2.4C295.8,502.6,291.6,499.9,286,498.8Z"/><path class="cls-5" d="M339.9,422c.2,2.7.3,5.4.5,8l-7.3-2.2L314.2,422c0-.6-.1-1.3-.1-1.9l6.9.7c4.8.1,9.6.1,14.4.3A35.8,35.8,0,0,1,339.9,422Z"/><path class="cls-16" d="M321,420.8l-6.9-.7-9.3-5.9c.1-.1.3-.2.4-.4l13.4,5A11.1,11.1,0,0,1,321,420.8Z"/><path class="cls-16" d="M296.1,407.8l4,.2H300l5.2,5.9c-.1.2-.3.3-.4.4Z"/><path class="cls-15" d="M292.9,419.2c-.7-1.7-1.5-3.3-2.2-5C291.4,415.9,292.2,417.5,292.9,419.2Z"/><path class="cls-15" d="M290.8,414.3,290,413Z"/><path class="cls-4" d="M274.9,647l1.1-1.1Z"/><path class="cls-8" d="M172,631l-1.9,1.3-4,3.6c-1.4-1.7-3.3-3.1-4-5s-2.6-6.4,1.2-8.2c1.6-.8,4,0,6.1.1C170.3,625.5,171.1,628.3,172,631Z"/><path class="cls-3" d="M175,633c-.1-1-.1-2-.2-2.9l3.6-7.4c3.5,4.7,4.8,9.7,2.5,15.3Z"/><path class="cls-4" d="M175,633l5.9,5-2.1,4.8-1,1-1.5.9c-1.5.4-3.1.9-4.7,1.2a10.7,10.7,0,0,1-.6-1.9C172.3,640.3,173.7,636.6,175,633Z"/><path class="cls-4" d="M178.4,622.7l-3.6,7.4c-1.6-4-3.2-7.9-5.3-13.4Z"/><path class="cls-2" d="M158.4,612.5l2.2,1.3-2.9-.5Z"/><path class="cls-3" d="M233.7,131l-.6.5-.6-.9c.2-.1.5-.4.7-.3S233.5,130.7,233.7,131Z"/><path class="cls-3" d="M231.3,134.3v.4l-.4-.2c0-.1,0-.3.1-.3Z"/><path class="cls-9" d="M177.6,358.8c2.6,4.3,4.6,8.7,3.2,13.9L159.1,396l-2.1-2v-2c4.4-1.3,3.4-4.1,2.1-7v-2l3.9-2.1c-.3-1.6-.7-3.3-1-4.9l3-6.5c7.3,5.8,7.3,5.8,9.9,5.2.8-2.2,1.5-4.4,2.4-6.8C174,364.6,173.9,361.8,177.6,358.8Z"/><path class="cls-19" d="M399.3,196.1c-1.2-1-2.6-1.8-3.7-2.9-2.8-3.2-5.2-6.9-8.5-9.7s-3.8-5.5-1.8-9.2c1-1.9,1.3-4.1,2-6.2s2-2.5,2.8-3.8c3.5-5.4,6.4-11.3,10.6-16.2,5.6-6.6,13.7-5.7,19.1,1.2s6,12.5,5.3,19.7h.1l-1.1,1.3-2.4,2.8-1.5,1h0l-1.1,1h.1l-9.1,8h.1l-3,4h0l-4,4h0l-1,2h0l-2.2,1.6-.9,1.4Z"/><path class="cls-26" d="M425.1,169c.7-7.2-.8-13.8-5.3-19.7s-13.5-7.8-19.1-1.2c-4.2,4.9-7.1,10.8-10.6,16.2-.8,1.3-1.9,2.6-2.8,3.8a77.6,77.6,0,0,1,1.3-8.2c2.8-10.6,5.7-21.3,8.6-31.9l4.9-7,2-1c9.8-1,13.1.7,17.4,9.9s9.3,20.9,13.7,31.4c.6,1.3-.1,3.1-.1,4.6Z"/><path class="cls-10" d="M175.1,432.9c1.3,2.4,3.7,4.8,3.9,7.3.3,5,6.1,8.2,4.1,13.7l-12-3.2c-5.7-3.5-10-8.2-12.1-14.7v-9.1l11.2,5h1.9l2.9.9Z"/><path class="cls-9" d="M159,426.9V436c-2.3,1.3,1,6.4-4,6-1-5.4-1.9-10.7-2.9-16,.5-.6,1.4-1.2,1.4-1.9.3-5.4.4-10.7.5-16.1.4-1,.7-2,1-3l2.1-3c-.7,7.2-.5,14.3,2.7,21Z"/><path class="cls-3" d="M154,408c-.1,5.4-.2,10.7-.5,16.1,0,.7-.9,1.3-1.4,1.9-.4-4.7-.9-9.4-.9-14.1C151.2,410.6,153,409.3,154,408Z"/><path class="cls-3" d="M157.1,402l-2.1,3c-1.7-4.1-3.4-8.2,2-11l2.1,2c-.3,1-.7,2-1.1,3l-.8,1.6Z"/><path class="cls-3" d="M159.1,385c1.3,2.9,2.3,5.7-2.1,7Z"/><path class="cls-3" d="M163,380.9l-3.9,2.1Z"/><path class="cls-7" d="M462.1,135.9l.8.4a3.9,3.9,0,0,0-.8,1Z"/><path class="cls-8" d="M333.3,648.8a17,17,0,0,1,7,12.8c-.5.8-.9,2-1.7,2.2-2.9.8-7.4-3.1-8.8-7.3S329.2,650,333.3,648.8Z"/><path class="cls-4" d="M258.2,161.2H264l1,1.1h-.1l2.1,1.1h-.1l2.1,1h-.1L271,166h0l2,1h0l2.1,3.1v.8c-.8.1-1.9.6-2.5.2-5.8-3.2-11.6-2.5-17.5-.3-.5-.7-1.5-1.6-1.4-2C255.1,166.2,256.7,163.8,258.2,161.2Z"/><path class="cls-14" d="M283.9,179l7.2,7.9h-1.3l-5.2-6.3A12.2,12.2,0,0,1,283.9,179Z"/><path class="cls-14" d="M277,171l4,4Z"/><path class="cls-4" d="M283.9,179a12.2,12.2,0,0,0,.7,1.7c-2.5-.1-4.7-.4-3.4-3.8L283,178h0l1,1Z"/><path class="cls-12" d="M293,191l3,5Z"/><path class="cls-12" d="M289.8,187h1.3c.6,1.3,1.3,2.7,1.9,4.1Z"/><path class="cls-14" d="M283,178l-1.8-1.1a13.7,13.7,0,0,1-.2-1.9Z"/><path class="cls-10" d="M286,498.8c5.6,1.1,9.8,3.8,11.9,9.3.1,2-.1,4,.2,6,1,7.9-2.9,14.6-4.9,21.8-2.5,9.1-4.8,18.2-7.2,27.4-.4,1.5-.5,3.2-1,4.8s-2,5.8-5.7,2.4c-.1-.1-1,.6-1.5.9-2.5-2-5.4-3.7-7.4-6.1-11.1-13.6-11.2-42.7-.5-56.5C274.1,503.5,279.1,499.6,286,498.8Z"/><path class="cls-4" d="M296,621.8c-1.3-2.6-2.7-5.3-4-8s-1.2-3.3-1.8-5c.7,0,1.9-.1,2,.1C293.5,613.2,294.7,617.5,296,621.8Z"/><path class="cls-9" d="M301.4,508l-.2,7Z"/><path class="cls-3" d="M232.1,503.2c.4-6.6-1.9-12-7.2-16-.9-.7-1.2-2.2-1.8-3.3,13.3,3.6,26.3,2.3,39-2.7.3,1,.5,2.1.8,3.1L260,487h.1c-6.5,6.4-8.2,15-10.5,23.3l-4.4,1.7c-3.9,1.2-7.3,6-12.1,2.1C232.8,510.4,232.4,506.8,232.1,503.2Z"/><path class="cls-11" d="M262.9,484.3c-.3-1-.5-2.1-.8-3.1l6.9-3c-1.9,3.6-3.5,7.5-5.9,10.7-5.4,6.9-6.8,15-8.1,23.3-2,12.3-.5,24.4,1.1,36.5,1.2,9.8,2.6,19.7,3.8,29.6.3,3.2,0,6.5,0,9.8l-2.4,5.8-4.5-.3c-.9-1.4-1.8-2.8-2.8-4.1s1.2-2.5,1.1-3.7c-.2-5.2-1-10.5,2.3-15.6l2.2,8,1.4-.3-4.1-21.1c-.7-10.9-1.7-21.8-2.2-32.8a59.6,59.6,0,0,1,8.8-34.6,6.6,6.6,0,0,0,.4-2.5H260Z"/><path class="cls-5" d="M218.2,544.1l1-1h.8c8.3,1,16.5,2.1,24.8,2.9,1.4.1,3-1.6,4.5-2.4l2.1,11.5c-.2,1.3-.4,2.6-.5,3.9-10.6-3-21.2-6-31.8-9.3-1.3-.4-2.2-1.9-3.3-2.9l1.3-1.6Z"/><path class="cls-9" d="M233.1,514c4.8,3.9,8.2-.9,12.1-2.1l4.4-1.7a12.1,12.1,0,0,1-.5,1.8c0,.3-.1.6-.1,1-.3,2.6-.5,5.3-.8,7.9l-12.7.4a31,31,0,0,0-4.2.8,11,11,0,0,1-.2-1.8C231.7,518.2,232.4,516.1,233.1,514Z"/><path class="cls-14" d="M253.1,556.8c1.4,7,2.7,14,4.1,21.1l-1.4.3-2.2-8c-3.3,5.1-2.5,10.4-2.3,15.6.1,1.2-.7,2.5-1.1,3.7L249,581c1.1-4.3,2.5-8.5,3.3-12.8.4-2.3-.2-4.8-.3-7.2S252.8,558.2,253.1,556.8Z"/><path class="cls-14" d="M250.9,558.9c.1-1.3.3-2.6.5-3.9C251.2,556.3,251,557.6,250.9,558.9Z"/><path class="cls-14" d="M246,559.8l-3.1-.8Z"/><path class="cls-14" d="M252,561l-2.5-.9Z"/><path class="cls-3" d="M249,513c0-.4.1-.7.1-1S249,512.6,249,513Z"/><path class="cls-8" d="M226.2,571a2.5,2.5,0,0,1,.2.7c.1.1-.2.2-.3.3A1.1,1.1,0,0,1,226.2,571Z"/><path class="cls-4" d="M425.1,169l10-3.1c5,1,4.6,6.1,7,9,.1.4.1.7.2,1.1l-3.2.8c-3.5-3.2-7.1-4.4-11.6-1.9s-8.9,4.1-13.3,6.1l-.3-.3,5.3-5.7h-.1l1.1-1h0l1.5-1,2.4-2.8,1.1-1.3Z"/><path class="cls-9" d="M442.3,176c-.1-.4-.1-.7-.2-1.1a4.3,4.3,0,0,0,.4.7C442.5,175.7,442.3,175.8,442.3,176Z"/><path class="cls-6" d="M413.2,116.9l.4.5-.6-.4Z"/><path class="cls-4" d="M414.2,181l-5.2,4.9,1.2-2.9h-.1l3.8-2.3Z"/><path class="cls-14" d="M403.2,191l4-4Z"/><path class="cls-14" d="M410.2,183l-1.2,2.9-1.8,1.1Z"/><path class="cls-14" d="M400,194.6l2.2-1.6-2.1,3C400.1,195.5,400,195.1,400,194.6Z"/><path class="cls-14" d="M402.2,193l1-2Z"/><path class="cls-12" d="M400,194.6c0,.5.1.9.1,1.4h-1Z"/><path class="cls-9" d="M293,364.9l-.9-2.9a74.3,74.3,0,0,0-3.8-31c-.9-2.6-.8-5.5-1.1-8.2l1.7,1.2.9,2.1c2.5,13.2,5,26.4,7.4,39.5l-.4.4h-1.7Z"/><path class="cls-1" d="M288.9,324l-1.7-1.2-4.1-6.8,10.1,1.8a6.2,6.2,0,0,0,.1,1.3c.5,1.3,1.1,2.6,1.6,4l8.5,10.2c-5.6.8-7-3.8-9.1-7.3a65.8,65.8,0,0,1-3.2-7.2l-1.5.2c-.2,1.7-.3,3.3-.5,4.9Z"/><path class="cls-3" d="M272,427l-1,1Z"/><path class="cls-15" d="M258.2,600.6l1.7.2Z"/><path class="cls-15" d="M249.8,600.9h0Z"/><path class="cls-20" d="M158,399c.4-1,.8-2,1.1-3l21.7-23.3c-.4,6.1-.7,12.2-1.3,18.2-.3,3-1.1,5.9-1.6,8.8L177,402c-.1.9-.1,1.8-.2,2.7-2.3,5.6-2.8,11.5-2.4,18.8,1.7-3.1,2.6-4.9,3.5-6.6h.2c-.5,5-1.1,10-1.6,14.9l-1.4,1H175l-2.9-.9h-1.9L159.8,423c-3.2-6.7-3.4-13.8-2.7-21,0-.5.1-1,.1-1.4S157.8,399.5,158,399Z"/><path class="cls-12" d="M177,402l.9-2.3Z"/><path class="cls-4" d="M388.8,524.7l-7.5,4.1c0-.5.1-1.1.1-1.6l.9-1,1-1,1.5-1.5,4.1-4.8c.1,1.6.2,2.8.3,4.1A13.6,13.6,0,0,1,388.8,524.7Z"/><path class="cls-20" d="M177.9,416.9l.5-1.4.4.3-.7,1.2Z"/><path class="cls-5" d="M459.3,651.4c0-1.4.1-2.7.1-4C459.4,648.7,459.3,650,459.3,651.4Z"/><path class="cls-27" d="M408.5,94.4,405.8,96l-.5-.5,2-2.2Z"/><path class="cls-17" d="M288.9,363.1c1.3,8.1,2.4,16.2,4,24.3.9,4.6,2.8,9,4.2,13.5l-4.1-3.6-1-1.3h0c-.6-4-1.3-8-2-12s-1.2-5.6-1.7-8.4Z"/><path class="cls-10" d="M300.1,404.9c8.1,5.9,17.3,7.8,27.1,7.2,1.5-.1,3.1.6,4.7.9-4.9.2-9.9,1.1-14.7.3s-11.4-3.5-17.2-5.4h.1Z"/><path class="cls-23" d="M290,384c.7,4,1.4,8,2,12l-1.8-.7C289.7,391.5,286.1,387.8,290,384Z"/><path class="cls-17" d="M297.1,400.9l.9,1.1a8.6,8.6,0,0,1,.1,1.6Z"/><path class="cls-10" d="M298.1,403.6V402a11.8,11.8,0,0,1,1.1,1.9Z"/><path class="cls-23" d="M292,396l1,1.3Z"/><path class="cls-10" d="M299.1,403.9l1,1Z"/><path class="cls-7" d="M353.9,182.7a9.4,9.4,0,0,0,1-1l.5.6-1,1Z"/><path class="cls-14" d="M252.9,637.9h0Z"/><path class="cls-3" d="M329,235.1l2.2-5.4c1.3,2.9,2.4,5.9,4,8.7s3.9,6.3,5.9,9.4l1,1.1L344,251h0l1,1,1,1,1.1.9h.1l1.8,1.3c.3.5.7,1,1,1.6h-3.6l-9.3-2.8,2.4-3c-1.2-.6-2.3-1.7-3.6-1.9a78.5,78.5,0,0,0-10.8-.8c-1.6,0-3.1.8-5.4,1.5l6.6,2.8-17.6-.4-2.6.5-7.8,1,.7-1.7-2.7-2.9c9.1.9,17.9-.2,26.1-4.3,1.2-.6,1.8-2.5,2.7-3.8l2.8,2.5-.6-5.4Z"/><path class="cls-12" d="M345.9,239.8c-.6-1.1-1.8-2.3-1.7-3.4.4-6.5,1.2-13,1.9-19.5,3.1-3.3,5.7-7.5,9.4-9.9s7.7-2.2,11.6-3.1c.8,1.2,1.3,3.1,2.4,3.6,14.8,6.1,21.6,22.1,15.7,37.1a7.6,7.6,0,0,0,.1,4.7c-7.5,5.9-16,9.5-26.2,6.6-1.1-.3-2-1.4-3-2.1,2.8.5,5.5,1.3,8.2,1.6,11.3,1.3,20.4-7.2,19.7-18.3l-.9-12.2c-.8-7.2-6.9-14-14-15.8s-14.9,1.2-19.3,8.2A28,28,0,0,0,345.9,239.8Z"/><path class="cls-12" d="M328.1,208.9l2.1,2.2.7.8,1.2.5c0,3.9.2,7.8,0,11.7-.1,1.3-1.2,2.6-1.8,3.9-.5-2.9-.9-5.9-1.4-8.8a7.8,7.8,0,0,0,.2-1.4,30.9,30.9,0,0,0-.1-4.3A41.4,41.4,0,0,0,328.1,208.9Z"/><path class="cls-4" d="M354.4,183.3l1-1,7.3-3.8.6.6-9.2,7.1-.7-.6C353.8,184.8,354.1,184,354.4,183.3Z"/><path class="cls-4" d="M364,177.9l-.7,1.2-.6-.6,1.4-.6Z"/><polygon class="cls-4" points="364.1 177.9 364.2 177.8 364 177.9 364.1 177.9"/><path class="cls-17" d="M308.7,252.1l17.6.4,10.8,1.4,9.3,2.8-.3.3a.6.6,0,0,0-.1.4l6.2,1.5h-.1l7.1,3.1,3.9,3.9c-.7,9.6-8.4,12.1-15.5,13.6-20.6,4.3-41.1,3.4-61-4.1-5.3-2-8.5-4.9-7.7-10.9,3-5.7,8.7-7.4,14.2-9.3,1.7-.6,3.4-1,5.2-1.5l7.8-1Zm-3.2,6.3c-4-4.3-20,1.3-24.8,10,2.7,1,6.1,3.4,7.5,2.5C294.2,267.3,299.6,262.8,305.5,258.4Z"/><path class="cls-26" d="M297.1,117.9a4.7,4.7,0,0,0,1,1c2.3,7.7,5.1,15.2,7,23s2.7,14.5,3.8,21.8c.2.7-.4,1.5-.6,2.2l-4.2-8.3a100.2,100.2,0,0,0-4.8-9.2c-7.5-11.3-18-11-24.3,1.1-2.3,4.3-2.8,9.6-4.1,14.5H269l-2.1-1h.1l-2.1-1.1h.1l-1-1.1h0l-3.8-3.6c6.5-11.6,12.9-23.9,20.1-35.7,3.2-5.3,8.7-6.8,14.7-4.8Z"/><path class="cls-12" d="M275.1,170.1,273,167Z"/><path class="cls-12" d="M268.9,164.1h2c0,.7.1,1.3.1,2Z"/><path class="cls-12" d="M273,167l-2-1Z"/><path class="cls-14" d="M284,179l-1-1Z"/><path class="cls-11" d="M345.9,239.8a28,28,0,0,1,3.9-22.5c4.4-7,11.9-10,19.3-8.2s13.2,8.6,14,15.8c-1.2-.8-2.4-1.6-3.5-2.5a13.5,13.5,0,1,0-17.8,20.2,13.3,13.3,0,0,0,19.4-2.3l2.8-3.2c.7,11.1-8.4,19.6-19.7,18.3-2.7-.3-5.4-1.1-8.2-1.6h.1l-2.1-1.1Z"/><path class="cls-18" d="M359.2,261.9l-7.1-3.1,6.9,2.3A.8.8,0,0,0,359.2,261.9Z"/><path class="cls-18" d="M352.2,258.9l-6.2-1.5a.6.6,0,0,1,.1-.4l.3-.3H350Z"/><path class="cls-7" d="M344,251l-1.9-2.1Z"/><path class="cls-12" d="M354.1,252.8l2.1,1.1Z"/><path class="cls-7" d="M349,255.2l-1.8-1.3Z"/><path class="cls-7" d="M347.1,253.9,346,253Z"/><path class="cls-7" d="M345,252l-1-1Z"/><path class="cls-24" d="M356,325.8l13-11.4,10.5,11.9c-1.2,5.4-1.9,10.9-3.5,16.1-2.4,7.8-4.6,15.9-8.4,23.2-6.7,12.7-17.2,21.2-31.5,24.4a5.4,5.4,0,0,1,.4-2.2c4.7-7.4,9.6-14.7,14.1-22.3,2.3-4,4.5-7.2,9.9-7.3s7.3-2.7,7.4-7.3-2.9-7.2-7-7.7-10.5-.3-15.8-.4l-6.5-9.4Z"/><path class="cls-28" d="M345.1,342.8c5.3.1,10.6-.2,15.8.4s7.1,3,7,7.7-3.4,7.2-7.4,7.3-7.6,3.3-9.9,7.3c-4.5,7.6-9.4,14.9-14.1,22.3a5.4,5.4,0,0,0-.4,2.2h0l-1.9,1-11.1,7.2a59.8,59.8,0,0,0-7.4.8c-6.8,1.4-11.5-3-16.8-5.9h.1l-1-1h0l-1-.9h0c-.7-4.4-1.3-8.8-1.9-13.2,5.1,18.3,20,16,30.2,8.5s16.2-16.1,22.5-25.7a43,43,0,0,0,4.1-9c.8-2.5-.2-4.9-3.4-4.6-5.8.6-12.1.2-16.5,5.2l-3,1.7-1.6-1.5c2.4-3,.9-5.7-.3-8.5l12.6-.4C341.5,343.4,343.3,343,345.1,342.8Z"/><path class="cls-24" d="M334.2,391l1.9-1Z"/><path class="cls-3" d="M320.1,400l1.1-.2Z"/><path class="cls-10" d="M329,235.1c-.6.9-1.1,1.9-1.7,2.9a20.9,20.9,0,0,0-2.2,2c-2.9,1.1-5.8,2.7-8.8,3.2-5.3,1-10.4-2.1-12.7-6.8a12.8,12.8,0,0,1,2.5-14.7,12.5,12.5,0,0,1,14.3-2.4c.4.2.5.8.8,1.2-1.6-.2-3.4-.8-4.7-.3-3.6,1.2-7.5,2.3-10.2,4.7s-3.7,5.8-.8,9c1.9,5.6,5.5,8,10.8,7.3s8.2-4,8.7-10.2c.2-.9.7-1.9.4-2.5-1.2-2.7-2.7-5.3-4.1-7.9,5.1,1.4,5.8,5.5,6.3,9.9A47.5,47.5,0,0,0,329,235.1Z"/><path class="cls-15" d="M314,211.5c4.6-3.4,11.2-1.2,14,4.5C323.7,213.4,319.7,210,314,211.5Z"/><path class="cls-9" d="M325.1,240a20.9,20.9,0,0,1,2.2-2c.2,1.5.3,3,.6,5.4l-2.8-2.5Z"/><path class="cls-15" d="M329.1,217.8a7.8,7.8,0,0,1-.2,1.4L328,216Z"/><path class="cls-3" d="M310.3,212h0Z"/><path class="cls-27" d="M356,325.8l-17.4,7.6-27,2.5-5.8-1.5v.2l-2.5-1.2h0l-8.5-10.2c1-.4,2.1-1.2,3.1-1,16.6,2.6,32.3-1.7,48-6.2l3.9-1.1c4.5-.9,6,.3,6.2,5C356.2,321.8,356,323.8,356,325.8Z"/><path class="cls-29" d="M327.1,343.9c1.2,2.8,2.7,5.5.3,8.5l1.6,1.5-12.3,13.6c6.8-.9,14.8-9.9,15.3-15.3,4.4-5,10.7-4.6,16.5-5.2,3.2-.3,4.2,2.1,3.4,4.6a43,43,0,0,1-4.1,9c-6.3,9.6-13.1,18.7-22.5,25.7s-25.1,9.8-30.2-8.5l-.9-5.7a3.6,3.6,0,0,0-.2-1.1,2.8,2.8,0,0,0,.1-.9l2.7-4.1.4-.4,1-1.4c6-8.8,13.2-16.3,23.8-19.4l2.1-.4Z"/><path class="cls-13" d="M300,407.9c5.8,1.9,11.4,4.3,17.2,5.4s9.8-.1,14.7-.3l1.8-1.1c4.1,1.1,8.1,1.5,11.3-2h0l4.9,1.2.9.4v.2l-.9,3.2-.8.4-9.3,6.7a35.8,35.8,0,0,0-4.5-.9c-4.8-.2-9.6-.2-14.4-.3a11.1,11.1,0,0,0-2.4-2l-13.4-5Z"/><path class="cls-19" d="M294.2,372.1l.9,5.7c.6,4.4,1.2,8.8,1.9,13.2C292.8,385.2,292.3,378.8,294.2,372.1Z"/><path class="cls-10" d="M345,409.9c-3.2,3.5-7.2,3.1-11.3,2Z"/><path class="cls-3" d="M294.1,370.1a2.8,2.8,0,0,1-.1.9c-3.4-1.5-2-3.8-1-6.1l2.1,1.1C294.8,367.4,294.4,368.7,294.1,370.1Z"/><path class="cls-10" d="M349.9,411.1l-4.9-1.2,4.9-2.3Z"/><path class="cls-19" d="M297,391.1l1,.9Z"/><path class="cls-19" d="M298,392l1,1Z"/><path class="cls-7" d="M330.9,211.9l-.7-.8Z"/><path class="cls-25" d="M350.9,411.7v-.2c2-4.6,4.7-2,6.8-.3s1.6,3,2.3,4.6-.6,3.7-1.5,5.1-2.6,1.5-4.2,2.4v-9.5Z"/><path class="cls-9" d="M273,475.9c1.6,3.4-1.4,1.5-2.3,1.9Z"/><path class="cls-3" d="M223.1,483.9l-2-.8Z"/><path class="cls-14" d="M233.1,514c-.7,2.1-1.4,4.2-2,6.3.3-5.7.7-11.4,1-17.1C232.4,506.8,232.8,510.4,233.1,514Z"/><path class="cls-20" d="M342.3,431.9l1.8-.7c2.8,6.7,8.5,8,14.9,7.9C351.7,441.6,344.8,438.6,342.3,431.9Z"/><path class="cls-15" d="M350.9,411.7l3.3,2.1-4.2,1.1Z"/><path class="cls-3" d="M372.6,536.9,371,538Z"/><path class="cls-14" d="M413.9,180.7l-3.8,2.3,9.1-8Z"/><path class="cls-14" d="M421.7,173l-1.5,1Z"/><path class="cls-14" d="M420.2,174l-1.1,1Z"/><path class="cls-26" d="M425.2,168.9l-1.1,1.3Z"/><path class="cls-14" d="M159.8,423l10.4,8.9-11.2-5C159.3,425.6,159.5,424.3,159.8,423Z"/><path class="cls-12" d="M172.1,432l2.9.9Z"/><path class="cls-9" d="M158,399c-.2.5-.5,1-.8,1.6S157.8,399.5,158,399Z"/><path class="cls-12" d="M266.9,163l2.1,1Z"/><path class="cls-12" d="M264.9,162l2.1,1.1Z"/><path class="cls-12" d="M264,161l1,1.1Z"/><path class="cls-1" d="M262.9,484.3,260,487Z"/><path class="cls-12" d="M298.2,364.2l-1,1.4c-2.4-13.1-4.9-26.3-7.4-39.5l.3-.2c.9,1.1,2.5,2,2.7,3.1C294.7,340.7,296.4,352.5,298.2,364.2Z"/><path class="cls-11" d="M294.1,370.1c.3-1.4.7-2.7,1-4.1h1.7Z"/><path class="cls-12" d="M289.8,326.1l-.9-2.1h.2c.3.7.7,1.4,1,2Z"/><path class="cls-21" d="M290.1,325.9c-.3-.6-.7-1.3-1-2s.3-3.2.5-4.9l1.5-.2a65.8,65.8,0,0,0,3.2,7.2c2.1,3.5,3.5,8.1,9.1,7.3h0l2.5,1.2v-.2l5.8,1.5,27-2.5,6.5,9.4c-1.8.2-3.6.6-5.4.7l-12.6.4-3,.4-2.1.5c-10.6,3.1-17.8,10.6-23.8,19.4-1.8-11.7-3.5-23.5-5.4-35.2C292.6,327.9,291,327,290.1,325.9Z"/><path class="cls-9" d="M337.1,253.9l-10.8-1.4-6.6-2.8c2.3-.7,3.8-1.5,5.4-1.5a78.5,78.5,0,0,1,10.8.8c1.3.2,2.4,1.3,3.6,1.9Z"/><path class="cls-9" d="M308.7,252.1l-2.6.5Z"/><path class="cls-10" d="M384,237.1l-2.8,3.2a13.5,13.5,0,1,1-21.1-16.8,13.5,13.5,0,0,1,19.5-1.1c1.1.9,2.3,1.7,3.5,2.5Zm-3-2.3c0-.6.1-1.2.1-1.8,1.1-5.4-1.6-9.9-7-11.6s-12.2.6-13.9,6.2c-.8,2.5.2,5.6.4,8.4.5,5.2,4.3,6.7,8.5,7.4s9.1-1.9,11.5-7.3A6.5,6.5,0,0,1,381,234.8Z"/><path class="cls-10" d="M305.5,258.4c-5.9,4.4-11.3,8.9-17.3,12.5-1.4.9-4.8-1.5-7.5-2.5C285.5,259.7,301.5,254.1,305.5,258.4Z"/><path class="cls-11" d="M332,352.2c-.5,5.4-8.5,14.4-15.3,15.3L329,353.9Z"/><path class="cls-30" d="M305.5,233.9c-2.9-3.2-1.5-7,.8-9s6.6-3.5,10.2-4.7c1.3-.5,3.1.1,4.7.3h.1c1.4,2.6,2.9,5.2,4.1,7.9.3.6-.2,1.6-.4,2.5h-3c-1.2-1.9-2-4.5-3.7-5.5s-5.1-1.3-6.3-.2-4.6,5.6-2.9,9.6Z"/><path class="cls-11" d="M305.5,233.9l3.6,1c4.3,4.2,8.8,3.6,12.2-1.8l.6-1.3a1.9,1.9,0,0,1,.1-.8h3c-.5,6.2-3.3,9.6-8.7,10.2S307.4,239.5,305.5,233.9Z"/><path class="cls-1" d="M311.6,335.9l-5.8-1.5Z"/><path class="cls-1" d="M305.9,334.6l-2.5-1.2Z"/><path class="cls-28" d="M322,344.8l2.1-.5Z"/><path class="cls-30" d="M360.6,236c-.2-2.8-1.2-5.9-.4-8.4,1.7-5.6,7.9-8,13.9-6.2s8.1,6.2,7,11.6l-3.5-1c-.2-.4-.3-.9-.5-1.4-1.6-3.7-4-5.8-8.5-5s-4.4,3.8-4.3,7.1a18.6,18.6,0,0,1-.5,3.4Z"/><path class="cls-11" d="M360.6,236h3.2c2.3,2.9,5.5,4.6,8.6,2.8s3.5-4.5,5.2-6.9l3.5,1c0,.6-.1,1.2-.1,1.8a6.5,6.5,0,0,0-.4,1.3c-2.4,5.4-6.3,8.1-11.5,7.3S361.1,241.2,360.6,236Z"/><path class="cls-30" d="M380.6,236.1a6.5,6.5,0,0,1,.4-1.3A6.5,6.5,0,0,0,380.6,236.1Z"/><path class="cls-17" d="M322,231a1.9,1.9,0,0,0-.1.8l-.6,1.3c-3.4,5.4-7.9,6-12.2,1.8-1.7-4,.3-7.3,2.9-9.6s4.6-.8,6.3.2S320.8,229.1,322,231Z"/><path class="cls-30" d="M321.3,233.1l.6-1.3Z"/><path class="cls-17" d="M377.6,232c-1.7,2.4-2.9,5.5-5.2,6.9s-6.3.1-8.6-2.8a18.6,18.6,0,0,0,.5-3.4c-.1-3.3-.2-6.3,4.3-7.1s6.9,1.3,8.5,5C377.3,231.1,377.4,231.6,377.6,232Z"/></svg>